<svg width="168" height="30" viewBox="0 0 168 30" fill="none" xmlns="http://www.w3.org/2000/svg">
<path d="M69.581 17.4653C69.1271 17.4789 68.6755 17.3949 68.2576 17.219C67.8397 17.0432 67.4654 16.7796 67.1605 16.4467C66.4479 15.5217 66.1099 14.3669 66.2128 13.2084C66.1106 12.0499 66.4485 10.8953 67.1605 9.97009C67.4743 9.64796 67.8505 9.39173 68.2666 9.21671C68.6828 9.0417 69.1303 8.95149 69.5825 8.95149C70.0346 8.95149 70.4822 9.0417 70.8983 9.21671C71.3145 9.39173 71.6907 9.64796 72.0045 9.97009C72.7164 10.8953 73.0543 12.0499 72.9521 13.2084C73.055 14.3669 72.7171 15.5217 72.0045 16.4467C71.6992 16.78 71.3243 17.0437 70.9059 17.2195C70.4874 17.3954 70.0354 17.4792 69.581 17.4653ZM69.581 6.97468C68.4378 6.96291 67.2978 7.09648 66.189 7.3721C65.238 7.60566 64.3388 8.01086 63.5364 8.56733C62.7904 9.09609 62.1825 9.79319 61.7631 10.6008C61.3438 11.4084 61.125 12.3033 61.125 13.2113C61.125 14.1193 61.3438 15.0142 61.7631 15.8218C62.1825 16.6295 62.7904 17.3266 63.5364 17.8553C64.3391 18.4108 65.2383 18.8155 66.189 19.0491C68.4137 19.578 70.7334 19.578 72.9581 19.0491C73.9181 18.8189 74.8262 18.4135 75.636 17.8538C76.3662 17.335 76.965 16.6558 77.3855 15.8697C77.7995 15.0428 78.0148 14.1326 78.0148 13.2099C78.0148 12.2871 77.7995 11.3769 77.3855 10.55C76.9652 9.7637 76.3664 9.08452 75.636 8.56585C74.8262 8.0062 73.9181 7.60086 72.9581 7.37063C71.8546 7.09649 70.7202 6.96294 69.5825 6.97321" fill="#303846"/>
<path d="M81.2045 0.0390625H80.6094V21.609C80.8117 21.6089 81.0126 21.6412 81.2045 21.7047V0.0390625ZM82.0971 0.0390625H81.502V21.8313C81.7327 21.9551 81.9352 22.1244 82.0971 22.3288V0.0390625ZM82.9897 0.0390625H82.3946V22.8763C82.4601 23.0684 82.4932 23.2698 82.4928 23.4725H82.9897V0.0390625ZM84.7289 0.0390625H83.2873V23.4754H86.6123V12.1061H91.1379V9.46836H86.6123V1.88047C86.1166 1.8805 85.6409 1.68721 85.2883 1.3425C84.9357 0.997786 84.7347 0.529454 84.7289 0.0390625Z" fill="#303846"/>
<path d="M72.5811 0.0273438H66.5782V3.85441H59.5859V4.5109H59.5993C60.0992 4.5109 60.5787 4.70739 60.9322 5.05713C61.2857 5.40688 61.4843 5.88124 61.4843 6.37586V6.38469H79.4157V3.85588H72.5811V0.0288156V0.0273438Z" fill="#303846"/>
<path d="M69.6324 20.5469H63.6265V27.0058C63.6109 27.441 63.7143 27.8723 63.9259 28.2542C64.1375 28.6361 64.4494 28.9544 64.8286 29.1754C65.566 29.6117 66.4124 29.8346 67.2714 29.8187H87.0878V27.1824H83.2822V29.8216H82.9847V27.1824H82.3896V29.8216H82.092V27.1824H81.4969V29.8216H81.1994V27.1824H69.8705C69.7978 27.1899 69.7244 27.1782 69.6577 27.1486L69.6324 26.9778V20.5469Z" fill="#303846"/>
<path d="M81.5002 0.0429688H81.2031V21.7129C81.3055 21.7469 81.4049 21.7892 81.5002 21.8395V0.0429688Z" fill="#FEFEFE"/>
<path d="M82.3908 0.0429688H82.0938V22.3326C82.2229 22.4975 82.3233 22.6825 82.3908 22.8802V0.0429688Z" fill="#FEFEFE"/>
<path d="M83.2892 0.0429688H82.9922V23.4763H83.2892V0.0429688Z" fill="#FEFEFE"/>
<path d="M81.5002 27.1875H81.2031V29.8267H81.5002V27.1875Z" fill="#FEFEFE"/>
<path d="M82.3908 27.1875H82.0938V29.8267H82.3908V27.1875Z" fill="#FEFEFE"/>
<path d="M83.2892 27.1875H82.9922V29.8267H83.2892V27.1875Z" fill="#FEFEFE"/>
<path d="M23.4136 0.0195312H22.8185V16.5186C21.7176 16.7085 20.218 16.8675 19.126 16.9764C17.5654 17.1324 15.7445 17.2119 13.7152 17.2119H0V17.9891C0.499143 17.9891 0.977908 18.185 1.33127 18.5337C1.68464 18.8825 1.88375 19.3558 1.88493 19.8496H8.34458V29.51H14.3475V19.8481C16.2562 19.8334 17.9909 19.7481 19.5084 19.592C20.889 19.4522 22.0152 19.3271 22.8245 19.2034V28.1205C23.0266 28.1197 23.2275 28.151 23.4196 28.2132V0.0195312H23.4136ZM24.3122 0.0195312H23.7171V28.3398C23.9479 28.4622 24.1505 28.6306 24.3122 28.8344V0.0195312ZM26.9544 0.0195312H25.5024V29.9855H25.2048V0.0195312H24.6097V29.3731C24.6787 29.5701 24.7139 29.777 24.7139 29.9855H28.8319V29.3893L28.8229 1.87713C28.3259 1.87519 27.8498 1.67876 27.4986 1.33073C27.1474 0.982698 26.9496 0.51133 26.9484 0.0195312" fill="#303846"/>
<path d="M11.1964 13.6136C10.6421 13.6177 10.0928 13.5095 9.58224 13.2957C9.06811 13.0749 8.61766 12.7309 8.27156 12.2948C7.86924 11.7855 7.57109 11.2036 7.39381 10.5814C7.1644 9.78179 7.05611 8.95289 7.07247 8.12181C7.05614 7.2917 7.16443 6.46378 7.39381 5.66513C7.57141 5.04268 7.86951 4.46029 8.27156 3.95031C8.61858 3.51543 9.06881 3.17211 9.58224 2.95085C10.0939 2.74095 10.6425 2.63291 11.1964 2.63291C11.7504 2.63291 12.2989 2.74095 12.8106 2.95085C13.324 3.17211 13.7742 3.51543 14.1212 3.95031C14.5231 4.46081 14.8221 5.04297 15.002 5.66513C15.2294 6.46317 15.3377 7.28983 15.3233 8.11887C15.3391 8.94972 15.2318 9.77838 15.0049 10.5785C14.8254 11.2003 14.5264 11.7821 14.1242 12.2918C13.7781 12.728 13.3277 13.072 12.8135 13.2928C12.3031 13.5068 11.7537 13.615 11.1994 13.6107L11.1964 13.6136ZM11.1994 0.57513C9.88659 0.55997 8.57856 0.734014 7.31645 1.09178C6.22666 1.40077 5.20524 1.90957 4.30532 2.5917C3.47737 3.23237 2.80867 4.05209 2.35047 4.98803C1.88539 5.96686 1.65089 7.03736 1.66463 8.11887C1.65118 9.1994 1.88568 10.2689 2.35047 11.2468C2.80775 12.182 3.47483 13.0016 4.30086 13.6431C5.20135 14.3261 6.22391 14.8349 7.31496 15.143C8.57654 15.5009 9.88409 15.6749 11.1964 15.6597C12.5097 15.6746 13.8182 15.5006 15.0808 15.143C16.1713 14.8359 17.1931 14.3269 18.092 13.6431C18.9188 13.0024 19.5861 12.1826 20.0423 11.2468C20.5071 10.2689 20.7416 9.1994 20.7282 8.11887C20.7419 7.03736 20.5074 5.96686 20.0423 4.98803C19.586 4.05177 18.9182 3.23187 18.0905 2.5917C17.192 1.909 16.1714 1.40013 15.0823 1.09178C13.8191 0.734325 12.5102 0.560289 11.1964 0.57513" fill="#303846"/>
<path opacity="0.996" d="M23.7111 0.0117188H23.4141V0.0176068H23.4155H23.7111V0.0117188Z" fill="white"/>
<path d="M23.7111 0.015625H23.4141V28.2093C23.5166 28.2429 23.6159 28.2853 23.7111 28.3358V0.015625Z" fill="#FEFEFE"/>
<path opacity="0.996" d="M24.6017 0.0117188H24.3047V0.0176068H24.6017V0.0117188Z" fill="white"/>
<path d="M24.6017 0.015625H24.3047V28.8304C24.4334 28.9923 24.5338 29.1744 24.6017 29.3691V0.015625Z" fill="#FEFEFE"/>
<path opacity="0.996" d="M25.5002 0.0117188H25.2031V0.0176068H25.5002V0.0117188Z" fill="white"/>
<path d="M25.5002 0.015625H25.2031V29.9815H25.5002V0.015625Z" fill="#FEFEFE"/>
<path d="M57.7947 12.5051V12.7994H45.2459V12.5051H57.7947ZM57.7947 11.6219V11.9163H45.2459V11.6219H57.7947ZM57.7947 10.7387V11.0331H45.2459V10.7387H57.7947ZM55.9098 0.0273438H52.1132V10.4561H50.0914V2.03214H50.0393C49.7918 2.03214 49.5466 1.9839 49.318 1.89018C49.0893 1.79645 48.8815 1.65908 48.7064 1.4859C48.5314 1.31273 48.3926 1.10714 48.2978 0.880868C48.2031 0.654601 48.1544 0.412089 48.1544 0.167179H45.2459V20.7421C44.2812 20.963 43.2992 21.1019 42.3106 21.1572C41.1576 21.219 39.8842 21.2499 38.5259 21.2499H36.5353C36.4591 21.2573 36.3823 21.2451 36.3122 21.2146L36.2958 21.0762V4.26803H44.3116V1.62882H30.6127V21.0777C30.5892 21.5204 30.6898 21.961 30.9035 22.3506C31.1172 22.7403 31.4357 23.0639 31.8237 23.2856C32.5557 23.6944 33.3845 23.9027 34.2249 23.8891H37.9442C39.5271 23.8891 40.9806 23.8464 42.266 23.761C43.2655 23.6963 44.2595 23.5655 45.2414 23.3695V27.6382H45.2489C45.7484 27.6382 46.2274 27.8345 46.5807 28.184C46.9339 28.5334 47.1323 29.0074 47.1323 29.5016V29.5164H50.0869V13.0938H52.1087V28.1371H52.1176C52.6168 28.1371 53.0955 28.333 53.4489 28.6818C53.8023 29.0306 54.0014 29.5038 54.0026 29.9977H57.7918V1.88347C57.2934 1.88348 56.8153 1.6882 56.462 1.34036C56.1088 0.992524 55.9092 0.52043 55.9068 0.0273438" fill="#303846"/>
<path d="M45.25 10.7383V11.0327V10.7383ZM57.8003 10.7383V11.0327V10.7383Z" fill="#303846"/>
<path d="M45.25 11.6172V11.9116V11.6172ZM57.8003 11.6172V11.9116V11.6172Z" fill="#303846"/>
<path d="M45.25 12.5039V12.7983V12.5039ZM57.8003 12.5039V12.7983V12.5039Z" fill="#303846"/>
<path d="M57.7989 10.7344H45.25V11.0273H57.8003L57.7989 10.7344Z" fill="#FEFEFE"/>
<path d="M57.7989 11.6172H45.25V11.9116H57.8003L57.7989 11.6172Z" fill="#FEFEFE"/>
<path d="M57.7989 12.5H45.25V12.7929H57.8003L57.7989 12.5Z" fill="#FEFEFE"/>
<path d="M141.558 1.18359H135.254V9.53984C135.262 10.7663 135.134 11.99 134.872 13.1888C134.625 14.2914 134.218 15.3529 133.664 16.3402C133.074 17.3699 132.339 18.3115 131.482 19.1369C130.468 20.1049 129.345 20.9535 128.134 21.6658L127.539 22.0279L127.869 22.6417L128.674 24.1327L128.972 24.6906L129.574 24.4816C130.768 24.0655 131.921 23.5417 133.018 22.9169C134.098 22.3043 135.121 21.6 136.077 20.812C137.011 20.0408 137.859 19.1728 138.606 18.2229C139.065 17.6379 139.476 17.0183 139.836 16.3697L144.31 23.3291L144.736 23.9885L145.375 23.5278L148.553 21.2418L149.193 20.7811L148.69 20.1776L143.822 14.3443C143.329 13.7224 142.653 13.2664 141.888 13.0387C141.664 12.9802 141.435 12.9471 141.204 12.94C141.431 11.972 141.546 10.9813 141.546 9.98732V1.18359" fill="#C59249"/>
<path d="M150.635 0.0273438H149.742V28.1327C150.054 28.1329 150.361 28.2098 150.635 28.3565V0.0273438ZM151.527 0.0273438H150.932V28.5537C151.208 28.7757 151.415 29.0708 151.527 29.4045V0.0273438ZM153.872 0.0273438H152.718V29.9977H152.42V0.0273438H151.825V29.9977H155.739V13.135H160.265V10.2015H155.739V1.89377C155.242 1.8895 154.768 1.69129 154.418 1.34228C154.068 0.993271 153.872 0.521723 153.872 0.0302881" fill="#C59249"/>
<path d="M150.938 0.0234375H150.641V28.3525C150.746 28.4084 150.845 28.4745 150.938 28.5497V0.0234375Z" fill="#FFFFFE"/>
<path d="M151.828 0.0234375H151.531V29.4005C151.596 29.5902 151.629 29.7891 151.629 29.9893H151.828V0.0234375Z" fill="#FFFFFE"/>
<path d="M152.727 0.0234375H152.43V29.9937H152.727V0.0234375Z" fill="#FFFFFE"/>
<path d="M117.05 0.738281H98.5216V1.8128H98.5305C99.0299 1.81163 99.5094 2.00659 99.8636 2.35487C100.218 2.70316 100.418 3.1763 100.42 3.6704H104.719V5.60013C104.734 6.56612 104.571 7.52672 104.239 8.4351C103.921 9.26666 103.456 10.0357 102.866 10.7063C102.225 11.4221 101.485 12.0441 100.667 12.5536C99.7247 13.1437 98.7385 13.6618 97.7167 14.1036L97.0859 14.3803L97.318 15.0235L97.8313 16.4528L98.0559 17.0754L98.7061 16.9209C99.8104 16.6583 100.895 16.3189 101.951 15.9052C102.99 15.5006 103.995 15.0174 104.959 14.4598C105.888 13.923 106.76 13.2942 107.561 12.5831C108.117 12.0857 108.624 11.5377 109.075 10.9462L115.093 16.4366L115.642 16.9371L116.147 16.3925L118.229 14.1374L118.762 13.5634L118.15 13.0703L112.954 8.87963C112.374 8.4186 111.671 8.13562 110.931 8.06564L110.618 8.05239H110.59C110.642 7.88901 110.691 7.72562 110.739 7.55782C110.93 6.82766 111.025 6.07616 111.021 5.32193V3.6704H117.057V0.738281" fill="#C59249"/>
<path d="M120.346 0.0273438H119.742V15.2797H119.776C119.97 15.28 120.162 15.3103 120.346 15.3695V0.0273438ZM121.239 0.0273438H120.644V15.4916C120.873 15.6105 121.076 15.7748 121.239 15.9744V0.0273438ZM122.131 0.0273438H121.536V16.4837C121.617 16.6915 121.659 16.9119 121.66 17.1343H122.131V0.0273438ZM123.868 0.0273438H122.429V17.1343H125.751V1.88347C125.253 1.88386 124.775 1.68867 124.421 1.3407C124.068 0.992737 123.869 0.520415 123.868 0.0273438Z" fill="#C59249"/>
<path d="M108.257 27.2159H108.167V24.3382H119.742V27.2159H108.257ZM125.74 18.4062H122.418V29.9934H122.121V18.4062H121.526V29.9934H121.228V18.4062H120.633V29.9934H120.335V18.4062H119.74V21.4134H108.166V18.4062H102.142V27.0451C102.126 27.5041 102.236 27.9588 102.459 28.3614C102.682 28.764 103.011 29.0995 103.411 29.3325C104.175 29.7822 105.051 30.0111 105.94 29.9934H125.74V18.4062Z" fill="#C59249"/>
<path d="M120.641 0.0234375H120.344V15.364C120.447 15.3958 120.546 15.4372 120.641 15.4877V0.0234375Z" fill="#FFFFFE"/>
<path d="M121.531 0.0234375H121.234V15.9675C121.36 16.1207 121.46 16.2926 121.531 16.4768V0.0234375Z" fill="#FFFFFE"/>
<path d="M122.43 0.0234375H122.133V17.1304H122.43V0.0234375Z" fill="#FFFFFE"/>
<path d="M120.641 18.4062H120.492H120.344V29.9934H120.641V18.4062Z" fill="#FFFFFE"/>
<path d="M121.531 18.4062H121.234V29.9934H121.531V18.4062Z" fill="#FFFFFE"/>
<path d="M122.43 18.4062H122.133V29.9934H122.43V18.4062Z" fill="#FFFFFE"/>
<path d="M166.623 29.5379H164.499C164.447 29.6689 164.379 29.7934 164.298 29.9089C164.536 29.9674 164.78 29.9971 165.025 29.9972C165.591 29.9984 166.146 29.8391 166.623 29.5379ZM167.523 28.6548H164.621C164.628 28.7203 164.631 28.7861 164.631 28.852C164.631 28.9836 164.617 29.1148 164.589 29.2435H167.014C167.21 29.0705 167.381 28.8725 167.523 28.6548ZM167.911 27.7716H164.283C164.411 27.9501 164.507 28.1494 164.566 28.3604H167.69C167.784 28.1726 167.858 27.9752 167.908 27.7716H167.911ZM165.022 24.1094C164.233 24.1094 163.476 24.4195 162.918 24.9716C162.36 25.5237 162.047 26.2725 162.047 27.0533V27.118C162.376 26.9891 162.736 26.9544 163.084 27.0179C163.432 27.0814 163.755 27.2405 164.017 27.4772H167.966C167.986 27.3367 167.996 27.1951 167.996 27.0533C167.996 26.2725 167.683 25.5237 167.125 24.9716C166.567 24.4195 165.81 24.1094 165.021 24.1094" fill="#C59249"/>
<path d="M167.973 27.4805C167.959 27.5796 167.939 27.6779 167.914 27.7749C167.939 27.6779 167.959 27.5796 167.973 27.4805Z" fill="#C59249"/>
<path d="M167.693 28.3633C167.642 28.4648 167.586 28.5631 167.523 28.6577C167.586 28.5631 167.642 28.4648 167.693 28.3633Z" fill="#C59249"/>
<path d="M167.966 27.4805H164.016C164.113 27.5694 164.201 27.6681 164.277 27.7749H167.906C167.931 27.6779 167.951 27.5796 167.966 27.4805Z" fill="#FFFFFE"/>
<path d="M167.687 28.3633H164.562C164.588 28.4599 164.607 28.5583 164.618 28.6577H167.511C167.574 28.5631 167.63 28.4648 167.681 28.3633" fill="#FFFFFE"/>
<path opacity="0.996" d="M167.008 29.2461C166.886 29.3549 166.756 29.4534 166.617 29.5405C166.756 29.4534 166.886 29.3549 167.008 29.2461Z" fill="white"/>
<path d="M167.008 29.2461H164.583C164.561 29.3466 164.531 29.4451 164.492 29.5405H166.618C166.757 29.4534 166.888 29.3549 167.009 29.2461" fill="#FFFFFE"/>
</svg>
