<svg width="24" height="20" viewBox="0 0 24 20" fill="none" xmlns="http://www.w3.org/2000/svg">
<path fill-rule="evenodd" clip-rule="evenodd" d="M0.8 10.7999C1.24183 10.7999 1.6 11.1581 1.6 11.5999V17.1999C1.6 17.6417 1.95817 17.9999 2.4 17.9999H21.6C22.0418 17.9999 22.4 17.6417 22.4 17.1999V11.5999C22.4 11.1581 22.7582 10.7999 23.2 10.7999C23.6418 10.7999 24 11.1581 24 11.5999V17.1999C24 18.5254 22.9255 19.5999 21.6 19.5999H2.4C1.07452 19.5999 0 18.5254 0 17.1999V11.5999C0 11.1581 0.358172 10.7999 0.8 10.7999Z" fill="white"/>
<path fill-rule="evenodd" clip-rule="evenodd" d="M11.4343 0.634217C11.7467 0.321797 12.2533 0.321797 12.5657 0.634217L17.6569 5.72539C17.9693 6.0378 17.9693 6.54434 17.6569 6.85676C17.3444 7.16918 16.8379 7.16918 16.5255 6.85676L12.8 3.13127V12.3999C12.8 12.8417 12.4418 13.1999 12 13.1999C11.5582 13.1999 11.2 12.8417 11.2 12.3999L11.2 3.13127L7.47452 6.85676C7.1621 7.16918 6.65557 7.16918 6.34315 6.85676C6.03073 6.54434 6.03073 6.03781 6.34315 5.72539L11.4343 0.634217Z" fill="white"/>
</svg>
