<svg width="8" height="8" viewBox="0 0 8 8" fill="none" xmlns="http://www.w3.org/2000/svg">
<path d="M0.117157 7.31716C-0.0390524 7.47337 -0.0390524 7.72663 0.117157 7.88284C0.273367 8.03905 0.526633 8.03905 0.682843 7.88284L4 4.56569L7.31716 7.88284C7.47337 8.03905 7.72663 8.03905 7.88284 7.88284C8.03905 7.72663 8.03905 7.47337 7.88284 7.31716L4.56569 4L7.88284 0.682843C8.03905 0.526633 8.03905 0.273367 7.88284 0.117157C7.72663 -0.0390524 7.47337 -0.0390524 7.31716 0.117157L4 3.43431L0.682843 0.117158C0.526633 -0.0390519 0.273367 -0.0390519 0.117157 0.117158C-0.0390524 0.273367 -0.0390524 0.526633 0.117157 0.682843L3.43431 4L0.117157 7.31716Z" fill="black" fill-opacity="0.3"/>
</svg>
