<svg width="77" height="43" viewBox="0 0 77 43" fill="none" xmlns="http://www.w3.org/2000/svg">
<path d="M4 0C1.79086 0 0 1.79086 0 4V32C0 34.2091 1.79086 36 4 36H60.7952L63.704 41.8176C63.8883 42.1861 64.4142 42.1861 64.5984 41.8176L67.5072 36H73C75.2091 36 77 34.2091 77 32V4C77 1.79086 75.2091 0 73 0H4Z" fill="white" fill-opacity="0.65"/>
<path d="M62.0276 33.9079L61.965 33.75H61.7952H6C3.92893 33.75 2.25 32.0711 2.25 30V6C2.25 3.92893 3.92893 2.25 6 2.25H71C73.0711 2.25 74.75 3.92893 74.75 6V30C74.75 32.0711 73.0711 33.75 71 33.75H66.5072H66.3374L66.2748 33.9079L64.3706 38.7138C64.2764 38.8874 64.026 38.8874 63.9318 38.7138L62.0276 33.9079Z" stroke="#313A48" stroke-width="0.5"/>
</svg>
