<svg width="220" height="54" viewBox="0 0 220 54" fill="none" xmlns="http://www.w3.org/2000/svg">
<path d="M91.8543 29.7786C91.3398 29.794 90.828 29.6992 90.3543 29.5006C89.8807 29.302 89.4563 29.0044 89.1107 28.6284C88.303 27.584 87.9199 26.2799 88.0365 24.9717C87.9207 23.6635 88.3037 22.3597 89.1107 21.3149C89.4664 20.9512 89.8928 20.6618 90.3645 20.4642C90.8362 20.2666 91.3435 20.1647 91.856 20.1647C92.3686 20.1647 92.8759 20.2666 93.3476 20.4642C93.8193 20.6618 94.2457 20.9512 94.6014 21.3149C95.4084 22.3597 95.7914 23.6635 95.6755 24.9717C95.7922 26.2799 95.4091 27.584 94.6014 28.6284C94.2553 29.0048 93.8304 29.3025 93.3561 29.5011C92.8818 29.6997 92.3694 29.7944 91.8543 29.7786ZM91.8543 17.9325C90.5585 17.9192 89.2664 18.07 88.0096 18.3812C86.9316 18.645 85.9123 19.1025 85.0029 19.7309C84.1572 20.328 83.4682 21.1152 82.9928 22.0272C82.5175 22.9392 82.2695 23.9497 82.2695 24.975C82.2695 26.0003 82.5175 27.0108 82.9928 27.9228C83.4682 28.8348 84.1572 29.622 85.0029 30.2191C85.9127 30.8463 86.9319 31.3033 88.0096 31.5671C90.5312 32.1644 93.1606 32.1644 95.6823 31.5671C96.7704 31.3072 97.7998 30.8494 98.7176 30.2174C99.5453 29.6315 100.224 28.8646 100.701 27.9768C101.17 27.0432 101.414 26.0153 101.414 24.9733C101.414 23.9314 101.17 22.9035 100.701 21.9698C100.224 21.0819 99.5455 20.3149 98.7176 19.7292C97.7998 19.0973 96.7704 18.6396 95.6823 18.3796C94.4315 18.07 93.1456 17.9192 91.856 17.9308" fill="#313A48"/>
<path d="M105.026 10.1022H104.352V34.4594C104.581 34.4593 104.809 34.4958 105.026 34.5674V10.1022ZM106.038 10.1022H105.363V34.7103C105.625 34.8502 105.854 35.0414 106.038 35.2721V10.1022ZM107.05 10.1022H106.375V35.8905C106.449 36.1074 106.487 36.3348 106.486 36.5636H107.05V10.1022ZM109.021 10.1022H107.387V36.567H111.156V23.7285H116.286V20.7499H111.156V12.1815C110.594 12.1816 110.055 11.9633 109.655 11.574C109.255 11.1848 109.028 10.6559 109.021 10.1022Z" fill="#313A48"/>
<path d="M95.2612 10.0859H88.4569V14.4075H80.5312V15.1489H80.5464C81.1131 15.1489 81.6565 15.3707 82.0572 15.7657C82.4579 16.1606 82.683 16.6963 82.683 17.2548V17.2648H103.008V14.4092H95.2612V10.0876V10.0859Z" fill="#313A48"/>
<path d="M91.911 33.2627H85.1033V40.5562C85.0856 41.0477 85.2028 41.5347 85.4426 41.966C85.6825 42.3972 86.036 42.7566 86.4659 43.0062C87.3017 43.4989 88.261 43.7505 89.2348 43.7326H111.696V40.7557H107.383V43.7359H107.046V40.7557H106.371V43.7359H106.034V40.7557H105.359V43.7359H105.022V40.7557H92.1808C92.0984 40.7641 92.0152 40.7509 91.9396 40.7174L91.911 40.5246V33.2627Z" fill="#313A48"/>
<path d="M105.365 10.1022H105.027V34.5724C105.144 34.6107 105.256 34.6585 105.365 34.7153V10.1022Z" fill="#FEFEFE"/>
<path d="M106.38 10.1022H106.043V35.2721C106.19 35.4583 106.304 35.6673 106.38 35.8905V10.1022Z" fill="#FEFEFE"/>
<path d="M107.388 10.1022H107.051V36.5636H107.388V10.1022Z" fill="#FEFEFE"/>
<path d="M105.365 40.7556H105.027V43.7359H105.365V40.7556Z" fill="#FEFEFE"/>
<path d="M106.38 40.7555H106.043V43.7357H106.38V40.7555Z" fill="#FEFEFE"/>
<path d="M107.388 40.7555H107.051V43.7357H107.388V40.7555Z" fill="#FEFEFE"/>
<path d="M39.5236 10.0808H38.8491V28.7119C37.6012 28.9263 35.9014 29.1058 34.6636 29.2288C32.8947 29.405 30.8306 29.4947 28.5305 29.4947H12.9844V30.3724C13.5502 30.3724 14.0928 30.5936 14.4934 30.9874C14.8939 31.3813 15.1196 31.9157 15.1209 32.4733H22.4429V43.382H29.2472V32.4717C31.4107 32.455 33.377 32.3586 35.097 32.1824C36.6619 32.0245 37.9385 31.8833 38.8558 31.7436V41.813C39.0849 41.8121 39.3126 41.8474 39.5303 41.9177V10.0808H39.5236ZM40.5421 10.0808H39.8676V42.0606C40.1292 42.1988 40.3589 42.389 40.5421 42.6191V10.0808ZM43.537 10.0808H41.8912V43.9189H41.5539V10.0808H40.8794V43.2275C40.9576 43.4498 40.9975 43.6835 40.9974 43.9189H45.6652V43.2457L45.655 12.1784C45.0916 12.1763 44.552 11.9544 44.1539 11.5614C43.7558 11.1684 43.5316 10.6362 43.5303 10.0808" fill="#313A48"/>
<path d="M25.6721 25.4303C25.0437 25.4348 24.4211 25.3126 23.8424 25.0713C23.2596 24.822 22.7491 24.4335 22.3568 23.941C21.9007 23.366 21.5628 22.7088 21.3618 22.0063C21.1018 21.1033 20.979 20.1673 20.9976 19.2288C20.9791 18.2914 21.1018 17.3565 21.3618 16.4547C21.5631 15.7518 21.901 15.0942 22.3568 14.5183C22.7501 14.0272 23.2604 13.6395 23.8424 13.3897C24.4224 13.1526 25.0442 13.0306 25.6721 13.0306C26.2999 13.0306 26.9217 13.1526 27.5017 13.3897C28.0837 13.6395 28.594 14.0272 28.9873 14.5183C29.4429 15.0947 29.7818 15.7521 29.9856 16.4547C30.2434 17.3558 30.3662 18.2893 30.3499 19.2255C30.3677 20.1637 30.2462 21.0994 29.989 22.0029C29.7855 22.7051 29.4466 23.362 28.9907 23.9377C28.5984 24.4302 28.0878 24.8187 27.5051 25.068C26.9265 25.3096 26.3038 25.4318 25.6754 25.427L25.6721 25.4303ZM25.6754 10.707C24.1874 10.6898 22.7047 10.8864 21.2741 11.2904C20.0389 11.6393 18.8811 12.2138 17.861 12.9841C16.9226 13.7076 16.1646 14.6332 15.6452 15.6901C15.1181 16.7954 14.8523 18.0042 14.8678 19.2255C14.8526 20.4457 15.1184 21.6533 15.6452 22.7576C16.1635 23.8137 16.9197 24.7392 17.856 25.4635C18.8767 26.2348 20.0358 26.8094 21.2725 27.1573C22.7024 27.5614 24.1846 27.7579 25.6721 27.7407C27.1606 27.7576 28.6438 27.5611 30.075 27.1573C31.3111 26.8105 32.4693 26.2357 33.4881 25.4635C34.4254 24.7401 35.1817 23.8144 35.6989 22.7576C36.2257 21.6533 36.4915 20.4457 36.4763 19.2255C36.4919 18.0042 36.226 16.7954 35.6989 15.6901C35.1816 14.6329 34.4246 13.707 33.4864 12.9841C32.468 12.2132 31.3112 11.6386 30.0767 11.2904C28.6449 10.8867 27.1612 10.6902 25.6721 10.707" fill="#313A48"/>
<path opacity="0.996" d="M39.8607 10.0737H39.5234V10.0804H39.5251H39.8607V10.0737Z" fill="white"/>
<path d="M39.8607 10.0803H39.5234V41.9172C39.6398 41.9552 39.7526 42.003 39.8607 42.0601V10.0803Z" fill="#FEFEFE"/>
<path opacity="0.996" d="M40.8763 10.0737H40.5391V10.0804H40.8763V10.0737Z" fill="white"/>
<path d="M40.8763 10.0802H40.5391V42.6185C40.6852 42.8013 40.7992 43.0069 40.8763 43.2268V10.0802Z" fill="#FEFEFE"/>
<path opacity="0.996" d="M41.8841 10.0737H41.5469V10.0804H41.8841V10.0737Z" fill="white"/>
<path d="M41.8841 10.0802H41.5469V43.9183H41.8841V10.0802Z" fill="#FEFEFE"/>
<path d="M78.502 24.176V24.5084H64.2779V24.176H78.502ZM78.502 23.1787V23.5111H64.2779V23.1787H78.502ZM78.502 22.1814V22.5139H64.2779V22.1814H78.502ZM76.3654 10.0859H72.0619V21.8623H69.7702V12.3498H69.7112C69.4306 12.3498 69.1528 12.2953 68.8936 12.1895C68.6344 12.0836 68.3988 11.9285 68.2004 11.733C68.002 11.5374 67.8447 11.3053 67.7373 11.0498C67.6299 10.7942 67.5746 10.5204 67.5746 10.2438H64.2779V33.4774C63.1845 33.7269 62.0714 33.8837 60.9508 33.9461C59.6439 34.0159 58.2004 34.0508 56.6608 34.0508H54.4045C54.3181 34.0592 54.231 34.0454 54.1516 34.011L54.133 33.8547V14.8746H63.2189V11.8944H47.6913V33.8564C47.6646 34.3563 47.7787 34.8538 48.0209 35.2938C48.2632 35.7338 48.6242 36.0992 49.064 36.3496C49.8936 36.8113 50.8331 37.0465 51.7857 37.0311H56.0015C57.7957 37.0311 59.4432 36.9829 60.9002 36.8865C62.0332 36.8134 63.1599 36.6657 64.2728 36.4443V41.2646H64.2813C64.8475 41.2646 65.3905 41.4863 65.7909 41.8809C66.1912 42.2756 66.4161 42.8108 66.4161 43.3689V43.3855H69.7652V24.8409H72.0569V41.8281H72.067C72.6328 41.8281 73.1754 42.0492 73.576 42.4431C73.9765 42.837 74.2022 43.3714 74.2036 43.929H78.4986V12.1819C77.9337 12.1819 77.3918 11.9614 76.9914 11.5686C76.591 11.1758 76.3647 10.6427 76.362 10.0859" fill="#313A48"/>
<path d="M64.2734 22.1813V22.5137V22.1813ZM78.4992 22.1813V22.5137V22.1813Z" fill="#313A48"/>
<path d="M64.2734 23.1771V23.5096V23.1771ZM78.4992 23.1771V23.5096V23.1771Z" fill="#313A48"/>
<path d="M64.2734 24.1754V24.5078V24.1754ZM78.4992 24.1754V24.5078V24.1754Z" fill="#313A48"/>
<path d="M78.4975 22.1813H64.2734V22.512H78.4992L78.4975 22.1813Z" fill="#FEFEFE"/>
<path d="M78.4975 23.1769H64.2734V23.5093H78.4992L78.4975 23.1769Z" fill="#FEFEFE"/>
<path d="M78.4975 24.1759H64.2734V24.5067H78.4992L78.4975 24.1759Z" fill="#FEFEFE"/>
<path d="M173.437 11.3942H166.292V20.8302C166.301 22.2152 166.156 23.5969 165.859 24.9507C165.579 26.1958 165.118 27.3944 164.489 28.5093C163.82 29.672 162.988 30.7353 162.016 31.6674C160.867 32.7605 159.594 33.7187 158.221 34.523L157.547 34.9319L157.921 35.625L158.834 37.3088L159.171 37.9387L159.854 37.7027C161.207 37.2328 162.514 36.6414 163.758 35.9358C164.981 35.244 166.141 34.4488 167.225 33.559C168.283 32.6881 169.244 31.7079 170.091 30.6352C170.611 29.9747 171.077 29.275 171.486 28.5426L176.557 36.4012L177.039 37.1459L177.764 36.6256L181.366 34.0443L182.091 33.5241L181.521 32.8426L176.004 26.2555C175.444 25.5532 174.679 25.0384 173.811 24.7811C173.558 24.7151 173.298 24.6777 173.036 24.6698C173.294 23.5766 173.424 22.4579 173.424 21.3355V11.3942" fill="#D29B4A"/>
<path d="M183.731 10.0859H182.719V41.8231C183.072 41.8233 183.42 41.9101 183.731 42.0757V10.0859ZM184.742 10.0859H184.068V42.2985C184.381 42.5491 184.615 42.8823 184.742 43.2592V10.0859ZM187.4 10.0859H186.091V43.929H185.754V10.0859H185.08V43.929H189.516V24.8874H194.646V21.5747H189.516V12.1935C188.953 12.1887 188.415 11.9649 188.019 11.5708C187.622 11.1767 187.4 10.6442 187.4 10.0893" fill="#D29B4A"/>
<path d="M184.064 10.0859H183.727V42.0757C183.846 42.1389 183.959 42.2135 184.064 42.2984V10.0859Z" fill="#FFFFFE"/>
<path d="M185.079 10.0859H184.742V43.2592C184.816 43.4734 184.853 43.6979 184.853 43.924H185.079V10.0859Z" fill="#FFFFFE"/>
<path d="M186.087 10.0859H185.75V43.929H186.087V10.0859Z" fill="#FFFFFE"/>
<path d="M145.66 10.8918H124.659V12.1052H124.669C125.235 12.1039 125.778 12.324 126.18 12.7173C126.581 13.1106 126.808 13.6449 126.81 14.2029H131.684V16.3819C131.7 17.4728 131.516 18.5575 131.139 19.5832C130.778 20.5222 130.251 21.3906 129.583 22.1479C128.856 22.9562 128.017 23.6585 127.09 24.2339C126.022 24.9002 124.904 25.4853 123.746 25.9842L123.031 26.2967L123.294 27.023L123.876 28.637L124.131 29.3401L124.868 29.1655C126.119 28.869 127.348 28.4857 128.545 28.0187C129.723 27.5618 130.863 27.0161 131.955 26.3864C133.009 25.7803 133.997 25.0702 134.905 24.2672C135.534 23.7056 136.109 23.0868 136.621 22.4189L143.442 28.6187L144.065 29.1838L144.636 28.5688L146.997 26.0224L147.601 25.3742L146.908 24.8174L141.017 20.0852C140.361 19.5646 139.563 19.2451 138.724 19.166L138.37 19.1511H138.338C138.397 18.9666 138.453 18.7821 138.507 18.5926C138.723 17.7681 138.831 16.9195 138.827 16.0678V14.2029H145.668V10.8918" fill="#D29B4A"/>
<path d="M149.392 10.0859H148.707V27.3092H148.746C148.965 27.3096 149.183 27.3438 149.392 27.4105V10.0859ZM150.403 10.0859H149.729V27.5485C149.989 27.6827 150.219 27.8683 150.403 28.0937V10.0859ZM151.415 10.0859H150.741V28.6688C150.832 28.9034 150.879 29.1523 150.881 29.4035H151.415V10.0859ZM153.383 10.0859H151.753V29.4035H155.518V12.1819C154.953 12.1824 154.411 11.9619 154.011 11.569C153.611 11.1761 153.385 10.6427 153.383 10.0859Z" fill="#D29B4A"/>
<path d="M135.702 40.7925H135.601V37.543H148.72V40.7925H135.702ZM155.52 30.8445H151.754V43.9289H151.417V30.8445H150.742V43.9289H150.405V30.8445H149.73V43.9289H149.393V30.8445H148.719V34.2403H135.599V30.8445H128.771V40.5997C128.753 41.1179 128.877 41.6314 129.13 42.086C129.383 42.5406 129.756 42.9195 130.21 43.1826C131.076 43.6904 132.069 43.9489 133.076 43.9289H155.52V30.8445Z" fill="#D29B4A"/>
<path d="M149.732 10.0859H149.395V27.4089C149.511 27.4448 149.624 27.4915 149.732 27.5485V10.0859Z" fill="#FFFFFE"/>
<path d="M150.747 10.0859H150.41V28.0904C150.553 28.2633 150.666 28.4574 150.747 28.6655V10.0859Z" fill="#FFFFFE"/>
<path d="M151.755 10.0859H151.418V29.4035H151.755V10.0859Z" fill="#FFFFFE"/>
<path d="M149.732 30.8446H149.563H149.395V43.9291H149.732V30.8446Z" fill="#FFFFFE"/>
<path d="M150.747 30.8445H150.41V43.9289H150.747V30.8445Z" fill="#FFFFFE"/>
<path d="M151.755 30.8445H151.418V43.9289H151.755V30.8445Z" fill="#FFFFFE"/>
<path d="M201.851 43.4154H199.443C199.384 43.5634 199.308 43.7039 199.215 43.8343C199.485 43.9004 199.762 43.9339 200.04 43.934C200.682 43.9354 201.31 43.7555 201.851 43.4154ZM202.871 42.4181H199.581C199.59 42.4921 199.594 42.5665 199.593 42.6409C199.593 42.7894 199.577 42.9376 199.546 43.083H202.295C202.516 42.8876 202.71 42.664 202.871 42.4181ZM203.312 41.4208H199.199C199.344 41.6225 199.452 41.8474 199.519 42.0857H203.06C203.167 41.8737 203.25 41.6507 203.308 41.4208H203.312ZM200.037 37.2854C199.142 37.2854 198.284 37.6356 197.652 38.2591C197.019 38.8825 196.664 39.728 196.664 40.6097V40.6828C197.037 40.5372 197.445 40.498 197.839 40.5697C198.234 40.6414 198.601 40.8212 198.897 41.0884H203.374C203.396 40.9298 203.408 40.7698 203.408 40.6097C203.408 39.728 203.052 38.8825 202.42 38.2591C201.787 37.6356 200.929 37.2854 200.035 37.2854" fill="#D29B4A"/>
<path d="M203.377 41.0883C203.361 41.2002 203.338 41.3112 203.309 41.4207C203.338 41.3112 203.361 41.2002 203.377 41.0883Z" fill="#D29B4A"/>
<path d="M203.059 42.0857C203.002 42.2003 202.938 42.3113 202.867 42.4181C202.938 42.3113 203.002 42.2003 203.059 42.0857Z" fill="#D29B4A"/>
<path d="M203.38 41.0881H198.902C199.013 41.1886 199.112 41.3 199.199 41.4206H203.312C203.341 41.3111 203.363 41.2001 203.38 41.0881Z" fill="#FFFFFE"/>
<path d="M203.065 42.0856H199.523C199.553 42.1947 199.574 42.3058 199.586 42.418H202.866C202.937 42.3112 203.001 42.2002 203.058 42.0856" fill="#FFFFFE"/>
<path opacity="0.996" d="M202.295 43.0826C202.157 43.2056 202.009 43.3168 201.852 43.4151C202.009 43.3168 202.157 43.2056 202.295 43.0826Z" fill="white"/>
<path d="M202.293 43.0826H199.544C199.52 43.1962 199.485 43.3074 199.441 43.4151H201.851C202.008 43.3168 202.157 43.2056 202.295 43.0826" fill="#FFFFFE"/>
</svg>
