<svg width="130" height="32" viewBox="0 0 130 32" fill="none" xmlns="http://www.w3.org/2000/svg">
<path d="M54.277 17.6468C53.973 17.6559 53.6706 17.5997 53.3907 17.482C53.1108 17.3643 52.86 17.188 52.6558 16.9652C52.1785 16.3463 51.9521 15.5735 52.0211 14.7982C51.9526 14.023 52.1789 13.2504 52.6558 12.6313C52.866 12.4157 53.1179 12.2442 53.3967 12.1271C53.6754 12.01 53.9752 11.9497 54.278 11.9497C54.5809 11.9497 54.8807 12.01 55.1594 12.1271C55.4381 12.2442 55.6901 12.4157 55.9003 12.6313C56.3771 13.2504 56.6034 14.023 56.535 14.7982C56.6039 15.5735 56.3776 16.3463 55.9003 16.9652C55.6958 17.1882 55.4447 17.3647 55.1644 17.4824C54.8842 17.6 54.5814 17.6561 54.277 17.6468ZM54.277 10.6268C53.5113 10.619 52.7478 10.7083 52.0051 10.8928C51.3681 11.0491 50.7658 11.3202 50.2284 11.6926C49.7287 12.0464 49.3216 12.5129 49.0407 13.0533C48.7598 13.5938 48.6133 14.1926 48.6133 14.8002C48.6133 15.4078 48.7598 16.0066 49.0407 16.5471C49.3216 17.0875 49.7287 17.554 50.2284 17.9078C50.7661 18.2795 51.3683 18.5503 52.0051 18.7066C53.4952 19.0606 55.0489 19.0606 56.539 18.7066C57.182 18.5526 57.7903 18.2813 58.3326 17.9068C58.8217 17.5596 59.2228 17.1052 59.5045 16.5791C59.7817 16.0258 59.926 15.4167 59.926 14.7992C59.926 14.1818 59.7817 13.5726 59.5045 13.0194C59.223 12.4932 58.8218 12.0387 58.3326 11.6916C57.7902 11.3171 57.182 11.0459 56.539 10.8918C55.7999 10.7084 55.0401 10.619 54.278 10.6259" fill="#303846"/>
<path d="M62.0587 5.98633H61.6602V20.4202C61.7956 20.4202 61.9302 20.4418 62.0587 20.4842V5.98633ZM62.6566 5.98633H62.258V20.5689C62.4125 20.6518 62.5482 20.7651 62.6566 20.9019V5.98633ZM63.2545 5.98633H62.8559V21.2683C62.8997 21.3968 62.9219 21.5316 62.9217 21.6672H63.2545V5.98633ZM64.4194 5.98633H63.4538V21.6692H65.6809V14.0612H68.7121V12.2961H65.6809V7.21854C65.3489 7.21856 65.0302 7.08921 64.7941 6.85854C64.5579 6.62787 64.4233 6.31448 64.4194 5.98633Z" fill="#303846"/>
<path d="M56.29 5.97656H52.2693V8.53751H47.5859V8.97681H47.5949C47.9297 8.97681 48.2509 9.10829 48.4876 9.34233C48.7244 9.57637 48.8574 9.8938 48.8574 10.2248V10.2307H60.8677V8.53849H56.29V5.97755V5.97656Z" fill="#303846"/>
<path d="M54.3128 19.7109H50.2901V24.033C50.2796 24.3243 50.3489 24.6129 50.4906 24.8684C50.6323 25.124 50.8412 25.337 51.0952 25.4849C51.5892 25.7768 52.156 25.926 52.7314 25.9153H66.0042V24.1512H63.4553V25.9173H63.256V24.1512H62.8574V25.9173H62.6581V24.1512H62.2596V25.9173H62.0603V24.1512H54.4722C54.4235 24.1562 54.3744 24.1484 54.3297 24.1286L54.3128 24.0143V19.7109Z" fill="#303846"/>
<path d="M62.2579 5.98633H62.0586V20.4872C62.1273 20.5099 62.1939 20.5382 62.2579 20.5719V5.98633Z" fill="#FEFEFE"/>
<path d="M62.8555 5.98633H62.6562V20.9019C62.7429 21.0122 62.8102 21.136 62.8555 21.2683V5.98633Z" fill="#FEFEFE"/>
<path d="M63.4532 5.98633H63.2539V21.6672H63.4532V5.98633Z" fill="#FEFEFE"/>
<path d="M62.2579 24.1514H62.0586V25.9174H62.2579V24.1514Z" fill="#FEFEFE"/>
<path d="M62.8555 24.1514H62.6562V25.9174H62.8555V24.1514Z" fill="#FEFEFE"/>
<path d="M63.4532 24.1514H63.2539V25.9174H63.4532V24.1514Z" fill="#FEFEFE"/>
<path d="M23.3541 5.97412H22.9556V17.0148C22.2182 17.1418 21.2137 17.2482 20.4823 17.3211C19.4371 17.4255 18.2174 17.4787 16.8582 17.4787H7.67188V17.9987C8.0062 17.9987 8.32687 18.1298 8.56355 18.3632C8.80023 18.5966 8.9336 18.9133 8.93439 19.2438H13.261V25.7082H17.2817V19.2428C18.5602 19.2329 19.722 19.1758 20.7384 19.0714C21.6632 18.9778 22.4175 18.8941 22.9595 18.8114V24.7784C23.0949 24.7778 23.2295 24.7988 23.3581 24.8404V5.97412H23.3541ZM23.956 5.97412H23.5574V24.9251C23.712 25.007 23.8477 25.1197 23.956 25.2561V5.97412ZM25.7257 5.97412H24.7532V26.0263H24.5539V5.97412H24.1553V25.6166C24.2015 25.7484 24.2251 25.8869 24.225 26.0263H26.9832V25.6274L26.9773 7.21716C26.6443 7.21586 26.3254 7.08442 26.0902 6.85153C25.855 6.61864 25.7225 6.30322 25.7217 5.97412" fill="#303846"/>
<path d="M15.1698 15.0703C14.7986 15.073 14.4306 15.0006 14.0887 14.8575C13.7443 14.7098 13.4426 14.4796 13.2108 14.1877C12.9413 13.847 12.7416 13.4575 12.6229 13.0412C12.4692 12.5061 12.3967 11.9515 12.4077 11.3953C12.3967 10.8398 12.4693 10.2858 12.6229 9.75139C12.7419 9.33487 12.9415 8.94516 13.2108 8.60389C13.4432 8.31289 13.7448 8.08315 14.0887 7.93509C14.4314 7.79463 14.7988 7.72233 15.1698 7.72233C15.5409 7.72233 15.9083 7.79463 16.251 7.93509C16.5949 8.08315 16.8965 8.31289 17.1289 8.60389C17.3981 8.9455 17.5983 9.33507 17.7188 9.75139C17.8711 10.2854 17.9436 10.8386 17.934 11.3934C17.9446 11.9493 17.8727 12.5038 17.7208 13.0393C17.6005 13.4554 17.4003 13.8446 17.1309 14.1858C16.8991 14.4776 16.5974 14.7078 16.253 14.8556C15.9111 14.9988 15.5432 15.0712 15.1718 15.0683L15.1698 15.0703ZM15.1718 6.34534C14.2925 6.33519 13.4164 6.45166 12.5711 6.69106C11.8412 6.89783 11.157 7.2383 10.5543 7.69476C9.9997 8.12347 9.55181 8.672 9.24491 9.2983C8.9334 9.9533 8.77633 10.6696 8.78554 11.3934C8.77653 12.1164 8.93359 12.8321 9.24491 13.4864C9.55119 14.1123 9.998 14.6607 10.5513 15.09C11.1544 15.547 11.8393 15.8875 12.5701 16.0937C13.4151 16.3332 14.2909 16.4496 15.1698 16.4394C16.0495 16.4494 16.9259 16.3329 17.7716 16.0937C18.502 15.8881 19.1864 15.5476 19.7884 15.09C20.3423 14.6613 20.7892 14.1127 21.0948 13.4864C21.4061 12.8321 21.5632 12.1164 21.5542 11.3934C21.5634 10.6696 21.4063 9.9533 21.0948 9.2983C20.7891 8.67179 20.3418 8.12314 19.7874 7.69476C19.1857 7.23792 18.5021 6.8974 17.7726 6.69106C16.9265 6.45186 16.0498 6.33541 15.1698 6.34534" fill="#303846"/>
<path opacity="0.996" d="M23.5555 5.96973H23.3555V5.97373H23.3565H23.5555V5.96973Z" fill="white"/>
<path d="M23.5548 5.97363H23.3555V24.8399C23.4242 24.8625 23.4909 24.8908 23.5548 24.9246V5.97363Z" fill="#FEFEFE"/>
<path opacity="0.996" d="M24.1531 5.96973H23.9531V5.97373H24.1531V5.96973Z" fill="white"/>
<path d="M24.1524 5.97363H23.9531V25.2556C24.0395 25.3639 24.1068 25.4858 24.1524 25.6161V5.97363Z" fill="#FEFEFE"/>
<path opacity="0.996" d="M24.7508 5.96973H24.5508V5.97373H24.7508V5.96973Z" fill="white"/>
<path d="M24.7501 5.97363H24.5508V26.0258H24.7501V5.97363Z" fill="#FEFEFE"/>
<path d="M46.3843 14.3262V14.5232H37.9792V14.3262H46.3843ZM46.3843 13.7352V13.9322H37.9792V13.7352H46.3843ZM46.3843 13.1443V13.3413H37.9792V13.1443H46.3843ZM45.1218 5.97656H42.5789V12.9551H41.2247V7.3181H41.1898C41.024 7.3181 40.8598 7.28582 40.7067 7.22311C40.5535 7.16039 40.4143 7.06847 40.2971 6.95258C40.1798 6.8367 40.0868 6.69912 40.0234 6.54771C39.9599 6.3963 39.9273 6.23402 39.9273 6.07014H37.9792V19.8382C37.3331 19.986 36.6753 20.079 36.0132 20.1159C35.2409 20.1573 34.388 20.178 33.4782 20.178H32.1449C32.0939 20.1829 32.0424 20.1748 31.9955 20.1544L31.9845 20.0618V8.81429H37.3534V7.04822H28.178V20.0627C28.1622 20.359 28.2297 20.6538 28.3728 20.9146C28.5159 21.1753 28.7293 21.3918 28.9892 21.5402C29.4794 21.8138 30.0346 21.9532 30.5974 21.9441H33.0886C34.1488 21.9441 35.1224 21.9155 35.9833 21.8584C36.6528 21.815 37.3186 21.7275 37.9762 21.5964V24.4528H37.9812C38.3158 24.4528 38.6366 24.5842 38.8732 24.818C39.1098 25.0519 39.2427 25.3691 39.2427 25.6998V25.7096H41.2217V14.7202H42.5759V24.7867H42.5818C42.9162 24.7867 43.2368 24.9178 43.4735 25.1512C43.7102 25.3846 43.8436 25.7013 43.8444 26.0317H46.3823V7.21862C46.0485 7.21863 45.7283 7.08795 45.4917 6.85519C45.2551 6.62243 45.1214 6.30652 45.1198 5.97656" fill="#303846"/>
<path d="M37.9805 13.1445V13.3415V13.1445ZM46.3866 13.1445V13.3415V13.1445Z" fill="#303846"/>
<path d="M37.9805 13.7344V13.9314V13.7344ZM46.3866 13.7344V13.9314V13.7344Z" fill="#303846"/>
<path d="M37.9805 14.3262V14.5232V14.3262ZM46.3866 14.3262V14.5232V14.3262Z" fill="#303846"/>
<path d="M46.3856 13.1445H37.9805V13.3405H46.3866L46.3856 13.1445Z" fill="#FEFEFE"/>
<path d="M46.3856 13.7344H37.9805V13.9314H46.3866L46.3856 13.7344Z" fill="#FEFEFE"/>
<path d="M46.3856 14.3267H37.9805V14.5227H46.3866L46.3856 14.3267Z" fill="#FEFEFE"/>
<path d="M102.483 6.75195H98.2614V12.3437C98.2666 13.1644 98.1807 13.9832 98.0053 14.7854C97.8399 15.5233 97.5673 16.2336 97.1962 16.8943C96.8008 17.5833 96.3087 18.2134 95.7344 18.7657C95.0556 19.4135 94.3033 19.9813 93.4923 20.4579L93.0938 20.7002L93.315 21.111L93.854 22.1088L94.0533 22.4821L94.4569 22.3422C95.2567 22.0638 96.0288 21.7133 96.7637 21.2952C97.4866 20.8852 98.1721 20.4139 98.8124 19.8867C99.438 19.3706 100.006 18.7897 100.506 18.1541C100.813 17.7627 101.089 17.348 101.33 16.914L104.327 21.571L104.612 22.0122L105.04 21.7039L107.169 20.1743L107.597 19.866L107.26 19.4621L104 15.5587C103.67 15.1425 103.217 14.8374 102.705 14.685C102.555 14.6458 102.401 14.6237 102.246 14.619C102.399 13.9712 102.476 13.3082 102.475 12.6431V6.75195" fill="#C59249"/>
<path d="M108.567 5.97656H107.969V24.7838C108.178 24.7839 108.383 24.8353 108.567 24.9335V5.97656ZM109.165 5.97656H108.766V25.0655C108.951 25.214 109.089 25.4114 109.165 25.6348V5.97656ZM110.735 5.97656H109.962V26.0317H109.762V5.97656H109.364V26.0317H111.985V14.7478H115.017V12.7847H111.985V7.22552C111.653 7.22266 111.335 7.09002 111.101 6.85647C110.866 6.62293 110.735 6.30738 110.735 5.97853" fill="#C59249"/>
<path d="M108.766 5.97656H108.566V24.9335C108.637 24.9709 108.704 25.0151 108.766 25.0655V5.97656Z" fill="#FFFFFE"/>
<path d="M109.363 5.97656H109.164V25.6348C109.207 25.7617 109.23 25.8948 109.23 26.0288H109.363V5.97656Z" fill="#FFFFFE"/>
<path d="M109.961 5.97656H109.762V26.0317H109.961V5.97656Z" fill="#FFFFFE"/>
<path d="M86.0707 6.4541H73.6608V7.17314H73.6668C74.0013 7.17235 74.3224 7.30281 74.5597 7.53587C74.797 7.76893 74.931 8.08554 74.9323 8.41618H77.812V9.70749C77.8219 10.3539 77.7129 10.9967 77.4902 11.6046C77.2771 12.161 76.9657 12.6756 76.5705 13.1244C76.1413 13.6033 75.6454 14.0195 75.0977 14.3605C74.4666 14.7554 73.8061 15.1021 73.1217 15.3977L72.6992 15.5829L72.8547 16.0133L73.1984 16.9697L73.3489 17.3864L73.7844 17.283C74.5241 17.1072 75.2503 16.8801 75.9576 16.6033C76.6534 16.3326 77.327 16.0092 77.9725 15.6361C78.5949 15.2769 79.1789 14.8561 79.7153 14.3802C80.0875 14.0474 80.4271 13.6807 80.7297 13.2849L84.7604 16.9589L85.128 17.2938L85.4659 16.9294L86.8609 15.4204L87.2176 15.0362L86.8081 14.7063L83.3274 11.902C82.9392 11.5935 82.4681 11.4042 81.9723 11.3573L81.763 11.3485H81.7441C81.779 11.2391 81.8118 11.1298 81.8437 11.0175C81.9717 10.5289 82.0353 10.026 82.033 9.52133V8.41618H86.0757V6.4541" fill="#C59249"/>
<path d="M88.2757 5.97656H87.8711V16.1829H87.894C88.0236 16.1832 88.1524 16.2034 88.2757 16.243V5.97656ZM88.8735 5.97656H88.475V16.3248C88.6288 16.4043 88.7645 16.5143 88.8735 16.6478V5.97656ZM89.4714 5.97656H89.0728V16.9886C89.1267 17.1276 89.1547 17.2751 89.1555 17.424H89.4714V5.97656ZM90.6343 5.97656H89.6707V17.424H91.8958V7.21862C91.562 7.21888 91.2417 7.08827 91.0052 6.85542C90.7687 6.62257 90.6353 6.30651 90.6343 5.97656Z" fill="#C59249"/>
<path d="M80.1863 24.1734H80.1265V22.2478H87.879V24.1734H80.1863ZM91.8967 18.2783H89.6716V26.0321H89.4723V18.2783H89.0737V26.0321H88.8744V18.2783H88.4759V26.0321H88.2766V18.2783H87.878V20.2906H80.1255V18.2783H76.0909V24.0592C76.0801 24.3663 76.1534 24.6706 76.303 24.94C76.4526 25.2094 76.673 25.4339 76.9409 25.5898C77.4527 25.8907 78.0395 26.0439 78.6348 26.0321H91.8967V18.2783Z" fill="#C59249"/>
<path d="M88.4766 5.97656H88.2773V16.242C88.3463 16.2633 88.413 16.291 88.4766 16.3248V5.97656Z" fill="#FFFFFE"/>
<path d="M89.0743 5.97656H88.875V16.6459C88.9592 16.7483 89.0265 16.8634 89.0743 16.9867V5.97656Z" fill="#FFFFFE"/>
<path d="M89.6719 5.97656H89.4727V17.424H89.6719V5.97656Z" fill="#FFFFFE"/>
<path d="M88.4766 18.2778H88.377H88.2773V26.0316H88.4766V18.2778Z" fill="#FFFFFE"/>
<path d="M89.0743 18.2778H88.875V26.0316H89.0743V18.2778Z" fill="#FFFFFE"/>
<path d="M89.6719 18.2783H89.4727V26.0321H89.6719V18.2783Z" fill="#FFFFFE"/>
<path d="M119.276 25.7273H117.853C117.818 25.815 117.773 25.8983 117.719 25.9755C117.878 26.0147 118.042 26.0346 118.206 26.0346C118.585 26.0355 118.956 25.9288 119.276 25.7273ZM119.879 25.1363H117.935C117.94 25.1802 117.942 25.2242 117.942 25.2683C117.942 25.3564 117.932 25.4442 117.914 25.5303H119.538C119.669 25.4145 119.784 25.282 119.879 25.1363ZM120.139 24.5454H117.709C117.794 24.6648 117.858 24.7982 117.898 24.9393H119.991C120.054 24.8137 120.103 24.6816 120.137 24.5454H120.139ZM118.204 22.0947C117.675 22.0947 117.168 22.3023 116.795 22.6717C116.421 23.0412 116.211 23.5422 116.211 24.0647V24.108C116.432 24.0217 116.672 23.9985 116.905 24.041C117.139 24.0835 117.355 24.19 117.53 24.3484H120.176C120.189 24.2544 120.196 24.1596 120.196 24.0647C120.196 23.5422 119.986 23.0412 119.612 22.6717C119.238 22.3023 118.731 22.0947 118.203 22.0947" fill="#C59249"/>
<path d="M120.177 24.3486C120.167 24.415 120.154 24.4807 120.137 24.5456C120.154 24.4807 120.167 24.415 120.177 24.3486Z" fill="#C59249"/>
<path d="M119.993 24.9395C119.959 25.0074 119.921 25.0731 119.879 25.1364C119.921 25.0731 119.959 25.0074 119.993 24.9395Z" fill="#C59249"/>
<path d="M120.177 24.3486H117.531C117.596 24.4082 117.655 24.4742 117.707 24.5456H120.137C120.154 24.4807 120.167 24.415 120.177 24.3486Z" fill="#FFFFFE"/>
<path d="M119.991 24.9395H117.898C117.916 25.0041 117.928 25.07 117.935 25.1364H119.873C119.915 25.0731 119.953 25.0074 119.987 24.9395" fill="#FFFFFE"/>
<path opacity="0.996" d="M119.536 25.5303C119.454 25.6031 119.366 25.669 119.273 25.7273C119.366 25.669 119.454 25.6031 119.536 25.5303Z" fill="white"/>
<path d="M119.537 25.5303H117.912C117.898 25.5975 117.877 25.6634 117.852 25.7273H119.275C119.368 25.669 119.456 25.6031 119.538 25.5303" fill="#FFFFFE"/>
</svg>
