<svg width="48" height="48" viewBox="0 0 48 48" fill="none" xmlns="http://www.w3.org/2000/svg">
<path d="M35.0028 13.5067C34.7267 13.5067 34.5028 13.2828 34.5028 13.0067V8C34.5028 7.17157 33.8312 6.5 33.0028 6.5L22.0086 6.5C21.1802 6.5 20.5086 7.17157 20.5086 8V13.0067C20.5086 13.2828 20.2847 13.5067 20.0086 13.5067H15.0117C14.1833 13.5067 13.5117 14.1783 13.5117 15.0067V26.0191C13.5117 26.8475 14.1833 27.5191 15.0117 27.5191H20.0086C20.2847 27.5191 20.5086 27.743 20.5086 28.0191V33.0258C20.5086 33.8542 21.1802 34.5258 22.0086 34.5258H33.0028C33.8312 34.5258 34.5028 33.8542 34.5028 33.0258V28.0191C34.5028 27.743 34.7267 27.5191 35.0028 27.5191H39.9997C40.8281 27.5191 41.4997 26.8475 41.4997 26.0191V15.0067C41.4997 14.1783 40.8281 13.5067 39.9997 13.5067H35.0028Z" fill="white" stroke="black"/>
<path d="M15.9566 23.2256C15.2028 22.4711 14.0226 21.8073 12.2807 21.9849C10.0568 22.2117 8.71002 23.3699 7.92193 24.7333C7.1211 26.1188 6.89638 27.7236 6.97025 28.7776L6.97064 28.7837C7.15146 31.9165 8.92292 34.4441 11.1312 36.35C13.2778 38.2026 15.7911 39.4255 17.4953 39.9999C19.1995 39.4255 21.7128 38.2026 23.8594 36.35C26.0677 34.4441 27.8391 31.9165 28.0199 28.7837L28.0203 28.7776C28.0942 27.7236 27.8695 26.1188 27.0687 24.7333C26.2806 23.3699 24.9338 22.2117 22.7099 21.9849C20.968 21.8073 19.7878 22.4711 19.034 23.2256C18.6527 23.6073 18.3797 24.0139 18.2038 24.3489C18.1159 24.5164 18.0546 24.6615 18.0166 24.7717C17.9891 24.8513 17.9794 24.8963 17.976 24.9122C17.9751 24.9166 17.9744 24.9188 17.9744 24.9188C17.9744 24.9188 17.9742 24.9158 17.9742 24.9121C17.9743 25.1807 17.7612 25.3989 17.4974 25.3998H17.4932C17.2295 25.3989 17.0163 25.1817 17.0164 24.9131C17.0164 24.9168 17.0162 24.9188 17.0162 24.9188C17.0162 24.9188 17.0155 24.9166 17.0146 24.9122C17.0112 24.8963 17.0015 24.8513 16.974 24.7717C16.936 24.6615 16.8747 24.5164 16.7868 24.3489C16.6109 24.0139 16.3379 23.6073 15.9566 23.2256Z" fill="white"/>
<path fill-rule="evenodd" clip-rule="evenodd" d="M17.4949 41C17.4467 41.0001 17.3977 40.9926 17.3493 40.9769C15.5459 40.3921 12.8326 39.0965 10.5125 37.0941C8.19319 35.0924 6.21819 32.3398 6.01538 28.8441C5.93044 27.6231 6.18467 25.8173 7.09723 24.2385C8.0233 22.6364 9.6262 21.2758 12.1851 21.0149C14.2491 20.8044 15.7005 21.6032 16.6265 22.5301C16.9982 22.9021 17.2847 23.2937 17.4949 23.6477C17.705 23.2937 17.9916 22.9021 18.3632 22.5301C19.2893 21.6032 20.7406 20.8044 22.8047 21.0149C25.3635 21.2758 26.9664 22.6364 27.8925 24.2385C28.8051 25.8173 29.0593 27.6231 28.9744 28.8441C28.7716 32.3398 26.7965 35.0924 24.4772 37.0941C22.1572 39.0965 19.4439 40.3921 17.6404 40.9769C17.5921 40.9926 17.5431 41.0001 17.4949 41ZM12.2803 21.985C14.0221 21.8074 15.2024 22.4712 15.9561 23.2257C16.3375 23.6074 16.6104 24.014 16.7863 24.349C16.8743 24.5165 16.9356 24.6616 16.9736 24.7718C17.0011 24.8514 17.0107 24.8964 17.0141 24.9123C17.0151 24.9167 17.0158 24.9189 17.0158 24.9189C17.0158 24.9189 17.016 24.9169 17.016 24.9131C17.0158 25.1817 17.229 25.399 17.4927 25.3999H17.497C17.7607 25.399 17.9739 25.1808 17.9737 24.9122C17.9737 24.9159 17.9739 24.9189 17.9739 24.9189C17.9739 24.9189 17.9746 24.9167 17.9756 24.9123C17.979 24.8964 17.9886 24.8514 18.0161 24.7718C18.0542 24.6616 18.1155 24.5165 18.2034 24.349C18.3793 24.014 18.6523 23.6074 19.0336 23.2257C19.7873 22.4712 20.9676 21.8074 22.7094 21.985C24.9333 22.2118 26.2801 23.37 27.0682 24.7334C27.8691 26.1189 28.0938 27.7237 28.0199 28.7777L28.0195 28.7838C27.8387 31.9166 26.0672 34.4442 23.859 36.3501C21.7124 38.2027 19.199 39.4256 17.4949 40C15.7907 39.4256 13.2773 38.2027 11.1307 36.3501C8.92249 34.4442 7.15103 31.9166 6.97021 28.7838L6.96982 28.7777C6.89596 27.7237 7.12067 26.1189 7.9215 24.7334C8.70959 23.37 10.0564 22.2118 12.2803 21.985Z" fill="black"/>
<path d="M10.3219 29.2999C10.003 28.1624 9.93926 25.8874 12.2353 25.8874" stroke="black" stroke-linecap="round"/>
</svg>
