<svg width="304" height="24" viewBox="0 0 304 24" fill="none" xmlns="http://www.w3.org/2000/svg">
<path d="M129.809 17.096C129.809 16.52 130.017 16.072 130.369 15.776C130.689 15.496 131.161 15.336 131.697 15.336C132.241 15.336 132.713 15.496 133.033 15.776C133.385 16.072 133.593 16.52 133.593 17.096C133.593 17.656 133.385 18.112 133.033 18.408C132.713 18.696 132.241 18.84 131.697 18.84C131.161 18.84 130.689 18.696 130.369 18.408C130.017 18.112 129.809 17.656 129.809 17.096ZM130.297 17.096C130.297 17.504 130.433 17.832 130.673 18.048C130.921 18.28 131.273 18.408 131.697 18.408C132.129 18.408 132.481 18.28 132.729 18.048C132.969 17.832 133.105 17.504 133.105 17.096C133.105 16.672 132.969 16.36 132.729 16.128C132.481 15.896 132.129 15.776 131.697 15.776C131.273 15.776 130.921 15.896 130.673 16.128C130.433 16.36 130.297 16.672 130.297 17.096ZM134.937 15.296H135.425V22.384H134.937V19.688C134.537 20.024 133.873 20.2 133.073 20.2H131.801V22.392H131.313V20.2H129.489V19.76H133.161C133.873 19.76 134.505 19.608 134.937 19.272V15.296ZM137.864 17.84V19.392H142.992V19.816H140.4V21.648H143.296V22.056H136.984V21.648H139.912V19.816H137.376V17.416H142.416V15.864H137.376V15.432H142.904V17.84H137.864ZM146.977 16.384C146.977 16.096 147.089 15.888 147.329 15.712C147.753 15.424 148.569 15.296 149.825 15.296C151.081 15.296 151.897 15.424 152.313 15.712C152.561 15.888 152.673 16.096 152.673 16.384C152.673 16.656 152.561 16.872 152.313 17.04C151.921 17.32 151.177 17.448 150.049 17.464V18.312H153.009V18.728H146.617V18.312H149.561V17.464C148.457 17.448 147.721 17.312 147.329 17.04C147.089 16.872 146.977 16.656 146.977 16.384ZM147.465 16.384C147.465 16.528 147.529 16.656 147.681 16.752C147.993 16.968 148.689 17.056 149.825 17.056C150.961 17.056 151.657 16.968 151.977 16.752C152.121 16.656 152.185 16.528 152.185 16.384C152.185 16.232 152.121 16.096 151.977 16C151.657 15.792 150.961 15.696 149.825 15.696C148.689 15.696 147.993 15.792 147.681 16C147.529 16.096 147.465 16.232 147.465 16.384ZM147.601 21.232V22.072H152.697V22.472H147.113V20.832H152.025V19.976H147.113V19.576H152.513V21.232H147.601ZM157.432 21.888H154.384V18.408H157.104V15.864H154.384V15.424H157.592V18.848H154.872V21.464H157.496C158.28 21.464 158.984 21.24 159.392 20.848V15.296H159.88V18.344H161.072V18.76H159.88V22.384H159.392V21.264C159.016 21.672 158.256 21.888 157.432 21.888ZM164.776 16.92V15.872H161.904V15.432H165.256V16.872C165.256 19.592 164.144 21.328 161.848 21.928V21.488C163.792 20.92 164.776 19.36 164.776 16.92ZM167.4 15.296V18.344H168.592V18.76H167.4V22.384H166.912V15.296H167.4ZM172.28 16.92V15.872H169.488V15.432H172.768V16.872C172.768 19.56 171.696 21.336 169.44 21.928V21.488C171.32 20.92 172.28 19.336 172.28 16.92ZM174.6 22.376V15.296H175.088V22.376H174.6Z" fill="white"/>
<path fill-rule="evenodd" clip-rule="evenodd" d="M135.106 10.7867C135.353 11.2921 135.953 11.497 136.447 11.2443L152 3.28796L167.553 11.2443C168.047 11.497 168.648 11.2921 168.895 10.7867C169.142 10.2813 168.941 9.66676 168.447 9.41405L152 1.00015L135.553 9.41405C135.059 9.66676 134.859 10.2813 135.106 10.7867Z" fill="white"/>
<path fill-rule="evenodd" clip-rule="evenodd" d="M136.026 12.8622C136.087 12.9853 136.235 13.0352 136.356 12.9736L152 5.05802L167.644 12.9736C167.765 13.0352 167.913 12.9853 167.974 12.8622C168.035 12.7392 167.985 12.5896 167.864 12.528L152 4.50101L136.136 12.528C136.015 12.5896 135.965 12.7392 136.026 12.8622Z" fill="white"/>
</svg>
