<svg width="48" height="48" viewBox="0 0 48 48" fill="none" xmlns="http://www.w3.org/2000/svg">
<path fill-rule="evenodd" clip-rule="evenodd" d="M5.5 14.5C5.5 13.9477 5.94772 13.5 6.5 13.5H41.5C42.0523 13.5 42.5 13.9477 42.5 14.5V36.5C42.5 37.0523 42.0523 37.5 41.5 37.5H6.5C5.94772 37.5 5.5 37.0523 5.5 36.5V33C5.5 32.7239 5.72386 32.5 6 32.5C6.27614 32.5 6.5 32.7239 6.5 33V36C6.5 36.2761 6.72386 36.5 7 36.5H41C41.2761 36.5 41.5 36.2761 41.5 36V15C41.5 14.7239 41.2761 14.5 41 14.5H7C6.72386 14.5 6.5 14.7239 6.5 15V18C6.5 18.2761 6.27614 18.5 6 18.5C5.72386 18.5 5.5 18.2761 5.5 18V14.5Z" fill="black"/>
<rect x="6.5" y="14.5" width="35" height="22" fill="white"/>
<mask id="path-3-outside-1_936_1997" maskUnits="userSpaceOnUse" x="8.5" y="12.5" width="31" height="23" fill="black">
<rect fill="white" x="8.5" y="12.5" width="31" height="23"/>
<path fill-rule="evenodd" clip-rule="evenodd" d="M15.3 13.5H10C9.72386 13.5 9.5 13.7239 9.5 14V34C9.5 34.2761 9.72386 34.5 10 34.5H38C38.2761 34.5 38.5 34.2761 38.5 34V14C38.5 13.7239 38.2761 13.5 38 13.5H33.6667V15.5H15.3V13.5Z"/>
</mask>
<path fill-rule="evenodd" clip-rule="evenodd" d="M15.3 13.5H10C9.72386 13.5 9.5 13.7239 9.5 14V34C9.5 34.2761 9.72386 34.5 10 34.5H38C38.2761 34.5 38.5 34.2761 38.5 34V14C38.5 13.7239 38.2761 13.5 38 13.5H33.6667V15.5H15.3V13.5Z" fill="white"/>
<path d="M15.3 13.5H16.3V12.5H15.3V13.5ZM33.6667 13.5V12.5H32.6667V13.5H33.6667ZM33.6667 15.5V16.5H34.6667V15.5H33.6667ZM15.3 15.5H14.3V16.5H15.3V15.5ZM10 14.5H15.3V12.5H10V14.5ZM10.5 14C10.5 14.2761 10.2761 14.5 10 14.5V12.5C9.17157 12.5 8.5 13.1716 8.5 14H10.5ZM10.5 34V14H8.5V34H10.5ZM10 33.5C10.2761 33.5 10.5 33.7239 10.5 34H8.5C8.5 34.8284 9.17157 35.5 10 35.5V33.5ZM38 33.5H10V35.5H38V33.5ZM37.5 34C37.5 33.7239 37.7239 33.5 38 33.5V35.5C38.8284 35.5 39.5 34.8284 39.5 34H37.5ZM37.5 14V34H39.5V14H37.5ZM38 14.5C37.7239 14.5 37.5 14.2761 37.5 14H39.5C39.5 13.1716 38.8284 12.5 38 12.5V14.5ZM33.6667 14.5H38V12.5H33.6667V14.5ZM32.6667 13.5V15.5H34.6667V13.5H32.6667ZM33.6667 14.5H15.3V16.5H33.6667V14.5ZM16.3 15.5V13.5H14.3V15.5H16.3Z" fill="black" mask="url(#path-3-outside-1_936_1997)"/>
<path fill-rule="evenodd" clip-rule="evenodd" d="M24 14.5037C22.8937 13.6949 21.1814 12.6467 19.2336 11.8265C17.1042 10.9298 14.6367 10.2814 12.35 10.569C11.8437 10.6327 11.5 11.0691 11.5 11.5457V31.1654C11.5 31.6894 11.9013 32.1163 12.4113 32.1668C14.7887 32.4027 19.7456 33.2444 23.7905 35.0824C23.7948 35.0844 23.7992 35.0863 23.8035 35.0882C23.8676 35.1156 23.9343 35.1286 24 35.1285C24.0657 35.1286 24.1324 35.1156 24.1965 35.0882C24.2008 35.0863 24.2052 35.0844 24.2095 35.0824C28.2544 33.2444 33.2113 32.4027 35.5887 32.1668C36.0987 32.1163 36.5 31.6894 36.5 31.1654V11.5457C36.5 11.0691 36.1563 10.6327 35.65 10.569C33.3633 10.2814 30.8958 10.9298 28.7664 11.8265C26.8186 12.6467 25.1063 13.6949 24 14.5037ZM24.2134 15.5807C24.2486 15.5641 24.2822 15.5433 24.3132 15.5183C25.3332 14.735 27.1086 13.6096 29.1545 12.7481C31.2052 11.8845 33.4715 11.31 35.5 11.5581V31.1654L35.5 31.1659C35.4999 31.1662 35.4995 31.1668 35.4988 31.1676C35.4968 31.1698 35.4941 31.1713 35.49 31.1717C33.0978 31.409 28.1443 32.2429 24 34.0803C19.8557 32.2429 14.9022 31.409 12.51 31.1717C12.5059 31.1713 12.5032 31.1698 12.5012 31.1676C12.5005 31.1668 12.5001 31.1662 12.5 31.1659L12.5 31.1654V11.5581C14.5285 11.31 16.7948 11.8845 18.8455 12.7481C20.8914 13.6096 22.6668 14.735 23.6868 15.5183C23.7178 15.5433 23.7514 15.5641 23.7866 15.5807C23.9232 15.6453 24.0803 15.6434 24.2134 15.5807Z" fill="black"/>
<path d="M24.3132 15.5183C24.2822 15.5433 24.2486 15.5641 24.2134 15.5807C24.0803 15.6434 23.9232 15.6453 23.7866 15.5807C23.7514 15.5641 23.7178 15.5433 23.6868 15.5183C22.6337 14.7096 20.7764 13.537 18.6481 12.6662C16.646 11.8469 14.4609 11.3182 12.5 11.5581V31.1708C14.8967 31.4076 19.8542 32.2423 24 34.0804C28.1458 32.2423 33.1033 31.4076 35.5 31.1708V11.5581C33.5391 11.3182 31.354 11.8469 29.3519 12.6662C27.2236 13.537 25.3663 14.7096 24.3132 15.5183Z" fill="white"/>
<path d="M24 15V34.5" stroke="black" stroke-linecap="round"/>
<path d="M14 17C15.3333 16.8334 18.6 17 21 19" stroke="black" stroke-linecap="round"/>
<path d="M14 20.5489C15.3333 20.3822 18.6 20.5489 21 22.5489" stroke="black" stroke-linecap="round"/>
<path d="M14 24.5489C15.3333 24.3822 18.6 24.5489 21 26.5489" stroke="black" stroke-linecap="round"/>
<path d="M14 28.5489C15.3333 28.3822 18.6 28.5489 21 30.5489" stroke="black" stroke-linecap="round"/>
<path d="M33.5 17C32.1667 16.8334 28.9 17 26.5 19" stroke="black" stroke-linecap="round"/>
<path d="M33.5 20.5489C32.1667 20.3822 28.9 20.5489 26.5 22.5489" stroke="black" stroke-linecap="round"/>
<path d="M33.5 24.5489C32.1667 24.3822 28.9 24.5489 26.5 26.5489" stroke="black" stroke-linecap="round"/>
<path d="M33.5 28.5489C32.1667 28.3822 28.9 28.5489 26.5 30.5489" stroke="black" stroke-linecap="round"/>
<path d="M6 28.5V30.5" stroke="black" stroke-linecap="round"/>
<path d="M6 20.5V22.5" stroke="black" stroke-linecap="round"/>
<circle cx="6" cy="25.5" r="0.5" fill="black"/>
</svg>
