<svg width="48" height="48" viewBox="0 0 48 48" fill="none" xmlns="http://www.w3.org/2000/svg">
<path d="M32.7731 17.8183C32.7731 18.3789 33.2276 18.8334 33.7883 18.8334C34.3489 18.8334 34.8034 18.3789 34.8034 17.8183V8.03041C34.8034 7.46976 34.3489 7.01526 33.7883 7.01526C33.2276 7.01526 32.7731 7.46976 32.7731 8.03041V17.8183ZM21.9283 10.0759C22.3261 10.0759 22.7077 10.2339 22.989 10.5152L28.0698 15.5961C28.4663 15.9925 29.109 15.9925 29.5055 15.5961C29.9019 15.1996 29.9019 14.5569 29.5055 14.1604L24.1228 8.77779C23.654 8.30895 23.0181 8.04556 22.3551 8.04556H8.03077C7.47012 8.04556 7.01562 8.50006 7.01562 9.06071C7.01562 9.62136 7.47012 10.0759 8.03077 10.0759H21.9283ZM32.7731 27.6061C32.7731 28.1668 33.2276 28.6212 33.7883 28.6212C34.3489 28.6212 34.8034 28.1667 34.8034 27.6061V25.0303C34.8034 24.4697 34.3489 24.0152 33.7883 24.0152C33.2276 24.0152 32.7731 24.4697 32.7731 25.0303V27.6061Z" fill="white" stroke="black"/>
<path d="M27.2953 27.1212C26.8974 27.1212 26.5159 27.2792 26.2346 27.5605L16.078 37.717C15.6875 38.1076 15.6875 38.7407 16.078 39.1313C16.4686 39.5218 17.1017 39.5218 17.4923 39.1313L27.5024 29.1212H39.9669C40.5192 29.1212 40.9669 28.6734 40.9669 28.1212C40.9669 27.5689 40.5192 27.1212 39.9669 27.1212H27.2953Z" fill="white" stroke="black" stroke-linecap="round"/>
<path d="M8.87102 31.0201L9.22457 31.3736L8.87102 31.0201C8.48049 31.4106 8.48049 32.0437 8.87102 32.4343L9.22457 32.0807L8.87102 32.4343C9.26154 32.8248 9.89471 32.8248 10.2852 32.4343L19.4115 23.308C19.6928 23.0267 19.8508 22.6452 19.8508 22.2474V16.2424H39.4568C40.0091 16.2424 40.4568 15.7947 40.4568 15.2424C40.4568 14.6901 40.0091 14.2424 39.4568 14.2424H19.3508C18.5224 14.2424 17.8508 14.9139 17.8508 15.7424V22.0403L8.87102 31.0201Z" fill="white" stroke="black" stroke-linecap="round"/>
<path d="M7.51562 18.8788C6.96334 18.8788 6.51562 19.3266 6.51562 19.8788C6.51562 20.4311 6.96334 20.8788 7.51562 20.8788H10.7075L27.2681 37.4394C27.5494 37.7207 27.9309 37.8788 28.3287 37.8788H39.9701C40.5223 37.8788 40.9701 37.4311 40.9701 36.8788C40.9701 36.3265 40.5223 35.8788 39.9701 35.8788H28.5358L11.9752 19.3182C11.6939 19.0369 11.3124 18.8788 10.9146 18.8788H7.51562Z" fill="white" stroke="black" stroke-linecap="round"/>
<circle cx="33.7847" cy="21.4399" r="1.01515" fill="white" stroke="black"/>
<mask id="path-6-outside-1_936_1975" maskUnits="userSpaceOnUse" x="8.0625" y="6" width="6" height="6" fill="black">
<rect fill="white" x="8.0625" y="6" width="6" height="6"/>
<path d="M13.1837 9.0606C13.1837 10.1986 12.2611 11.1212 11.1231 11.1212C9.98506 11.1212 9.0625 10.1986 9.0625 9.0606C9.0625 7.92256 9.98506 7 11.1231 7C12.2611 7 13.1837 7.92256 13.1837 9.0606Z"/>
<path fill-rule="evenodd" clip-rule="evenodd" d="M11.1231 10.1212C11.7089 10.1212 12.1837 9.64635 12.1837 9.0606C12.1837 8.47485 11.7089 8 11.1231 8C10.5373 8 10.0625 8.47485 10.0625 9.0606C10.0625 9.64635 10.5373 10.1212 11.1231 10.1212ZM11.1231 11.1212C12.2611 11.1212 13.1837 10.1986 13.1837 9.0606C13.1837 7.92256 12.2611 7 11.1231 7C9.98506 7 9.0625 7.92256 9.0625 9.0606C9.0625 10.1986 9.98506 11.1212 11.1231 11.1212Z"/>
</mask>
<path d="M13.1837 9.0606C13.1837 10.1986 12.2611 11.1212 11.1231 11.1212C9.98506 11.1212 9.0625 10.1986 9.0625 9.0606C9.0625 7.92256 9.98506 7 11.1231 7C12.2611 7 13.1837 7.92256 13.1837 9.0606Z" fill="black"/>
<path fill-rule="evenodd" clip-rule="evenodd" d="M11.1231 10.1212C11.7089 10.1212 12.1837 9.64635 12.1837 9.0606C12.1837 8.47485 11.7089 8 11.1231 8C10.5373 8 10.0625 8.47485 10.0625 9.0606C10.0625 9.64635 10.5373 10.1212 11.1231 10.1212ZM11.1231 11.1212C12.2611 11.1212 13.1837 10.1986 13.1837 9.0606C13.1837 7.92256 12.2611 7 11.1231 7C9.98506 7 9.0625 7.92256 9.0625 9.0606C9.0625 10.1986 9.98506 11.1212 11.1231 11.1212Z" fill="white"/>
<path d="M12.6837 9.0606C12.6837 9.92249 11.985 10.6212 11.1231 10.6212V11.6212C12.5373 11.6212 13.6837 10.4748 13.6837 9.0606H12.6837ZM11.1231 10.6212C10.2612 10.6212 9.5625 9.92249 9.5625 9.0606H8.5625C8.5625 10.4748 9.70892 11.6212 11.1231 11.6212V10.6212ZM9.5625 9.0606C9.5625 8.1987 10.2612 7.5 11.1231 7.5V6.5C9.70892 6.5 8.5625 7.64642 8.5625 9.0606H9.5625ZM11.1231 7.5C11.985 7.5 12.6837 8.1987 12.6837 9.0606H13.6837C13.6837 7.64642 12.5373 6.5 11.1231 6.5V7.5ZM11.1837 9.0606C11.1837 9.09407 11.1566 9.1212 11.1231 9.1212V11.1212C12.2611 11.1212 13.1837 10.1986 13.1837 9.0606H11.1837ZM11.1231 9C11.1566 9 11.1837 9.02713 11.1837 9.0606H13.1837C13.1837 7.92256 12.2611 7 11.1231 7V9ZM11.0625 9.0606C11.0625 9.02713 11.0896 9 11.1231 9V7C9.98506 7 9.0625 7.92256 9.0625 9.0606H11.0625ZM11.1231 9.1212C11.0896 9.1212 11.0625 9.09407 11.0625 9.0606H9.0625C9.0625 10.1986 9.98506 11.1212 11.1231 11.1212V9.1212Z" fill="black" mask="url(#path-6-outside-1_936_1975)"/>
<mask id="path-8-outside-2_936_1975" maskUnits="userSpaceOnUse" x="15.2695" y="6" width="6" height="6" fill="black">
<rect fill="white" x="15.2695" y="6" width="6" height="6"/>
<path d="M20.3907 9.0606C20.3907 10.1986 19.4682 11.1212 18.3301 11.1212C17.1921 11.1212 16.2695 10.1986 16.2695 9.0606C16.2695 7.92256 17.1921 7 18.3301 7C19.4682 7 20.3907 7.92256 20.3907 9.0606Z"/>
<path fill-rule="evenodd" clip-rule="evenodd" d="M18.3301 10.1212C18.9159 10.1212 19.3907 9.64635 19.3907 9.0606C19.3907 8.47485 18.9159 8 18.3301 8C17.7444 8 17.2695 8.47485 17.2695 9.0606C17.2695 9.64635 17.7444 10.1212 18.3301 10.1212ZM18.3301 11.1212C19.4682 11.1212 20.3907 10.1986 20.3907 9.0606C20.3907 7.92256 19.4682 7 18.3301 7C17.1921 7 16.2695 7.92256 16.2695 9.0606C16.2695 10.1986 17.1921 11.1212 18.3301 11.1212Z"/>
</mask>
<path d="M20.3907 9.0606C20.3907 10.1986 19.4682 11.1212 18.3301 11.1212C17.1921 11.1212 16.2695 10.1986 16.2695 9.0606C16.2695 7.92256 17.1921 7 18.3301 7C19.4682 7 20.3907 7.92256 20.3907 9.0606Z" fill="black"/>
<path fill-rule="evenodd" clip-rule="evenodd" d="M18.3301 10.1212C18.9159 10.1212 19.3907 9.64635 19.3907 9.0606C19.3907 8.47485 18.9159 8 18.3301 8C17.7444 8 17.2695 8.47485 17.2695 9.0606C17.2695 9.64635 17.7444 10.1212 18.3301 10.1212ZM18.3301 11.1212C19.4682 11.1212 20.3907 10.1986 20.3907 9.0606C20.3907 7.92256 19.4682 7 18.3301 7C17.1921 7 16.2695 7.92256 16.2695 9.0606C16.2695 10.1986 17.1921 11.1212 18.3301 11.1212Z" fill="white"/>
<path d="M19.8907 9.0606C19.8907 9.92249 19.192 10.6212 18.3301 10.6212V11.6212C19.7443 11.6212 20.8907 10.4748 20.8907 9.0606H19.8907ZM18.3301 10.6212C17.4682 10.6212 16.7695 9.92249 16.7695 9.0606H15.7695C15.7695 10.4748 16.916 11.6212 18.3301 11.6212V10.6212ZM16.7695 9.0606C16.7695 8.1987 17.4682 7.5 18.3301 7.5V6.5C16.916 6.5 15.7695 7.64642 15.7695 9.0606H16.7695ZM18.3301 7.5C19.192 7.5 19.8907 8.1987 19.8907 9.0606H20.8907C20.8907 7.64642 19.7443 6.5 18.3301 6.5V7.5ZM18.3907 9.0606C18.3907 9.09407 18.3636 9.1212 18.3301 9.1212V11.1212C19.4682 11.1212 20.3907 10.1986 20.3907 9.0606H18.3907ZM18.3301 9C18.3636 9 18.3907 9.02713 18.3907 9.0606H20.3907C20.3907 7.92256 19.4682 7 18.3301 7V9ZM18.2695 9.0606C18.2695 9.02713 18.2967 9 18.3301 9V7C17.1921 7 16.2695 7.92256 16.2695 9.0606H18.2695ZM18.3301 9.1212C18.2967 9.1212 18.2695 9.09407 18.2695 9.0606H16.2695C16.2695 10.1986 17.1921 11.1212 18.3301 11.1212V9.1212Z" fill="black" mask="url(#path-8-outside-2_936_1975)"/>
<mask id="path-10-outside-3_936_1975" maskUnits="userSpaceOnUse" x="26.6055" y="12.1818" width="6" height="6" fill="black">
<rect fill="white" x="26.6055" y="12.1818" width="6" height="6"/>
<path d="M31.7267 15.2424C31.7267 16.3804 30.8041 17.303 29.6661 17.303C28.528 17.303 27.6055 16.3804 27.6055 15.2424C27.6055 14.1043 28.528 13.1818 29.6661 13.1818C30.8041 13.1818 31.7267 14.1043 31.7267 15.2424Z"/>
<path fill-rule="evenodd" clip-rule="evenodd" d="M29.6661 16.303C30.2518 16.303 30.7267 15.8281 30.7267 15.2424C30.7267 14.6566 30.2518 14.1818 29.6661 14.1818C29.0803 14.1818 28.6055 14.6566 28.6055 15.2424C28.6055 15.8281 29.0803 16.303 29.6661 16.303ZM29.6661 17.303C30.8041 17.303 31.7267 16.3804 31.7267 15.2424C31.7267 14.1043 30.8041 13.1818 29.6661 13.1818C28.528 13.1818 27.6055 14.1043 27.6055 15.2424C27.6055 16.3804 28.528 17.303 29.6661 17.303Z"/>
</mask>
<path d="M31.7267 15.2424C31.7267 16.3804 30.8041 17.303 29.6661 17.303C28.528 17.303 27.6055 16.3804 27.6055 15.2424C27.6055 14.1043 28.528 13.1818 29.6661 13.1818C30.8041 13.1818 31.7267 14.1043 31.7267 15.2424Z" fill="black"/>
<path fill-rule="evenodd" clip-rule="evenodd" d="M29.6661 16.303C30.2518 16.303 30.7267 15.8281 30.7267 15.2424C30.7267 14.6566 30.2518 14.1818 29.6661 14.1818C29.0803 14.1818 28.6055 14.6566 28.6055 15.2424C28.6055 15.8281 29.0803 16.303 29.6661 16.303ZM29.6661 17.303C30.8041 17.303 31.7267 16.3804 31.7267 15.2424C31.7267 14.1043 30.8041 13.1818 29.6661 13.1818C28.528 13.1818 27.6055 14.1043 27.6055 15.2424C27.6055 16.3804 28.528 17.303 29.6661 17.303Z" fill="white"/>
<path d="M31.2267 15.2424C31.2267 16.1043 30.528 16.803 29.6661 16.803V17.803C31.0802 17.803 32.2267 16.6565 32.2267 15.2424H31.2267ZM29.6661 16.803C28.8042 16.803 28.1055 16.1043 28.1055 15.2424H27.1055C27.1055 16.6565 28.2519 17.803 29.6661 17.803V16.803ZM28.1055 15.2424C28.1055 14.3805 28.8042 13.6818 29.6661 13.6818V12.6818C28.2519 12.6818 27.1055 13.8282 27.1055 15.2424H28.1055ZM29.6661 13.6818C30.528 13.6818 31.2267 14.3805 31.2267 15.2424H32.2267C32.2267 13.8282 31.0802 12.6818 29.6661 12.6818V13.6818ZM29.7267 15.2424C29.7267 15.2758 29.6995 15.303 29.6661 15.303V17.303C30.8041 17.303 31.7267 16.3804 31.7267 15.2424H29.7267ZM29.6661 15.1818C29.6995 15.1818 29.7267 15.2089 29.7267 15.2424H31.7267C31.7267 14.1043 30.8041 13.1818 29.6661 13.1818V15.1818ZM29.6055 15.2424C29.6055 15.2089 29.6326 15.1818 29.6661 15.1818V13.1818C28.528 13.1818 27.6055 14.1043 27.6055 15.2424H29.6055ZM29.6661 15.303C29.6326 15.303 29.6055 15.2758 29.6055 15.2424H27.6055C27.6055 16.3804 28.528 17.303 29.6661 17.303V15.303Z" fill="black" mask="url(#path-10-outside-3_936_1975)"/>
<mask id="path-12-outside-4_936_1975" maskUnits="userSpaceOnUse" x="35.8789" y="12.1818" width="6" height="6" fill="black">
<rect fill="white" x="35.8789" y="12.1818" width="6" height="6"/>
<path d="M41.0001 15.2424C41.0001 16.3804 40.0775 17.303 38.9395 17.303C37.8015 17.303 36.8789 16.3804 36.8789 15.2424C36.8789 14.1043 37.8015 13.1818 38.9395 13.1818C40.0775 13.1818 41.0001 14.1043 41.0001 15.2424Z"/>
<path fill-rule="evenodd" clip-rule="evenodd" d="M38.9395 16.303C39.5253 16.303 40.0001 15.8281 40.0001 15.2424C40.0001 14.6566 39.5253 14.1818 38.9395 14.1818C38.3538 14.1818 37.8789 14.6566 37.8789 15.2424C37.8789 15.8281 38.3538 16.303 38.9395 16.303ZM38.9395 17.303C40.0775 17.303 41.0001 16.3804 41.0001 15.2424C41.0001 14.1043 40.0775 13.1818 38.9395 13.1818C37.8015 13.1818 36.8789 14.1043 36.8789 15.2424C36.8789 16.3804 37.8015 17.303 38.9395 17.303Z"/>
</mask>
<path d="M41.0001 15.2424C41.0001 16.3804 40.0775 17.303 38.9395 17.303C37.8015 17.303 36.8789 16.3804 36.8789 15.2424C36.8789 14.1043 37.8015 13.1818 38.9395 13.1818C40.0775 13.1818 41.0001 14.1043 41.0001 15.2424Z" fill="black"/>
<path fill-rule="evenodd" clip-rule="evenodd" d="M38.9395 16.303C39.5253 16.303 40.0001 15.8281 40.0001 15.2424C40.0001 14.6566 39.5253 14.1818 38.9395 14.1818C38.3538 14.1818 37.8789 14.6566 37.8789 15.2424C37.8789 15.8281 38.3538 16.303 38.9395 16.303ZM38.9395 17.303C40.0775 17.303 41.0001 16.3804 41.0001 15.2424C41.0001 14.1043 40.0775 13.1818 38.9395 13.1818C37.8015 13.1818 36.8789 14.1043 36.8789 15.2424C36.8789 16.3804 37.8015 17.303 38.9395 17.303Z" fill="white"/>
<path d="M40.5001 15.2424C40.5001 16.1043 39.8014 16.803 38.9395 16.803V17.803C40.3537 17.803 41.5001 16.6565 41.5001 15.2424H40.5001ZM38.9395 16.803C38.0776 16.803 37.3789 16.1043 37.3789 15.2424H36.3789C36.3789 16.6565 37.5253 17.803 38.9395 17.803V16.803ZM37.3789 15.2424C37.3789 14.3805 38.0776 13.6818 38.9395 13.6818V12.6818C37.5253 12.6818 36.3789 13.8282 36.3789 15.2424H37.3789ZM38.9395 13.6818C39.8014 13.6818 40.5001 14.3805 40.5001 15.2424H41.5001C41.5001 13.8282 40.3537 12.6818 38.9395 12.6818V13.6818ZM39.0001 15.2424C39.0001 15.2758 38.973 15.303 38.9395 15.303V17.303C40.0775 17.303 41.0001 16.3804 41.0001 15.2424H39.0001ZM38.9395 15.1818C38.973 15.1818 39.0001 15.2089 39.0001 15.2424H41.0001C41.0001 14.1043 40.0775 13.1818 38.9395 13.1818V15.1818ZM38.8789 15.2424C38.8789 15.2089 38.906 15.1818 38.9395 15.1818V13.1818C37.8015 13.1818 36.8789 14.1043 36.8789 15.2424H38.8789ZM38.9395 15.303C38.906 15.303 38.8789 15.2758 38.8789 15.2424H36.8789C36.8789 16.3804 37.8015 17.303 38.9395 17.303V15.303Z" fill="black" mask="url(#path-12-outside-4_936_1975)"/>
<mask id="path-14-outside-5_936_1975" maskUnits="userSpaceOnUse" x="30.7305" y="25.0606" width="6" height="6" fill="black">
<rect fill="white" x="30.7305" y="25.0606" width="6" height="6"/>
<path d="M35.8517 28.1212C35.8517 29.2592 34.9291 30.1818 33.7911 30.1818C32.653 30.1818 31.7305 29.2592 31.7305 28.1212C31.7305 26.9832 32.653 26.0606 33.7911 26.0606C34.9291 26.0606 35.8517 26.9832 35.8517 28.1212Z"/>
<path fill-rule="evenodd" clip-rule="evenodd" d="M33.7911 29.1818C34.3768 29.1818 34.8517 28.707 34.8517 28.1212C34.8517 27.5355 34.3768 27.0606 33.7911 27.0606C33.2053 27.0606 32.7305 27.5355 32.7305 28.1212C32.7305 28.707 33.2053 29.1818 33.7911 29.1818ZM33.7911 30.1818C34.9291 30.1818 35.8517 29.2592 35.8517 28.1212C35.8517 26.9832 34.9291 26.0606 33.7911 26.0606C32.653 26.0606 31.7305 26.9832 31.7305 28.1212C31.7305 29.2592 32.653 30.1818 33.7911 30.1818Z"/>
</mask>
<path d="M35.8517 28.1212C35.8517 29.2592 34.9291 30.1818 33.7911 30.1818C32.653 30.1818 31.7305 29.2592 31.7305 28.1212C31.7305 26.9832 32.653 26.0606 33.7911 26.0606C34.9291 26.0606 35.8517 26.9832 35.8517 28.1212Z" fill="black"/>
<path fill-rule="evenodd" clip-rule="evenodd" d="M33.7911 29.1818C34.3768 29.1818 34.8517 28.707 34.8517 28.1212C34.8517 27.5355 34.3768 27.0606 33.7911 27.0606C33.2053 27.0606 32.7305 27.5355 32.7305 28.1212C32.7305 28.707 33.2053 29.1818 33.7911 29.1818ZM33.7911 30.1818C34.9291 30.1818 35.8517 29.2592 35.8517 28.1212C35.8517 26.9832 34.9291 26.0606 33.7911 26.0606C32.653 26.0606 31.7305 26.9832 31.7305 28.1212C31.7305 29.2592 32.653 30.1818 33.7911 30.1818Z" fill="white"/>
<path d="M35.3517 28.1212C35.3517 28.9831 34.653 29.6818 33.7911 29.6818V30.6818C35.2052 30.6818 36.3517 29.5354 36.3517 28.1212H35.3517ZM33.7911 29.6818C32.9292 29.6818 32.2305 28.9831 32.2305 28.1212H31.2305C31.2305 29.5354 32.3769 30.6818 33.7911 30.6818V29.6818ZM32.2305 28.1212C32.2305 27.2593 32.9292 26.5606 33.7911 26.5606V25.5606C32.3769 25.5606 31.2305 26.707 31.2305 28.1212H32.2305ZM33.7911 26.5606C34.653 26.5606 35.3517 27.2593 35.3517 28.1212H36.3517C36.3517 26.707 35.2052 25.5606 33.7911 25.5606V26.5606ZM33.8517 28.1212C33.8517 28.1547 33.8245 28.1818 33.7911 28.1818V30.1818C34.9291 30.1818 35.8517 29.2592 35.8517 28.1212H33.8517ZM33.7911 28.0606C33.8245 28.0606 33.8517 28.0877 33.8517 28.1212H35.8517C35.8517 26.9832 34.9291 26.0606 33.7911 26.0606V28.0606ZM33.7305 28.1212C33.7305 28.0877 33.7576 28.0606 33.7911 28.0606V26.0606C32.653 26.0606 31.7305 26.9832 31.7305 28.1212H33.7305ZM33.7911 28.1818C33.7576 28.1818 33.7305 28.1547 33.7305 28.1212H31.7305C31.7305 29.2592 32.653 30.1818 33.7911 30.1818V28.1818Z" fill="black" mask="url(#path-14-outside-5_936_1975)"/>
<mask id="path-16-outside-6_936_1975" maskUnits="userSpaceOnUse" x="28.668" y="33.818" width="6" height="6" fill="black">
<rect fill="white" x="28.668" y="33.818" width="6" height="6"/>
<path d="M33.7892 36.8786C33.7892 38.0166 32.8666 38.9392 31.7286 38.9392C30.5905 38.9392 29.668 38.0166 29.668 36.8786C29.668 35.7406 30.5905 34.818 31.7286 34.818C32.8666 34.818 33.7892 35.7406 33.7892 36.8786Z"/>
<path fill-rule="evenodd" clip-rule="evenodd" d="M31.7286 37.9392C32.3143 37.9392 32.7892 37.4643 32.7892 36.8786C32.7892 36.2928 32.3143 35.818 31.7286 35.818C31.1428 35.818 30.668 36.2928 30.668 36.8786C30.668 37.4643 31.1428 37.9392 31.7286 37.9392ZM31.7286 38.9392C32.8666 38.9392 33.7892 38.0166 33.7892 36.8786C33.7892 35.7406 32.8666 34.818 31.7286 34.818C30.5905 34.818 29.668 35.7406 29.668 36.8786C29.668 38.0166 30.5905 38.9392 31.7286 38.9392Z"/>
</mask>
<path d="M33.7892 36.8786C33.7892 38.0166 32.8666 38.9392 31.7286 38.9392C30.5905 38.9392 29.668 38.0166 29.668 36.8786C29.668 35.7406 30.5905 34.818 31.7286 34.818C32.8666 34.818 33.7892 35.7406 33.7892 36.8786Z" fill="black"/>
<path fill-rule="evenodd" clip-rule="evenodd" d="M31.7286 37.9392C32.3143 37.9392 32.7892 37.4643 32.7892 36.8786C32.7892 36.2928 32.3143 35.818 31.7286 35.818C31.1428 35.818 30.668 36.2928 30.668 36.8786C30.668 37.4643 31.1428 37.9392 31.7286 37.9392ZM31.7286 38.9392C32.8666 38.9392 33.7892 38.0166 33.7892 36.8786C33.7892 35.7406 32.8666 34.818 31.7286 34.818C30.5905 34.818 29.668 35.7406 29.668 36.8786C29.668 38.0166 30.5905 38.9392 31.7286 38.9392Z" fill="white"/>
<path d="M33.2892 36.8786C33.2892 37.7405 32.5905 38.4392 31.7286 38.4392V39.4392C33.1427 39.4392 34.2892 38.2928 34.2892 36.8786H33.2892ZM31.7286 38.4392C30.8667 38.4392 30.168 37.7405 30.168 36.8786H29.168C29.168 38.2928 30.3144 39.4392 31.7286 39.4392V38.4392ZM30.168 36.8786C30.168 36.0167 30.8667 35.318 31.7286 35.318V34.318C30.3144 34.318 29.168 35.4644 29.168 36.8786H30.168ZM31.7286 35.318C32.5905 35.318 33.2892 36.0167 33.2892 36.8786H34.2892C34.2892 35.4644 33.1427 34.318 31.7286 34.318V35.318ZM31.7892 36.8786C31.7892 36.9121 31.762 36.9392 31.7286 36.9392V38.9392C32.8666 38.9392 33.7892 38.0166 33.7892 36.8786H31.7892ZM31.7286 36.818C31.762 36.818 31.7892 36.8451 31.7892 36.8786H33.7892C33.7892 35.7406 32.8666 34.818 31.7286 34.818V36.818ZM31.668 36.8786C31.668 36.8451 31.6951 36.818 31.7286 36.818V34.818C30.5905 34.818 29.668 35.7406 29.668 36.8786H31.668ZM31.7286 36.9392C31.6951 36.9392 31.668 36.9121 31.668 36.8786H29.668C29.668 38.0166 30.5905 38.9392 31.7286 38.9392V36.9392Z" fill="black" mask="url(#path-16-outside-6_936_1975)"/>
<mask id="path-18-outside-7_936_1975" maskUnits="userSpaceOnUse" x="37" y="33.8179" width="6" height="6" fill="black">
<rect fill="white" x="37" y="33.8179" width="6" height="6"/>
<path d="M42.1212 36.8785C42.1212 38.0165 41.1986 38.9391 40.0606 38.9391C38.9226 38.9391 38 38.0165 38 36.8785C38 35.7404 38.9226 34.8179 40.0606 34.8179C41.1986 34.8179 42.1212 35.7404 42.1212 36.8785Z"/>
<path fill-rule="evenodd" clip-rule="evenodd" d="M40.0606 37.9391C40.6464 37.9391 41.1212 37.4642 41.1212 36.8785C41.1212 36.2927 40.6464 35.8179 40.0606 35.8179C39.4748 35.8179 39 36.2927 39 36.8785C39 37.4642 39.4748 37.9391 40.0606 37.9391ZM40.0606 38.9391C41.1986 38.9391 42.1212 38.0165 42.1212 36.8785C42.1212 35.7404 41.1986 34.8179 40.0606 34.8179C38.9226 34.8179 38 35.7404 38 36.8785C38 38.0165 38.9226 38.9391 40.0606 38.9391Z"/>
</mask>
<path d="M42.1212 36.8785C42.1212 38.0165 41.1986 38.9391 40.0606 38.9391C38.9226 38.9391 38 38.0165 38 36.8785C38 35.7404 38.9226 34.8179 40.0606 34.8179C41.1986 34.8179 42.1212 35.7404 42.1212 36.8785Z" fill="black"/>
<path fill-rule="evenodd" clip-rule="evenodd" d="M40.0606 37.9391C40.6464 37.9391 41.1212 37.4642 41.1212 36.8785C41.1212 36.2927 40.6464 35.8179 40.0606 35.8179C39.4748 35.8179 39 36.2927 39 36.8785C39 37.4642 39.4748 37.9391 40.0606 37.9391ZM40.0606 38.9391C41.1986 38.9391 42.1212 38.0165 42.1212 36.8785C42.1212 35.7404 41.1986 34.8179 40.0606 34.8179C38.9226 34.8179 38 35.7404 38 36.8785C38 38.0165 38.9226 38.9391 40.0606 38.9391Z" fill="white"/>
<path d="M41.6212 36.8785C41.6212 37.7404 40.9225 38.4391 40.0606 38.4391V39.4391C41.4748 39.4391 42.6212 38.2926 42.6212 36.8785H41.6212ZM40.0606 38.4391C39.1987 38.4391 38.5 37.7404 38.5 36.8785H37.5C37.5 38.2926 38.6464 39.4391 40.0606 39.4391V38.4391ZM38.5 36.8785C38.5 36.0166 39.1987 35.3179 40.0606 35.3179V34.3179C38.6464 34.3179 37.5 35.4643 37.5 36.8785H38.5ZM40.0606 35.3179C40.9225 35.3179 41.6212 36.0166 41.6212 36.8785H42.6212C42.6212 35.4643 41.4748 34.3179 40.0606 34.3179V35.3179ZM40.1212 36.8785C40.1212 36.9119 40.0941 36.9391 40.0606 36.9391V38.9391C41.1986 38.9391 42.1212 38.0165 42.1212 36.8785H40.1212ZM40.0606 36.8179C40.0941 36.8179 40.1212 36.845 40.1212 36.8785H42.1212C42.1212 35.7404 41.1986 34.8179 40.0606 34.8179V36.8179ZM40 36.8785C40 36.845 40.0271 36.8179 40.0606 36.8179V34.8179C38.9226 34.8179 38 35.7404 38 36.8785H40ZM40.0606 36.9391C40.0271 36.9391 40 36.9119 40 36.8785H38C38 38.0165 38.9226 38.9391 40.0606 38.9391V36.9391Z" fill="black" mask="url(#path-18-outside-7_936_1975)"/>
<mask id="path-20-outside-8_936_1975" maskUnits="userSpaceOnUse" x="20.4219" y="28.6665" width="6" height="6" fill="black">
<rect fill="white" x="20.4219" y="28.6665" width="6" height="6"/>
<path d="M25.5431 31.7271C25.5431 32.8651 24.6205 33.7877 23.4825 33.7877C22.3444 33.7877 21.4219 32.8651 21.4219 31.7271C21.4219 30.5891 22.3444 29.6665 23.4825 29.6665C24.6205 29.6665 25.5431 30.5891 25.5431 31.7271Z"/>
<path fill-rule="evenodd" clip-rule="evenodd" d="M23.4825 32.7877C24.0682 32.7877 24.5431 32.3129 24.5431 31.7271C24.5431 31.1414 24.0682 30.6665 23.4825 30.6665C22.8967 30.6665 22.4219 31.1414 22.4219 31.7271C22.4219 32.3129 22.8967 32.7877 23.4825 32.7877ZM23.4825 33.7877C24.6205 33.7877 25.5431 32.8651 25.5431 31.7271C25.5431 30.5891 24.6205 29.6665 23.4825 29.6665C22.3444 29.6665 21.4219 30.5891 21.4219 31.7271C21.4219 32.8651 22.3444 33.7877 23.4825 33.7877Z"/>
</mask>
<path d="M25.5431 31.7271C25.5431 32.8651 24.6205 33.7877 23.4825 33.7877C22.3444 33.7877 21.4219 32.8651 21.4219 31.7271C21.4219 30.5891 22.3444 29.6665 23.4825 29.6665C24.6205 29.6665 25.5431 30.5891 25.5431 31.7271Z" fill="black"/>
<path fill-rule="evenodd" clip-rule="evenodd" d="M23.4825 32.7877C24.0682 32.7877 24.5431 32.3129 24.5431 31.7271C24.5431 31.1414 24.0682 30.6665 23.4825 30.6665C22.8967 30.6665 22.4219 31.1414 22.4219 31.7271C22.4219 32.3129 22.8967 32.7877 23.4825 32.7877ZM23.4825 33.7877C24.6205 33.7877 25.5431 32.8651 25.5431 31.7271C25.5431 30.5891 24.6205 29.6665 23.4825 29.6665C22.3444 29.6665 21.4219 30.5891 21.4219 31.7271C21.4219 32.8651 22.3444 33.7877 23.4825 33.7877Z" fill="white"/>
<path d="M25.0431 31.7271C25.0431 32.589 24.3444 33.2877 23.4825 33.2877V34.2877C24.8967 34.2877 26.0431 33.1413 26.0431 31.7271H25.0431ZM23.4825 33.2877C22.6206 33.2877 21.9219 32.589 21.9219 31.7271H20.9219C20.9219 33.1413 22.0683 34.2877 23.4825 34.2877V33.2877ZM21.9219 31.7271C21.9219 30.8652 22.6206 30.1665 23.4825 30.1665V29.1665C22.0683 29.1665 20.9219 30.3129 20.9219 31.7271H21.9219ZM23.4825 30.1665C24.3444 30.1665 25.0431 30.8652 25.0431 31.7271H26.0431C26.0431 30.3129 24.8967 29.1665 23.4825 29.1665V30.1665ZM23.5431 31.7271C23.5431 31.7606 23.5159 31.7877 23.4825 31.7877V33.7877C24.6205 33.7877 25.5431 32.8651 25.5431 31.7271H23.5431ZM23.4825 31.6665C23.5159 31.6665 23.5431 31.6936 23.5431 31.7271H25.5431C25.5431 30.5891 24.6205 29.6665 23.4825 29.6665V31.6665ZM23.4219 31.7271C23.4219 31.6936 23.449 31.6665 23.4825 31.6665V29.6665C22.3444 29.6665 21.4219 30.5891 21.4219 31.7271H23.4219ZM23.4825 31.7877C23.449 31.7877 23.4219 31.7606 23.4219 31.7271H21.4219C21.4219 32.8651 22.3444 33.7877 23.4825 33.7877V31.7877Z" fill="black" mask="url(#path-20-outside-8_936_1975)"/>
<mask id="path-22-outside-9_936_1975" maskUnits="userSpaceOnUse" x="14" y="35" width="6" height="6" fill="black">
<rect fill="white" x="14" y="35" width="6" height="6"/>
<path d="M19.1212 38.0606C19.1212 39.1986 18.1986 40.1212 17.0606 40.1212C15.9226 40.1212 15 39.1986 15 38.0606C15 36.9226 15.9226 36 17.0606 36C18.1986 36 19.1212 36.9226 19.1212 38.0606Z"/>
<path fill-rule="evenodd" clip-rule="evenodd" d="M17.0606 39.1212C17.6464 39.1212 18.1212 38.6464 18.1212 38.0606C18.1212 37.4748 17.6464 37 17.0606 37C16.4748 37 16 37.4748 16 38.0606C16 38.6464 16.4748 39.1212 17.0606 39.1212ZM17.0606 40.1212C18.1986 40.1212 19.1212 39.1986 19.1212 38.0606C19.1212 36.9226 18.1986 36 17.0606 36C15.9226 36 15 36.9226 15 38.0606C15 39.1986 15.9226 40.1212 17.0606 40.1212Z"/>
</mask>
<path d="M19.1212 38.0606C19.1212 39.1986 18.1986 40.1212 17.0606 40.1212C15.9226 40.1212 15 39.1986 15 38.0606C15 36.9226 15.9226 36 17.0606 36C18.1986 36 19.1212 36.9226 19.1212 38.0606Z" fill="black"/>
<path fill-rule="evenodd" clip-rule="evenodd" d="M17.0606 39.1212C17.6464 39.1212 18.1212 38.6464 18.1212 38.0606C18.1212 37.4748 17.6464 37 17.0606 37C16.4748 37 16 37.4748 16 38.0606C16 38.6464 16.4748 39.1212 17.0606 39.1212ZM17.0606 40.1212C18.1986 40.1212 19.1212 39.1986 19.1212 38.0606C19.1212 36.9226 18.1986 36 17.0606 36C15.9226 36 15 36.9226 15 38.0606C15 39.1986 15.9226 40.1212 17.0606 40.1212Z" fill="white"/>
<path d="M18.6212 38.0606C18.6212 38.9225 17.9225 39.6212 17.0606 39.6212V40.6212C18.4748 40.6212 19.6212 39.4748 19.6212 38.0606H18.6212ZM17.0606 39.6212C16.1987 39.6212 15.5 38.9225 15.5 38.0606H14.5C14.5 39.4748 15.6464 40.6212 17.0606 40.6212V39.6212ZM15.5 38.0606C15.5 37.1987 16.1987 36.5 17.0606 36.5V35.5C15.6464 35.5 14.5 36.6464 14.5 38.0606H15.5ZM17.0606 36.5C17.9225 36.5 18.6212 37.1987 18.6212 38.0606H19.6212C19.6212 36.6464 18.4748 35.5 17.0606 35.5V36.5ZM17.1212 38.0606C17.1212 38.0941 17.0941 38.1212 17.0606 38.1212V40.1212C18.1986 40.1212 19.1212 39.1986 19.1212 38.0606H17.1212ZM17.0606 38C17.0941 38 17.1212 38.0271 17.1212 38.0606H19.1212C19.1212 36.9226 18.1986 36 17.0606 36V38ZM17 38.0606C17 38.0271 17.0271 38 17.0606 38V36C15.9226 36 15 36.9226 15 38.0606H17ZM17.0606 38.1212C17.0271 38.1212 17 38.0941 17 38.0606H15C15 39.1986 15.9226 40.1212 17.0606 40.1212V38.1212Z" fill="black" mask="url(#path-22-outside-9_936_1975)"/>
<mask id="path-24-outside-10_936_1975" maskUnits="userSpaceOnUse" x="6.51562" y="28.6665" width="6" height="6" fill="black">
<rect fill="white" x="6.51562" y="28.6665" width="6" height="6"/>
<path d="M11.6368 31.7271C11.6368 32.8651 10.7143 33.7877 9.57622 33.7877C8.43819 33.7877 7.51562 32.8651 7.51562 31.7271C7.51562 30.5891 8.43819 29.6665 9.57622 29.6665C10.7143 29.6665 11.6368 30.5891 11.6368 31.7271Z"/>
<path fill-rule="evenodd" clip-rule="evenodd" d="M9.57622 32.7877C10.162 32.7877 10.6368 32.3129 10.6368 31.7271C10.6368 31.1414 10.162 30.6665 9.57622 30.6665C8.99047 30.6665 8.51562 31.1414 8.51562 31.7271C8.51562 32.3129 8.99047 32.7877 9.57622 32.7877ZM9.57622 33.7877C10.7143 33.7877 11.6368 32.8651 11.6368 31.7271C11.6368 30.5891 10.7143 29.6665 9.57622 29.6665C8.43819 29.6665 7.51562 30.5891 7.51562 31.7271C7.51562 32.8651 8.43819 33.7877 9.57622 33.7877Z"/>
</mask>
<path d="M11.6368 31.7271C11.6368 32.8651 10.7143 33.7877 9.57622 33.7877C8.43819 33.7877 7.51562 32.8651 7.51562 31.7271C7.51562 30.5891 8.43819 29.6665 9.57622 29.6665C10.7143 29.6665 11.6368 30.5891 11.6368 31.7271Z" fill="black"/>
<path fill-rule="evenodd" clip-rule="evenodd" d="M9.57622 32.7877C10.162 32.7877 10.6368 32.3129 10.6368 31.7271C10.6368 31.1414 10.162 30.6665 9.57622 30.6665C8.99047 30.6665 8.51562 31.1414 8.51562 31.7271C8.51562 32.3129 8.99047 32.7877 9.57622 32.7877ZM9.57622 33.7877C10.7143 33.7877 11.6368 32.8651 11.6368 31.7271C11.6368 30.5891 10.7143 29.6665 9.57622 29.6665C8.43819 29.6665 7.51562 30.5891 7.51562 31.7271C7.51562 32.8651 8.43819 33.7877 9.57622 33.7877Z" fill="white"/>
<path d="M11.1368 31.7271C11.1368 32.589 10.4381 33.2877 9.57622 33.2877V34.2877C10.9904 34.2877 12.1368 33.1413 12.1368 31.7271H11.1368ZM9.57622 33.2877C8.71433 33.2877 8.01562 32.589 8.01562 31.7271H7.01562C7.01562 33.1413 8.16204 34.2877 9.57622 34.2877V33.2877ZM8.01562 31.7271C8.01562 30.8652 8.71433 30.1665 9.57622 30.1665V29.1665C8.16204 29.1665 7.01562 30.3129 7.01562 31.7271H8.01562ZM9.57622 30.1665C10.4381 30.1665 11.1368 30.8652 11.1368 31.7271H12.1368C12.1368 30.3129 10.9904 29.1665 9.57622 29.1665V30.1665ZM9.63682 31.7271C9.63682 31.7606 9.60969 31.7877 9.57622 31.7877V33.7877C10.7143 33.7877 11.6368 32.8651 11.6368 31.7271H9.63682ZM9.57622 31.6665C9.60969 31.6665 9.63682 31.6936 9.63682 31.7271H11.6368C11.6368 30.5891 10.7143 29.6665 9.57622 29.6665V31.6665ZM9.51562 31.7271C9.51562 31.6936 9.54276 31.6665 9.57622 31.6665V29.6665C8.43819 29.6665 7.51562 30.5891 7.51562 31.7271H9.51562ZM9.57622 31.7877C9.54276 31.7877 9.51562 31.7606 9.51562 31.7271H7.51562C7.51562 32.8651 8.43819 33.7877 9.57622 33.7877V31.7877Z" fill="black" mask="url(#path-24-outside-10_936_1975)"/>
<mask id="path-26-outside-11_936_1975" maskUnits="userSpaceOnUse" x="13.2148" y="21.8724" width="6" height="6" fill="black">
<rect fill="white" x="13.2148" y="21.8724" width="6" height="6"/>
<path d="M18.336 24.933C18.336 26.071 17.4135 26.9936 16.2754 26.9936C15.1374 26.9936 14.2148 26.071 14.2148 24.933C14.2148 23.7949 15.1374 22.8724 16.2754 22.8724C17.4135 22.8724 18.336 23.7949 18.336 24.933Z"/>
<path fill-rule="evenodd" clip-rule="evenodd" d="M16.2754 25.9936C16.8612 25.9936 17.336 25.5187 17.336 24.933C17.336 24.3472 16.8612 23.8724 16.2754 23.8724C15.6897 23.8724 15.2148 24.3472 15.2148 24.933C15.2148 25.5187 15.6897 25.9936 16.2754 25.9936ZM16.2754 26.9936C17.4135 26.9936 18.336 26.071 18.336 24.933C18.336 23.7949 17.4135 22.8724 16.2754 22.8724C15.1374 22.8724 14.2148 23.7949 14.2148 24.933C14.2148 26.071 15.1374 26.9936 16.2754 26.9936Z"/>
</mask>
<path d="M18.336 24.933C18.336 26.071 17.4135 26.9936 16.2754 26.9936C15.1374 26.9936 14.2148 26.071 14.2148 24.933C14.2148 23.7949 15.1374 22.8724 16.2754 22.8724C17.4135 22.8724 18.336 23.7949 18.336 24.933Z" fill="black"/>
<path fill-rule="evenodd" clip-rule="evenodd" d="M16.2754 25.9936C16.8612 25.9936 17.336 25.5187 17.336 24.933C17.336 24.3472 16.8612 23.8724 16.2754 23.8724C15.6897 23.8724 15.2148 24.3472 15.2148 24.933C15.2148 25.5187 15.6897 25.9936 16.2754 25.9936ZM16.2754 26.9936C17.4135 26.9936 18.336 26.071 18.336 24.933C18.336 23.7949 17.4135 22.8724 16.2754 22.8724C15.1374 22.8724 14.2148 23.7949 14.2148 24.933C14.2148 26.071 15.1374 26.9936 16.2754 26.9936Z" fill="white"/>
<path d="M17.836 24.933C17.836 25.7949 17.1373 26.4936 16.2754 26.4936V27.4936C17.6896 27.4936 18.836 26.3472 18.836 24.933H17.836ZM16.2754 26.4936C15.4135 26.4936 14.7148 25.7949 14.7148 24.933H13.7148C13.7148 26.3472 14.8613 27.4936 16.2754 27.4936V26.4936ZM14.7148 24.933C14.7148 24.0711 15.4135 23.3724 16.2754 23.3724V22.3724C14.8613 22.3724 13.7148 23.5188 13.7148 24.933H14.7148ZM16.2754 23.3724C17.1373 23.3724 17.836 24.0711 17.836 24.933H18.836C18.836 23.5188 17.6896 22.3724 16.2754 22.3724V23.3724ZM16.336 24.933C16.336 24.9664 16.3089 24.9936 16.2754 24.9936V26.9936C17.4135 26.9936 18.336 26.071 18.336 24.933H16.336ZM16.2754 24.8724C16.3089 24.8724 16.336 24.8995 16.336 24.933H18.336C18.336 23.7949 17.4135 22.8724 16.2754 22.8724V24.8724ZM16.2148 24.933C16.2148 24.8995 16.242 24.8724 16.2754 24.8724V22.8724C15.1374 22.8724 14.2148 23.7949 14.2148 24.933H16.2148ZM16.2754 24.9936C16.242 24.9936 16.2148 24.9664 16.2148 24.933H14.2148C14.2148 26.071 15.1374 26.9936 16.2754 26.9936V24.9936Z" fill="black" mask="url(#path-26-outside-11_936_1975)"/>
</svg>
