<svg width="48" height="48" viewBox="0 0 48 48" fill="none" xmlns="http://www.w3.org/2000/svg">
<path d="M17.5 7.5C18.8628 7.5 19.9242 7.77712 20.7457 8.24338C21.5648 8.7083 22.1731 9.37679 22.6085 10.2052C23.256 11.4372 23.2797 12.8012 22.9196 14.2021C22.5581 15.6085 21.8172 17.019 20.984 18.2969L17.6114 23.4695C17.5889 23.485 17.5516 23.5 17.5 23.5C17.4484 23.5 17.4111 23.485 17.3886 23.4695L14.016 18.2969C13.1828 17.019 12.4419 15.6085 12.0804 14.2021C11.7203 12.8012 11.744 11.4372 12.3915 10.2052C12.8269 9.37679 13.4352 8.7083 14.2543 8.24338C15.0758 7.77712 16.1372 7.5 17.5 7.5Z" fill="white" stroke="black"/>
<path fill-rule="evenodd" clip-rule="evenodd" d="M18.582 25.3045V39.4375C18.582 39.7136 18.8059 39.9375 19.082 39.9375H35.4154C35.6915 39.9375 35.9154 39.7136 35.9154 39.4375V14.9375C35.9154 14.6614 35.6915 14.4375 35.4154 14.4375H24.6881C24.1972 16.3692 23.1851 18.2781 22.0748 19.9729L18.582 25.3045Z" fill="white"/>
<path d="M19.1654 12.3125C19.1654 13.2009 18.4284 13.9375 17.4987 13.9375C16.569 13.9375 15.832 13.2009 15.832 12.3125C15.832 11.4241 16.569 10.6875 17.4987 10.6875C18.4284 10.6875 19.1654 11.4241 19.1654 12.3125Z" stroke="black"/>
<path fill-rule="evenodd" clip-rule="evenodd" d="M18.0815 25.9001C17.8282 26.1458 17.5 26.4111 17.5 26.764V39.4062C17.5 40.2865 18.2275 41 19.125 41H35.375C36.2725 41 37 40.2865 37 39.4062V14.9688C37 14.0885 36.2725 13.375 35.375 13.375H25.3343C25.0914 13.375 24.8845 13.5452 24.8297 13.7818C24.7536 14.1106 24.9955 14.4375 25.333 14.4375H35.375C35.6742 14.4375 35.9167 14.6753 35.9167 14.9688V39.4062C35.9167 39.6997 35.6742 39.9375 35.375 39.9375H32.5742C32.6341 39.7713 32.6667 39.5925 32.6667 39.4062V33.0312C32.6667 32.151 31.9391 31.4375 31.0417 31.4375H23.4583C22.5609 31.4375 21.8333 32.151 21.8333 33.0312V39.4062C21.8333 39.5925 21.8659 39.7713 21.9258 39.9375H19.125C18.8258 39.9375 18.5833 39.6997 18.5833 39.4062V25.9813C18.5833 25.7342 18.2612 25.6393 18.1273 25.847C18.1202 25.858 18.1123 25.8685 18.1033 25.878C18.0962 25.8855 18.0889 25.8929 18.0815 25.9001ZM26.7083 32.5V39.9375H23.4583C23.1592 39.9375 22.9167 39.6997 22.9167 39.4062V33.0312C22.9167 32.7378 23.1592 32.5 23.4583 32.5H26.7083ZM31.5833 39.4062C31.5833 39.6997 31.3408 39.9375 31.0417 39.9375H27.7917V32.5H31.0417C31.3408 32.5 31.5833 32.7378 31.5833 33.0312V39.4062Z" fill="black"/>
<path d="M21.2178 21.0542C21.1404 21.1742 21.1455 21.3329 21.2495 21.4308C21.5415 21.7059 21.9381 21.875 22.375 21.875H24.5417C25.4391 21.875 26.1667 21.1615 26.1667 20.2812V18.1562C26.1667 17.276 25.4391 16.5625 24.5417 16.5625H24.1801C23.9792 16.5625 23.7974 16.6792 23.7102 16.8602C23.5416 17.2101 23.7909 17.625 24.1794 17.625H24.5417C24.8408 17.625 25.0833 17.8628 25.0833 18.1562V20.2812C25.0833 20.5747 24.8408 20.8125 24.5417 20.8125H22.375C22.0758 20.8125 21.8333 20.5747 21.8333 20.2812C21.8333 20.2279 21.7638 20.2074 21.7349 20.2523L21.2178 21.0542Z" fill="black"/>
<path fill-rule="evenodd" clip-rule="evenodd" d="M32.125 16.5625H29.9583C29.0609 16.5625 28.3333 17.276 28.3333 18.1562V20.2812C28.3333 21.1615 29.0609 21.875 29.9583 21.875H32.125C33.0225 21.875 33.75 21.1615 33.75 20.2812V18.1562C33.75 17.276 33.0225 16.5625 32.125 16.5625ZM29.4167 18.1562C29.4167 17.8628 29.6592 17.625 29.9583 17.625H32.125C32.4242 17.625 32.6667 17.8628 32.6667 18.1562V20.2812C32.6667 20.5747 32.4242 20.8125 32.125 20.8125H29.9583C29.6592 20.8125 29.4167 20.5747 29.4167 20.2812V18.1562Z" fill="black"/>
<path fill-rule="evenodd" clip-rule="evenodd" d="M22.375 22.9375H24.5417C25.4391 22.9375 26.1667 23.651 26.1667 24.5312V26.6562C26.1667 27.5365 25.4391 28.25 24.5417 28.25H22.375C21.4775 28.25 20.75 27.5365 20.75 26.6562V24.5312C20.75 23.651 21.4775 22.9375 22.375 22.9375ZM22.375 24C22.0758 24 21.8333 24.2378 21.8333 24.5312V26.6562C21.8333 26.9497 22.0758 27.1875 22.375 27.1875H24.5417C24.8408 27.1875 25.0833 26.9497 25.0833 26.6562V24.5312C25.0833 24.2378 24.8408 24 24.5417 24H22.375Z" fill="black"/>
<path fill-rule="evenodd" clip-rule="evenodd" d="M32.125 22.9375H29.9583C29.0609 22.9375 28.3333 23.651 28.3333 24.5312V26.6562C28.3333 27.5365 29.0609 28.25 29.9583 28.25H32.125C33.0225 28.25 33.75 27.5365 33.75 26.6562V24.5312C33.75 23.651 33.0225 22.9375 32.125 22.9375ZM29.4167 24.5312C29.4167 24.2378 29.6592 24 29.9583 24H32.125C32.4242 24 32.6667 24.2378 32.6667 24.5312V26.6562C32.6667 26.9497 32.4242 27.1875 32.125 27.1875H29.9583C29.6592 27.1875 29.4167 26.9497 29.4167 26.6562V24.5312Z" fill="black"/>
</svg>
