<?xml version="1.0" encoding="utf-8"?>
<!-- Generator: Adobe Illustrator 26.0.1, SVG Export Plug-In . SVG Version: 6.00 Build 0)  -->
<svg version="1.1" id="레이어_1" xmlns="http://www.w3.org/2000/svg" xmlns:xlink="http://www.w3.org/1999/xlink" x="0px"
	 y="0px" viewBox="0 0 200.7 242.4" style="enable-background:new 0 0 200.7 242.4;" xml:space="preserve">
<style type="text/css">
	.st0{filter:url(#Adobe_OpacityMaskFilter);}
	.st1{clip-path:url(#SVGID_00000052827090794235112290000006304386000326315163_);fill:#313A48;}
	.st2{clip-path:url(#SVGID_00000052827090794235112290000006304386000326315163_);fill:none;stroke:#FFFFFF;stroke-width:0.3702;}
	.st3{clip-path:url(#SVGID_00000052827090794235112290000006304386000326315163_);fill:#FFFFFF;}
	.st4{clip-path:url(#SVGID_00000052827090794235112290000006304386000326315163_);}
	
		.st5{clip-path:url(#SVGID_00000052827090794235112290000006304386000326315163_);fill-rule:evenodd;clip-rule:evenodd;fill:#707070;}
	
		.st6{clip-path:url(#SVGID_00000052827090794235112290000006304386000326315163_);fill-rule:evenodd;clip-rule:evenodd;fill:#D29B4A;}
	.st7{clip-path:url(#SVGID_00000052827090794235112290000006304386000326315163_);fill-rule:evenodd;clip-rule:evenodd;}
	.st8{clip-path:url(#SVGID_00000052827090794235112290000006304386000326315163_);fill:none;stroke:#000000;stroke-width:0.1851;}
	.st9{clip-path:url(#SVGID_00000060015705156851871660000013963929874327164581_);}
	.st10{fill:none;}
	
		.st11{clip-path:url(#SVGID_00000052827090794235112290000006304386000326315163_);fill:none;stroke:#000000;stroke-width:0.3702;stroke-linecap:round;}
	.st12{fill:none;stroke:#000000;stroke-width:0.3702;}
	.st13{fill:#D9D9D9;}
	.st14{filter:url(#Adobe_OpacityMaskFilter_00000018928047097067080330000008430779451007360937_);}
	.st15{mask:url(#SVGID_00000129171214929150643800000014329685646157471930_);}
	.st16{clip-path:url(#SVGID_00000065793076477121760380000002367321001698186643_);fill:#313A48;}
	.st17{clip-path:url(#SVGID_00000160173879211549175280000008932621105556021933_);fill:none;stroke:#FFFFFF;stroke-width:0.4523;}
	.st18{clip-path:url(#SVGID_00000137099602065146169750000016666889717824652707_);fill:#FFFFFF;}
	.st19{clip-path:url(#SVGID_00000119810348155915701180000000562108338014245802_);fill:#FFFFFF;}
	.st20{clip-path:url(#SVGID_00000075844965516357429650000011967557872312852903_);}
	
		.st21{clip-path:url(#SVGID_00000167397330806041339350000006566507737623760809_);fill-rule:evenodd;clip-rule:evenodd;fill:#707070;}
	.st22{clip-path:url(#SVGID_00000012467565013476505660000007636856201475641271_);fill:#FFFFFF;}
	.st23{clip-path:url(#SVGID_00000033353549387314102940000009940967176379306145_);}
	.st24{clip-path:url(#SVGID_00000161626148528798971620000011069099284886430352_);}
	
		.st25{clip-path:url(#SVGID_00000148649567308801046770000011308331469462335620_);fill-rule:evenodd;clip-rule:evenodd;fill:#D29B4A;}
	.st26{clip-path:url(#SVGID_00000098202162159228581790000014320892907219304854_);}
	.st27{clip-path:url(#SVGID_00000049935223918911794650000000051204479780565663_);}
	.st28{clip-path:url(#SVGID_00000155864962444851451320000001570605973502299824_);}
	.st29{clip-path:url(#SVGID_00000075855215012354284970000014495471374401383067_);}
	.st30{clip-path:url(#SVGID_00000142155234171356850680000011557387611681077174_);fill-rule:evenodd;clip-rule:evenodd;}
	.st31{clip-path:url(#SVGID_00000049926745692490837390000004280226285461397148_);fill-rule:evenodd;clip-rule:evenodd;}
	.st32{clip-path:url(#SVGID_00000145740838052348385450000014939041874014593162_);fill-rule:evenodd;clip-rule:evenodd;}
	.st33{clip-path:url(#SVGID_00000131354593001375891400000006737162419442723989_);fill-rule:evenodd;clip-rule:evenodd;}
	.st34{clip-path:url(#SVGID_00000086669052387780438780000000602688067960742585_);fill-rule:evenodd;clip-rule:evenodd;}
	.st35{clip-path:url(#SVGID_00000002367491317605255850000010943809977449647763_);fill-rule:evenodd;clip-rule:evenodd;}
	.st36{clip-path:url(#SVGID_00000023255437691902523050000016381820965406592407_);fill-rule:evenodd;clip-rule:evenodd;}
	.st37{clip-path:url(#SVGID_00000119799613902670332910000009537473300104417442_);fill-rule:evenodd;clip-rule:evenodd;}
	.st38{clip-path:url(#SVGID_00000072247781927055280390000000901077674132151732_);fill-rule:evenodd;clip-rule:evenodd;}
	.st39{clip-path:url(#SVGID_00000052784642436009434690000000329758280908284336_);fill-rule:evenodd;clip-rule:evenodd;}
	.st40{clip-path:url(#SVGID_00000011003191077133853690000001064055016253882765_);fill-rule:evenodd;clip-rule:evenodd;}
	.st41{clip-path:url(#SVGID_00000112617004909027796670000006277737646935963279_);fill:none;stroke:#000000;stroke-width:0.2262;}
	.st42{clip-path:url(#SVGID_00000163033028587664183000000005881602783073249689_);fill:none;stroke:#000000;stroke-width:0.2262;}
	.st43{clip-path:url(#SVGID_00000066485734736526356260000005078256882648473490_);fill:none;stroke:#000000;stroke-width:0.2262;}
	.st44{clip-path:url(#SVGID_00000039844548035383018760000016363306640723664529_);fill:none;stroke:#000000;stroke-width:0.2262;}
	.st45{clip-path:url(#SVGID_00000142135717653215355230000001737558743313938878_);}
	.st46{clip-path:url(#SVGID_00000011745868791726636030000017268983863553330344_);}
	.st47{clip-path:url(#SVGID_00000045595945238252912350000012987157689599770811_);fill:#313A48;}
	.st48{clip-path:url(#SVGID_00000061458348147273206350000006309724899791122577_);fill:#FFFFFF;}
	
		.st49{clip-path:url(#SVGID_00000085221294224281806890000013864359032614319780_);fill-rule:evenodd;clip-rule:evenodd;fill:#D29B4A;}
	.st50{clip-path:url(#SVGID_00000058560261522714721860000000335571780977459368_);fill:#FFFFFF;}
	.st51{clip-path:url(#SVGID_00000179643330080357251230000010113101843772526737_);}
	.st52{clip-path:url(#SVGID_00000003099816375528197330000004272560330228603311_);}
	.st53{clip-path:url(#SVGID_00000127761865885405586800000013365899068047134122_);}
	.st54{clip-path:url(#SVGID_00000106107103212420342990000008172879426362309304_);}
	.st55{clip-path:url(#SVGID_00000035529697107265807250000010437166718304603315_);}
	.st56{clip-path:url(#SVGID_00000083773108623463406850000003735297517256355481_);}
	
		.st57{clip-path:url(#SVGID_00000045577743019750800260000006871177291355933361_);fill-rule:evenodd;clip-rule:evenodd;fill:#D29B4A;}
	
		.st58{clip-path:url(#SVGID_00000133500592112786151490000016058924489258307761_);fill:none;stroke:#000000;stroke-width:0.4523;stroke-linecap:round;}
	
		.st59{clip-path:url(#SVGID_00000171683868370946238200000016846659289941807247_);fill:none;stroke:#000000;stroke-width:0.4523;stroke-linecap:round;}
	.st60{clip-path:url(#SVGID_00000041979196039652892680000018327080402349603474_);}
	.st61{fill:none;stroke:#000000;stroke-width:0.4523;}
</style>
<defs>
	<filter id="Adobe_OpacityMaskFilter" filterUnits="userSpaceOnUse" x="-121.4" y="21" width="308.5" height="142.4">
		<feFlood  style="flood-color:white;flood-opacity:1" result="back"/>
		<feBlend  in="SourceGraphic" in2="back" mode="normal"/>
	</filter>
</defs>
<mask maskUnits="userSpaceOnUse" x="-121.4" y="21" width="308.5" height="142.4" id="SVGID_00000159463890698384109400000017097342666941642174_">
	<g class="st0">
		<path d="M-178.4,281.3H198v-418.5h-376.4V281.3z M74.2-17.5v180.9h-178.5c-1.3,0-2.4-1.1-2.4-2.4V-15.1c0-1.3,1.1-2.4,2.4-2.4
			L74.2-17.5L74.2-17.5z"/>
	</g>
</mask>
<g style="mask:url(#SVGID_00000159463890698384109400000017097342666941642174_);">
	
		<image style="overflow:visible;" width="4160" height="1920" xlink:href="../20220223_144817.jpg"  transform="matrix(7.414836e-02 0 0 7.414836e-02 -121.3929 21.0345)">
	</image>
</g>
<g>
	<defs>
		<path id="SVGID_1_" d="M1.5,21.2h109.1c0.8,0,1.5,0.7,1.5,1.5v194.6c0,0.8-0.7,1.5-1.5,1.5H1.5c-0.8,0-1.5-0.7-1.5-1.5V22.6
			C0,21.8,0.7,21.2,1.5,21.2z"/>
	</defs>
	<clipPath id="SVGID_00000065059977566107318800000015991767731342102159_">
		<use xlink:href="#SVGID_1_"  style="overflow:visible;"/>
	</clipPath>
	<path style="clip-path:url(#SVGID_00000065059977566107318800000015991767731342102159_);fill:#313A48;" d="M0,204h112.1v14.7H0
		V204z"/>
	
		<path style="clip-path:url(#SVGID_00000065059977566107318800000015991767731342102159_);fill:none;stroke:#FFFFFF;stroke-width:0.3702;" d="
		M0.9,204.9h110.2v11.6c0,0.7-0.6,1.3-1.3,1.3H2.2c-0.7,0-1.3-0.6-1.3-1.3V204.9z"/>
	<path style="clip-path:url(#SVGID_00000065059977566107318800000015991767731342102159_);fill:#FFFFFF;" d="M45.8,210.2H43v0.5h2.9
		v0.4h-3.4v-1.3h3.3V210.2z M42.2,211.8v-0.4h3.9v0.4h-1.7v0.4h1.4v1.2H43v0.3h2.9v0.4h-3.4v-1.2h2.8v-0.3h-2.8v-0.4h1.4v-0.4H42.2z
		 M48.4,213.7h-1.6v-2.2h1.4v-1.3h-1.4v-0.5h1.9v2.2h-1.4v1.3h1.1c0.3,0,0.6,0,0.8-0.1v0.4C49.1,213.7,48.8,213.7,48.4,213.7z
		 M50.3,209.7v4.3h-0.5v-2.1H49v-0.5h0.8v-1.7H50.3z M51.9,210.6h2.4v-0.9h0.5v2.6h-1.4v1h1.7v0.5h-3.9v-0.5h1.7v-1h-1.5v-2.6h0.5
		V210.6z M54.3,211.9v-0.9h-2.4v0.9H54.3z M57.4,213.7h-1.6v-2.2h1.4v-1.3h-1.4v-0.5h1.9v2.2h-1.4v1.3h1.1c0.3,0,0.6,0,0.8-0.1v0.4
		C58.1,213.7,57.8,213.7,57.4,213.7z M59.3,209.7v4.3h-0.5v-2.1H58v-0.5h0.8v-1.7H59.3z M63.2,210.7v-0.5h-1.6v-0.5h2.1v0.9
		c0,1.7-0.6,2.8-2.1,3.1v-0.5C62.7,213,63.2,212.1,63.2,210.7z M65,209.7v1.8h0.7v0.5H65v2.1h-0.5v-4.3H65z M67.7,210.7v-0.5h-1.6
		v-0.5h2.1v0.9c0,1.7-0.6,2.8-2.1,3.1v-0.5C67.2,213,67.7,212.1,67.7,210.7z M69.6,209.7v4.3h-0.5v-4.3H69.6z"/>
	
		<rect x="0" y="195.1" style="clip-path:url(#SVGID_00000065059977566107318800000015991767731342102159_);fill:#FFFFFF;" width="112.1" height="8.8"/>
	<path style="clip-path:url(#SVGID_00000065059977566107318800000015991767731342102159_);" d="M8.8,198.5h1.4v0.2H9.6v0.9
		c0,0.6,0.3,1,0.6,1.2v0.2c-0.3-0.1-0.6-0.5-0.7-0.8c-0.1,0.3-0.4,0.7-0.7,0.8v-0.2c0.3-0.1,0.6-0.5,0.6-1.2v-0.9H8.8V198.5z
		 M10.8,198.5v1.1h0.4v0.2h-0.4v1.3h-0.2v-2.6H10.8z M12,200.2c-0.1,0.3-0.3,0.6-0.6,0.7v-0.2c0.3-0.2,0.5-0.5,0.5-1.1v-1.2h0.2v1.2
		c0,0.6,0.2,0.9,0.5,1.1v0.2C12.3,200.8,12.1,200.5,12,200.2z M13.1,201.1h-0.2v-1.4h-0.5v-0.2h0.5v-1h0.2V201.1z M13.7,201.1h-0.2
		v-2.6h0.2V201.1z M15.7,198.9h-1.5v-0.2h0.7v-0.3H15v0.3h0.7V198.9z M14.5,199.7c0,0.1,0,0.2,0.1,0.2c0.1,0.1,0.2,0.1,0.4,0.1
		c0.1,0,0.3,0,0.4-0.1c0.1-0.1,0.1-0.1,0.1-0.2c0-0.1,0-0.2-0.1-0.2c-0.1-0.1-0.2-0.1-0.4-0.1c-0.1,0-0.3,0-0.4,0.1
		C14.5,199.5,14.5,199.6,14.5,199.7z M14.3,199.7c0-0.1,0.1-0.3,0.2-0.4c0.1-0.1,0.3-0.2,0.5-0.2c0.2,0,0.4,0.1,0.5,0.2
		c0.1,0.1,0.2,0.2,0.2,0.4c0,0.1-0.1,0.3-0.2,0.4c-0.1,0.1-0.3,0.1-0.5,0.1c-0.2,0-0.4-0.1-0.5-0.1
		C14.4,199.9,14.3,199.8,14.3,199.7z M16.4,198.5v0.8h0.4v0.2h-0.4v0.9h-0.2v-1.9H16.4z M14.6,200.4v0.6h1.8v0.2h-2v-0.7H14.6z
		 M18.6,200.9h-0.7v-2.4h0.2v2.2h0.5c0.2,0,0.4-0.1,0.6-0.2v-2.1h0.2v1.1h0.5v-1.1H20v2.6h-0.2v-1.3h-0.5v1.3h-0.2v-0.3
		C19.1,200.9,18.9,200.9,18.6,200.9z M20.7,199c0-0.1,0.1-0.2,0.2-0.3c0.2-0.1,0.5-0.2,0.9-0.2c0.4,0,0.7,0.1,0.9,0.2
		c0.1,0.1,0.2,0.2,0.2,0.3c0,0.1-0.1,0.2-0.2,0.3c-0.1,0.1-0.2,0.1-0.3,0.1v0.4h0.6v0.2h-2.4v-0.2h0.6v-0.4c-0.1,0-0.2-0.1-0.3-0.1
		C20.8,199.2,20.7,199.1,20.7,199z M22.2,199.4c-0.1,0-0.3,0-0.4,0c-0.2,0-0.3,0-0.4,0v0.4h0.8V199.4z M20.9,199
		c0,0.1,0,0.1,0.1,0.2c0.1,0.1,0.4,0.1,0.8,0.1s0.6,0,0.8-0.1c0.1,0,0.1-0.1,0.1-0.2c0-0.1,0-0.1-0.1-0.2c-0.1-0.1-0.4-0.1-0.8-0.1
		s-0.6,0-0.8,0.1C20.9,198.8,20.9,198.9,20.9,199z M20.7,200.7c0-0.1,0.1-0.2,0.2-0.3c0.2-0.1,0.5-0.2,0.9-0.2
		c0.4,0,0.7,0.1,0.9,0.2c0.1,0.1,0.2,0.2,0.2,0.3c0,0.1-0.1,0.2-0.2,0.3c-0.2,0.1-0.5,0.2-0.9,0.2c-0.4,0-0.7,0-0.9-0.2
		C20.8,201,20.7,200.9,20.7,200.7z M20.9,200.7c0,0.1,0,0.1,0.1,0.2c0.1,0.1,0.4,0.1,0.8,0.1s0.6,0,0.8-0.1c0.1,0,0.1-0.1,0.1-0.2
		c0-0.1,0-0.1-0.1-0.2c-0.1-0.1-0.4-0.1-0.8-0.1s-0.6,0-0.8,0.1C20.9,200.6,20.9,200.7,20.9,200.7z M24.6,199.7c0-0.5-0.1-0.8-0.2-1
		c-0.1-0.1-0.2-0.1-0.3-0.1c-0.1,0-0.2,0-0.3,0.1c-0.1,0.2-0.2,0.5-0.2,1c0,0.5,0.1,0.8,0.2,1c0.1,0.1,0.2,0.1,0.3,0.1
		c0.1,0,0.2,0,0.3-0.1C24.5,200.5,24.6,200.2,24.6,199.7z M23.4,199.7c0-0.5,0.1-0.9,0.2-1.1c0.1-0.1,0.2-0.2,0.4-0.2
		c0.2,0,0.3,0.1,0.4,0.2c0.2,0.2,0.2,0.6,0.2,1.1c0,0.5-0.1,0.9-0.2,1.1c-0.1,0.1-0.2,0.2-0.4,0.2c-0.2,0-0.3,0-0.4-0.2
		C23.5,200.6,23.4,200.2,23.4,199.7z M25.4,201.1v-2.6h0.2v2.6H25.4z M28.9,199v-0.3h-1.8v-0.2h2v0.4c0,0.1,0,0.3-0.1,0.4h-0.2
		C28.9,199.3,28.9,199.1,28.9,199z M26.9,199.7v-0.2h2.4v0.2h-1.1v0.5c0.3,0,0.6,0.1,0.8,0.2c0.1,0.1,0.2,0.2,0.2,0.3
		c0,0.1-0.1,0.2-0.2,0.3c-0.2,0.1-0.5,0.2-0.9,0.2s-0.7,0-0.9-0.2c-0.1-0.1-0.2-0.2-0.2-0.3c0-0.1,0.1-0.2,0.2-0.3
		c0.2-0.1,0.4-0.2,0.8-0.2v-0.5H26.9z M27.2,200.7c0,0.1,0,0.1,0.1,0.2c0.1,0.1,0.4,0.1,0.8,0.1c0.4,0,0.6,0,0.8-0.1
		c0.1,0,0.1-0.1,0.1-0.2c0-0.1,0-0.1-0.1-0.2c-0.1-0.1-0.4-0.1-0.8-0.1c-0.4,0-0.6,0-0.8,0.1C27.3,200.6,27.2,200.6,27.2,200.7z
		 M31.7,199v-0.3h-1.8v-0.2h2v0.5c0,0.1,0,0.3-0.1,0.5h-0.2C31.7,199.3,31.7,199.1,31.7,199z M29.7,199.8v-0.2h2.4v0.2H29.7z
		 M31.9,201.1h-2v-0.9h2V201.1z M31.7,201v-0.6h-1.6v0.6H31.7z M32.4,199v-0.2h0.7v-0.4h0.2v0.4H34v0.2H32.4z M32.7,200.1
		c0,0.3,0.1,0.5,0.2,0.6c0.1,0.1,0.2,0.1,0.3,0.1c0.1,0,0.2,0,0.3-0.1c0.1-0.1,0.2-0.3,0.2-0.6c0-0.3-0.1-0.5-0.2-0.6
		c-0.1-0.1-0.2-0.1-0.3-0.1c-0.1,0-0.2,0-0.3,0.1C32.8,199.7,32.7,199.9,32.7,200.1z M32.6,200.1c0-0.3,0.1-0.6,0.2-0.7
		c0.1-0.1,0.2-0.1,0.4-0.1c0.2,0,0.3,0,0.4,0.1c0.2,0.1,0.2,0.4,0.2,0.7c0,0.3-0.1,0.6-0.2,0.7c-0.1,0.1-0.2,0.1-0.4,0.1
		c-0.2,0-0.3,0-0.4-0.1C32.6,200.7,32.6,200.5,32.6,200.1z M34.6,198.5v1.1H35v0.2h-0.4v1.3h-0.2v-2.6H34.6z M36.5,200.9h-1.1v-2.4
		h1.2v0.2h-1v2.1h1c0.3,0,0.5-0.1,0.7-0.2v-2h0.2v1.1h0.4v0.2h-0.4v1.3h-0.2v-0.4C37,200.8,36.8,200.9,36.5,200.9z M38.1,199.9v-1.4
		h1.2v0.3H40v-0.3h0.2v1.8H40v-0.7h-0.7v0.3H38.1z M39.3,199v0.5H40V199H39.3z M39.2,198.7h-0.9v1.1h0.9V198.7z M40.3,201.1h-2v-0.8
		h0.2v0.7h1.8V201.1z M42,199.3c0-0.4-0.2-0.6-0.6-0.6c-0.4,0-0.6,0.3-0.6,0.6v0h0.2c0-0.3,0.2-0.5,0.5-0.5c0.3,0,0.5,0.2,0.5,0.5
		c0,0.2-0.1,0.3-0.3,0.5c-0.3,0.2-0.3,0.3-0.3,0.5v0.1h0.2v-0.1c0-0.2,0-0.3,0.3-0.5C41.9,199.6,42,199.5,42,199.3z M41.5,200.7
		h-0.2v0.3h0.2V200.7z"/>
	
		<path style="clip-path:url(#SVGID_00000065059977566107318800000015991767731342102159_);fill-rule:evenodd;clip-rule:evenodd;fill:#707070;" d="
		M5,198.3c0.1-0.1,0.2-0.1,0.3,0l1.2,1.2l-1.2,1.2c-0.1,0.1-0.2,0.1-0.3,0c-0.1-0.1-0.1-0.2,0-0.3l1-1l-1-1C5,198.5,5,198.4,5,198.3
		z"/>
	
		<rect x="-0.4" y="133.2" style="clip-path:url(#SVGID_00000065059977566107318800000015991767731342102159_);fill:#FFFFFF;" width="112.1" height="34.6"/>
	<path style="clip-path:url(#SVGID_00000065059977566107318800000015991767731342102159_);" d="M8.9,147v-1.2h1v3.9H6.5v-3.9h1v1.2
		H8.9z M8.9,147.8H7.5v1h1.4V147.8z M11.9,147.5h0.9v0.9h-0.9v2.1h-1v-4.7h1V147.5z M7.9,151.6H12v0.9H6.9v-2.3h1V151.6z
		 M18.1,148.8h1.2v0.9H17v1.6h2.5v0.9h-6v-0.9H16v-1.6h-2.3v-0.9h1v-2.1h-0.9v-0.9h5.3v0.9h-0.9v1C18.3,148.1,18.3,148.6,18.1,148.8
		z M15.7,148.8h1.5c0.1-0.3,0.2-0.7,0.2-1v-1.1h-1.6V148.8z M24.2,148.7c-0.3,0.5-0.9,0.9-1.5,1.2v-0.9c0.6-0.3,1-0.9,1-2v-1.1h1
		v1.1c0,1.1,0.4,1.6,1,1.9v0.9C25.1,149.5,24.5,149.1,24.2,148.7z M26.1,147.7h-0.9v-0.9h0.9v-1.1h1v4.6h-1V147.7z M27.5,145.7h1
		v4.8h-1V145.7z M23.4,152.5v-2.4h1v1.5h4.3v0.9H23.4z M31.2,146.7v0.9h4.2v0.9h-4.2v0.9h4.4v0.9h-5.4v-4.4h5.3v0.9H31.2z
		 M29.8,151.3h6v0.9h-6V151.3z M39.9,149.1h-2.8v-2h2.1v-0.5h-2.1v-0.8h3.1v2h-2.1v0.5H40c0.4,0,0.7,0,1-0.1v0.7
		C40.6,149,40.3,149.1,39.9,149.1z M40.4,146.9h1.1v-1.2h1v3.5h-1v-1.4h-1.1V146.9z M38.5,151.8h4.2v0.8h-5.2v-1.9h4.1v-0.4h-4.1
		v-0.8h5.1v1.9h-4.1V151.8z M47.8,145.8v0.9h-1.4v1.5c0,1.9,0.6,2.5,1.4,2.9v0.9c-0.8-0.2-1.5-0.8-1.9-1.4c-0.4,0.6-1.1,1.2-1.9,1.4
		v-0.9c0.8-0.4,1.4-1,1.4-2.9v-1.5h-1.3v-0.9H47.8z M49.5,148.4h1v0.9h-1v3.2h-1v-6.8h1V148.4z M54.7,148.9c0,1.2-0.1,2.1-0.5,2.6
		c-0.3,0.4-0.7,0.6-1.3,0.6c-0.5,0-1-0.2-1.3-0.6c-0.4-0.5-0.5-1.4-0.5-2.6c0-1.2,0.1-2.1,0.5-2.6c0.3-0.4,0.7-0.6,1.3-0.6
		c0.5,0,1,0.2,1.3,0.6C54.6,146.8,54.7,147.7,54.7,148.9z M52.2,148.9c0,1,0.1,1.7,0.3,2.1c0.1,0.2,0.3,0.3,0.5,0.3
		c0.2,0,0.4-0.1,0.5-0.3c0.2-0.3,0.3-1.1,0.3-2.1c0-1,0-1.7-0.3-2.1c-0.1-0.2-0.3-0.3-0.5-0.3c-0.2,0-0.4,0.1-0.5,0.3
		C52.2,147.2,52.2,147.9,52.2,148.9z M56.7,152.5h-1v-6.8h1V152.5z"/>
	<path style="clip-path:url(#SVGID_00000065059977566107318800000015991767731342102159_);" d="M7.2,139.8h-1v-0.2h1.2v0.1
		c0,0.8-0.5,1.2-1.3,1.3v-0.2C6.8,140.8,7.2,140.5,7.2,139.8z M8.3,139.6v0.6h0.4v0.2H8.3v0.7H8.1v-1.5H8.3z M6.3,141.8
		c0-0.1,0.1-0.3,0.2-0.4c0.2-0.1,0.5-0.2,0.8-0.2c0.3,0,0.6,0.1,0.8,0.2c0.1,0.1,0.2,0.2,0.2,0.4c0,0.1-0.1,0.3-0.2,0.3
		c-0.2,0.1-0.5,0.2-0.8,0.2c-0.3,0-0.6-0.1-0.8-0.2C6.4,142,6.3,141.9,6.3,141.8z M6.5,141.8c0,0.1,0,0.2,0.1,0.2
		c0.1,0.1,0.4,0.1,0.7,0.1c0.3,0,0.5,0,0.7-0.1c0.1-0.1,0.1-0.1,0.1-0.2c0-0.1,0-0.2-0.1-0.2c-0.1-0.1-0.4-0.1-0.7-0.1
		c-0.3,0-0.6,0.1-0.7,0.1C6.5,141.6,6.5,141.7,6.5,141.8z M10.2,140.8H9v-1.2h0.2v1h1.1c0.3,0,0.5,0,0.7-0.2v-0.9H11v0.6h0.4v0.2H11
		v0.7h-0.2v-0.4C10.7,140.8,10.5,140.8,10.2,140.8z M9.1,142.3v-0.9H11v0.9H9.1z M10.8,141.5H9.3v0.6h1.5V141.5z M13.7,140.9
		c0-0.5-0.1-0.8-0.2-1c-0.1-0.1-0.2-0.1-0.3-0.1c-0.1,0-0.2,0-0.3,0.1c-0.1,0.2-0.2,0.5-0.2,1c0,0.5,0,0.8,0.2,1
		c0.1,0.1,0.2,0.1,0.3,0.1c0.1,0,0.2,0,0.3-0.1C13.6,141.7,13.7,141.3,13.7,140.9z M12.5,140.9c0-0.5,0.1-0.9,0.2-1.1
		c0.1-0.1,0.2-0.2,0.4-0.2c0.2,0,0.3,0.1,0.4,0.2c0.2,0.2,0.2,0.6,0.2,1.1c0,0.5-0.1,0.9-0.2,1.1c-0.1,0.1-0.2,0.2-0.4,0.2
		c-0.2,0-0.3,0-0.4-0.2C12.6,141.7,12.5,141.4,12.5,140.9z M14.6,139.6v1.1H15v0.2h-0.4v1.3h-0.2v-2.6H14.6z M16.3,141.2v-1.3h-0.6
		v2.1h0.5C16.3,141.7,16.3,141.4,16.3,141.2z M15.6,141.9v-2.1h-0.3v-0.2h1.5v0.2h-0.3v1.2c0,0.3,0,0.6-0.1,0.8h0.1
		c0.3,0,0.5-0.1,0.7-0.2v-2.1h0.2v1.1h0.4v0.2h-0.4v1.3h-0.2v-0.4c-0.1,0.1-0.4,0.2-0.7,0.2h-1.2v-0.2H15.6z M20.2,139.8h-1.9v0.6
		h1.8v0.2h-1.8v0.6h1.9v0.2h-2.1v-1.7h2V139.8z M18,142.1V142h2.3v0.2H18z M21.1,140.2v0.3H23v0.1h-2v-0.6h1.8v-0.3H21v-0.1h2v0.5
		H21.1z M20.8,141v-0.1h2.4v0.1H20.8z M21.1,141.9v0.3H23v0.1H21v-0.5h1.8v-0.3H21v-0.1h2v0.5H21.1z M25.2,139.6v0.5
		c0,0.4,0.3,0.7,0.6,0.8v0.2c-0.3-0.1-0.6-0.3-0.7-0.6c-0.1,0.3-0.4,0.5-0.7,0.6V141c0.3-0.1,0.7-0.4,0.7-0.9v-0.5H25.2z
		 M26.5,141.4h-0.2v-1.1h-0.6v-0.2h0.6v-0.5h0.2V141.4z M26.6,142.3h-2v-0.8h0.2v0.7h1.8V142.3z M29.3,139.8h-1.9v1.1h1.9v0.2h-0.9
		v0.9h1.1v0.2h-2.3V142h1.1v-0.9h-0.9v-1.4h2V139.8z M29.9,140.1V140h0.7v-0.4h0.2v0.4h0.7v0.2H29.9z M30.2,141.3
		c0,0.3,0.1,0.5,0.2,0.6c0.1,0.1,0.2,0.1,0.3,0.1c0.1,0,0.2,0,0.3-0.1c0.1-0.1,0.2-0.3,0.2-0.6c0-0.3-0.1-0.5-0.2-0.6
		c-0.1-0.1-0.2-0.1-0.3-0.1c-0.1,0-0.2,0-0.3,0.1C30.2,140.8,30.2,141,30.2,141.3z M30,141.3c0-0.3,0.1-0.6,0.2-0.7
		c0.1-0.1,0.2-0.1,0.4-0.1c0.2,0,0.3,0,0.4,0.1c0.2,0.1,0.2,0.4,0.2,0.7c0,0.3-0.1,0.6-0.2,0.7c-0.1,0.1-0.2,0.1-0.4,0.1
		c-0.2,0-0.3,0-0.4-0.1C30.1,141.8,30,141.6,30,141.3z M32,139.6v1.1h0.4v0.2H32v1.3h-0.2v-2.6H32z M33,139.6v0.7h1.8v0.2h-2v-0.9
		H33z M32.7,141.1V141H35v0.2H32.7z M33,141.5v0.6h1.9v0.2h-2v-0.8H33z M36.6,140.1h1.7v-0.5h0.2v1.3h-2v-1.3h0.2V140.1z
		 M38.2,140.8v-0.5h-1.7v0.5H38.2z M36.2,141.6v-0.2h2.3v0.2h-1.1v0.7h-0.2v-0.7H36.2z M39.1,140.4c0-0.3,0.1-0.5,0.2-0.6
		c0.1-0.1,0.3-0.2,0.5-0.2c0.2,0,0.4,0.1,0.5,0.2c0.2,0.1,0.2,0.4,0.2,0.6c0,0.3-0.1,0.5-0.2,0.6c-0.1,0.1-0.3,0.2-0.5,0.2
		c-0.2,0-0.4-0.1-0.5-0.2C39.2,140.9,39.1,140.7,39.1,140.4z M39.3,140.4c0,0.2,0.1,0.4,0.2,0.5c0.1,0.1,0.2,0.1,0.4,0.1
		c0.1,0,0.3,0,0.4-0.1c0.1-0.1,0.2-0.3,0.2-0.5c0-0.2-0.1-0.4-0.2-0.5c-0.1-0.1-0.2-0.1-0.4-0.1c-0.1,0-0.3,0-0.4,0.1
		C39.4,140,39.3,140.2,39.3,140.4z M41.2,142.2H41v-0.3c-0.2,0.1-0.4,0.2-0.8,0.2H39v-0.2h1.3c0.3,0,0.5-0.1,0.7-0.2v-2.1h0.2V142.2
		z M43.4,142.1h-0.7v-2.4h0.9v0.2h-0.7v2.1h0.6c0.3,0,0.4-0.1,0.6-0.2v-2.1h0.2v1.1h0.4v-1.1h0.2v2.6h-0.2v-1.3h-0.4v1.3H44v-0.3
		C43.9,142,43.6,142.1,43.4,142.1z M45.4,140.9v-1.2h1.2v0.2h0.7v-0.3h0.2v1.5h-0.2v-0.5h-0.7v0.3H45.4z M46.7,140.1v0.4h0.7v-0.4
		H46.7z M46.5,139.8h-0.9v0.9h0.9V139.8z M46.6,142.3c-0.3,0-0.6,0-0.8-0.2c-0.1-0.1-0.2-0.2-0.2-0.4c0-0.2,0.1-0.3,0.2-0.4
		c0.2-0.1,0.5-0.2,0.8-0.2s0.6,0.1,0.8,0.2c0.1,0.1,0.2,0.2,0.2,0.4c0,0.2-0.1,0.3-0.2,0.4C47.2,142.3,46.9,142.3,46.6,142.3z
		 M46.6,141.4c-0.3,0-0.6,0-0.7,0.1c-0.1,0.1-0.1,0.1-0.1,0.2c0,0.1,0.1,0.2,0.1,0.2c0.1,0.1,0.4,0.1,0.7,0.1c0.3,0,0.6,0,0.7-0.1
		c0.1-0.1,0.1-0.1,0.1-0.2c0-0.1-0.1-0.2-0.1-0.2C47.1,141.4,46.9,141.4,46.6,141.4z M48.8,141.2c-0.1,0.4-0.4,0.7-0.8,0.8v-0.2
		c0.3-0.2,0.7-0.5,0.7-1.2v-1h0.2v1c0,0.7,0.3,1,0.7,1.2v0.2C49.2,141.9,48.9,141.6,48.8,141.2z M50.2,139.6v1.1h0.4v0.2h-0.4v1.3
		H50v-2.6H50.2z"/>
	
		<path style="clip-path:url(#SVGID_00000065059977566107318800000015991767731342102159_);fill-rule:evenodd;clip-rule:evenodd;fill:#D29B4A;" d="
		M112.1,168.6H0v-0.7h112.1V168.6z"/>
	<path style="clip-path:url(#SVGID_00000065059977566107318800000015991767731342102159_);" d="M15.7,158.2
		c-0.1,0.4-0.4,0.7-0.8,0.8v-0.2c0.3-0.2,0.7-0.5,0.7-1.2v-1.1h0.2v1.1c0,0.7,0.3,1,0.7,1.2v0.2C16.1,158.9,15.8,158.6,15.7,158.2z
		 M17.2,156.6v2.6H17v-1.5h-0.7v-0.2H17v-1H17.2z M18.9,157.5c-0.2,0.3-0.6,0.6-1,0.7V158c0.5-0.1,1-0.4,1-0.9V157h-0.9v-0.2h0.9
		v-0.4H19v0.4h0.9v0.2H19v0.1c0,0.5,0.5,0.8,1,0.9v0.2C19.5,158.1,19.1,157.9,18.9,157.5z M17.8,159.1v-0.2h1.1v-0.8H19v0.8h1.1v0.2
		H17.8z M22.5,157.2v-0.4h-1.9v-0.2h2.1v0.6c0,0.3,0,0.5-0.1,0.7h-0.2C22.5,157.7,22.5,157.4,22.5,157.2z M20.5,158.4v-0.2h2.3v0.2
		h-1.1v0.9h-0.2v-0.9H20.5z M15.2,161.1h0.9v-0.5h0.2v1.4H15v-1.4h0.2V161.1z M16.1,161.9v-0.6h-0.9v0.6H16.1z M17.1,160.6v0.8h0.4
		v0.2h-0.4v0.9h-0.2v-1.8H17.1z M15.4,162.4v0.6h1.8v0.2h-2v-0.8H15.4z M19.5,161.9H20v0.2h-1v0.9h1.1v0.2h-2.3v-0.2h1.1v-0.9h-1
		v-0.2h0.4v-1.1h-0.4v-0.2h2v0.2h-0.4v0.5C19.6,161.5,19.6,161.7,19.5,161.9z M18.5,160.8v1.1h0.8c0.1-0.2,0.1-0.4,0.1-0.6v-0.5
		H18.5z M22.7,160.8h-1.8v0.5h1.8v0.2h-0.9v0.4h1.1v0.2h-2.4v-0.2h1.1v-0.4h-0.9v-0.8h2V160.8z M20.7,162.8c0-0.1,0.1-0.2,0.2-0.3
		c0.2-0.1,0.5-0.2,0.9-0.2c0.4,0,0.7,0.1,0.9,0.2c0.1,0.1,0.2,0.2,0.2,0.3c0,0.1-0.1,0.2-0.2,0.3c-0.2,0.1-0.5,0.2-0.9,0.2
		c-0.4,0-0.7,0-0.9-0.2C20.7,163,20.7,162.9,20.7,162.8z M20.8,162.8c0,0.1,0,0.1,0.1,0.2c0.1,0.1,0.4,0.1,0.8,0.1s0.6,0,0.8-0.1
		c0.1,0,0.1-0.1,0.1-0.2c0-0.1,0-0.1-0.1-0.2c-0.1-0.1-0.4-0.1-0.8-0.1s-0.6,0-0.8,0.1C20.9,162.7,20.8,162.7,20.8,162.8z"/>
	<path style="clip-path:url(#SVGID_00000065059977566107318800000015991767731342102159_);" d="M45.6,163.2c0,0.3-0.2,0.5-0.5,0.5
		c-0.3,0-0.5-0.2-0.5-0.5v0h-0.2v0c0,0.4,0.3,0.7,0.7,0.7c0.4,0,0.7-0.3,0.7-0.7c0-0.3-0.2-0.5-0.4-0.6c0.2-0.1,0.4-0.3,0.4-0.5
		c0-0.3-0.2-0.6-0.6-0.6c-0.4,0-0.6,0.3-0.6,0.6v0.1h0.2v0c0-0.3,0.2-0.4,0.5-0.4c0.3,0,0.5,0.2,0.5,0.4c0,0.2-0.1,0.4-0.4,0.4h-0.2
		v0.2h0.2C45.5,162.7,45.6,162.9,45.6,163.2z M46.9,162.5c0.3,0,0.5,0.2,0.5,0.6c0,0.4-0.2,0.6-0.5,0.6c-0.3,0-0.5-0.2-0.5-0.5h-0.2
		c0,0.4,0.3,0.6,0.7,0.6c0.4,0,0.7-0.3,0.7-0.8c0-0.5-0.3-0.8-0.7-0.8c-0.2,0-0.4,0.1-0.4,0.2l0-0.9h0.9v-0.2h-1.1l-0.1,1.3h0.2
		C46.5,162.6,46.7,162.5,46.9,162.5z M49.1,162.7h-1.2v-0.2h0.3v-1H48v-0.2h1.5v0.2h-0.3v0.5c0,0.2,0,0.3-0.1,0.5h0
		c0.2,0,0.4,0,0.5-0.1v0.1C49.5,162.7,49.3,162.7,49.1,162.7z M48.4,162.5h0.5c0-0.1,0.1-0.3,0.1-0.5v-0.5h-0.5V162.5z M49.5,161.8
		v-0.1h0.5v-0.3h0.2v1.5h-0.2v-0.6h-0.5v-0.1h0.5v-0.3H49.5z M49.2,164.1c-0.3,0-0.6,0-0.8-0.2c-0.1-0.1-0.2-0.2-0.2-0.4
		s0.1-0.3,0.2-0.4c0.2-0.1,0.5-0.2,0.8-0.2c0.3,0,0.6,0.1,0.8,0.2c0.1,0.1,0.2,0.2,0.2,0.4s-0.1,0.3-0.2,0.4
		C49.8,164,49.5,164.1,49.2,164.1z M49.2,163.1c-0.3,0-0.6,0-0.7,0.1c-0.1,0.1-0.1,0.1-0.1,0.2c0,0.1,0.1,0.2,0.1,0.2
		c0.1,0.1,0.4,0.1,0.7,0.1s0.6,0,0.7-0.1c0.1-0.1,0.1-0.1,0.1-0.2c0-0.1-0.1-0.2-0.1-0.2C49.7,163.2,49.5,163.1,49.2,163.1z"/>
	<path style="clip-path:url(#SVGID_00000065059977566107318800000015991767731342102159_);" d="M74.5,159.4
		c-0.1,0.3-0.3,0.6-0.6,0.7V160c0.3-0.2,0.5-0.5,0.5-1.1v-1.2h0.2v1.2c0,0.6,0.2,0.9,0.5,1.1v0.2C74.8,160,74.6,159.7,74.5,159.4z
		 M75.6,160.3h-0.2v-1.4h-0.5v-0.2h0.5v-1h0.2V160.3z M76.2,160.3H76v-2.6h0.2V160.3z M77.5,160.1h-0.7v-2.4h0.9v0.2H77v2.1h0.6
		c0.3,0,0.4-0.1,0.6-0.2v-2.1h0.2v1.1h0.4v-1.1h0.2v2.6h-0.2V159h-0.4v1.3h-0.2v-0.3C78,160.1,77.8,160.1,77.5,160.1z M75.1,163.5
		c0,0.3-0.2,0.5-0.5,0.5c-0.3,0-0.5-0.2-0.5-0.5v0h-0.2v0c0,0.4,0.3,0.7,0.7,0.7c0.4,0,0.7-0.3,0.7-0.7c0-0.3-0.2-0.5-0.4-0.6
		c0.2-0.1,0.4-0.3,0.4-0.5c0-0.3-0.2-0.6-0.6-0.6s-0.6,0.3-0.6,0.6v0.1h0.2v0c0-0.3,0.2-0.4,0.5-0.4c0.3,0,0.5,0.2,0.5,0.4
		c0,0.2-0.1,0.4-0.4,0.4h-0.2v0.2h0.2C74.9,163,75.1,163.2,75.1,163.5z M75.8,163.4l0.8-1.3v1.3H75.8z M77.1,163.4h-0.3v-1.6h-0.2
		l-1,1.6v0.2h1v0.5h0.2v-0.5h0.3V163.4z M78.4,164.1v-2.3h-0.2l-0.6,0.3v0.2l0.6-0.3v2.1H78.4z M80.5,163c0-0.5-0.1-0.8-0.2-1
		c-0.1-0.1-0.3-0.2-0.5-0.2c-0.2,0-0.4,0.1-0.5,0.2c-0.1,0.2-0.2,0.4-0.2,1c0,0.5,0.1,0.8,0.2,1c0.1,0.1,0.3,0.2,0.5,0.2
		c0.2,0,0.4-0.1,0.5-0.2C80.5,163.8,80.5,163.5,80.5,163z M80.3,163c0,0.5-0.1,0.7-0.2,0.9c-0.1,0.1-0.2,0.2-0.4,0.2
		s-0.3-0.1-0.4-0.2c-0.1-0.1-0.2-0.4-0.2-0.9c0-0.5,0.1-0.7,0.2-0.8c0.1-0.1,0.2-0.2,0.4-0.2s0.3,0.1,0.4,0.2
		C80.3,162.3,80.3,162.5,80.3,163z"/>
	<path style="clip-path:url(#SVGID_00000065059977566107318800000015991767731342102159_);" d="M100.7,163.8v-2.3h-0.2l-0.6,0.3v0.2
		l0.6-0.3v2.1H100.7z M101.6,163.1l0.8-1.3v1.3H101.6z M102.9,163.1h-0.3v-1.6h-0.2l-1,1.6v0.2h1v0.5h0.2v-0.5h0.3V163.1z
		 M104.3,162.8h-1v-1.4h0.2v1.3h0.8c0.2,0,0.4,0,0.6-0.1v0.2C104.7,162.8,104.5,162.8,104.3,162.8z M104.4,162.3v-0.2h0.8v-0.4h-0.8
		v-0.2h0.8v-0.3h0.2v1.8h-0.2v-0.9H104.4z M105.5,164h-2v-0.8h0.2v0.7h1.8V164z M106,161.7h0.6v-0.5h0.2v0.5h0.6v0.2h-0.6v0.6
		c0,0.6,0.3,1,0.6,1.2v0.2c-0.3-0.1-0.6-0.5-0.7-0.8c-0.1,0.3-0.4,0.7-0.7,0.8v-0.2c0.3-0.1,0.6-0.5,0.6-1.2v-0.6H106V161.7z
		 M108.1,161.4v1.1h0.4v0.2h-0.4v1.3h-0.2v-2.6H108.1z"/>
	
		<path style="clip-path:url(#SVGID_00000065059977566107318800000015991767731342102159_);fill-rule:evenodd;clip-rule:evenodd;" d="
		M35.8,161.5c0,0,0,0.1,0,0.1l-1.2,1.2c0,0-0.1,0-0.1,0c0,0,0-0.1,0-0.1l1.2-1.2C35.7,161.5,35.8,161.5,35.8,161.5z"/>
	
		<path style="clip-path:url(#SVGID_00000065059977566107318800000015991767731342102159_);fill-rule:evenodd;clip-rule:evenodd;" d="
		M34.7,162.7v0.6h4.7c0.1,0,0.2-0.1,0.2-0.2v-1.2c0-0.1-0.1-0.2-0.2-0.2h-3.7v-3.7c0-0.1-0.1-0.2-0.2-0.2h-1.2
		c-0.1,0-0.2,0.1-0.2,0.2v4.7H34.7z M34.5,162.8v0.6h4.9c0.2,0,0.4-0.2,0.4-0.4v-1.2c0-0.2-0.2-0.4-0.4-0.4h-3.5v-3.5
		c0-0.2-0.2-0.4-0.4-0.4h-1.2c-0.2,0-0.4,0.2-0.4,0.4v4.9H34.5z"/>
	
		<path style="clip-path:url(#SVGID_00000065059977566107318800000015991767731342102159_);fill-rule:evenodd;clip-rule:evenodd;" d="
		M34,158.7C34,158.7,34.1,158.6,34,158.7l0.9-0.1c0.1,0,0.1,0,0.1,0.1c0,0.1,0,0.1-0.1,0.1L34,158.7C34.1,158.8,34,158.8,34,158.7z"
		/>
	
		<path style="clip-path:url(#SVGID_00000065059977566107318800000015991767731342102159_);fill-rule:evenodd;clip-rule:evenodd;" d="
		M36.3,163.3C36.2,163.3,36.2,163.3,36.3,163.3l-0.1-0.9c0-0.1,0-0.1,0.1-0.1c0.1,0,0.1,0,0.1,0.1L36.3,163.3
		C36.4,163.3,36.3,163.3,36.3,163.3z"/>
	
		<path style="clip-path:url(#SVGID_00000065059977566107318800000015991767731342102159_);fill-rule:evenodd;clip-rule:evenodd;" d="
		M34,160.3C34,160.2,34.1,160.2,34,160.3l0.9-0.1c0.1,0,0.1,0,0.1,0.1c0,0.1,0,0.1-0.1,0.1L34,160.3C34.1,160.4,34,160.3,34,160.3z"
		/>
	
		<path style="clip-path:url(#SVGID_00000065059977566107318800000015991767731342102159_);fill-rule:evenodd;clip-rule:evenodd;" d="
		M37.8,163.3C37.8,163.3,37.7,163.3,37.8,163.3l-0.1-0.9c0-0.1,0-0.1,0.1-0.1s0.1,0,0.1,0.1L37.8,163.3
		C37.9,163.3,37.9,163.3,37.8,163.3z"/>
	
		<path style="clip-path:url(#SVGID_00000065059977566107318800000015991767731342102159_);fill-rule:evenodd;clip-rule:evenodd;" d="
		M34,159.5C34,159.5,34.1,159.4,34,159.5l0.9-0.1c0.1,0,0.1,0,0.1,0.1c0,0.1,0,0.1-0.1,0.1L34,159.5C34.1,159.6,34,159.6,34,159.5z"
		/>
	
		<path style="clip-path:url(#SVGID_00000065059977566107318800000015991767731342102159_);fill-rule:evenodd;clip-rule:evenodd;" d="
		M37.1,163.3C37,163.3,37,163.3,37.1,163.3l-0.1-0.9c0-0.1,0-0.1,0.1-0.1c0.1,0,0.1,0,0.1,0.1L37.1,163.3
		C37.2,163.3,37.1,163.3,37.1,163.3z"/>
	
		<path style="clip-path:url(#SVGID_00000065059977566107318800000015991767731342102159_);fill-rule:evenodd;clip-rule:evenodd;" d="
		M34,161.1C34,161,34.1,161,34,161.1l0.9-0.1c0.1,0,0.1,0,0.1,0.1c0,0.1,0,0.1-0.1,0.1L34,161.1C34.1,161.2,34,161.1,34,161.1z"/>
	
		<path style="clip-path:url(#SVGID_00000065059977566107318800000015991767731342102159_);fill-rule:evenodd;clip-rule:evenodd;" d="
		M38.6,163.3C38.6,163.3,38.5,163.3,38.6,163.3l-0.1-0.9c0-0.1,0-0.1,0.1-0.1c0.1,0,0.1,0,0.1,0.1L38.6,163.3
		C38.7,163.3,38.7,163.3,38.6,163.3z"/>
	
		<path style="clip-path:url(#SVGID_00000065059977566107318800000015991767731342102159_);fill-rule:evenodd;clip-rule:evenodd;" d="
		M92.3,157.9c0-0.1-0.1-0.2-0.2-0.2c-0.1,0-0.2,0.1-0.2,0.2v1.1c0,0.1,0.1,0.2,0.2,0.2c0.1,0,0.2-0.1,0.2-0.2V157.9z M91.6,158.5
		h-0.2c-0.3,0-0.6,0.2-0.6,0.6v1h5.5v-1c0-0.3-0.2-0.6-0.6-0.6h-0.2v0.6c0,0.3-0.2,0.6-0.6,0.6c-0.3,0-0.6-0.2-0.6-0.6v-0.6h-0.4
		v0.6c0,0.3-0.2,0.6-0.6,0.6c-0.3,0-0.6-0.2-0.6-0.6v-0.6h-0.4v0.6c0,0.3-0.2,0.6-0.6,0.6s-0.6-0.2-0.6-0.6V158.5z M90.7,160v0.2
		v2.9c0,0.4,0.3,0.7,0.7,0.7h4.4c0.4,0,0.7-0.3,0.7-0.7v-2.9V160v-1c0-0.4-0.3-0.7-0.7-0.7h-0.2h-0.2v0.2v0.6c0,0.2-0.2,0.4-0.4,0.4
		c-0.2,0-0.4-0.2-0.4-0.4v-0.6v-0.2h-0.2h-0.4H94v0.2v0.6c0,0.2-0.2,0.4-0.4,0.4c-0.2,0-0.4-0.2-0.4-0.4v-0.6v-0.2h-0.2h-0.4h-0.2
		v0.2v0.6c0,0.2-0.2,0.4-0.4,0.4s-0.4-0.2-0.4-0.4v-0.6v-0.2h-0.2h-0.2c-0.4,0-0.7,0.3-0.7,0.7V160z M96.4,163.1v-2.9h-5.5v2.9
		c0,0.3,0.2,0.6,0.6,0.6h4.4C96.1,163.6,96.4,163.4,96.4,163.1z M91.7,161.2C91.7,161.2,91.7,161.1,91.7,161.2l3.8-0.1
		c0.1,0,0.1,0,0.1,0.1s0,0.1-0.1,0.1L91.7,161.2C91.7,161.3,91.7,161.3,91.7,161.2z M91.7,162.3C91.7,162.3,91.7,162.2,91.7,162.3
		l3.8-0.1c0.1,0,0.1,0,0.1,0.1c0,0.1,0,0.1-0.1,0.1L91.7,162.3C91.7,162.4,91.7,162.4,91.7,162.3z M93.6,157.7
		c0.1,0,0.2,0.1,0.2,0.2v1.1c0,0.1-0.1,0.2-0.2,0.2c-0.1,0-0.2-0.1-0.2-0.2v-1.1C93.4,157.8,93.5,157.7,93.6,157.7z M95.3,157.9
		c0-0.1-0.1-0.2-0.2-0.2c-0.1,0-0.2,0.1-0.2,0.2v1.1c0,0.1,0.1,0.2,0.2,0.2c0.1,0,0.2-0.1,0.2-0.2V157.9z"/>
	
		<path style="clip-path:url(#SVGID_00000065059977566107318800000015991767731342102159_);fill:none;stroke:#000000;stroke-width:0.1851;" d="
		M68.9,162.7v-2.3c0-0.2-0.1-0.4-0.2-0.5l-1.8-1.8c-0.3-0.3-0.7-0.3-1,0l-1.8,1.8c-0.1,0.1-0.2,0.3-0.2,0.5v2.3
		c0,0.4,0.3,0.7,0.7,0.7h3.7C68.6,163.4,68.9,163.1,68.9,162.7z"/>
	
		<path style="clip-path:url(#SVGID_00000065059977566107318800000015991767731342102159_);fill:none;stroke:#000000;stroke-width:0.1851;" d="
		M65.6,163.4V161c0-0.1,0.1-0.2,0.2-0.2h1.1c0.1,0,0.2,0.1,0.2,0.2v2.4"/>
	
		<path style="clip-path:url(#SVGID_00000065059977566107318800000015991767731342102159_);fill:none;stroke:#000000;stroke-width:0.1851;" d="
		M8.9,159.7c-0.1,1.2-0.7,2.6-1.4,3.6c0,0-0.1,0-0.2,0c-0.7-1-1.3-2.4-1.4-3.6c-0.1-0.6,0-1.1,0.2-1.5c0.2-0.4,0.6-0.6,1.2-0.6
		c0,0,0.1,0,0.1,0c0,0,0.1,0,0.1,0c0.6,0,1,0.3,1.2,0.6C8.9,158.6,8.9,159.1,8.9,159.7z"/>
	
		<circle style="clip-path:url(#SVGID_00000065059977566107318800000015991767731342102159_);fill:none;stroke:#000000;stroke-width:0.1851;" cx="7.4" cy="159.4" r="0.6"/>
	<g style="clip-path:url(#SVGID_00000065059977566107318800000015991767731342102159_);">
		<defs>
			<rect id="SVGID_00000137836245882787009080000015762050457493440434_" x="0" y="21.2" width="112.1" height="112.1"/>
		</defs>
		<clipPath id="SVGID_00000031170673067175281420000008597803995861820307_">
			<use xlink:href="#SVGID_00000137836245882787009080000015762050457493440434_"  style="overflow:visible;"/>
		</clipPath>
		<g style="clip-path:url(#SVGID_00000031170673067175281420000008597803995861820307_);">
			<rect x="0" y="21.2" class="st10" width="112.1" height="242.8"/>
		</g>
	</g>
	<path style="clip-path:url(#SVGID_00000065059977566107318800000015991767731342102159_);fill:#313A48;" d="M0,24.8h33.9
		c0.8,0,1.5,0.7,1.5,1.5v8.8c0,0.8-0.7,1.5-1.5,1.5H0V24.8z"/>
	<path style="clip-path:url(#SVGID_00000065059977566107318800000015991767731342102159_);fill:#FFFFFF;" d="M4.5,31.7
		c-0.2,0.5-0.7,0.9-1.3,1.1v-0.5c0.5-0.2,1-0.7,1-1.9v-1.6h0.5v1.6c0,1.2,0.5,1.6,1,1.9v0.5C5.2,32.6,4.7,32.2,4.5,31.7z M6.8,28.7
		v1.8h0.7v0.5H6.8v2.1H6.3v-4.3H6.8z M7.9,29.2v-0.5h2.2v0.5H9.3v0.4c0,0.7,0.4,1.1,0.9,1.2v0.5c-0.5-0.1-1-0.4-1.2-0.7
		c-0.2,0.4-0.7,0.7-1.2,0.8v-0.5c0.6-0.1,0.9-0.5,0.9-1.3v-0.4H7.9z M11.4,31.8h-0.5v-1.6H10v-0.4h0.9v-1h0.5V31.8z M11.5,33.1H8.2
		v-1.5h0.5v1h2.8V33.1z M16,28.8v2.4h-1.4v1.2h1.7v0.5h-3.9v-0.5H14v-1.2h-1.5v-2.4H16z M13.1,30.8h2.4v-1.5h-2.4V30.8z M16.9,29.2
		v-0.5h2.2v0.5h-0.9v0.1c0,0.7,0.4,1.1,0.9,1.2V31c-0.5-0.1-1-0.4-1.2-0.7c-0.2,0.4-0.7,0.7-1.2,0.8v-0.5c0.6-0.1,0.9-0.5,0.9-1.3
		v-0.1H16.9z M20.5,31h-0.5v-2.3h0.5V31z M19.9,31.7v-0.5h0.5v1.9h-3.2v-1.9h0.5v0.5H19.9z M19.9,32.2h-2.2v0.5h2.2V32.2z
		 M26.2,29.2h-1.4c0.1,0.4,0.8,0.7,1.5,0.7v0.4c-0.7,0-1.4-0.3-1.7-0.6c-0.3,0.4-1,0.6-1.7,0.6v-0.4c0.7,0,1.4-0.3,1.5-0.7h-1.4
		v-0.4h3.3V29.2z M22.6,31.1v-0.4h3.9v0.4h-1.7v0.4c0.5,0,0.9,0.1,1.2,0.2c0.2,0.1,0.3,0.3,0.3,0.6c0,0.3-0.1,0.5-0.3,0.6
		c-0.3,0.2-0.8,0.2-1.4,0.2c-0.6,0-1.1-0.1-1.4-0.2c-0.2-0.1-0.3-0.3-0.3-0.6c0-0.3,0.1-0.5,0.3-0.6c0.3-0.1,0.6-0.2,1.1-0.2v-0.4
		H22.6z M23.3,32.4c0,0.1,0.1,0.2,0.1,0.2c0.2,0.1,0.6,0.2,1.1,0.2c0.5,0,0.9,0,1.1-0.2c0.1-0.1,0.2-0.1,0.2-0.2
		c0-0.1-0.1-0.2-0.2-0.2C25.5,32,25.1,32,24.6,32c-0.5,0-0.9,0-1.1,0.2C23.4,32.2,23.3,32.3,23.3,32.4z"/>
	
		<path style="clip-path:url(#SVGID_00000065059977566107318800000015991767731342102159_);fill-rule:evenodd;clip-rule:evenodd;fill:#D29B4A;" d="
		M26.9,34.4H0v-0.4h26.9V34.4z"/>
	
		<rect x="0" y="168.6" style="clip-path:url(#SVGID_00000065059977566107318800000015991767731342102159_);fill:#FFFFFF;" width="112.1" height="25.8"/>
	<path style="clip-path:url(#SVGID_00000065059977566107318800000015991767731342102159_);" d="M11.3,176.8H9.9v0.6h1.6v0.3H8v-0.3
		h1.6v-0.6H8.2v-1.4h3V176.8z M10.9,176.5v-0.8H8.6v0.8H10.9z M10.9,179.4v-0.9H8.2v-0.3h3.1v1.2H10.9z M14.7,177.4h0.8v0.3h-0.7
		v1.2h0.8v0.3h-3.5v-0.3h0.9v-1.2h-0.7v-0.3h0.6v-1.6h-0.5v-0.3h3.1v0.3h-0.5v0.7C14.8,176.8,14.8,177.1,14.7,177.4z M14.4,177.7
		h-1.1v1.2h1.1V177.7z M13.2,175.8v1.6h1.2c0.1-0.2,0.1-0.6,0.1-0.9v-0.7H13.2z M6,183.4h2.1v0.3H7.3v1.2c0,1,0.5,1.5,0.9,1.7v0.3
		c-0.5-0.2-0.9-0.6-1.1-1.1c-0.2,0.5-0.6,0.9-1.1,1.1v-0.3c0.5-0.2,0.9-0.7,0.9-1.7v-1.2H6V183.4z M9.2,183.3v1.7h0.6v0.3H9.2v2H8.8
		v-4H9.2z M10.6,183.9H13v-0.5h0.4v1.7H12v0.5h1.6v0.3H10v-0.3h1.6v-0.5h-1.3v-1.7h0.4V183.9z M13,184.8v-0.6h-2.3v0.6H13z
		 M10.6,186.3v0.7h2.8v0.3h-3.1v-1H10.6z M17,184.1v-0.4h-2.7v-0.3h3.1v0.7c0,0.2,0,0.5-0.1,0.7H17C17,184.6,17,184.3,17,184.1z
		 M14.1,185.4v-0.3h3.6v0.3H14.1z M17.4,187.4h-3V186h3V187.4z M17,187v-0.8h-2.3v0.8H17z"/>
	<path style="clip-path:url(#SVGID_00000065059977566107318800000015991767731342102159_);" d="M40,180.6c0-1-0.7-1.8-1.8-1.8
		c-1.2,0-1.8,0.8-1.8,1.8v0.2h1v-0.2c0-0.6,0.3-0.9,0.8-0.9c0.5,0,0.8,0.3,0.8,0.9c0,0.3-0.1,0.6-0.4,0.9l-2.2,2.5v0.8h3.7v-0.9
		h-2.3l1.7-1.9C39.9,181.5,40,181.2,40,180.6z M44.6,180.4c-0.1-1-0.8-1.5-1.8-1.5c-1.4,0-1.9,1-1.9,3.3c0,0.9,0.1,1.6,0.4,2.1
		c0.3,0.5,0.8,0.7,1.5,0.7c1.1,0,1.9-0.7,1.9-1.9c0-1.2-0.7-1.9-1.7-1.9c-0.5,0-0.9,0.2-1,0.5c0-1.2,0.3-1.8,0.9-1.8
		c0.4,0,0.6,0.2,0.7,0.6H44.6z M43.7,183c0,0.7-0.3,1.1-0.9,1.1c-0.5,0-0.9-0.4-0.9-1.1c0-0.7,0.3-1.1,0.9-1.1
		C43.4,181.9,43.7,182.3,43.7,183z M45.7,180.4c0-0.7,0.2-1.2,0.6-1.5c0.3-0.2,0.7-0.4,1.2-0.4c0.5,0,0.9,0.1,1.2,0.4
		c0.3,0.2,0.5,0.6,0.6,1h1v-1.4h1v3.9h-1v-1.7h-1c-0.1,0.5-0.3,0.9-0.6,1.1c-0.3,0.2-0.7,0.4-1.2,0.4c-0.5,0-0.9-0.1-1.2-0.4
		C45.9,181.6,45.7,181,45.7,180.4z M46.7,180.4c0,0.4,0.1,0.7,0.3,0.8c0.1,0.1,0.3,0.2,0.5,0.2c0.2,0,0.4-0.1,0.5-0.2
		c0.2-0.2,0.3-0.5,0.3-0.8c0-0.4-0.1-0.7-0.3-0.8c-0.1-0.1-0.3-0.2-0.5-0.2c-0.2,0-0.4,0.1-0.5,0.2C46.8,179.7,46.7,180,46.7,180.4z
		 M50.3,183.6h-4.2v-0.9h5.2v2.6h-1V183.6z M55.1,179.8c0-0.4,0.2-0.7,0.4-0.9c0.4-0.3,0.9-0.4,1.5-0.4s1.1,0.1,1.5,0.4
		c0.3,0.2,0.4,0.5,0.4,0.9c0,0.4-0.2,0.7-0.4,0.9c-0.4,0.3-0.9,0.4-1.5,0.4s-1.1-0.1-1.5-0.4C55.2,180.4,55.1,180.2,55.1,179.8z
		 M56,179.8c0,0.1,0.1,0.3,0.2,0.3c0.2,0.1,0.4,0.2,0.8,0.2c0.3,0,0.6-0.1,0.8-0.2c0.1-0.1,0.2-0.2,0.2-0.3c0-0.1-0.1-0.2-0.2-0.3
		c-0.2-0.1-0.4-0.2-0.8-0.2c-0.3,0-0.6,0.1-0.8,0.2C56.1,179.5,56,179.6,56,179.8z M57.2,182.1v1h-1v-1h-1.3v-0.8h3.4
		c0.4,0,0.7,0,1-0.1v0.8c-0.3,0.1-0.6,0.1-1,0.1H57.2z M59.5,183.6v-0.4h-1.4v-0.8h1.4v-3.9h1v5.1H59.5z M55.4,185.3v-2h1v1.1h4.2
		v0.9H55.4z"/>
	<path style="clip-path:url(#SVGID_00000065059977566107318800000015991767731342102159_);" d="M100.5,186.2v-3.5h-0.3l-0.9,0.4v0.4
		l0.9-0.4v3.1H100.5z M103.3,185.2c0,0.4-0.3,0.7-0.7,0.7c-0.4,0-0.7-0.3-0.7-0.7v0h-0.4v0c0,0.6,0.5,1,1.1,1c0.6,0,1.1-0.4,1.1-1
		c0-0.5-0.3-0.8-0.6-0.9c0.3-0.1,0.5-0.4,0.5-0.8c0-0.5-0.4-0.9-1-0.9c-0.6,0-1,0.4-1,0.9v0.1h0.4v0c0-0.4,0.2-0.6,0.6-0.6
		c0.4,0,0.6,0.2,0.6,0.6c0,0.3-0.2,0.6-0.6,0.6h-0.4v0.3h0.3C103,184.5,103.3,184.8,103.3,185.2z M105.3,184.5v-1.9h1.9v0.4h1v-0.4
		h0.4v2.3h-0.4v-0.7h-1v0.4H105.3z M107.2,183.2v0.6h1v-0.6H107.2z M106.9,182.9h-1.2v1.3h1.2V182.9z M107.1,186.6
		c-0.5,0-0.9-0.1-1.2-0.3c-0.2-0.1-0.3-0.3-0.3-0.6c0-0.2,0.1-0.4,0.3-0.6c0.3-0.2,0.7-0.3,1.2-0.3c0.5,0,0.9,0.1,1.2,0.3
		c0.2,0.1,0.3,0.3,0.3,0.6c0,0.2-0.1,0.4-0.3,0.6C108,186.5,107.5,186.6,107.1,186.6z M107.1,185.2c-0.4,0-0.8,0.1-1,0.2
		c-0.1,0.1-0.2,0.2-0.2,0.3c0,0.1,0.1,0.2,0.2,0.3c0.2,0.1,0.6,0.2,1,0.2c0.4,0,0.8-0.1,1-0.2c0.1-0.1,0.2-0.2,0.2-0.3
		c0-0.1-0.1-0.2-0.2-0.3C107.8,185.3,107.5,185.2,107.1,185.2z"/>
	<path style="clip-path:url(#SVGID_00000065059977566107318800000015991767731342102159_);" d="M76.1,177.8h-0.9v0.4h1.1v0.2H74
		v-0.2h1.1v-0.4h-0.9v-0.9h2V177.8z M76,177.6V177h-1.6v0.6H76z M76,179.5v-0.6h-1.8v-0.2h2v0.7H76z M78.5,178.2H79v0.2h-0.5v0.8
		h0.6v0.2h-2.3v-0.2h0.6v-0.8h-0.5v-0.2h0.4v-1.1h-0.4v-0.2h2v0.2h-0.4v0.5C78.6,177.8,78.5,178,78.5,178.2z M78.3,178.3h-0.8v0.8
		h0.8V178.3z M77.4,177.1v1.1h0.8c0.1-0.2,0.1-0.4,0.1-0.6v-0.5H77.4z M81.3,179.3h-0.9v-2.4h0.9V179.3z M81.2,179.1v-2.1h-0.6v2.1
		H81.2z M82.5,179.5h-0.2v-1.3h-0.4v1.3h-0.2v-2.6h0.2v1.1h0.4v-1.1h0.2V179.5z M83.1,177.5c0-0.2,0.1-0.4,0.2-0.5
		c0.1-0.1,0.3-0.2,0.5-0.2c0.2,0,0.3,0.1,0.5,0.2c0.1,0.1,0.2,0.3,0.2,0.5c0,0.2-0.1,0.4-0.2,0.5c-0.1,0.1-0.3,0.2-0.5,0.2
		c-0.2,0-0.3-0.1-0.5-0.2C83.2,177.9,83.1,177.7,83.1,177.5z M83.3,177.5c0,0.2,0.1,0.3,0.2,0.4c0.1,0.1,0.2,0.1,0.3,0.1
		c0.1,0,0.3,0,0.3-0.1c0.1-0.1,0.2-0.2,0.2-0.4c0-0.2-0.1-0.3-0.2-0.4c-0.1-0.1-0.2-0.1-0.3-0.1c-0.1,0-0.3,0-0.3,0.1
		C83.4,177.2,83.3,177.3,83.3,177.5z M85.3,178.2h-0.2v-1.4h0.2V178.2z M85.1,178.8v-0.4h0.2v1.1h-1.9v-1.1h0.2v0.4H85.1z
		 M85.1,178.9h-1.6v0.4h1.6V178.9z M87,177.5v-0.4h-1.1v-0.2h1.2v0.5c0,1-0.4,1.6-1.3,1.9v-0.2C86.6,178.9,87,178.4,87,177.5z
		 M88,176.9v1.1h0.4v0.2H88v1.3h-0.2v-2.6H88z"/>
	<path style="clip-path:url(#SVGID_00000065059977566107318800000015991767731342102159_);" d="M74.1,185.1
		c-0.1,0.4-0.4,0.7-0.8,0.8v-0.2c0.3-0.2,0.7-0.5,0.7-1.2v-1h0.2v1c0,0.7,0.3,1,0.7,1.2v0.2C74.5,185.8,74.2,185.5,74.1,185.1z
		 M75.5,183.5v1.1h0.4v0.2h-0.4v1.3h-0.2v-2.6H75.5z M76.2,183.5h1.3v0.2H77v0.4c0,0.4,0.3,0.7,0.6,0.8v0.2
		c-0.3-0.1-0.6-0.3-0.7-0.5c-0.1,0.3-0.4,0.5-0.7,0.6v-0.2c0.3-0.1,0.6-0.4,0.6-0.8v-0.4h-0.6V183.5z M78.3,185.3h-0.2v-1h-0.6v-0.2
		h0.6v-0.7h0.2V185.3z M78.4,186.1h-2v-0.8h0.2v0.7h1.8V186.1z M80.5,183.5v0.5c0,0.4,0.3,0.7,0.6,0.8v0.2c-0.3-0.1-0.6-0.3-0.7-0.6
		c-0.1,0.3-0.4,0.5-0.7,0.6v-0.2c0.3-0.1,0.7-0.4,0.7-0.9v-0.5H80.5z M81.9,185.3h-0.2v-1.8h0.2V185.3z M81.9,186.1h-2v-0.8h0.2v0.7
		h1.8V186.1z M82.6,183.7h0.6v-0.3h0.2v0.3h0.6v0.2h-0.6v0.1c0,0.4,0.3,0.7,0.6,0.8v0.2c-0.3-0.1-0.6-0.3-0.7-0.5
		c-0.1,0.3-0.4,0.5-0.7,0.6v-0.2c0.3-0.1,0.6-0.4,0.6-0.8v-0.1h-0.6V183.7z M84.7,185h-0.2v-0.6h-0.6v-0.2h0.6v-0.7h0.2V185z
		 M82.7,185.7c0-0.2,0.1-0.3,0.2-0.4c0.2-0.1,0.5-0.2,0.8-0.2c0.3,0,0.6,0,0.8,0.2c0.1,0.1,0.2,0.2,0.2,0.4s-0.1,0.3-0.2,0.4
		c-0.2,0.1-0.5,0.2-0.8,0.2c-0.3,0-0.6,0-0.8-0.2C82.8,185.9,82.7,185.8,82.7,185.7z M82.9,185.7c0,0.1,0.1,0.2,0.1,0.2
		c0.1,0.1,0.4,0.1,0.7,0.1c0.3,0,0.6,0,0.7-0.1c0.1-0.1,0.1-0.1,0.1-0.2c0-0.1-0.1-0.2-0.1-0.2c-0.1-0.1-0.4-0.1-0.7-0.1
		c-0.3,0-0.6,0-0.7,0.1C82.9,185.5,82.9,185.6,82.9,185.7z M85.3,184.2c0-0.3,0.1-0.4,0.2-0.6c0.1-0.1,0.3-0.2,0.5-0.2
		c0.2,0,0.3,0.1,0.5,0.2c0.1,0.1,0.2,0.3,0.2,0.6c0,0.3-0.1,0.5-0.2,0.6c-0.1,0.1-0.3,0.2-0.5,0.2c-0.2,0-0.3-0.1-0.5-0.2
		C85.4,184.7,85.3,184.5,85.3,184.2z M85.5,184.2c0,0.2,0.1,0.4,0.2,0.5c0.1,0.1,0.2,0.1,0.3,0.1c0.1,0,0.3,0,0.3-0.1
		c0.1-0.1,0.2-0.3,0.2-0.5c0-0.2-0.1-0.4-0.2-0.5c-0.1-0.1-0.2-0.1-0.3-0.1c-0.1,0-0.3,0-0.3,0.1C85.5,183.9,85.5,184,85.5,184.2z
		 M87.4,185.3h-0.2v-1.8h0.2V185.3z M87.5,186.1h-2v-0.8h0.2v0.7h1.8V186.1z M88.1,183.9c0-0.1,0.1-0.3,0.2-0.3
		c0.1-0.1,0.3-0.1,0.5-0.1c0.2,0,0.4,0,0.5,0.1c0.1,0.1,0.2,0.2,0.2,0.3c0,0.1-0.1,0.3-0.2,0.3c-0.1,0.1-0.3,0.1-0.5,0.1
		c-0.2,0-0.4,0-0.5-0.1C88.2,184.2,88.1,184.1,88.1,183.9z M88.3,183.9c0,0.1,0,0.2,0.1,0.2c0.1,0.1,0.2,0.1,0.4,0.1
		c0.2,0,0.3,0,0.4-0.1c0.1,0,0.1-0.1,0.1-0.2s0-0.2-0.1-0.2c-0.1-0.1-0.2-0.1-0.4-0.1c-0.2,0-0.3,0-0.4,0.1
		C88.3,183.8,88.3,183.9,88.3,183.9z M90.2,185.5H90v-0.3h-0.6v-0.1H90v-1.6h0.2V185.5z M89.1,184.8h-0.3v0.5h-0.2v-0.5H88v-0.2h1.1
		c0.3,0,0.5,0,0.7-0.1v0.1C89.6,184.8,89.4,184.8,89.1,184.8z M90.3,186.1h-2v-0.7h0.2v0.5h1.8V186.1z"/>
	<path style="clip-path:url(#SVGID_00000065059977566107318800000015991767731342102159_);" d="M96.7,178.6c0,0.4-0.3,0.7-0.7,0.7
		c-0.4,0-0.7-0.3-0.7-0.7v0h-0.4v0c0,0.6,0.5,1,1.1,1c0.6,0,1.1-0.4,1.1-1c0-0.5-0.3-0.8-0.6-0.9c0.3-0.1,0.5-0.4,0.5-0.8
		c0-0.5-0.4-0.9-1-0.9c-0.6,0-1,0.4-1,0.9v0.1h0.4v0c0-0.4,0.2-0.6,0.6-0.6c0.4,0,0.6,0.2,0.6,0.6c0,0.3-0.2,0.6-0.6,0.6h-0.4v0.3
		H96C96.4,177.9,96.7,178.2,96.7,178.6z M97.8,177.7c0-1,0.2-1.4,0.7-1.4c0.3,0,0.6,0.2,0.6,0.5h0.4c-0.1-0.6-0.4-0.8-1-0.8
		c-0.4,0-0.6,0.1-0.8,0.4c-0.2,0.3-0.3,0.8-0.3,1.6c0,0.4,0,0.7,0.1,1c0.2,0.4,0.5,0.6,0.9,0.6c0.6,0,1.1-0.4,1.1-1.2
		c0-0.7-0.4-1.1-1-1.1C98.2,177.3,97.9,177.5,97.8,177.7z M97.8,178.5c0-0.5,0.3-0.8,0.7-0.8c0.4,0,0.7,0.3,0.7,0.8
		c0,0.5-0.3,0.8-0.7,0.8C98.1,179.3,97.8,179,97.8,178.5z M100.1,176.9c0-0.4,0.1-0.7,0.3-0.8c0.2-0.2,0.4-0.2,0.7-0.2
		c0.3,0,0.5,0.1,0.7,0.2c0.2,0.2,0.3,0.4,0.3,0.7h0.8v-0.9h0.4v2.3H103v-1.1h-0.8c0,0.3-0.1,0.5-0.3,0.7c-0.2,0.1-0.4,0.2-0.7,0.2
		c-0.3,0-0.5-0.1-0.7-0.2C100.2,177.6,100.1,177.3,100.1,176.9z M100.4,176.9c0,0.3,0.1,0.5,0.2,0.6c0.1,0.1,0.3,0.2,0.5,0.2
		s0.3-0.1,0.5-0.2c0.1-0.1,0.2-0.3,0.2-0.6c0-0.3-0.1-0.5-0.2-0.6c-0.1-0.1-0.3-0.2-0.5-0.2s-0.3,0.1-0.5,0.2
		C100.5,176.4,100.4,176.6,100.4,176.9z M103,179.9v-1.1h-2.6v-0.3h3v1.4H103z M105.3,176.6c0-0.2,0.1-0.4,0.2-0.5
		c0.2-0.2,0.5-0.2,0.8-0.2c0.3,0,0.6,0.1,0.8,0.2c0.2,0.1,0.2,0.3,0.2,0.5c0,0.2-0.1,0.4-0.2,0.5c-0.2,0.2-0.5,0.2-0.8,0.2
		c-0.3,0-0.6-0.1-0.8-0.2C105.4,176.9,105.3,176.8,105.3,176.6z M105.7,176.6c0,0.1,0.1,0.2,0.2,0.3c0.1,0.1,0.3,0.1,0.6,0.1
		c0.2,0,0.4,0,0.6-0.1c0.1-0.1,0.1-0.2,0.1-0.3c0-0.1,0-0.2-0.1-0.3c-0.1-0.1-0.3-0.1-0.6-0.1c-0.2,0-0.4,0-0.6,0.1
		C105.7,176.3,105.7,176.4,105.7,176.6z M106.4,177.9v0.8h-0.4v-0.8h-0.9v-0.3h1.8c0.3,0,0.6,0,0.8-0.1v0.3c-0.3,0.1-0.6,0.1-1,0.1
		H106.4z M108.5,178.9h-0.4v-0.4h-0.9v-0.3h0.9v-2.4h0.4V178.9z M108.6,179.9h-3v-1.1h0.4v0.8h2.7V179.9z"/>
	
		<path style="clip-path:url(#SVGID_00000065059977566107318800000015991767731342102159_);fill-rule:evenodd;clip-rule:evenodd;fill:#D29B4A;" d="
		M112.1,195.1H0v-0.7h112.1V195.1z"/>
	
		<path style="clip-path:url(#SVGID_00000065059977566107318800000015991767731342102159_);fill:none;stroke:#000000;stroke-width:0.3702;stroke-linecap:round;" d="
		M27.3,184.4v-5.9"/>
	
		<path style="clip-path:url(#SVGID_00000065059977566107318800000015991767731342102159_);fill:none;stroke:#000000;stroke-width:0.3702;stroke-linecap:round;" d="
		M70,184.4v-5.9"/>
	<g style="clip-path:url(#SVGID_00000065059977566107318800000015991767731342102159_);">
		<path shape-rendering="crispEdges" class="st12" d="M1.5,21.3h109.1c0.7,0,1.3,0.6,1.3,1.3v194.6c0,0.7-0.6,1.3-1.3,1.3H1.5
			c-0.7,0-1.3-0.6-1.3-1.3V22.6C0.2,21.9,0.8,21.3,1.5,21.3z"/>
	</g>
</g>
<g>
	<path class="st13" d="M67.2,0h129.5c2.2,0,4,1.8,4,4v234.4c0,2.2-1.8,4-4,4H67.2c-2.2,0-4-1.8-4-4V4C63.2,1.8,65,0,67.2,0z"/>
</g>
<defs>
	
		<filter id="Adobe_OpacityMaskFilter_00000171000426640921911730000011630299437348231296_" filterUnits="userSpaceOnUse" x="-26.5" y="-54.7" width="318.1" height="238.6">
		<feFlood  style="flood-color:white;flood-opacity:1" result="back"/>
		<feBlend  in="SourceGraphic" in2="back" mode="normal"/>
	</filter>
</defs>
<mask maskUnits="userSpaceOnUse" x="-26.5" y="-54.7" width="318.1" height="238.6" id="SVGID_00000129171214929150643800000014329685646157471930_">
	<g style="filter:url(#Adobe_OpacityMaskFilter_00000171000426640921911730000011630299437348231296_);">
		<path d="M-26.5-54.7v238.6h318.1V-54.7H-26.5z M200.6,137.4H63.1V1.7c0-1,0.8-1.8,1.8-1.8h133.9c1,0,1.8,0.8,1.8,1.8L200.6,137.4
			L200.6,137.4z"/>
	</g>
</mask>
<g transform="matrix(1 0 0 1 0 3.814697e-06)" class="st15">
	<g style="enable-background:new    ;">
		
			<image style="overflow:visible;" width="4032" height="3024" xlink:href="960DEA78.jpg"  transform="matrix(7.890000e-02 0 0 7.890000e-02 -26.4751 -54.6709)">
		</image>
	</g>
</g>
<g>
	<g>
		<defs>
			<path id="SVGID_00000137820546700353279910000010855558768679483008_" d="M63.1,1.8c0-1,0.8-1.8,1.8-1.8h133.9
				c1,0,1.8,0.8,1.8,1.8v238.8c0,1-0.8,1.8-1.8,1.8H64.9c-1,0-1.8-0.8-1.8-1.8V1.8z"/>
		</defs>
		<clipPath id="SVGID_00000156546087686423630090000003658424302482838173_">
			<use xlink:href="#SVGID_00000137820546700353279910000010855558768679483008_"  style="overflow:visible;"/>
		</clipPath>
		<path style="clip-path:url(#SVGID_00000156546087686423630090000003658424302482838173_);fill:#313A48;" d="M63.1,224.4h137.5
			v18.1H63.1V224.4z"/>
	</g>
	<g>
		<defs>
			<path id="SVGID_00000071546406679911694340000005107497125212542870_" d="M63.1,1.8c0-1,0.8-1.8,1.8-1.8h133.9
				c1,0,1.8,0.8,1.8,1.8v238.8c0,1-0.8,1.8-1.8,1.8H64.9c-1,0-1.8-0.8-1.8-1.8V1.8z"/>
		</defs>
		<clipPath id="SVGID_00000060743794505122787780000000065356670387574169_">
			<use xlink:href="#SVGID_00000071546406679911694340000005107497125212542870_"  style="overflow:visible;"/>
		</clipPath>
		
			<path style="clip-path:url(#SVGID_00000060743794505122787780000000065356670387574169_);fill:none;stroke:#FFFFFF;stroke-width:0.4523;" d="
			M64.3,225.5h135.2v14.2c0,0.9-0.7,1.6-1.6,1.6H65.9c-0.9,0-1.6-0.7-1.6-1.6L64.3,225.5L64.3,225.5z"/>
	</g>
	<g>
		<defs>
			<path id="SVGID_00000120546489697133523610000016624525387286231939_" d="M63.1,1.8c0-1,0.8-1.8,1.8-1.8h133.9
				c1,0,1.8,0.8,1.8,1.8v238.8c0,1-0.8,1.8-1.8,1.8H64.9c-1,0-1.8-0.8-1.8-1.8V1.8z"/>
		</defs>
		<clipPath id="SVGID_00000122709328148803379450000009653603190604647582_">
			<use xlink:href="#SVGID_00000120546489697133523610000016624525387286231939_"  style="overflow:visible;"/>
		</clipPath>
		<path style="clip-path:url(#SVGID_00000122709328148803379450000009653603190604647582_);fill:#FFFFFF;" d="M119.3,231.8h-3.5v0.6
			h3.5v0.5h-4.1v-1.6h4.1C119.3,231.3,119.3,231.8,119.3,231.8z M114.9,233.9v-0.5h4.8v0.5h-2.1v0.5h1.8v1.4h-3.5v0.4h3.6v0.5h-4.2
			v-1.4h3.5v-0.4h-3.5v-0.5h1.7v-0.5H114.9z M122.6,236.2h-1.9v-2.8h1.7v-1.6h-1.7v-0.6h2.3v2.7h-1.7v1.6h1.3c0.4,0,0.8,0,1-0.1v0.5
			C123.4,236.2,123,236.2,122.6,236.2z M124.9,231.2v5.3h-0.6v-2.6h-1v-0.6h1v-2.1L124.9,231.2L124.9,231.2z M126.9,232.4h2.9v-1.1
			h0.6v3.2h-1.8v1.2h2v0.6H126v-0.6h2.1v-1.2h-1.8v-3.2h0.6V232.4z M129.8,234V233h-2.9v1.1H129.8z M133.6,236.2h-1.9v-2.8h1.7v-1.6
			h-1.7v-0.6h2.3v2.7h-1.7v1.6h1.3c0.4,0,0.8,0,1-0.1v0.5C134.4,236.2,134,236.2,133.6,236.2z M135.9,231.2v5.3h-0.6v-2.6h-1v-0.6h1
			v-2.1L135.9,231.2L135.9,231.2z M140.7,232.5v-0.6h-1.9v-0.6h2.6v1.1c0,2-0.8,3.4-2.6,3.9v-0.6
			C140.1,235.3,140.7,234.2,140.7,232.5z M142.9,231.2v2.2h0.8v0.6h-0.8v2.6h-0.6v-5.3L142.9,231.2L142.9,231.2z M146.2,232.5v-0.6
			h-1.9v-0.6h2.6v1.1c0,2-0.8,3.4-2.6,3.9v-0.6C145.6,235.3,146.2,234.2,146.2,232.5z M148.6,231.2v5.3h-0.6v-5.3H148.6z"/>
	</g>
	<g>
		<defs>
			<path id="SVGID_00000048502415411022192780000010257177309994776707_" d="M63.1,1.8c0-1,0.8-1.8,1.8-1.8h133.9
				c1,0,1.8,0.8,1.8,1.8v238.8c0,1-0.8,1.8-1.8,1.8H64.9c-1,0-1.8-0.8-1.8-1.8V1.8z"/>
		</defs>
		<clipPath id="SVGID_00000145019713299474623000000015818566604043403926_">
			<use xlink:href="#SVGID_00000048502415411022192780000010257177309994776707_"  style="overflow:visible;"/>
		</clipPath>
		
			<rect x="63.1" y="213.5" style="clip-path:url(#SVGID_00000145019713299474623000000015818566604043403926_);fill:#FFFFFF;" width="137.5" height="10.9"/>
	</g>
	<g>
		<defs>
			<path id="SVGID_00000106139462581068863300000010147998532949112503_" d="M63.1,1.8c0-1,0.8-1.8,1.8-1.8h133.9
				c1,0,1.8,0.8,1.8,1.8v238.8c0,1-0.8,1.8-1.8,1.8H64.9c-1,0-1.8-0.8-1.8-1.8V1.8z"/>
		</defs>
		<clipPath id="SVGID_00000163040294024727885860000016565996393219262855_">
			<use xlink:href="#SVGID_00000106139462581068863300000010147998532949112503_"  style="overflow:visible;"/>
		</clipPath>
		<path style="clip-path:url(#SVGID_00000163040294024727885860000016565996393219262855_);" d="M73.9,216.8h1.7v0.2h-0.8v1.1
			c0,0.8,0.4,1.2,0.8,1.4v0.2c-0.4-0.2-0.8-0.6-0.9-1c-0.1,0.4-0.5,0.8-0.9,1v-0.2c0.4-0.2,0.8-0.6,0.8-1.4V217h-0.8L73.9,216.8
			L73.9,216.8z M76.4,216.7v1.4H77v0.2h-0.5v1.6h-0.2v-3.2H76.4z M77.9,218.8c-0.1,0.4-0.3,0.7-0.7,0.9v-0.2
			c0.3-0.2,0.6-0.6,0.6-1.3v-1.4H78v1.4c0,0.7,0.3,1.1,0.6,1.3v0.2C78.2,219.5,78,219.2,77.9,218.8z M79.2,219.9H79v-1.7h-0.6V218
			H79v-1.2h0.2V219.9z M80,219.9h-0.2v-3.2H80V219.9z M82.4,217.2h-1.8V217h0.8v-0.4h0.2v0.4h0.8C82.4,217,82.4,217.2,82.4,217.2z
			 M80.9,218.1c0,0.1,0,0.2,0.1,0.3c0.1,0.1,0.3,0.1,0.4,0.1c0.2,0,0.3-0.1,0.5-0.1c0.1-0.1,0.1-0.2,0.1-0.3s0-0.2-0.1-0.3
			c-0.1-0.1-0.3-0.1-0.5-0.1c-0.2,0-0.3,0.1-0.4,0.1C80.9,217.9,80.9,218,80.9,218.1z M80.7,218.1c0-0.2,0.1-0.3,0.2-0.4
			c0.1-0.1,0.4-0.2,0.6-0.2c0.2,0,0.5,0.1,0.6,0.2c0.1,0.1,0.2,0.3,0.2,0.4s-0.1,0.3-0.2,0.4c-0.1,0.1-0.4,0.2-0.6,0.2
			s-0.4-0.1-0.6-0.2C80.8,218.5,80.7,218.3,80.7,218.1z M83.2,216.7v1h0.5v0.2h-0.5v1.2H83v-2.3H83.2z M81.1,219.1v0.7h2.2v0.2h-2.4
			v-0.9H81.1z M86,219.7h-0.8v-2.9h0.2v2.8H86c0.3,0,0.5-0.1,0.7-0.2v-2.6h0.2v1.3h0.6v-1.4h0.2v3.2h-0.2v-1.6h-0.6v1.6h-0.2v-0.4
			C86.6,219.6,86.3,219.7,86,219.7z M88.6,217.3c0-0.1,0.1-0.3,0.2-0.4c0.2-0.1,0.6-0.2,1.1-0.2s0.9,0.1,1.1,0.2
			c0.1,0.1,0.2,0.2,0.2,0.4s-0.1,0.3-0.2,0.4c-0.1,0.1-0.2,0.1-0.4,0.1v0.5h0.7v0.2h-2.9v-0.2h0.7v-0.5c-0.2,0-0.3-0.1-0.4-0.1
			C88.6,217.6,88.6,217.4,88.6,217.3z M90.4,217.8c-0.2,0-0.3,0-0.5,0c-0.2,0-0.3,0-0.5,0v0.5h1V217.8z M88.8,217.3
			c0,0.1,0,0.2,0.1,0.2c0.2,0.1,0.5,0.2,0.9,0.2s0.8-0.1,0.9-0.2c0.1-0.1,0.1-0.1,0.1-0.2c0-0.1,0-0.2-0.1-0.2
			c-0.2-0.1-0.5-0.2-0.9-0.2s-0.8,0.1-0.9,0.2C88.8,217.1,88.8,217.2,88.8,217.3z M88.6,219.5c0-0.2,0.1-0.3,0.2-0.4
			c0.2-0.1,0.6-0.2,1.1-0.2c0.5,0,0.8,0.1,1.1,0.2c0.2,0.1,0.2,0.2,0.2,0.4c0,0.2-0.1,0.3-0.2,0.4c-0.2,0.1-0.6,0.2-1.1,0.2
			c-0.5,0-0.8-0.1-1.1-0.2C88.6,219.8,88.6,219.6,88.6,219.5z M88.8,219.5c0,0.1,0,0.2,0.1,0.2c0.2,0.1,0.5,0.2,0.9,0.2
			c0.5,0,0.8-0.1,0.9-0.2c0.1-0.1,0.1-0.1,0.1-0.2s0-0.2-0.1-0.2c-0.2-0.1-0.5-0.2-0.9-0.2c-0.4,0-0.8,0.1-0.9,0.2
			C88.8,219.3,88.8,219.4,88.8,219.5z M93.3,218.2c0-0.6-0.1-1-0.2-1.2c-0.1-0.1-0.2-0.1-0.3-0.1s-0.3,0.1-0.3,0.1
			c-0.2,0.2-0.2,0.6-0.2,1.2c0,0.6,0.1,1,0.2,1.2c0.1,0.1,0.2,0.1,0.3,0.1c0.2,0,0.3-0.1,0.3-0.1C93.3,219.2,93.3,218.8,93.3,218.2z
			 M91.9,218.2c0-0.6,0.1-1.1,0.3-1.3c0.1-0.1,0.3-0.2,0.5-0.2s0.4,0.1,0.5,0.2c0.2,0.2,0.3,0.7,0.3,1.3c0,0.6-0.1,1.1-0.3,1.3
			c-0.1,0.1-0.3,0.2-0.5,0.2s-0.4-0.1-0.5-0.2C92,219.3,91.9,218.9,91.9,218.2z M94.3,219.9v-3.2h0.2v3.2H94.3z M98.6,217.3V217
			h-2.2v-0.2h2.5v0.5c0,0.2,0,0.4-0.1,0.6h-0.2C98.6,217.7,98.6,217.5,98.6,217.3z M96.2,218.3v-0.2h2.9v0.2h-1.3v0.6
			c0.4,0,0.7,0.1,0.9,0.2c0.2,0.1,0.2,0.2,0.2,0.4c0,0.2-0.1,0.3-0.2,0.4c-0.2,0.1-0.6,0.2-1.1,0.2s-0.8-0.1-1-0.2
			c-0.2-0.1-0.2-0.2-0.2-0.4c0-0.2,0.1-0.3,0.2-0.4c0.2-0.1,0.5-0.2,0.9-0.2v-0.6H96.2z M96.6,219.4c0,0.1,0.1,0.2,0.1,0.2
			c0.2,0.1,0.5,0.2,0.9,0.2c0.4,0,0.8-0.1,0.9-0.2c0.1-0.1,0.1-0.1,0.1-0.2s0-0.2-0.1-0.2c-0.2-0.1-0.5-0.2-0.9-0.2
			c-0.4,0-0.8,0.1-0.9,0.2C96.6,219.3,96.6,219.4,96.6,219.4z M102,217.3V217h-2.2v-0.2h2.5v0.6c0,0.2,0,0.4-0.1,0.6H102
			C102,217.7,102,217.5,102,217.3z M99.6,218.4v-0.2h2.9v0.2H99.6z M102.3,220h-2.4v-1.1h2.4V220z M102,219.8v-0.7h-2v0.7H102z
			 M103,217.3v-0.2h0.8v-0.5h0.2v0.5h0.8v0.2H103z M103.3,218.7c0,0.3,0.1,0.6,0.2,0.7c0.1,0.1,0.2,0.1,0.4,0.1c0.2,0,0.3,0,0.4-0.1
			c0.1-0.1,0.2-0.4,0.2-0.7s-0.1-0.6-0.2-0.7c-0.1-0.1-0.2-0.1-0.4-0.1s-0.3,0.1-0.4,0.1C103.4,218.2,103.3,218.4,103.3,218.7z
			 M103.1,218.7c0-0.4,0.1-0.7,0.3-0.9c0.1-0.1,0.3-0.2,0.5-0.2c0.2,0,0.4,0.1,0.5,0.2c0.2,0.2,0.3,0.4,0.3,0.9
			c0,0.4-0.1,0.7-0.3,0.9c-0.1,0.1-0.3,0.2-0.5,0.2c-0.2,0-0.4-0.1-0.5-0.2C103.2,219.4,103.1,219.1,103.1,218.7z M105.6,216.7v1.4
			h0.5v0.2h-0.5v1.6h-0.2v-3.2H105.6z M107.9,219.7h-1.4v-2.9h1.5v0.2h-1.3v2.5h1.2c0.3,0,0.7-0.1,0.9-0.3v-2.5h0.2v1.4h0.5v0.2H109
			v1.6h-0.2v-0.5C108.6,219.6,108.2,219.7,107.9,219.7z M109.9,218.4v-1.7h1.5v0.4h0.8v-0.4h0.2v2.2h-0.2v-0.9h-0.8v0.3L109.9,218.4
			L109.9,218.4z M111.4,217.3v0.6h0.8v-0.6H111.4z M111.2,217h-1.1v1.3h1.1V217z M112.5,219.9h-2.4v-1h0.2v0.8h2.2L112.5,219.9
			L112.5,219.9z M114.7,217.7c0-0.4-0.3-0.8-0.8-0.8c-0.5,0-0.8,0.3-0.8,0.8v0h0.2c0-0.3,0.2-0.6,0.6-0.6c0.3,0,0.6,0.2,0.6,0.6
			c0,0.2-0.1,0.4-0.3,0.6c-0.3,0.3-0.4,0.4-0.4,0.7v0.1h0.2v-0.1c0-0.2,0.1-0.3,0.3-0.6C114.6,218.1,114.7,218,114.7,217.7z
			 M114,219.4h-0.2v0.4h0.2V219.4z"/>
	</g>
	<g>
		<defs>
			<path id="SVGID_00000139255967621100267690000007029515474128430513_" d="M63.1,1.8c0-1,0.8-1.8,1.8-1.8h133.9
				c1,0,1.8,0.8,1.8,1.8v238.8c0,1-0.8,1.8-1.8,1.8H64.9c-1,0-1.8-0.8-1.8-1.8V1.8z"/>
		</defs>
		<clipPath id="SVGID_00000113335553868786267590000003949939223006665875_">
			<use xlink:href="#SVGID_00000139255967621100267690000007029515474128430513_"  style="overflow:visible;"/>
		</clipPath>
		
			<path style="clip-path:url(#SVGID_00000113335553868786267590000003949939223006665875_);fill-rule:evenodd;clip-rule:evenodd;fill:#707070;" d="
			M69.3,217.4c0.1-0.1,0.2-0.1,0.3,0l1.5,1.5l-1.5,1.5c-0.1,0.1-0.2,0.1-0.3,0c-0.1-0.1-0.1-0.2,0-0.3l1.2-1.2l-1.2-1.2
			C69.2,217.6,69.2,217.5,69.3,217.4z"/>
	</g>
	<g>
		<defs>
			<path id="SVGID_00000059993122616144092800000015137406108974673542_" d="M63.1,1.8c0-1,0.8-1.8,1.8-1.8h133.9
				c1,0,1.8,0.8,1.8,1.8v238.8c0,1-0.8,1.8-1.8,1.8H64.9c-1,0-1.8-0.8-1.8-1.8V1.8z"/>
		</defs>
		<clipPath id="SVGID_00000057123213549490765890000003169615273577385862_">
			<use xlink:href="#SVGID_00000059993122616144092800000015137406108974673542_"  style="overflow:visible;"/>
		</clipPath>
		
			<rect x="62.7" y="137.5" style="clip-path:url(#SVGID_00000057123213549490765890000003169615273577385862_);fill:#FFFFFF;" width="137.5" height="42.5"/>
	</g>
	<g>
		<defs>
			<path id="SVGID_00000139981636986004820470000002493956889862723985_" d="M63.1,1.8c0-1,0.8-1.8,1.8-1.8h133.9
				c1,0,1.8,0.8,1.8,1.8v238.8c0,1-0.8,1.8-1.8,1.8H64.9c-1,0-1.8-0.8-1.8-1.8V1.8z"/>
		</defs>
		<clipPath id="SVGID_00000071548999519883453800000005008528217391078838_">
			<use xlink:href="#SVGID_00000139981636986004820470000002493956889862723985_"  style="overflow:visible;"/>
		</clipPath>
		<path style="clip-path:url(#SVGID_00000071548999519883453800000005008528217391078838_);" d="M74.1,153.8v-1.5h1.2v4.8h-4.1v-4.8
			h1.2v1.5H74.1z M74.1,154.9h-1.7v1.2h1.7V154.9z M77.8,154.4h1.2v1.1h-1.2v2.6h-1.2v-5.8h1.2V154.4z M72.8,159.5h5.1v1.1h-6.3
			v-2.8h1.2C72.8,157.8,72.8,159.5,72.8,159.5z M85.4,156.1h1.4v1.1H84v1.9h3.1v1.1h-7.4v-1.1h3.1v-1.9H80v-1.1h1.2v-2.6h-1.1v-1.1
			h6.6v1.1h-1v1.2C85.6,155.2,85.5,155.8,85.4,156.1z M82.4,156.1h1.8c0.1-0.3,0.2-0.8,0.2-1.3v-1.4h-2
			C82.4,153.5,82.4,156.1,82.4,156.1z M95.7,152.4v1.1h-1.7v1.9c0,2.3,0.8,3.1,1.7,3.5v1.1c-1-0.3-1.9-1-2.3-1.8
			c-0.5,0.8-1.4,1.5-2.3,1.8v-1.1c0.9-0.4,1.7-1.2,1.7-3.5v-1.9h-1.7v-1.1H95.7z M97.8,155.6H99v1.1h-1.2v3.9h-1.2v-8.3h1.2V155.6z
			 M104.2,156.2c0,1.5-0.1,2.6-0.6,3.2c-0.3,0.4-0.9,0.7-1.6,0.7c-0.6,0-1.2-0.2-1.5-0.7c-0.5-0.7-0.6-1.8-0.6-3.2
			c0-1.4,0.1-2.6,0.6-3.2c0.3-0.4,0.9-0.7,1.5-0.7c0.7,0,1.2,0.2,1.6,0.7C104.1,153.6,104.2,154.8,104.2,156.2z M101.1,156.2
			c0,1.2,0.1,2.1,0.3,2.6c0.1,0.2,0.3,0.3,0.6,0.3s0.5-0.1,0.6-0.3c0.3-0.4,0.3-1.3,0.3-2.6c0-1.2,0-2.1-0.3-2.5
			c-0.1-0.2-0.4-0.3-0.6-0.3c-0.3,0-0.5,0.1-0.6,0.3C101.2,154.1,101.1,155,101.1,156.2z M106.7,160.6h-1.2v-8.3h1.2V160.6z"/>
	</g>
	<g>
		<defs>
			<path id="SVGID_00000116928137455569047850000005241345296604097705_" d="M63.1,1.8c0-1,0.8-1.8,1.8-1.8h133.9
				c1,0,1.8,0.8,1.8,1.8v238.8c0,1-0.8,1.8-1.8,1.8H64.9c-1,0-1.8-0.8-1.8-1.8V1.8z"/>
		</defs>
		<clipPath id="SVGID_00000039814317023635160510000000587482190101733528_">
			<use xlink:href="#SVGID_00000116928137455569047850000005241345296604097705_"  style="overflow:visible;"/>
		</clipPath>
		<path style="clip-path:url(#SVGID_00000039814317023635160510000000587482190101733528_);" d="M72,144.9h-1.3v-0.2h1.5v0.1
			c0,1-0.6,1.5-1.6,1.6v-0.2C71.5,146.2,72,145.8,72,144.9z M73.3,144.7v0.8h0.5v0.2h-0.5v0.9H73v-1.8H73.3z M70.9,147.4
			c0-0.2,0.1-0.3,0.2-0.4c0.2-0.1,0.6-0.2,1-0.2s0.8,0.1,1,0.2c0.1,0.1,0.2,0.2,0.2,0.4s-0.1,0.3-0.2,0.4c-0.2,0.2-0.6,0.2-1,0.2
			s-0.8-0.1-1-0.2C71,147.7,70.9,147.5,70.9,147.4z M71.1,147.4c0,0.1,0.1,0.2,0.2,0.3c0.2,0.1,0.5,0.2,0.8,0.2
			c0.4,0,0.7-0.1,0.8-0.2c0.1-0.1,0.2-0.2,0.2-0.3s0-0.2-0.2-0.3c-0.2-0.1-0.5-0.2-0.8-0.2c-0.4,0-0.7,0.1-0.8,0.2
			C71.2,147.1,71.1,147.2,71.1,147.4z M75.6,146.2h-1.5v-1.5h0.2v1.3h1.3c0.3,0,0.6-0.1,0.8-0.2v-1.1h0.2v0.8h0.5v0.2h-0.5v0.8h-0.2
			V146C76.3,146.1,76,146.2,75.6,146.2z M74.3,148v-1.2h2.3v1.2H74.3z M76.4,147h-1.9v0.8h1.9V147z M79.9,146.2c0-0.6-0.1-1-0.2-1.2
			c-0.1-0.1-0.2-0.1-0.3-0.1c-0.2,0-0.3,0.1-0.3,0.1c-0.2,0.2-0.2,0.6-0.2,1.2c0,0.6,0.1,1,0.2,1.2c0.1,0.1,0.2,0.1,0.3,0.1
			c0.2,0,0.3-0.1,0.3-0.1C79.9,147.2,79.9,146.8,79.9,146.2z M78.5,146.2c0-0.6,0.1-1.1,0.3-1.3c0.1-0.1,0.3-0.2,0.5-0.2
			c0.2,0,0.4,0.1,0.5,0.2c0.2,0.2,0.3,0.7,0.3,1.3s-0.1,1.1-0.3,1.3c-0.1,0.1-0.3,0.2-0.5,0.2s-0.4-0.1-0.5-0.2
			C78.6,147.3,78.5,146.8,78.5,146.2z M81,144.7v1.4h0.5v0.2H81v1.6h-0.2v-3.2H81z M83.2,146.6V145h-0.7v2.5h0.6
			C83.1,147.3,83.2,146.9,83.2,146.6z M82.3,147.5V145h-0.3v-0.2h1.8v0.2h-0.4v1.5c0,0.4,0,0.8-0.1,1h0.1c0.3,0,0.6-0.1,0.8-0.2
			v-2.5h0.2v1.4H85v0.2h-0.5v1.6h-0.2v-0.5c-0.2,0.2-0.5,0.2-0.8,0.2h-1.5v-0.2L82.3,147.5L82.3,147.5z M87.9,145h-2.3v0.7h2.2v0.2
			h-2.2v0.7H88v0.2h-2.5v-2h2.5V145z M85.3,147.8v-0.2h2.9v0.2H85.3z M89.1,145.4v0.3h2.2v0.2h-2.5v-0.7h2.2v-0.3h-2.2v-0.2h2.4v0.7
			H89.1z M88.6,146.4v-0.2h2.9v0.2H88.6z M89.1,147.4v0.3h2.3v0.2h-2.5v-0.7h2.2V147h-2.2v-0.2h2.4v0.7H89.1z M94,144.7v0.6
			c0,0.6,0.4,0.9,0.8,1v0.2c-0.4-0.1-0.8-0.4-0.9-0.7c-0.1,0.3-0.5,0.6-0.9,0.8v-0.2c0.4-0.1,0.8-0.5,0.8-1.1v-0.6H94z M95.7,146.9
			h-0.2v-1.4h-0.8v-0.2h0.8v-0.7h0.2V146.9z M95.8,147.9h-2.4v-1h0.2v0.8h2.2L95.8,147.9L95.8,147.9z M99.1,145h-2.3v1.4h2.3v0.2H98
			v1.1h1.3v0.2h-2.9v-0.2h1.3v-1.1h-1.2v-1.8h2.5L99.1,145L99.1,145z M99.8,145.3v-0.2h0.8v-0.5h0.2v0.5h0.8v0.2H99.8z M100.2,146.7
			c0,0.3,0.1,0.6,0.2,0.7c0.1,0.1,0.2,0.1,0.4,0.1s0.3,0,0.4-0.1c0.1-0.1,0.2-0.4,0.2-0.7c0-0.3-0.1-0.6-0.2-0.7
			c-0.1-0.1-0.2-0.1-0.4-0.1c-0.2,0-0.3,0.1-0.4,0.1C100.2,146.2,100.2,146.4,100.2,146.7z M99.9,146.7c0-0.4,0.1-0.7,0.3-0.9
			c0.1-0.1,0.3-0.2,0.5-0.2c0.2,0,0.4,0.1,0.5,0.2c0.2,0.2,0.3,0.4,0.3,0.9c0,0.4-0.1,0.7-0.3,0.9c-0.1,0.1-0.3,0.2-0.5,0.2
			c-0.2,0-0.4-0.1-0.5-0.2C100,147.4,99.9,147.1,99.9,146.7z M102.4,144.7v1.4h0.5v0.2h-0.5v1.6h-0.2v-3.2H102.4z M103.7,144.7v0.9
			h2.2v0.2h-2.5v-1.1L103.7,144.7L103.7,144.7z M103.2,146.6v-0.2h2.9v0.2H103.2z M103.7,147v0.8h2.3v0.2h-2.5v-1H103.7z M108,145.3
			h2.1v-0.6h0.2v1.6h-2.5v-1.6h0.2C108,144.8,108,145.3,108,145.3z M110.1,146.2v-0.7H108v0.7H110.1z M107.6,147.1v-0.2h2.8v0.2
			h-1.3v0.9h-0.2v-0.9H107.6z M111.2,145.7c0-0.3,0.1-0.6,0.3-0.8c0.1-0.1,0.3-0.2,0.6-0.2c0.2,0,0.4,0.1,0.6,0.2
			c0.2,0.2,0.3,0.4,0.3,0.8c0,0.3-0.1,0.6-0.3,0.8c-0.1,0.1-0.3,0.2-0.6,0.2c-0.2,0-0.4-0.1-0.6-0.2
			C111.2,146.3,111.2,146.1,111.2,145.7z M111.4,145.7c0,0.3,0.1,0.5,0.2,0.6c0.1,0.1,0.2,0.2,0.4,0.2s0.3-0.1,0.4-0.2
			c0.1-0.1,0.2-0.4,0.2-0.6s-0.1-0.5-0.2-0.6c-0.1-0.1-0.2-0.2-0.4-0.2s-0.3,0.1-0.4,0.2C111.4,145.2,111.4,145.4,111.4,145.7z
			 M113.7,147.9h-0.2v-0.4c-0.2,0.2-0.5,0.2-0.9,0.2H111v-0.2h1.6c0.3,0,0.7-0.1,0.9-0.2v-2.6h0.2L113.7,147.9L113.7,147.9z
			 M116.4,147.7h-0.9v-2.9h1.1v0.2h-0.9v2.5h0.7c0.3,0,0.5-0.1,0.7-0.2v-2.6h0.2v1.3h0.5v-1.4h0.2v3.2h-0.2v-1.6h-0.5v1.6h-0.2v-0.4
			C117,147.6,116.7,147.7,116.4,147.7z M118.9,146.3v-1.5h1.5v0.3h0.8v-0.4h0.2v1.8h-0.2V146h-0.8v0.3H118.9z M120.4,145.2v0.5h0.8
			v-0.5H120.4z M120.2,144.9h-1.1v1.1h1.1V144.9z M120.3,148c-0.4,0-0.8-0.1-1-0.2c-0.2-0.1-0.2-0.2-0.2-0.4s0.1-0.3,0.2-0.4
			c0.2-0.1,0.6-0.2,1-0.2c0.4,0,0.8,0.1,1,0.2c0.2,0.1,0.3,0.2,0.3,0.4s-0.1,0.3-0.3,0.4C121.1,147.9,120.7,148,120.3,148z
			 M120.3,146.9c-0.4,0-0.7,0.1-0.9,0.2c-0.1,0.1-0.2,0.2-0.2,0.3s0.1,0.2,0.2,0.3c0.2,0.1,0.5,0.2,0.9,0.2s0.7-0.1,0.9-0.2
			c0.1-0.1,0.2-0.2,0.2-0.3c0-0.1-0.1-0.2-0.2-0.3C121,146.9,120.6,146.9,120.3,146.9z M123.1,146.7c-0.1,0.5-0.5,0.8-0.9,1v-0.2
			c0.4-0.2,0.8-0.6,0.8-1.5v-1.3h0.2v1.3c0,0.9,0.4,1.2,0.8,1.5v0.2C123.6,147.5,123.2,147.1,123.1,146.7z M124.8,144.7v1.4h0.5v0.2
			h-0.5v1.6h-0.2v-3.2H124.8z"/>
	</g>
	<g>
		<defs>
			<path id="SVGID_00000074411755549967875770000006964103376949604798_" d="M63.1,1.8c0-1,0.8-1.8,1.8-1.8h133.9
				c1,0,1.8,0.8,1.8,1.8v238.8c0,1-0.8,1.8-1.8,1.8H64.9c-1,0-1.8-0.8-1.8-1.8V1.8z"/>
		</defs>
		<clipPath id="SVGID_00000094583015609145232860000007460480620629123734_">
			<use xlink:href="#SVGID_00000074411755549967875770000006964103376949604798_"  style="overflow:visible;"/>
		</clipPath>
		
			<path style="clip-path:url(#SVGID_00000094583015609145232860000007460480620629123734_);fill-rule:evenodd;clip-rule:evenodd;fill:#D29B4A;" d="
			M200.6,180.9H63.1V180h137.5V180.9z"/>
	</g>
	<g>
		<defs>
			<path id="SVGID_00000078033182824879288920000015421815769468803763_" d="M63.1,1.8c0-1,0.8-1.8,1.8-1.8h133.9
				c1,0,1.8,0.8,1.8,1.8v238.8c0,1-0.8,1.8-1.8,1.8H64.9c-1,0-1.8-0.8-1.8-1.8V1.8z"/>
		</defs>
		<clipPath id="SVGID_00000121979639047917576650000011256896268405110183_">
			<use xlink:href="#SVGID_00000078033182824879288920000015421815769468803763_"  style="overflow:visible;"/>
		</clipPath>
		<path style="clip-path:url(#SVGID_00000121979639047917576650000011256896268405110183_);" d="M82.4,168.5c-0.1,0.5-0.5,0.8-0.9,1
			v-0.2c0.4-0.2,0.8-0.6,0.8-1.5v-1.3h0.2v1.3c0,0.9,0.4,1.2,0.8,1.5v0.2C82.9,169.3,82.5,168.9,82.4,168.5z M84.2,166.5v3.2H84
			v-1.8h-0.8v-0.2H84v-1.2H84.2z M86.4,167.7c-0.2,0.4-0.7,0.7-1.3,0.8v-0.2c0.6-0.1,1.2-0.5,1.2-1.1v-0.1h-1.1v-0.2h1.1v-0.5h0.2
			v0.5h1.1v0.2h-1.1v0.1c0,0.6,0.6,1,1.2,1.1v0.2C87,168.4,86.6,168.1,86.4,167.7z M84.9,169.6v-0.2h1.3v-1h0.2v1h1.3v0.2H84.9z
			 M90.8,167.3v-0.5h-2.3v-0.2H91v0.7c0,0.3,0,0.6-0.1,0.9h-0.2C90.8,167.9,90.8,167.6,90.8,167.3z M88.3,168.7v-0.2h2.9v0.2h-1.3
			v1.1h-0.2v-1.1H88.3z M81.8,172.2h1.1v-0.7h0.2v1.8h-1.5v-1.8h0.2C81.8,171.6,81.8,172.2,81.8,172.2z M82.9,173.1v-0.7h-1.1v0.7
			H82.9z M84.1,171.5v0.9h0.5v0.2h-0.5v1.1h-0.2v-2.3H84.1z M82,173.8v0.8h2.2v0.2h-2.4v-1H82z M87,173.2h0.6v0.2h-1.2v1h1.3v0.2
			h-2.9v-0.2h1.3v-1H85v-0.2h0.5v-1.4h-0.4v-0.2h2.5v0.2h-0.5v0.6C87.2,172.6,87.1,173,87,173.2z M85.8,171.8v1.4h1
			c0.1-0.2,0.1-0.5,0.1-0.8v-0.6L85.8,171.8L85.8,171.8z M91,171.8h-2.2v0.6H91v0.2h-1.1v0.5h1.3v0.2h-2.9v-0.2h1.3v-0.5h-1.1v-1H91
			V171.8z M88.5,174.3c0-0.2,0.1-0.3,0.2-0.4c0.2-0.1,0.6-0.2,1.1-0.2c0.5,0,0.8,0.1,1.1,0.2c0.2,0.1,0.2,0.2,0.2,0.4
			c0,0.2-0.1,0.3-0.2,0.4c-0.2,0.1-0.6,0.2-1.1,0.2c-0.5,0-0.9-0.1-1.1-0.2C88.6,174.5,88.5,174.4,88.5,174.3z M88.7,174.3
			c0,0.1,0,0.2,0.1,0.2c0.2,0.1,0.5,0.2,0.9,0.2s0.8-0.1,0.9-0.2c0.1-0.1,0.1-0.1,0.1-0.2s0-0.2-0.1-0.2c-0.2-0.1-0.5-0.1-0.9-0.1
			c-0.4,0-0.8,0.1-0.9,0.1C88.7,174.1,88.7,174.2,88.7,174.3z"/>
	</g>
	<g>
		<defs>
			<path id="SVGID_00000168825434081533218650000015007946176734297770_" d="M63.1,1.8c0-1,0.8-1.8,1.8-1.8h133.9
				c1,0,1.8,0.8,1.8,1.8v238.8c0,1-0.8,1.8-1.8,1.8H64.9c-1,0-1.8-0.8-1.8-1.8V1.8z"/>
		</defs>
		<clipPath id="SVGID_00000156588139627442057140000005001918545266509983_">
			<use xlink:href="#SVGID_00000168825434081533218650000015007946176734297770_"  style="overflow:visible;"/>
		</clipPath>
		<path style="clip-path:url(#SVGID_00000156588139627442057140000005001918545266509983_);" d="M119.1,173.6c0,0.4-0.3,0.6-0.6,0.6
			c-0.4,0-0.6-0.2-0.6-0.6v0h-0.2v0c0,0.5,0.3,0.8,0.9,0.8c0.5,0,0.9-0.3,0.9-0.8c0-0.4-0.2-0.6-0.5-0.7c0.3-0.1,0.5-0.3,0.5-0.6
			c0-0.4-0.3-0.7-0.8-0.7c-0.5,0-0.8,0.3-0.8,0.7v0.1h0.2v-0.1c0-0.3,0.2-0.5,0.6-0.5c0.3,0,0.6,0.2,0.6,0.5c0,0.3-0.2,0.5-0.5,0.5
			h-0.3v0.2h0.3C118.9,173,119.1,173.3,119.1,173.6z M120.6,172.8c0.4,0,0.6,0.3,0.6,0.7s-0.2,0.7-0.6,0.7c-0.3,0-0.6-0.2-0.6-0.6
			h-0.2c0,0.5,0.3,0.8,0.8,0.8c0.5,0,0.8-0.3,0.8-0.9c0-0.6-0.3-0.9-0.8-0.9c-0.3,0-0.5,0.1-0.6,0.3l0.1-1.1h1.1v-0.2H120l-0.1,1.5
			h0.2C120.2,172.9,120.4,172.8,120.6,172.8z M123.4,173H122v-0.2h0.4v-1.2H122v-0.2h1.8v0.2h-0.4v0.6c0,0.2,0,0.4-0.1,0.6h0
			c0.2,0,0.4,0,0.6-0.1v0.2C123.9,173,123.6,173,123.4,173z M122.6,172.8h0.6c0.1-0.2,0.1-0.4,0.1-0.6v-0.6h-0.7V172.8z M123.8,172
			v-0.2h0.6v-0.4h0.2v1.8h-0.2v-0.7h-0.6v-0.2h0.6V172L123.8,172L123.8,172z M123.5,174.7c-0.4,0-0.8-0.1-1-0.2
			c-0.2-0.1-0.2-0.2-0.2-0.4s0.1-0.3,0.2-0.4c0.2-0.1,0.6-0.2,1-0.2s0.8,0.1,1,0.2c0.2,0.1,0.3,0.2,0.3,0.4s-0.1,0.3-0.3,0.4
			C124.2,174.6,123.9,174.7,123.5,174.7z M123.5,173.6c-0.4,0-0.7,0.1-0.9,0.2c-0.1,0.1-0.2,0.2-0.2,0.3s0.1,0.2,0.2,0.3
			c0.2,0.1,0.5,0.2,0.9,0.2s0.7-0.1,0.9-0.2c0.1-0.1,0.2-0.2,0.2-0.3c0-0.1-0.1-0.2-0.2-0.3C124.1,173.6,123.8,173.6,123.5,173.6z"
			/>
	</g>
	<g>
		<defs>
			<path id="SVGID_00000052816774426009790340000011403614949034756498_" d="M63.1,1.8c0-1,0.8-1.8,1.8-1.8h133.9
				c1,0,1.8,0.8,1.8,1.8v238.8c0,1-0.8,1.8-1.8,1.8H64.9c-1,0-1.8-0.8-1.8-1.8V1.8z"/>
		</defs>
		<clipPath id="SVGID_00000056397890263646179380000011946249615307840649_">
			<use xlink:href="#SVGID_00000052816774426009790340000011403614949034756498_"  style="overflow:visible;"/>
		</clipPath>
		<path style="clip-path:url(#SVGID_00000056397890263646179380000011946249615307840649_);" d="M154.6,169
			c-0.1,0.4-0.3,0.7-0.7,0.9v-0.2c0.3-0.2,0.6-0.6,0.6-1.3v-1.4h0.2v1.4c0,0.7,0.3,1.1,0.6,1.3v0.2
			C154.9,169.7,154.7,169.3,154.6,169z M155.9,170.1h-0.2v-1.7h-0.6v-0.2h0.6v-1.2h0.2V170.1z M156.6,170.1h-0.2v-3.2h0.2V170.1z
			 M158.3,169.9h-0.9v-2.9h1.1v0.2h-0.9v2.5h0.7c0.3,0,0.6-0.1,0.7-0.2v-2.6h0.2v1.3h0.6v-1.4h0.2v3.2h-0.2v-1.6h-0.6v1.6H159v-0.4
			C158.9,169.8,158.6,169.9,158.3,169.9z M155.3,173.1c0,0.4-0.3,0.6-0.6,0.6c-0.4,0-0.6-0.2-0.6-0.6v0h-0.2v0
			c0,0.5,0.3,0.8,0.9,0.8s0.9-0.3,0.9-0.8c0-0.4-0.2-0.6-0.5-0.7c0.3-0.1,0.4-0.3,0.4-0.6c0-0.4-0.3-0.7-0.8-0.7
			c-0.5,0-0.8,0.3-0.8,0.7v0.1h0.2v-0.1c0-0.3,0.2-0.5,0.6-0.5c0.3,0,0.6,0.2,0.6,0.5c0,0.3-0.2,0.5-0.5,0.5h-0.3v0.2h0.3
			C155.1,172.5,155.3,172.8,155.3,173.1z M156.2,173l1-1.6v1.6H156.2z M157.7,173h-0.4v-2h-0.2l-1.2,2v0.2h1.2v0.6h0.2v-0.6h0.4
			C157.7,173.2,157.7,173,157.7,173z M159.3,173.9v-2.8h-0.2l-0.8,0.3v0.2l0.7-0.3v2.6L159.3,173.9L159.3,173.9z M162,172.5
			c0-0.6-0.1-1-0.3-1.2c-0.1-0.2-0.3-0.3-0.6-0.3s-0.5,0.1-0.6,0.3c-0.2,0.2-0.3,0.5-0.3,1.2c0,0.6,0.1,1,0.3,1.2
			c0.1,0.2,0.4,0.3,0.6,0.3s0.5-0.1,0.6-0.3C161.9,173.4,162,173.1,162,172.5z M161.7,172.5c0,0.6-0.1,0.9-0.2,1
			c-0.1,0.1-0.3,0.2-0.5,0.2c-0.2,0-0.4-0.1-0.5-0.2c-0.1-0.2-0.2-0.5-0.2-1c0-0.6,0.1-0.9,0.2-1c0.1-0.1,0.3-0.2,0.5-0.2
			c0.2,0,0.4,0.1,0.5,0.2C161.7,171.6,161.7,171.9,161.7,172.5z"/>
	</g>
	<g>
		<defs>
			<path id="SVGID_00000095296637893509136230000018253982218372079017_" d="M63.1,1.8c0-1,0.8-1.8,1.8-1.8h133.9
				c1,0,1.8,0.8,1.8,1.8v238.8c0,1-0.8,1.8-1.8,1.8H64.9c-1,0-1.8-0.8-1.8-1.8V1.8z"/>
		</defs>
		<clipPath id="SVGID_00000034807191967442248520000013898928692639461817_">
			<use xlink:href="#SVGID_00000095296637893509136230000018253982218372079017_"  style="overflow:visible;"/>
		</clipPath>
		<path style="clip-path:url(#SVGID_00000034807191967442248520000013898928692639461817_);" d="M186.7,174.4v-2.8h-0.2l-0.8,0.3
			v0.2l0.7-0.3v2.6H186.7z M187.8,173.6l1-1.6v1.6H187.8z M189.4,173.6H189v-2h-0.2l-1.2,2v0.2h1.2v0.6h0.2v-0.6h0.4V173.6z
			 M191.1,173.2h-1.2v-1.8h0.2v1.6h1c0.3,0,0.6,0,0.7-0.1v0.2C191.7,173.2,191.4,173.2,191.1,173.2z M191.3,172.5v-0.2h1v-0.4h-1
			v-0.2h1v-0.3h0.2v2.2h-0.2v-1.1L191.3,172.5L191.3,172.5z M192.6,174.6h-2.4v-1h0.2v0.8h2.2L192.6,174.6L192.6,174.6z
			 M193.3,171.9h0.8v-0.6h0.2v0.6h0.7v0.2h-0.7v0.7c0,0.8,0.4,1.2,0.8,1.4v0.2c-0.4-0.2-0.8-0.6-0.9-1c-0.1,0.4-0.5,0.8-0.9,1v-0.2
			c0.4-0.2,0.8-0.6,0.8-1.4V172h-0.8V171.9z M195.8,171.4v1.4h0.5v0.2h-0.5v1.6h-0.2v-3.2H195.8z"/>
	</g>
	<g>
		<defs>
			<path id="SVGID_00000181783558613558766200000015312585818300936859_" d="M63.1,1.8c0-1,0.8-1.8,1.8-1.8h133.9
				c1,0,1.8,0.8,1.8,1.8v238.8c0,1-0.8,1.8-1.8,1.8H64.9c-1,0-1.8-0.8-1.8-1.8V1.8z"/>
		</defs>
		<clipPath id="SVGID_00000114777994882660548480000013670353612405958283_">
			<use xlink:href="#SVGID_00000181783558613558766200000015312585818300936859_"  style="overflow:visible;"/>
		</clipPath>
		
			<path style="clip-path:url(#SVGID_00000114777994882660548480000013670353612405958283_);fill-rule:evenodd;clip-rule:evenodd;" d="
			M107.1,172.2c0,0.1,0,0.1,0,0.2l-1.5,1.4c0,0.1-0.1,0.1-0.2,0c0-0.1,0-0.1,0-0.2l1.5-1.4C107,172.2,107.1,172.2,107.1,172.2z"/>
	</g>
	<g>
		<defs>
			<path id="SVGID_00000131356036568015538540000014915303286723325833_" d="M63.1,1.8c0-1,0.8-1.8,1.8-1.8h133.9
				c1,0,1.8,0.8,1.8,1.8v238.8c0,1-0.8,1.8-1.8,1.8H64.9c-1,0-1.8-0.8-1.8-1.8V1.8z"/>
		</defs>
		<clipPath id="SVGID_00000053503060507857770080000016988688008789077378_">
			<use xlink:href="#SVGID_00000131356036568015538540000014915303286723325833_"  style="overflow:visible;"/>
		</clipPath>
		
			<path style="clip-path:url(#SVGID_00000053503060507857770080000016988688008789077378_);fill-rule:evenodd;clip-rule:evenodd;" d="
			M105.7,173.6v0.7h5.8c0.1,0,0.2-0.1,0.2-0.2v-1.4c0-0.1-0.1-0.2-0.2-0.2h-4.6v-4.6c0-0.1-0.1-0.2-0.2-0.2h-1.5
			c-0.1,0-0.2,0.1-0.2,0.2v5.8L105.7,173.6L105.7,173.6z M105.5,173.9v0.7h6c0.3,0,0.5-0.2,0.5-0.5v-1.4c0-0.3-0.2-0.5-0.5-0.5h-4.3
			v-4.3c0-0.3-0.2-0.5-0.5-0.5h-1.5c-0.3,0-0.5,0.2-0.5,0.5v6L105.5,173.9L105.5,173.9z"/>
	</g>
	<g>
		<defs>
			<path id="SVGID_00000057139119247768920300000016273713884199138694_" d="M63.1,1.8c0-1,0.8-1.8,1.8-1.8h133.9
				c1,0,1.8,0.8,1.8,1.8v238.8c0,1-0.8,1.8-1.8,1.8H64.9c-1,0-1.8-0.8-1.8-1.8V1.8z"/>
		</defs>
		<clipPath id="SVGID_00000180331719476541320870000007784497821159905690_">
			<use xlink:href="#SVGID_00000057139119247768920300000016273713884199138694_"  style="overflow:visible;"/>
		</clipPath>
		
			<path style="clip-path:url(#SVGID_00000180331719476541320870000007784497821159905690_);fill-rule:evenodd;clip-rule:evenodd;" d="
			M104.9,168.8c0-0.1,0-0.1,0.1-0.1h1c0.1,0,0.1,0.1,0.1,0.1c0,0.1-0.1,0.1-0.1,0.1h-1C104.9,168.9,104.9,168.9,104.9,168.8z"/>
	</g>
	<g>
		<defs>
			<path id="SVGID_00000060024452298893492250000016515302810243030935_" d="M63.1,1.8c0-1,0.8-1.8,1.8-1.8h133.9
				c1,0,1.8,0.8,1.8,1.8v238.8c0,1-0.8,1.8-1.8,1.8H64.9c-1,0-1.8-0.8-1.8-1.8V1.8z"/>
		</defs>
		<clipPath id="SVGID_00000069371338168016956390000010170131668726469528_">
			<use xlink:href="#SVGID_00000060024452298893492250000016515302810243030935_"  style="overflow:visible;"/>
		</clipPath>
		
			<path style="clip-path:url(#SVGID_00000069371338168016956390000010170131668726469528_);fill-rule:evenodd;clip-rule:evenodd;" d="
			M107.6,174.5c-0.1,0-0.1-0.1-0.1-0.1v-1c0-0.1,0.1-0.1,0.1-0.1s0.1,0.1,0.1,0.1v1C107.8,174.4,107.7,174.5,107.6,174.5z"/>
	</g>
	<g>
		<defs>
			<path id="SVGID_00000079454230931936119170000004609063094198234013_" d="M63.1,1.8c0-1,0.8-1.8,1.8-1.8h133.9
				c1,0,1.8,0.8,1.8,1.8v238.8c0,1-0.8,1.8-1.8,1.8H64.9c-1,0-1.8-0.8-1.8-1.8V1.8z"/>
		</defs>
		<clipPath id="SVGID_00000180354713365476681800000018119446074994928275_">
			<use xlink:href="#SVGID_00000079454230931936119170000004609063094198234013_"  style="overflow:visible;"/>
		</clipPath>
		
			<path style="clip-path:url(#SVGID_00000180354713365476681800000018119446074994928275_);fill-rule:evenodd;clip-rule:evenodd;" d="
			M104.9,170.7c0-0.1,0-0.1,0.1-0.1h1c0.1,0,0.1,0.1,0.1,0.1c0,0.1-0.1,0.1-0.1,0.1h-1C104.9,170.9,104.9,170.8,104.9,170.7z"/>
	</g>
	<g>
		<defs>
			<path id="SVGID_00000021110288290106708990000008707282817254817448_" d="M63.1,1.8c0-1,0.8-1.8,1.8-1.8h133.9
				c1,0,1.8,0.8,1.8,1.8v238.8c0,1-0.8,1.8-1.8,1.8H64.9c-1,0-1.8-0.8-1.8-1.8V1.8z"/>
		</defs>
		<clipPath id="SVGID_00000006670919761084180660000000911525740632918415_">
			<use xlink:href="#SVGID_00000021110288290106708990000008707282817254817448_"  style="overflow:visible;"/>
		</clipPath>
		
			<path style="clip-path:url(#SVGID_00000006670919761084180660000000911525740632918415_);fill-rule:evenodd;clip-rule:evenodd;" d="
			M109.6,174.5c-0.1,0-0.1-0.1-0.1-0.1v-1c0-0.1,0.1-0.1,0.1-0.1s0.1,0.1,0.1,0.1v1C109.7,174.4,109.6,174.5,109.6,174.5z"/>
	</g>
	<g>
		<defs>
			<path id="SVGID_00000021832991735618727740000018368063044786086822_" d="M63.1,1.8c0-1,0.8-1.8,1.8-1.8h133.9
				c1,0,1.8,0.8,1.8,1.8v238.8c0,1-0.8,1.8-1.8,1.8H64.9c-1,0-1.8-0.8-1.8-1.8V1.8z"/>
		</defs>
		<clipPath id="SVGID_00000003065736234930741610000003846543749293390740_">
			<use xlink:href="#SVGID_00000021832991735618727740000018368063044786086822_"  style="overflow:visible;"/>
		</clipPath>
		
			<path style="clip-path:url(#SVGID_00000003065736234930741610000003846543749293390740_);fill-rule:evenodd;clip-rule:evenodd;" d="
			M104.9,169.8c0-0.1,0-0.1,0.1-0.1h1c0.1,0,0.1,0.1,0.1,0.1c0,0.1-0.1,0.1-0.1,0.1h-1C104.9,169.9,104.9,169.8,104.9,169.8z"/>
	</g>
	<g>
		<defs>
			<path id="SVGID_00000029738873030960188140000010752226854714568626_" d="M63.1,1.8c0-1,0.8-1.8,1.8-1.8h133.9
				c1,0,1.8,0.8,1.8,1.8v238.8c0,1-0.8,1.8-1.8,1.8H64.9c-1,0-1.8-0.8-1.8-1.8V1.8z"/>
		</defs>
		<clipPath id="SVGID_00000037684770090006184600000007294441337428510858_">
			<use xlink:href="#SVGID_00000029738873030960188140000010752226854714568626_"  style="overflow:visible;"/>
		</clipPath>
		
			<path style="clip-path:url(#SVGID_00000037684770090006184600000007294441337428510858_);fill-rule:evenodd;clip-rule:evenodd;" d="
			M108.6,174.5c-0.1,0-0.1-0.1-0.1-0.1v-1c0-0.1,0-0.1,0.1-0.1s0.1,0.1,0.1,0.1v1C108.7,174.4,108.7,174.5,108.6,174.5z"/>
	</g>
	<g>
		<defs>
			<path id="SVGID_00000165937846220327038200000005574864152251289993_" d="M63.1,1.8c0-1,0.8-1.8,1.8-1.8h133.9
				c1,0,1.8,0.8,1.8,1.8v238.8c0,1-0.8,1.8-1.8,1.8H64.9c-1,0-1.8-0.8-1.8-1.8V1.8z"/>
		</defs>
		<clipPath id="SVGID_00000072992982728250475190000008181084483611775931_">
			<use xlink:href="#SVGID_00000165937846220327038200000005574864152251289993_"  style="overflow:visible;"/>
		</clipPath>
		
			<path style="clip-path:url(#SVGID_00000072992982728250475190000008181084483611775931_);fill-rule:evenodd;clip-rule:evenodd;" d="
			M104.9,171.7c0-0.1,0-0.1,0.1-0.1h1c0.1,0,0.1,0.1,0.1,0.1c0,0.1-0.1,0.1-0.1,0.1h-1C104.9,171.8,104.9,171.8,104.9,171.7z"/>
	</g>
	<g>
		<defs>
			<path id="SVGID_00000139996060165264304810000013553454834783839886_" d="M63.1,1.8c0-1,0.8-1.8,1.8-1.8h133.9
				c1,0,1.8,0.8,1.8,1.8v238.8c0,1-0.8,1.8-1.8,1.8H64.9c-1,0-1.8-0.8-1.8-1.8V1.8z"/>
		</defs>
		<clipPath id="SVGID_00000092437445002615941770000008412871510281601156_">
			<use xlink:href="#SVGID_00000139996060165264304810000013553454834783839886_"  style="overflow:visible;"/>
		</clipPath>
		
			<path style="clip-path:url(#SVGID_00000092437445002615941770000008412871510281601156_);fill-rule:evenodd;clip-rule:evenodd;" d="
			M110.5,174.5c-0.1,0-0.1-0.1-0.1-0.1v-1c0-0.1,0-0.1,0.1-0.1s0.1,0.1,0.1,0.1v1C110.7,174.4,110.6,174.5,110.5,174.5z"/>
	</g>
	<g>
		<defs>
			<path id="SVGID_00000183968093074647111290000002591016688981285790_" d="M63.1,1.8c0-1,0.8-1.8,1.8-1.8h133.9
				c1,0,1.8,0.8,1.8,1.8v238.8c0,1-0.8,1.8-1.8,1.8H64.9c-1,0-1.8-0.8-1.8-1.8V1.8z"/>
		</defs>
		<clipPath id="SVGID_00000153700007917419137340000013198885119986309004_">
			<use xlink:href="#SVGID_00000183968093074647111290000002591016688981285790_"  style="overflow:visible;"/>
		</clipPath>
		
			<path style="clip-path:url(#SVGID_00000153700007917419137340000013198885119986309004_);fill-rule:evenodd;clip-rule:evenodd;" d="
			M176.4,167.8c0-0.1-0.1-0.2-0.2-0.2s-0.2,0.1-0.2,0.2v1.4c0,0.1,0.1,0.2,0.2,0.2s0.2-0.1,0.2-0.2V167.8z M175.5,168.5h-0.2
			c-0.4,0-0.7,0.3-0.7,0.7v1.2h6.8v-1.2c0-0.4-0.3-0.7-0.7-0.7h-0.2v0.7c0,0.4-0.3,0.7-0.7,0.7c-0.4,0-0.7-0.3-0.7-0.7v-0.7h-0.4
			v0.7c0,0.4-0.3,0.7-0.7,0.7c-0.4,0-0.7-0.3-0.7-0.7v-0.7h-0.4v0.7c0,0.4-0.3,0.7-0.7,0.7c-0.4,0-0.7-0.3-0.7-0.7L175.5,168.5
			L175.5,168.5z M174.4,170.4v0.2v3.5c0,0.5,0.4,0.9,0.9,0.9h5.4c0.5,0,0.9-0.4,0.9-0.9v-3.5v-0.2v-1.2c0-0.5-0.4-0.9-0.9-0.9h-0.2
			h-0.2v0.2v0.7c0,0.2-0.2,0.4-0.4,0.4s-0.4-0.2-0.4-0.4v-0.7v-0.2h-0.2h-0.4h-0.2v0.2v0.7c0,0.2-0.2,0.4-0.4,0.4s-0.4-0.2-0.4-0.4
			v-0.7v-0.2h-0.2h-0.4h-0.2v0.2v0.7c0,0.2-0.2,0.4-0.4,0.4s-0.4-0.2-0.4-0.4v-0.7v-0.2h-0.2h-0.2c-0.5,0-0.9,0.4-0.9,0.9
			L174.4,170.4L174.4,170.4z M181.4,174.1v-3.5h-6.8v3.5c0,0.4,0.3,0.7,0.7,0.7h5.4C181.1,174.8,181.4,174.5,181.4,174.1z
			 M175.7,171.9c0-0.1,0.1-0.1,0.1-0.1h4.5c0.1,0,0.1,0.1,0.1,0.1s-0.1,0.1-0.1,0.1h-4.5C175.7,172,175.7,171.9,175.7,171.9z
			 M175.7,173.2c0-0.1,0.1-0.1,0.1-0.1h4.5c0.1,0,0.1,0.1,0.1,0.1s-0.1,0.1-0.1,0.1h-4.5C175.7,173.4,175.7,173.3,175.7,173.2z
			 M178,167.6c0.1,0,0.2,0.1,0.2,0.2v1.4c0,0.1-0.1,0.2-0.2,0.2s-0.2-0.1-0.2-0.2v-1.4C177.8,167.7,177.9,167.6,178,167.6z
			 M180.1,167.8c0-0.1-0.1-0.2-0.2-0.2s-0.2,0.1-0.2,0.2v1.4c0,0.1,0.1,0.2,0.2,0.2s0.2-0.1,0.2-0.2V167.8z"/>
	</g>
	<g>
		<defs>
			<path id="SVGID_00000137099770091981946220000001435515868431354755_" d="M63.1,1.8c0-1,0.8-1.8,1.8-1.8h133.9
				c1,0,1.8,0.8,1.8,1.8v238.8c0,1-0.8,1.8-1.8,1.8H64.9c-1,0-1.8-0.8-1.8-1.8V1.8z"/>
		</defs>
		<clipPath id="SVGID_00000137822571269351676470000016518535419010031763_">
			<use xlink:href="#SVGID_00000137099770091981946220000001435515868431354755_"  style="overflow:visible;"/>
		</clipPath>
		
			<path style="clip-path:url(#SVGID_00000137822571269351676470000016518535419010031763_);fill:none;stroke:#000000;stroke-width:0.2262;" d="
			M147.7,173.7v-2.9c0-0.2-0.1-0.5-0.3-0.6l-2.3-2.2c-0.3-0.3-0.9-0.3-1.3,0l-2.3,2.2c-0.2,0.2-0.3,0.4-0.3,0.6v2.9
			c0,0.5,0.4,0.9,0.9,0.9h4.5C147.3,174.6,147.7,174.2,147.7,173.7z"/>
	</g>
	<g>
		<defs>
			<path id="SVGID_00000051355682453312577190000014199663975167836584_" d="M63.1,1.8c0-1,0.8-1.8,1.8-1.8h133.9
				c1,0,1.8,0.8,1.8,1.8v238.8c0,1-0.8,1.8-1.8,1.8H64.9c-1,0-1.8-0.8-1.8-1.8V1.8z"/>
		</defs>
		<clipPath id="SVGID_00000096055449493720046750000015420142215822053252_">
			<use xlink:href="#SVGID_00000051355682453312577190000014199663975167836584_"  style="overflow:visible;"/>
		</clipPath>
		
			<path style="clip-path:url(#SVGID_00000096055449493720046750000015420142215822053252_);fill:none;stroke:#000000;stroke-width:0.2262;" d="
			M143.7,174.6v-2.9c0-0.1,0.1-0.2,0.2-0.2h1.4c0.1,0,0.2,0.1,0.2,0.2v2.9"/>
	</g>
	<g>
		<defs>
			<path id="SVGID_00000141457326773116703780000014632428324390631553_" d="M63.1,1.8c0-1,0.8-1.8,1.8-1.8h133.9
				c1,0,1.8,0.8,1.8,1.8v238.8c0,1-0.8,1.8-1.8,1.8H64.9c-1,0-1.8-0.8-1.8-1.8V1.8z"/>
		</defs>
		<clipPath id="SVGID_00000011725234288811472380000010009946144827777964_">
			<use xlink:href="#SVGID_00000141457326773116703780000014632428324390631553_"  style="overflow:visible;"/>
		</clipPath>
		
			<path style="clip-path:url(#SVGID_00000011725234288811472380000010009946144827777964_);fill:none;stroke:#000000;stroke-width:0.2262;" d="
			M72.2,167.5c1.1,0,1.8,0.4,2.2,1.1c0.3,0.6,0.3,1.2,0.2,1.9c-0.2,0.6-0.5,1.3-0.9,1.9l-1.4,2.1c-0.1,0.1-0.2,0.1-0.2,0l-1.4-2.1
			c-0.4-0.6-0.7-1.2-0.9-1.9c-0.2-0.6-0.2-1.3,0.2-1.9C70.4,167.9,71.1,167.5,72.2,167.5z"/>
	</g>
	<g>
		<defs>
			<path id="SVGID_00000140704459425687151610000001761761738360441759_" d="M63.1,1.8c0-1,0.8-1.8,1.8-1.8h133.9
				c1,0,1.8,0.8,1.8,1.8v238.8c0,1-0.8,1.8-1.8,1.8H64.9c-1,0-1.8-0.8-1.8-1.8V1.8z"/>
		</defs>
		<clipPath id="SVGID_00000084528981222855778110000007076192993408308369_">
			<use xlink:href="#SVGID_00000140704459425687151610000001761761738360441759_"  style="overflow:visible;"/>
		</clipPath>
		
			<circle style="clip-path:url(#SVGID_00000084528981222855778110000007076192993408308369_);fill:none;stroke:#000000;stroke-width:0.2262;" cx="72.2" cy="169.6" r="0.8"/>
	</g>
	<g>
		<defs>
			<path id="SVGID_00000031187869397902350930000004987566391904209588_" d="M63.1,1.8c0-1,0.8-1.8,1.8-1.8h133.9
				c1,0,1.8,0.8,1.8,1.8v238.8c0,1-0.8,1.8-1.8,1.8H64.9c-1,0-1.8-0.8-1.8-1.8V1.8z"/>
		</defs>
		<clipPath id="SVGID_00000083068264186931835410000014059551005549055639_">
			<use xlink:href="#SVGID_00000031187869397902350930000004987566391904209588_"  style="overflow:visible;"/>
		</clipPath>
		<g style="clip-path:url(#SVGID_00000083068264186931835410000014059551005549055639_);">
			<g>
				<defs>
					<rect id="SVGID_00000068664823308137646590000011567875049855167643_" x="63.1" width="137.5" height="137.5"/>
				</defs>
				<clipPath id="SVGID_00000170248148971445123410000015510889896809366193_">
					<use xlink:href="#SVGID_00000068664823308137646590000011567875049855167643_"  style="overflow:visible;"/>
				</clipPath>
				<g style="clip-path:url(#SVGID_00000170248148971445123410000015510889896809366193_);">
					<rect x="-20.1" y="-44.3" class="st10" width="303.1" height="226.2"/>
				</g>
			</g>
		</g>
	</g>
	<g>
		<defs>
			<path id="SVGID_00000174576219869911117230000013657586024389184175_" d="M63.1,1.8c0-1,0.8-1.8,1.8-1.8h133.9
				c1,0,1.8,0.8,1.8,1.8v238.8c0,1-0.8,1.8-1.8,1.8H64.9c-1,0-1.8-0.8-1.8-1.8V1.8z"/>
		</defs>
		<clipPath id="SVGID_00000082344881846206751490000001951698086320604589_">
			<use xlink:href="#SVGID_00000174576219869911117230000013657586024389184175_"  style="overflow:visible;"/>
		</clipPath>
		<path style="clip-path:url(#SVGID_00000082344881846206751490000001951698086320604589_);fill:#313A48;" d="M63.1,4.5h41.6
			c1,0,1.8,0.8,1.8,1.8v10.9c0,1-0.8,1.8-1.8,1.8H63.1V4.5z"/>
	</g>
	<g>
		<defs>
			<path id="SVGID_00000017475814433295982750000010525937038184396416_" d="M63.1,1.8c0-1,0.8-1.8,1.8-1.8h133.9
				c1,0,1.8,0.8,1.8,1.8v238.8c0,1-0.8,1.8-1.8,1.8H64.9c-1,0-1.8-0.8-1.8-1.8V1.8z"/>
		</defs>
		<clipPath id="SVGID_00000150818827300600607570000010538257913900473737_">
			<use xlink:href="#SVGID_00000017475814433295982750000010525937038184396416_"  style="overflow:visible;"/>
		</clipPath>
		<path style="clip-path:url(#SVGID_00000150818827300600607570000010538257913900473737_);fill:#FFFFFF;" d="M68.7,12.8
			c-0.2,0.6-0.9,1.1-1.5,1.3v-0.6c0.6-0.3,1.2-0.8,1.2-2.3v-2H69v2c0,1.5,0.6,2,1.2,2.3v0.6C69.5,13.9,68.9,13.4,68.7,12.8z
			 M71.5,9.2v2.2h0.8v0.6h-0.8v2.6h-0.6V9.2L71.5,9.2L71.5,9.2z M72.9,9.8V9.2h2.8v0.6h-1.1v0.5c0,0.9,0.5,1.3,1.2,1.5v0.6
			c-0.6-0.1-1.2-0.5-1.5-0.9c-0.3,0.5-0.8,0.9-1.5,1v-0.5c0.7-0.1,1.2-0.6,1.2-1.5V9.8H72.9z M77.2,12.9h-0.6v-1.9h-1.1v-0.5h1.1
			V9.1h0.6V12.9z M77.3,14.5h-4.1v-1.8h0.6V14h3.4V14.5z M82.7,9.2v3H81v1.5h2v0.5h-4.7v-0.5h2.1v-1.5h-1.8v-3
			C78.5,9.3,82.7,9.3,82.7,9.2z M79.2,11.7h2.9V9.8h-2.9V11.7z M83.9,9.8V9.2h2.8v0.6h-1.1v0.1c0,0.9,0.5,1.3,1.2,1.5v0.6
			c-0.6-0.1-1.2-0.5-1.5-0.9c-0.3,0.5-0.8,0.9-1.5,1v-0.6c0.7-0.1,1.1-0.6,1.1-1.5V9.8L83.9,9.8L83.9,9.8z M88.2,12h-0.6V9.2h0.6V12
			z M87.6,12.9v-0.6h0.6v2.3h-4v-2.3h0.6v0.6H87.6z M87.6,13.4h-2.7V14h2.7V13.4z M95.3,9.8h-1.7c0.1,0.5,1,0.8,1.8,0.9v0.5
			c-0.8-0.1-1.7-0.3-2.1-0.8c-0.4,0.5-1.3,0.7-2.1,0.8v-0.5c0.8,0,1.7-0.4,1.8-0.9h-1.7V9.2h4.1L95.3,9.8L95.3,9.8z M90.9,12.1v-0.5
			h4.8v0.5h-2.1v0.5c0.6,0,1.1,0.1,1.4,0.3c0.3,0.2,0.4,0.4,0.4,0.7s-0.2,0.5-0.4,0.7c-0.4,0.2-1,0.3-1.7,0.3s-1.4-0.1-1.7-0.3
			c-0.3-0.2-0.4-0.4-0.4-0.7s0.2-0.5,0.4-0.7c0.3-0.2,0.8-0.3,1.4-0.3v-0.5H90.9z M91.8,13.6c0,0.1,0.1,0.2,0.2,0.3
			c0.2,0.1,0.7,0.2,1.3,0.2c0.7,0,1.1,0,1.3-0.2c0.1-0.1,0.2-0.2,0.2-0.3s-0.1-0.2-0.2-0.3c-0.2-0.1-0.7-0.2-1.3-0.2s-1.1,0-1.3,0.2
			C91.8,13.4,91.8,13.5,91.8,13.6z"/>
	</g>
	<g>
		<defs>
			<path id="SVGID_00000106832758573382150100000012389548423145728671_" d="M63.1,1.8c0-1,0.8-1.8,1.8-1.8h133.9
				c1,0,1.8,0.8,1.8,1.8v238.8c0,1-0.8,1.8-1.8,1.8H64.9c-1,0-1.8-0.8-1.8-1.8V1.8z"/>
		</defs>
		<clipPath id="SVGID_00000035496496251821224560000011884235894964319894_">
			<use xlink:href="#SVGID_00000106832758573382150100000012389548423145728671_"  style="overflow:visible;"/>
		</clipPath>
		
			<path style="clip-path:url(#SVGID_00000035496496251821224560000011884235894964319894_);fill-rule:evenodd;clip-rule:evenodd;fill:#D29B4A;" d="
			M96.2,16.3h-33v-0.5h33V16.3z"/>
	</g>
	<g>
		<defs>
			<path id="SVGID_00000031199077131098094960000013787772186434954906_" d="M63.1,1.8c0-1,0.8-1.8,1.8-1.8h133.9
				c1,0,1.8,0.8,1.8,1.8v238.8c0,1-0.8,1.8-1.8,1.8H64.9c-1,0-1.8-0.8-1.8-1.8V1.8z"/>
		</defs>
		<clipPath id="SVGID_00000155853099090841230310000006261968810736298919_">
			<use xlink:href="#SVGID_00000031199077131098094960000013787772186434954906_"  style="overflow:visible;"/>
		</clipPath>
		
			<rect x="63.1" y="180.9" style="clip-path:url(#SVGID_00000155853099090841230310000006261968810736298919_);fill:#FFFFFF;" width="137.5" height="31.7"/>
	</g>
	<g>
		<defs>
			<path id="SVGID_00000049214868188259085120000000744200730529974191_" d="M63.1,1.8c0-1,0.8-1.8,1.8-1.8h133.9
				c1,0,1.8,0.8,1.8,1.8v238.8c0,1-0.8,1.8-1.8,1.8H64.9c-1,0-1.8-0.8-1.8-1.8V1.8z"/>
		</defs>
		<clipPath id="SVGID_00000004531472278387457990000007184481263293723061_">
			<use xlink:href="#SVGID_00000049214868188259085120000000744200730529974191_"  style="overflow:visible;"/>
		</clipPath>
		<path style="clip-path:url(#SVGID_00000004531472278387457990000007184481263293723061_);" d="M77,190.9h-1.6v0.7h2v0.4h-4.4v-0.4
			h2v-0.7h-1.6v-1.7H77L77,190.9L77,190.9z M76.5,190.5v-0.9h-2.8v0.9H76.5z M76.5,194.1V193h-3.3v-0.4H77v1.5H76.5z M81.2,191.6
			h0.9v0.4h-0.8v1.5h1v0.4h-4.3v-0.4h1v-1.5h-0.9v-0.4h0.8v-1.9h-0.7v-0.4H82v0.4h-0.7v0.8C81.3,190.8,81.3,191.3,81.2,191.6z
			 M80.8,191.9h-1.4v1.5h1.4V191.9z M79.3,189.6v1.9h1.4c0.1-0.3,0.2-0.7,0.2-1.1v-0.9H79.3z M70.5,198.2h2.6v0.4H72v1.5
			c0,1.2,0.6,1.9,1.1,2.1v0.4c-0.6-0.2-1.2-0.8-1.4-1.4c-0.2,0.6-0.7,1.1-1.4,1.4v-0.4c0.6-0.3,1.1-0.9,1.1-2.1v-1.5h-1.1V198.2z
			 M74.4,198.1v2h0.8v0.4h-0.8v2.4h-0.4v-4.9L74.4,198.1L74.4,198.1z M76.2,198.8H79v-0.6h0.4v2.1h-1.6v0.6h2v0.4h-4.4v-0.4h2v-0.6
			h-1.6v-2.1h0.4C76.2,198.2,76.2,198.8,76.2,198.8z M79,199.9v-0.7h-2.8v0.7H79z M76.2,201.7v0.9h3.4v0.4h-3.8v-1.3L76.2,201.7
			L76.2,201.7z M84,199.1v-0.5h-3.3v-0.4h3.8v0.9c0,0.3,0,0.6-0.1,0.8h-0.4C84,199.7,84,199.4,84,199.1z M80.4,200.6v-0.4h4.4v0.4
			H80.4z M84.5,203.1h-3.7v-1.7h3.7V203.1z M84,202.7v-1h-2.8v1H84z"/>
	</g>
	<g>
		<defs>
			<path id="SVGID_00000057144834757867939940000000017881288022679438_" d="M63.1,1.8c0-1,0.8-1.8,1.8-1.8h133.9
				c1,0,1.8,0.8,1.8,1.8v238.8c0,1-0.8,1.8-1.8,1.8H64.9c-1,0-1.8-0.8-1.8-1.8V1.8z"/>
		</defs>
		<clipPath id="SVGID_00000134942213550513614760000015919273120862843034_">
			<use xlink:href="#SVGID_00000057144834757867939940000000017881288022679438_"  style="overflow:visible;"/>
		</clipPath>
		<path style="clip-path:url(#SVGID_00000134942213550513614760000015919273120862843034_);" d="M112.2,195.1c0-1.2-0.8-2.2-2.2-2.2
			c-1.4,0-2.2,1-2.2,2.2v0.2h1.3v-0.2c0-0.7,0.4-1.1,1-1.1c0.6,0,1,0.4,1,1.1c0,0.4-0.1,0.7-0.5,1.1l-2.7,3.1v1h4.5v-1.1h-2.8l2-2.3
			C112.1,196.2,112.2,195.9,112.2,195.1z M118.1,196.7c0-1.6-0.2-2.5-0.8-3.1c-0.4-0.4-0.9-0.6-1.7-0.6s-1.3,0.2-1.7,0.6
			c-0.5,0.6-0.8,1.5-0.8,3.1c0,1.6,0.2,2.5,0.8,3.1c0.4,0.4,1,0.6,1.7,0.6s1.3-0.2,1.7-0.6C117.8,199.2,118.1,198.3,118.1,196.7z
			 M116.8,196.7c0,1.3-0.1,1.9-0.3,2.3c-0.2,0.2-0.4,0.4-0.8,0.4c-0.3,0-0.6-0.1-0.8-0.4c-0.3-0.4-0.4-1-0.4-2.3
			c0-1.3,0.1-1.9,0.4-2.2c0.2-0.2,0.4-0.4,0.8-0.4c0.3,0,0.6,0.1,0.8,0.4C116.7,194.8,116.8,195.4,116.8,196.7z M119.2,194.8
			c0-0.8,0.2-1.5,0.7-1.9c0.4-0.3,0.9-0.5,1.5-0.5c0.6,0,1.1,0.2,1.5,0.5c0.4,0.3,0.6,0.7,0.7,1.3h1.2v-1.7h1.2v4.8h-1.2v-2.1h-1.2
			c-0.1,0.6-0.3,1.1-0.7,1.4c-0.4,0.3-0.9,0.5-1.5,0.5s-1.1-0.2-1.5-0.5C119.5,196.3,119.2,195.6,119.2,194.8z M120.5,194.8
			c0,0.5,0.1,0.8,0.3,1c0.2,0.1,0.4,0.2,0.7,0.2c0.3,0,0.5-0.1,0.7-0.2c0.2-0.2,0.3-0.6,0.3-1c0-0.5-0.1-0.8-0.3-1
			c-0.2-0.1-0.4-0.2-0.7-0.2c-0.3,0-0.5,0.1-0.7,0.2C120.6,194,120.5,194.3,120.5,194.8z M124.8,198.8h-5.1v-1.1h6.3v3.2h-1.2V198.8
			z M130.7,194.1c0-0.5,0.2-0.8,0.5-1.1c0.4-0.4,1.1-0.5,1.8-0.5c0.7,0,1.4,0.1,1.8,0.5c0.3,0.2,0.5,0.6,0.5,1.1
			c0,0.5-0.2,0.8-0.5,1.1c-0.4,0.4-1.1,0.5-1.8,0.5c-0.7,0-1.4-0.1-1.8-0.5C130.9,194.9,130.7,194.6,130.7,194.1z M131.9,194.1
			c0,0.2,0.1,0.3,0.2,0.4c0.2,0.1,0.5,0.2,0.9,0.2s0.8-0.1,0.9-0.2c0.1-0.1,0.2-0.2,0.2-0.4s-0.1-0.3-0.2-0.4
			c-0.2-0.1-0.5-0.2-0.9-0.2s-0.8,0.1-0.9,0.2C131.9,193.8,131.9,193.9,131.9,194.1z M133.3,197v1.3h-1.2V197h-1.7v-1h4.2
			c0.4,0,0.8,0,1.2-0.1v1c-0.4,0.1-0.8,0.1-1.3,0.1L133.3,197L133.3,197z M136.2,198.8v-0.5h-1.7v-1h1.7v-4.8h1.2v6.3H136.2z
			 M131.2,200.9v-2.4h1.2v1.4h5.2v1.1L131.2,200.9L131.2,200.9z"/>
	</g>
	<g>
		<defs>
			<path id="SVGID_00000042729772545863436140000012163366974363673238_" d="M63.1,1.8c0-1,0.8-1.8,1.8-1.8h133.9
				c1,0,1.8,0.8,1.8,1.8v238.8c0,1-0.8,1.8-1.8,1.8H64.9c-1,0-1.8-0.8-1.8-1.8V1.8z"/>
		</defs>
		<clipPath id="SVGID_00000110472397741752964010000012480174579643282855_">
			<use xlink:href="#SVGID_00000042729772545863436140000012163366974363673238_"  style="overflow:visible;"/>
		</clipPath>
		<path style="clip-path:url(#SVGID_00000110472397741752964010000012480174579643282855_);" d="M186.5,202.7v-4.3h-0.4l-1.1,0.5
			v0.4l1.1-0.5v3.8L186.5,202.7L186.5,202.7z M189.9,201.5c0,0.6-0.4,0.9-0.9,0.9c-0.5,0-0.9-0.3-0.9-0.9v0h-0.5v0.1
			c0,0.8,0.6,1.3,1.3,1.3s1.3-0.5,1.3-1.2c0-0.6-0.3-1-0.8-1.1c0.4-0.1,0.7-0.5,0.7-1c0-0.6-0.4-1.1-1.2-1.1c-0.8,0-1.2,0.5-1.2,1.1
			v0.1h0.5v-0.1c0-0.4,0.3-0.7,0.8-0.7c0.4,0,0.8,0.3,0.8,0.7c0,0.4-0.2,0.7-0.7,0.7h-0.4v0.4h0.4
			C189.5,200.6,189.9,200.9,189.9,201.5z M192.4,200.5v-2.4h2.3v0.4h1.2v-0.5h0.4v2.8h-0.4V200h-1.2v0.4L192.4,200.5L192.4,200.5z
			 M194.7,199v0.7h1.2V199H194.7z M194.3,198.5h-1.4v1.6h1.4V198.5z M194.5,203.1c-0.6,0-1.1-0.1-1.5-0.3c-0.2-0.2-0.4-0.4-0.4-0.7
			s0.1-0.5,0.4-0.7c0.4-0.2,0.9-0.3,1.5-0.3c0.6,0,1.1,0.1,1.5,0.3c0.2,0.2,0.4,0.4,0.4,0.7c0,0.3-0.2,0.5-0.4,0.7
			C195.7,203,195.1,203.1,194.5,203.1z M194.5,201.4c-0.5,0-1,0.1-1.2,0.2c-0.1,0.1-0.2,0.2-0.2,0.4s0.1,0.3,0.2,0.4
			c0.3,0.2,0.7,0.2,1.2,0.2c0.5,0,1-0.1,1.2-0.2c0.1-0.1,0.2-0.2,0.2-0.4c0-0.2-0.1-0.3-0.2-0.4C195.5,201.5,195,201.4,194.5,201.4z
			"/>
	</g>
	<g>
		<defs>
			<path id="SVGID_00000111912626840441732640000013361990667621872260_" d="M63.1,1.8c0-1,0.8-1.8,1.8-1.8h133.9
				c1,0,1.8,0.8,1.8,1.8v238.8c0,1-0.8,1.8-1.8,1.8H64.9c-1,0-1.8-0.8-1.8-1.8V1.8z"/>
		</defs>
		<clipPath id="SVGID_00000042733128392635532020000002028080607064612011_">
			<use xlink:href="#SVGID_00000111912626840441732640000013361990667621872260_"  style="overflow:visible;"/>
		</clipPath>
		<path style="clip-path:url(#SVGID_00000042733128392635532020000002028080607064612011_);" d="M156.6,191.5h-1.1v0.5h1.3v0.2h-2.9
			V192h1.3v-0.5h-1.1v-1.1h2.4V191.5z M156.4,191.3v-0.7h-2v0.7H156.4z M156.4,193.7v-0.7h-2.2v-0.2h2.5v0.9H156.4z M159.4,192h0.6
			v0.2h-0.6v1h0.7v0.2h-2.9v-0.2h0.7v-1h-0.6V192h0.5v-1.4h-0.4v-0.2h2.5v0.2h-0.4v0.6C159.6,191.5,159.5,191.8,159.4,192z
			 M159.3,192.2h-1v1h1V192.2z M158.2,190.6v1.4h1c0.1-0.2,0.1-0.5,0.1-0.8v-0.6L158.2,190.6L158.2,190.6z M163,193.4h-1.1v-2.9h1.1
			V193.4z M162.7,193.2v-2.5H162v2.5H162.7z M164.4,193.6h-0.2V192h-0.6v1.6h-0.2v-3.1h0.2v1.3h0.6v-1.4h0.2V193.6z M165.2,191.2
			c0-0.3,0.1-0.5,0.3-0.6c0.1-0.1,0.3-0.2,0.6-0.2s0.4,0.1,0.6,0.2c0.2,0.1,0.3,0.3,0.3,0.6s-0.1,0.5-0.3,0.6
			c-0.1,0.1-0.3,0.2-0.6,0.2s-0.4-0.1-0.6-0.2C165.3,191.7,165.2,191.4,165.2,191.2z M165.4,191.2c0,0.2,0.1,0.4,0.2,0.5
			c0.1,0.1,0.2,0.1,0.4,0.1s0.3-0.1,0.4-0.1c0.1-0.1,0.2-0.3,0.2-0.5s-0.1-0.4-0.2-0.5c-0.1-0.1-0.2-0.1-0.4-0.1s-0.3,0.1-0.4,0.1
			C165.4,190.8,165.4,191,165.4,191.2z M167.8,192.1h-0.2v-1.7h0.2V192.1z M167.6,192.8v-0.4h0.2v1.3h-2.4v-1.3h0.2v0.4H167.6z
			 M167.6,193h-1.9v0.5h1.9V193z M169.9,191.1v-0.5h-1.3v-0.2h1.5v0.6c0,1.2-0.5,2-1.5,2.3v-0.2
			C169.5,192.9,169.9,192.2,169.9,191.1z M171.1,190.4v1.4h0.5v0.2h-0.5v1.6h-0.2v-3.2H171.1z"/>
	</g>
	<g>
		<defs>
			<path id="SVGID_00000026881656366664381280000003380835838664067007_" d="M63.1,1.8c0-1,0.8-1.8,1.8-1.8h133.9
				c1,0,1.8,0.8,1.8,1.8v238.8c0,1-0.8,1.8-1.8,1.8H64.9c-1,0-1.8-0.8-1.8-1.8V1.8z"/>
		</defs>
		<clipPath id="SVGID_00000116942422380986601970000009578581220811143590_">
			<use xlink:href="#SVGID_00000026881656366664381280000003380835838664067007_"  style="overflow:visible;"/>
		</clipPath>
		<path style="clip-path:url(#SVGID_00000116942422380986601970000009578581220811143590_);" d="M154.1,200.5
			c-0.1,0.5-0.5,0.8-0.9,1v-0.2c0.4-0.2,0.8-0.6,0.8-1.5v-1.3h0.2v1.3c0,0.9,0.4,1.2,0.8,1.5v0.2C154.5,201.3,154.2,201,154.1,200.5
			z M155.8,198.5v1.4h0.5v0.2h-0.5v1.6h-0.2v-3.2H155.8z M156.7,198.6h1.6v0.2h-0.7v0.5c0,0.5,0.4,0.8,0.8,0.9v0.2
			c-0.4-0.1-0.7-0.3-0.9-0.7c-0.1,0.3-0.5,0.6-0.9,0.7v-0.2c0.4-0.1,0.8-0.4,0.8-1v-0.5h-0.7V198.6z M159.3,200.8H159v-1.2h-0.8
			v-0.2h0.8v-0.8h0.2V200.8z M159.3,201.8h-2.4v-1h0.2v0.8h2.2V201.8z M161.9,198.6v0.6c0,0.6,0.4,0.9,0.8,1v0.2
			c-0.4-0.1-0.8-0.4-0.9-0.7c-0.1,0.3-0.4,0.6-0.9,0.8v-0.2c0.4-0.1,0.8-0.5,0.8-1.1v-0.6H161.9z M163.6,200.8h-0.2v-2.2h0.2V200.8z
			 M163.7,201.8h-2.4v-1h0.2v0.8h2.2V201.8z M164.4,198.9h0.7v-0.4h0.2v0.4h0.7v0.2h-0.7v0.1c0,0.5,0.4,0.8,0.8,0.9v0.2
			c-0.4-0.1-0.7-0.4-0.9-0.7c-0.1,0.3-0.5,0.6-0.9,0.7v-0.2c0.4-0.1,0.8-0.4,0.8-1V199h-0.7V198.9z M167,200.4h-0.2v-0.8h-0.7v-0.2
			h0.7v-0.9h0.2V200.4z M164.6,201.2c0-0.2,0.1-0.3,0.3-0.4c0.2-0.1,0.6-0.2,1-0.2s0.8,0.1,1,0.2c0.2,0.1,0.3,0.2,0.3,0.4
			c0,0.2-0.1,0.3-0.3,0.4c-0.2,0.1-0.6,0.2-1,0.2s-0.8-0.1-1-0.2C164.7,201.5,164.6,201.4,164.6,201.2z M164.8,201.2
			c0,0.1,0.1,0.2,0.2,0.3c0.2,0.1,0.5,0.2,0.9,0.2c0.4,0,0.7-0.1,0.9-0.2c0.1-0.1,0.2-0.2,0.2-0.3s-0.1-0.2-0.2-0.3
			c-0.2-0.1-0.5-0.2-0.9-0.2c-0.4,0-0.7,0.1-0.9,0.2C164.9,201,164.8,201.1,164.8,201.2z M167.8,199.4c0-0.3,0.1-0.6,0.3-0.7
			c0.1-0.1,0.3-0.2,0.6-0.2s0.4,0.1,0.6,0.2c0.2,0.2,0.3,0.4,0.3,0.7c0,0.3-0.1,0.6-0.3,0.7c-0.1,0.1-0.3,0.2-0.6,0.2
			c-0.2,0-0.4-0.1-0.6-0.2C167.9,200,167.8,199.7,167.8,199.4z M168,199.4c0,0.2,0.1,0.4,0.2,0.6c0.1,0.1,0.2,0.2,0.4,0.2
			s0.3-0.1,0.4-0.2c0.1-0.1,0.2-0.3,0.2-0.6c0-0.2-0.1-0.4-0.2-0.6c-0.1-0.1-0.2-0.2-0.4-0.2s-0.3,0.1-0.4,0.2
			C168.1,199,168,199.2,168,199.4z M170.4,200.8h-0.2v-2.2h0.2V200.8z M170.5,201.8h-2.4v-1h0.2v0.8h2.2L170.5,201.8L170.5,201.8z
			 M171.3,199.1c0-0.2,0.1-0.3,0.2-0.4c0.2-0.1,0.4-0.2,0.7-0.2c0.2,0,0.5,0.1,0.6,0.2c0.1,0.1,0.2,0.2,0.2,0.4s-0.1,0.3-0.2,0.4
			c-0.2,0.1-0.4,0.2-0.6,0.2c-0.3,0-0.5-0.1-0.7-0.2C171.4,199.4,171.3,199.3,171.3,199.1z M171.5,199.1c0,0.1,0.1,0.2,0.1,0.3
			c0.1,0.1,0.3,0.1,0.5,0.1s0.4,0,0.5-0.1c0.1-0.1,0.1-0.1,0.1-0.3s-0.1-0.2-0.1-0.3c-0.1-0.1-0.3-0.1-0.5-0.1c-0.2,0-0.4,0-0.5,0.1
			C171.5,198.9,171.5,199,171.5,199.1z M173.8,201h-0.2v-0.3h-0.8v-0.2h0.8v-1.9h0.2V201z M172.5,200.1h-0.4v0.7h-0.2v-0.7h-0.7V200
			h1.3c0.3,0,0.6,0,0.9-0.1v0.2C173.1,200.1,172.8,200.1,172.5,200.1z M173.9,201.8h-2.4v-0.9h0.2v0.7h2.2L173.9,201.8L173.9,201.8z
			"/>
	</g>
	<g>
		<defs>
			<path id="SVGID_00000179605336573870504570000001537859074923591581_" d="M63.1,1.8c0-1,0.8-1.8,1.8-1.8h133.9
				c1,0,1.8,0.8,1.8,1.8v238.8c0,1-0.8,1.8-1.8,1.8H64.9c-1,0-1.8-0.8-1.8-1.8V1.8z"/>
		</defs>
		<clipPath id="SVGID_00000050634831397175153280000015268977283437511342_">
			<use xlink:href="#SVGID_00000179605336573870504570000001537859074923591581_"  style="overflow:visible;"/>
		</clipPath>
		<path style="clip-path:url(#SVGID_00000050634831397175153280000015268977283437511342_);" d="M181.8,193.3c0,0.6-0.4,0.9-0.9,0.9
			c-0.5,0-0.9-0.3-0.9-0.9v0h-0.5v0.1c0,0.8,0.6,1.3,1.3,1.3c0.8,0,1.3-0.5,1.3-1.2c0-0.6-0.3-1-0.8-1.1c0.4-0.1,0.7-0.5,0.7-1
			c0-0.6-0.4-1.1-1.2-1.1c-0.8,0-1.2,0.5-1.2,1.1v0.1h0.5v-0.1c0-0.4,0.3-0.7,0.8-0.7c0.4,0,0.8,0.3,0.8,0.7c0,0.4-0.3,0.7-0.7,0.7
			h-0.4v0.4h0.4C181.4,192.5,181.8,192.8,181.8,193.3z M183.2,192.3c0-1.2,0.2-1.7,0.9-1.7c0.4,0,0.7,0.2,0.7,0.6h0.5
			c-0.1-0.7-0.5-1-1.2-1c-0.4,0-0.8,0.1-1,0.5c-0.2,0.4-0.3,1-0.3,2c0,0.5,0.1,0.9,0.2,1.2c0.2,0.5,0.6,0.7,1.2,0.7
			c0.8,0,1.3-0.5,1.3-1.4c0-0.9-0.5-1.4-1.3-1.4C183.6,191.8,183.3,192,183.2,192.3z M183.2,193.2c0-0.6,0.3-1,0.9-1
			c0.5,0,0.9,0.4,0.9,1c0,0.6-0.3,1-0.9,1C183.5,194.2,183.2,193.8,183.2,193.2z M186,191.2c0-0.4,0.1-0.8,0.4-1
			c0.2-0.2,0.5-0.3,0.9-0.3s0.6,0.1,0.9,0.3c0.2,0.2,0.4,0.5,0.4,0.8h1V190h0.4v2.8h-0.4v-1.3h-1c0,0.4-0.2,0.7-0.4,0.9
			c-0.2,0.2-0.5,0.3-0.9,0.3s-0.6-0.1-0.9-0.3C186.1,192.1,186,191.7,186,191.2z M186.4,191.2c0,0.3,0.1,0.6,0.3,0.7
			c0.1,0.1,0.3,0.2,0.6,0.2c0.2,0,0.4-0.1,0.6-0.2c0.2-0.2,0.3-0.4,0.3-0.7c0-0.3-0.1-0.6-0.3-0.7c-0.1-0.1-0.3-0.2-0.6-0.2
			s-0.4,0.1-0.6,0.2C186.5,190.7,186.4,190.9,186.4,191.2z M189.5,194.9v-1.4h-3.2v-0.4h3.7v1.7H189.5z M192.4,190.8
			c0-0.3,0.1-0.5,0.3-0.6c0.2-0.2,0.6-0.3,1-0.3c0.4,0,0.8,0.1,1,0.3c0.2,0.1,0.3,0.4,0.3,0.6c0,0.3-0.1,0.5-0.3,0.6
			c-0.2,0.2-0.6,0.3-1,0.3c-0.4,0-0.8-0.1-1-0.3C192.5,191.3,192.4,191.1,192.4,190.8z M192.8,190.8c0,0.2,0.1,0.3,0.2,0.4
			c0.2,0.1,0.4,0.2,0.7,0.2c0.3,0,0.5-0.1,0.7-0.2c0.1-0.1,0.2-0.2,0.2-0.4c0-0.1-0.1-0.3-0.2-0.4c-0.2-0.1-0.4-0.2-0.7-0.2
			c-0.3,0-0.6,0.1-0.7,0.2C192.9,190.5,192.8,190.6,192.8,190.8z M193.7,192.4v0.9h-0.4v-0.9h-1.1v-0.4h2.3c0.4,0,0.7,0,1-0.1v0.4
			c-0.3,0.1-0.8,0.1-1.2,0.1L193.7,192.4L193.7,192.4z M196.3,193.7h-0.4v-0.5h-1.1v-0.4h1.1v-2.9h0.4V193.7z M196.4,194.9h-3.7
			v-1.3h0.4v1h3.3V194.9z"/>
	</g>
	<g>
		<defs>
			<path id="SVGID_00000120529978447753508610000016556488086780761222_" d="M63.1,1.8c0-1,0.8-1.8,1.8-1.8h133.9
				c1,0,1.8,0.8,1.8,1.8v238.8c0,1-0.8,1.8-1.8,1.8H64.9c-1,0-1.8-0.8-1.8-1.8V1.8z"/>
		</defs>
		<clipPath id="SVGID_00000100343212624894240280000008923944988625993103_">
			<use xlink:href="#SVGID_00000120529978447753508610000016556488086780761222_"  style="overflow:visible;"/>
		</clipPath>
		
			<path style="clip-path:url(#SVGID_00000100343212624894240280000008923944988625993103_);fill-rule:evenodd;clip-rule:evenodd;fill:#D29B4A;" d="
			M200.6,213.5H63.1v-0.9h137.5V213.5z"/>
	</g>
	<g>
		<defs>
			<path id="SVGID_00000092425518803750139910000007572167515154833550_" d="M63.1,1.8c0-1,0.8-1.8,1.8-1.8h133.9
				c1,0,1.8,0.8,1.8,1.8v238.8c0,1-0.8,1.8-1.8,1.8H64.9c-1,0-1.8-0.8-1.8-1.8V1.8z"/>
		</defs>
		<clipPath id="SVGID_00000127724550637984100360000007361952457631532970_">
			<use xlink:href="#SVGID_00000092425518803750139910000007572167515154833550_"  style="overflow:visible;"/>
		</clipPath>
		
			<path style="clip-path:url(#SVGID_00000127724550637984100360000007361952457631532970_);fill:none;stroke:#000000;stroke-width:0.4523;stroke-linecap:round;" d="
			M96.6,200.4v-7.2"/>
	</g>
	<g>
		<defs>
			<path id="SVGID_00000081605896327286833700000012635913116465437570_" d="M63.1,1.8c0-1,0.8-1.8,1.8-1.8h133.9
				c1,0,1.8,0.8,1.8,1.8v238.8c0,1-0.8,1.8-1.8,1.8H64.9c-1,0-1.8-0.8-1.8-1.8V1.8z"/>
		</defs>
		<clipPath id="SVGID_00000008848584793008671630000013209586778442750904_">
			<use xlink:href="#SVGID_00000081605896327286833700000012635913116465437570_"  style="overflow:visible;"/>
		</clipPath>
		
			<path style="clip-path:url(#SVGID_00000008848584793008671630000013209586778442750904_);fill:none;stroke:#000000;stroke-width:0.4523;stroke-linecap:round;" d="
			M149.1,200.4v-7.2"/>
	</g>
	<g>
		<defs>
			<path id="SVGID_00000086680008883096950270000009329788622861319834_" d="M63.1,1.8c0-1,0.8-1.8,1.8-1.8h133.9
				c1,0,1.8,0.8,1.8,1.8v238.8c0,1-0.8,1.8-1.8,1.8H64.9c-1,0-1.8-0.8-1.8-1.8V1.8z"/>
		</defs>
		<clipPath id="SVGID_00000110443167849487109190000007178706282875976098_">
			<use xlink:href="#SVGID_00000086680008883096950270000009329788622861319834_"  style="overflow:visible;"/>
		</clipPath>
		<g style="clip-path:url(#SVGID_00000110443167849487109190000007178706282875976098_);">
			<path shape-rendering="crispEdges" class="st61" d="M64.9,0.2h133.9c0.9,0,1.6,0.7,1.6,1.6v238.8c0,0.9-0.7,1.6-1.6,1.6H64.9
				c-0.9,0-1.6-0.7-1.6-1.6V1.8C63.4,0.9,64.1,0.2,64.9,0.2z"/>
		</g>
	</g>
</g>
</svg>
