<svg width="360" height="280" viewBox="0 0 360 280" fill="none" xmlns="http://www.w3.org/2000/svg">
<path d="M312.832 149.489C311.531 147.711 310.851 144.812 310.6 142.044C310.355 139.276 309.323 138.382 309.084 136.849C308.881 135.566 307.652 131.814 306.607 129.929C305.718 130.03 304.698 130.001 304.262 130.126C303.552 130.329 300.359 132.44 299.422 133.144C298.473 133.848 295.758 135.059 295.047 136.067C294.337 137.075 293.388 137.379 292.332 138.083C291.264 138.787 288.548 137.88 287.134 137.576C285.719 137.272 283.589 137.88 282.055 138.686C280.521 139.491 275.436 142.11 274.732 144.019C274.022 145.933 271.306 152.781 270.357 154.088C269.414 155.4 268.346 157.512 267.642 158.317C266.938 159.122 265.517 161.538 264.688 162.749C263.864 163.954 262.563 165.666 261.614 166.674C260.671 167.682 260.08 167.682 258.899 168.392C257.717 169.096 255.592 170.301 254.291 171.011C252.996 171.72 250.394 171.613 248.383 171.41C246.372 171.213 240.35 170.301 239.759 170.205C239.168 170.104 238.577 171.112 237.748 170.205C236.924 169.299 235.265 168.195 233.964 167.587C232.663 166.984 232.191 166.173 231.248 165.368C230.305 164.562 228.175 163.858 226.402 163.351C224.63 162.844 218.25 160.936 216.477 160.333C214.711 159.731 212.461 159.426 210.097 161.747C207.734 164.061 202.178 168.792 200.644 170.301C199.104 171.816 196.98 174.536 195.559 174.834C194.145 175.132 192.253 175.944 191.31 176.952C190.361 177.954 188.594 179.165 186.112 179.063C183.629 178.962 181.976 178.861 181.266 179.571C180.555 180.274 180.197 180.072 179.374 179.368C178.55 178.658 174.528 177.751 172.522 176.85C170.511 175.944 166.023 173.325 164.841 172.919C163.66 172.52 160.222 170.718 158.569 171.321C156.916 171.929 149.593 172.729 146.633 172.329C143.679 171.923 140.134 168.804 139.071 167.39C138.003 165.976 136.947 163.262 136.589 161.854C136.236 160.44 135.061 159.528 134.47 158.52C133.879 157.512 131.396 156.104 130.334 155.096C129.272 154.088 125.965 151.773 125.016 150.765C124.073 149.757 120.409 147.144 118.756 146.739C117.103 146.339 115.324 146.44 114.501 144.526C113.677 142.611 111.075 141.507 109.655 140.296C108.234 139.091 99.6102 133.55 97.9571 132.846C96.3039 132.142 87.3219 127.507 85.6687 126.606C84.0156 125.694 74.0907 120.767 73.6192 119.556C73.273 118.667 70.1099 114.682 66.9588 112.147C66.2784 113.764 65.0848 114.915 65.049 115.953C65.043 116.233 65.1146 116.502 65.3056 116.77C66.0636 117.85 66.9946 118.995 66.9648 120.099C66.9588 120.468 66.8394 120.826 66.5768 121.184C65.5264 122.598 63.6226 123.827 62.9064 124.769C62.2798 125.598 62.3872 125.521 61.8859 126.845C61.5577 127.71 60.7221 128.157 59.9463 128.861C59.6896 129.094 59.433 129.356 59.2062 129.672C59.1167 129.798 59.0212 129.917 58.9198 130.03C57.386 131.73 54.5153 132.184 54.378 133.419C54.2288 134.737 54.2169 135.286 52.4026 135.811C51.2687 136.139 50.7435 136.437 50.654 136.962C50.6002 137.278 50.7077 137.678 50.9404 138.215C51.4059 139.294 51.9729 140.386 51.8774 141.03C51.8476 141.245 51.7401 141.412 51.5372 141.507C50.272 142.104 50.2601 140.607 49.4723 141.585C49.4723 141.585 48.3264 142.993 47.4073 142.951C46.4882 142.915 45.0678 143.028 44.6083 143.852C44.1487 144.675 44.101 144.752 43.7847 145.14C43.4624 145.534 43.6892 145.999 44.3815 146.077C45.0678 146.154 46.3569 147.293 46.721 147.914C47.085 148.54 47.6818 149.244 48.5532 149.202C48.5532 149.202 48.589 149.196 48.6606 149.184C49.15 149.125 51.2209 148.97 52.8741 150.359C53.5903 150.962 54.5392 150.92 55.703 150.932C56.8608 150.95 61.4801 152.006 61.7009 154.32C61.7427 154.756 61.7725 155.185 61.8143 155.585C61.9754 157.333 62.244 158.603 63.8315 157.643C65.7234 156.498 66.6962 155.865 67.4422 155.191C67.6929 154.965 67.9137 154.738 68.1405 154.481C69.1908 153.282 71.0111 153.551 72.4196 153.897C73.8281 154.243 75.4932 155.143 77.3015 154.947C78.6145 154.803 80.0826 154.648 80.578 155.251C80.763 155.477 80.8167 155.8 80.6675 156.277C80.4646 156.933 80.3691 157.661 80.387 158.377C80.4228 159.564 80.7809 160.709 81.4911 161.401C82.631 162.516 85.0242 163.029 83.556 165.982C82.0879 168.929 81.2822 170.581 81.3777 172.562C81.4016 173.057 81.4493 173.438 81.503 173.755C81.5508 174.071 81.5985 174.321 81.6104 174.548C81.6403 174.995 81.5448 175.347 81.0912 175.944C81.0912 175.95 81.0853 175.95 81.0793 175.956C80.387 176.856 80.3333 178.079 80.011 179.141C79.9036 179.493 79.7663 179.827 79.5694 180.131C78.7756 181.33 78.7995 182.929 77.5044 183.466C76.2034 183.997 74.3532 183.919 74.9739 185.464C75.5886 187.009 74.5681 188.274 77.0449 189.216C77.6357 189.437 77.7252 189.986 77.7192 190.612C77.7133 190.928 77.6834 191.268 77.6775 191.596C77.6715 191.924 77.6894 192.252 77.7849 192.539C78.0415 193.332 79.6589 195.36 79.4381 195.945C78.9009 197.37 79.1993 197.09 77.8923 197.949C76.5913 198.814 75.5767 199.888 76.09 200.442C76.2153 200.58 76.4301 200.675 76.6868 200.723C77.4626 200.878 78.6503 200.651 79.1456 200.162C79.8021 199.512 81.9208 199.446 83.3412 199.458C84.7556 199.482 84.6363 198.611 85.5434 198.402C86.2238 198.247 87.0832 198.593 87.5189 199.106C87.6621 199.273 87.7635 199.464 87.7934 199.655C87.9068 200.43 89.0646 200.508 90.103 199.971C91.1415 199.428 91.786 199.548 93.1945 200.007C94.603 200.46 96.5187 201.474 96.5546 199.5C96.5844 197.52 96.9126 195.318 98.709 195.784C100.505 196.249 101.275 196.118 102.338 194.376C102.469 194.155 102.624 193.923 102.791 193.672C103.979 191.93 106.002 189.592 107.912 188.954C109.523 188.417 111.606 188.745 112.788 189.377C113.134 189.568 113.408 189.777 113.57 190.003C113.623 190.081 113.665 190.153 113.689 190.23C114.059 191.34 114.31 191.668 113.522 192.425C113.128 192.807 112.871 193.076 112.883 193.254C112.895 193.433 113.188 193.517 113.892 193.529C114.071 193.529 114.226 193.547 114.369 193.565C114.93 193.654 115.211 193.893 115.241 194.269C115.265 194.543 115.139 194.895 114.895 195.306C114.644 195.718 114.519 196.326 114.536 197.012C114.56 198.158 114.972 199.512 115.837 200.484C117.055 201.85 118.451 204.051 119.633 205.328C119.8 205.513 119.967 205.674 120.123 205.817C121.394 206.932 121.382 207.809 121.095 209.02C120.958 209.623 120.886 210.201 120.904 210.75C120.928 211.299 121.048 211.824 121.292 212.325C121.728 213.196 122.772 214.055 123.799 214.854C123.942 214.967 124.091 215.081 124.235 215.194C125.38 216.089 125.351 217.849 125.977 218.839C126.604 219.841 126.64 220.831 128.185 221.929C129.134 222.609 128.508 225.657 129.134 226.981C129.755 228.305 130.871 228.532 131.868 228.484C133.425 228.419 136.141 227.22 137.591 225.365C139.041 223.515 139.805 224.183 141.1 223.76C142.395 223.336 142.927 222.245 143.989 220.718C145.045 219.197 145.565 218.982 147.259 218.01C147.832 217.682 148.411 217.407 148.913 217.252C149.879 216.96 150.542 217.127 150.226 218.266C149.688 220.181 151.216 220.694 152.237 221.153C153.257 221.601 153.389 221.493 154.135 223.265C154.171 223.348 154.194 223.456 154.212 223.575C154.248 223.808 154.254 224.1 154.254 224.398C154.254 224.547 154.254 224.697 154.254 224.846C154.254 225.442 154.278 225.997 154.505 226.176C155.137 226.671 156.355 225.52 157.286 225.323C157.417 225.293 157.542 225.287 157.662 225.305C159.202 225.544 161.678 225.15 163.355 224.84C165.038 224.529 168.554 224.064 170.249 222.65C170.672 222.299 171.001 221.988 171.281 221.708C172.117 220.873 172.516 220.342 173.776 219.942C175.25 219.483 177.912 218.612 179.439 217.234C179.66 217.037 179.851 216.829 180.018 216.614C181.224 215.021 183.396 213.351 185.348 212.42C185.533 212.331 185.718 212.241 185.897 212.17C186.154 212.062 186.416 211.955 186.679 211.848C188.505 211.084 190.325 210.291 191.346 209.826C192.516 209.289 191.626 208.621 191.638 207.738C191.656 206.861 192.068 205.322 193.351 205.34C194.64 205.358 196.807 206.706 197.427 208.143C198.048 209.581 199.164 212.122 199.922 213.118C200.68 214.114 202.93 214.001 204.35 214.132C205.765 214.258 209.936 213.065 210.987 211.979C212.037 210.893 211.864 209.67 212.27 208.573C212.646 207.547 213.935 206.437 214.914 208.036C214.979 208.143 215.045 208.263 215.105 208.394C216.095 210.494 216.078 211.705 216.829 212.921C217.587 214.144 216.65 215.785 217.528 217.336C218.405 218.886 218.113 220.974 217.576 222.179C217.307 222.782 217.074 223.545 217.104 224.267C217.128 224.989 217.414 225.675 218.184 226.122C219.712 227.023 221.306 227.232 222.308 228.997C223.311 230.763 224.319 231.884 225.859 232.344C226.241 232.457 226.647 232.517 227.059 232.529C228.288 232.57 229.553 232.236 230.425 231.998C231.589 231.682 233.773 231.932 235.319 232.278C236.858 232.63 239.311 232.218 239.592 230.9C239.872 229.588 242.421 227.601 240.302 225.317C240.004 224.995 239.842 224.702 239.813 224.464C239.711 223.736 240.732 223.432 242.373 223.867C244.545 224.44 247.082 224.72 248.52 223.635C249.958 222.555 250.036 221.046 250.734 219.865C251.683 218.248 252.161 216.679 253.342 215.486C253.641 215.188 253.915 214.878 254.184 214.562C254.984 213.619 255.676 212.623 256.422 211.645C256.553 211.478 256.696 211.323 256.857 211.174C257.991 210.136 259.865 209.7 262.109 210.494C264.67 211.406 267.188 213.709 268.352 213.393C269.522 213.076 269.76 211.633 270.166 210.428C270.524 209.36 271.969 208.221 273.455 207.982C273.652 207.952 273.849 207.929 274.04 207.935C274.457 207.941 274.899 207.947 275.359 207.935C276.743 207.917 278.301 207.815 279.966 207.457C281.213 207.189 281.941 207.117 281.906 206.831C281.888 206.706 281.721 206.533 281.374 206.282C281.112 206.097 280.76 205.865 280.294 205.578C277.823 204.039 276.325 201.116 279.494 201.737C282.813 202.387 286.173 202.447 287.659 201.331C289.157 200.222 290.356 198.85 290.971 197.221C291.592 195.593 292.809 193.35 294.295 192.234C295.787 191.119 296.695 189.878 296.712 188.87C296.73 187.868 297.178 187.617 297.787 186.496C297.942 186.216 298.019 185.977 298.031 185.768C298.079 185.136 297.56 184.73 296.796 183.967C295.907 183.072 294.57 182.177 292.869 182.034C292.624 182.01 292.374 182.01 292.117 182.022C290.052 182.118 287.193 181.64 285.892 180.119C284.913 178.974 284.43 178.187 284.508 177.131C284.537 176.779 284.627 176.391 284.782 175.956C285.284 174.542 285.988 172.478 287.098 171.547C287.259 171.416 287.42 171.303 287.599 171.225C287.718 171.172 287.838 171.124 287.963 171.1C289.587 170.742 289.712 169.645 290.213 168.738C290.953 167.402 291.341 166.125 292.201 164.616C292.929 163.34 294.194 162.671 294.671 160.542C295.155 158.406 295.895 158.042 296.951 156.295C298.019 154.547 299.649 153.813 301.254 154.589C301.654 154.786 301.994 154.935 302.305 155.048C303.23 155.37 303.898 155.287 305.235 154.642C307.019 153.783 308.607 152.889 310.087 152.531C311.561 152.161 314.127 151.266 312.832 149.489Z" fill="#CC974A"/>
<path d="M114.625 138.185C115.92 138.787 117.812 138.787 119.113 139.7C120.414 140.607 124.073 143.523 125.726 142.82C125.726 142.82 125.845 145.039 127.618 146.142C129.39 147.252 136.594 152.489 137.662 153.193C138.724 153.897 141.679 154.601 143.212 154.201C144.746 153.795 146.405 152.692 149.831 154.404C153.257 156.116 154.79 154.404 156.45 156.718C158.103 159.033 160.466 160.643 162.119 161.353C163.772 162.057 163.772 164.777 164.131 165.881C164.483 166.99 167.085 169.102 169.209 169.603C171.334 170.11 175.351 171.321 177.362 172.627C179.367 173.939 183.742 173.635 185.747 173.534C187.758 173.432 189.644 172.222 190.593 171.72C191.536 171.213 194.61 170.008 196.03 169.406C197.45 168.804 197.803 167.795 198.393 166.889C198.99 165.982 200.405 164.974 201.706 164.27C203.007 163.566 204.779 161.55 205.364 159.939C205.955 158.329 208.557 156.014 209.739 155.71C210.92 155.412 212.693 153.593 213.284 154.398C213.875 155.203 214.227 155.907 215.528 156.008C216.829 156.11 221.788 157.822 222.498 158.329C223.209 158.83 225.924 159.432 228.168 160.44C230.412 161.449 233.486 163.357 235.02 164.169C236.553 164.974 240.098 166.077 241.984 166.077C243.876 166.077 251.438 166.984 254.04 164.568C256.636 162.152 261.13 157.923 262.783 156.814C264.436 155.71 266.442 152.185 266.8 150.771C267.044 149.787 268.101 146.494 268.918 144.424C268.847 144.335 268.775 144.245 268.697 144.156C268.119 143.416 266.591 143.565 265.254 144.281C264.92 144.46 264.538 144.645 264.144 144.794C262.962 145.247 261.643 145.438 261.011 144.454C260.378 143.47 259.602 142.611 259.686 141.346C259.715 140.923 259.841 140.457 260.097 139.921C261.13 137.785 261.936 136.664 260.987 134.337C260.861 134.033 260.76 133.753 260.688 133.49C260.563 133.067 260.509 132.703 260.521 132.381C260.539 131.724 260.808 131.211 261.297 130.645C261.542 130.358 261.84 130.06 262.192 129.72C263.81 128.157 265.755 126.487 266.054 124.739C266.346 122.992 266.006 121.47 267.677 120.951C270.321 120.128 269.694 119.335 269.581 118.321C269.491 117.557 268.823 116.275 268.859 115.285C268.871 114.957 268.96 114.652 269.181 114.42C269.402 114.181 269.676 113.948 269.969 113.704C270.84 112.976 271.825 112.153 271.747 110.835C271.646 109.081 270.524 105.09 270.404 104.237C270.285 103.39 268.614 102.209 266.692 102.352C265.093 102.472 262.992 102.466 262.109 101.845C261.93 101.72 261.798 101.571 261.733 101.386C261.685 101.249 261.673 101.106 261.685 100.951C261.769 99.8708 263.177 98.3557 264.013 97.0315C264.967 95.5163 266.585 92.7426 266.686 90.8218C266.698 90.5832 266.71 90.3148 266.71 90.0344C266.728 88.2031 266.465 85.6918 264.621 85.0834C264.478 85.0357 264.329 84.9999 264.168 84.976C261.595 84.6062 255.138 84.8985 254.846 82.6914C254.81 82.417 254.798 82.1724 254.804 81.9577C254.828 80.8839 255.263 80.4724 255.18 79.7983C255.15 79.5299 255.031 79.2197 254.774 78.8081C254.261 77.9849 254.076 77.2572 254.135 76.5891C254.195 75.921 254.505 75.3006 254.977 74.6862C255.926 73.4574 256.415 71.99 256.511 70.3556C256.606 68.7211 257.298 67.0867 257.388 65.5059C257.483 63.9252 256.63 63.5792 255.454 62.6009C254.279 61.6226 254.816 61.0619 255.693 60.0598C256.463 59.177 257.722 57.8288 257.603 56.5165C257.585 56.3316 257.537 56.1407 257.46 55.9558C256.821 54.4765 255.586 54.8523 254.129 54.7807C252.673 54.7031 251.497 53.7308 250.662 52.4782C249.928 51.3806 249.456 50.3426 248.024 50.0444C247.821 50.0026 247.594 49.9728 247.35 49.9668C245.362 49.8893 244.891 50.3307 243.888 50.8855C242.885 51.4402 241.37 51.136 240.176 51.1837C238.982 51.2255 237.437 51.5297 235.628 52.6392C233.826 53.7487 232.555 54.4645 231.021 55.0133C230.036 55.3653 229.057 55.5502 228.449 55.3653C228.365 55.3414 228.288 55.3056 228.216 55.2698C228.007 55.1505 227.876 54.9656 227.846 54.6972C227.732 53.6831 226.658 50.6707 224.868 50.8735C223.077 51.0764 221.55 51.5118 219.878 52.168C218.213 52.8241 215.486 53.355 215.462 51.2076C215.456 50.6707 215.48 50.1279 215.486 49.6149C215.504 48.0819 215.373 46.8411 213.881 46.9485C211.893 47.0917 210.962 47.3124 209.255 46.4952C207.548 45.6839 206.611 45.5885 205.877 46.352C205.877 46.352 200.918 50.2472 201.133 52.4543C201.318 54.3214 202.69 56.6 200.578 57.3516C200.202 57.4829 199.73 57.5723 199.11 57.5962C198.853 57.6081 198.59 57.6201 198.334 57.6439C194.711 57.9422 191.118 59.3261 190.987 62.9529C190.975 63.2094 190.987 63.4838 191.011 63.7641C191.178 65.4582 191.399 66.7825 191.411 67.8681C191.429 69.6815 190.856 70.8447 188.421 71.984C185.258 73.4634 182.936 75.0978 182.978 77.3765C182.984 77.7284 183.049 78.0923 183.169 78.474C183.228 78.6649 183.306 78.8618 183.402 79.0646C184.518 81.4685 185.592 82.4528 185.717 83.443C185.759 83.7711 185.699 84.0991 185.496 84.4809C185.449 84.5763 185.407 84.6718 185.377 84.7672C185.317 84.9581 185.293 85.155 185.293 85.3518C185.293 86.2406 185.801 87.1831 185.759 88.1733C185.741 88.6147 185.61 89.0681 185.281 89.5333C185.108 89.7719 184.864 90.0344 184.565 90.3028C183.115 91.5853 180.406 92.9513 178.526 92.6113C178.263 92.5636 178.024 92.4801 177.803 92.3608C177.427 92.158 177.099 91.8538 176.878 91.4064C175.386 88.4179 175.148 86.9862 173.369 85.6441C171.591 84.3019 170.463 82.5303 168.941 80.8601C168.559 80.4425 168.243 80.0429 167.956 79.6551C167.079 78.5039 166.422 77.5256 164.888 76.8515C163.355 76.1715 161.696 74.4416 159.857 74.388C159.553 74.382 159.243 74.4178 158.926 74.5132C158.61 74.6146 158.288 74.7697 157.966 74.9964C157.315 75.4557 156.79 75.8971 156.348 76.3147C155.017 77.5674 154.391 78.6112 153.125 79.339C151.436 80.3053 148.566 82.1426 147.139 82.8942C145.886 83.5503 142.956 84.3556 141.219 83.7233C140.968 83.6339 140.748 83.5146 140.557 83.3595C139.035 82.1306 137.752 81.6773 136.844 82.1008C135.937 82.5303 137.704 84.642 137.811 85.8529C137.919 87.0638 138.76 90.5951 137.328 91.5674C136.433 92.1759 136.033 93.0468 135.985 93.9117C135.955 94.4307 136.051 94.9496 136.236 95.403C136.361 95.7072 136.415 96.0592 136.421 96.429C136.433 97.5445 135.949 98.8329 135.263 99.5726C134.344 100.551 131.455 103.808 131.939 105.579C132.422 107.345 132.768 109.773 131.969 111.3C131.372 112.445 131.139 113.292 131.211 114.288C131.234 114.623 131.294 114.974 131.384 115.356C131.425 115.547 131.449 115.726 131.449 115.899C131.443 116.907 130.745 117.522 130.745 118.404C130.745 118.554 130.763 118.709 130.811 118.876C130.9 119.204 130.936 119.46 130.912 119.669C130.829 120.301 130.172 120.54 128.71 121.268C126.758 122.234 124.431 122.64 123.816 120.987C123.494 120.134 123.178 119.156 122.599 118.715C122.461 118.613 122.318 118.542 122.151 118.506C121.656 118.398 121.005 118.619 120.104 119.407C117.621 121.572 116.165 123.976 116.135 125.294C116.111 126.612 115.711 127.597 112.602 128.324C110.997 128.7 107.905 129.72 104.855 130.269C107.487 131.933 109.809 133.448 110.525 133.973C112.143 135.16 113.324 137.582 114.625 138.185Z" fill="#CC974A"/>
<path d="M312.832 147.198C311.531 145.42 310.851 142.521 310.6 139.754C310.355 136.986 309.323 136.091 309.084 134.558C308.881 133.275 307.652 129.523 306.607 127.638C305.718 127.74 304.698 127.71 304.262 127.835C303.552 128.038 300.359 130.156 299.422 130.854C298.473 131.557 295.758 132.768 295.047 133.776C294.337 134.785 293.388 135.089 292.332 135.793C291.264 136.497 288.548 135.59 287.134 135.286C285.719 134.981 283.589 135.59 282.055 136.395C280.521 137.2 275.436 139.819 274.732 141.728C274.022 143.643 271.306 150.491 270.357 151.797C269.414 153.109 268.346 155.221 267.642 156.026C266.938 156.832 265.517 159.247 264.688 160.458C263.864 161.663 262.563 163.375 261.614 164.383C260.671 165.391 260.08 165.391 258.899 166.101C257.717 166.805 255.592 168.01 254.291 168.72C252.996 169.43 250.394 169.322 248.383 169.12C246.372 168.923 240.35 168.01 239.759 167.915C239.168 167.813 238.577 168.821 237.748 167.915C236.924 167.008 235.265 165.904 233.964 165.296C232.663 164.694 232.191 163.882 231.248 163.077C230.305 162.272 228.175 161.568 226.402 161.061C224.63 160.554 218.25 158.645 216.477 158.042C214.711 157.44 212.461 157.136 210.097 159.456C207.734 161.771 202.178 166.501 200.644 168.01C199.104 169.525 196.98 172.245 195.559 172.544C194.145 172.842 192.253 173.653 191.31 174.661C190.361 175.663 188.594 176.874 186.112 176.773C183.629 176.671 181.976 176.57 181.266 177.28C180.555 177.984 180.197 177.781 179.374 177.077C178.55 176.367 174.528 175.461 172.522 174.56C170.511 173.653 166.023 171.034 164.841 170.629C163.66 170.229 160.222 168.428 158.569 169.03C156.916 169.639 149.593 170.438 146.633 170.038C143.679 169.633 140.134 166.513 139.071 165.099C138.003 163.685 136.947 160.971 136.589 159.564C136.236 158.15 135.061 157.237 134.47 156.229C133.879 155.221 131.396 153.813 130.334 152.805C129.272 151.797 125.965 149.483 125.016 148.474C124.073 147.466 120.409 144.854 118.756 144.448C117.103 144.048 115.324 144.15 114.501 142.235C113.677 140.32 111.075 139.217 109.655 138.006C108.234 136.801 99.6102 131.259 97.9571 130.555C96.3039 129.851 87.3219 125.217 85.6687 124.316C84.0156 123.403 74.0907 118.476 73.6192 117.265C73.273 116.376 70.1099 112.392 66.9588 109.856C66.2784 111.473 65.0848 112.624 65.049 113.662C65.043 113.943 65.1146 114.211 65.3056 114.479C66.0636 115.559 66.9946 116.704 66.9648 117.808C66.9588 118.178 66.8394 118.536 66.5768 118.894C65.5264 120.307 63.6226 121.536 62.9064 122.479C62.2798 123.308 62.3872 123.23 61.8859 124.554C61.5577 125.419 60.7221 125.867 59.9463 126.571C59.6896 126.803 59.433 127.066 59.2062 127.382C59.1167 127.507 59.0212 127.626 58.9198 127.74C57.386 129.44 54.5153 129.893 54.378 131.128C54.2288 132.446 54.2169 132.995 52.4026 133.52C51.2687 133.848 50.7435 134.146 50.654 134.671C50.6002 134.987 50.7077 135.381 50.9404 135.924C51.4059 137.004 51.9729 138.095 51.8774 138.739C51.8476 138.954 51.7401 139.121 51.5372 139.217C50.272 139.813 50.2601 138.316 49.4723 139.294C49.4723 139.294 48.3264 140.702 47.4073 140.66C46.4882 140.624 45.0678 140.738 44.6083 141.561C44.1487 142.384 44.101 142.462 43.7847 142.849C43.4624 143.243 43.6892 143.708 44.3815 143.786C45.0678 143.863 46.3569 145.003 46.721 145.623C47.085 146.249 47.6818 146.953 48.5532 146.912C48.5532 146.912 48.589 146.906 48.6606 146.894C49.15 146.834 51.2209 146.679 52.8741 148.069C53.5903 148.671 54.5392 148.63 55.703 148.641C56.8608 148.659 61.4801 149.715 61.7009 152.03C61.7427 152.465 61.7725 152.895 61.8143 153.294C61.9754 155.042 62.244 156.313 63.8315 155.352C65.7234 154.207 66.6962 153.575 67.4422 152.901C67.6929 152.674 67.9137 152.447 68.1405 152.191C69.1908 150.992 71.0111 151.26 72.4196 151.606C73.8281 151.952 75.4932 152.853 77.3015 152.656C78.6145 152.513 80.0826 152.358 80.578 152.96C80.763 153.187 80.8167 153.509 80.6675 153.986C80.4646 154.642 80.3691 155.37 80.387 156.086C80.4228 157.273 80.7809 158.418 81.4911 159.11C82.631 160.226 85.0242 160.739 83.556 163.691C82.0879 166.638 81.2822 168.291 81.3777 170.271C81.4016 170.766 81.4493 171.148 81.503 171.464C81.5508 171.78 81.5985 172.031 81.6104 172.257C81.6403 172.705 81.5448 173.057 81.0912 173.653C81.0912 173.659 81.0853 173.659 81.0793 173.665C80.387 174.566 80.3333 175.789 80.011 176.85C79.9036 177.202 79.7663 177.536 79.5694 177.841C78.7756 179.04 78.7995 180.638 77.5044 181.175C76.2034 181.706 74.3532 181.628 74.9739 183.173C75.5886 184.718 74.5681 185.983 77.0449 186.925C77.6357 187.146 77.7252 187.695 77.7192 188.321C77.7133 188.637 77.6834 188.977 77.6775 189.306C77.6715 189.634 77.6894 189.962 77.7849 190.248C78.0415 191.041 79.6589 193.07 79.4381 193.654C78.9009 195.08 79.1993 194.799 77.8923 195.658C76.5913 196.523 75.5767 197.597 76.09 198.152C76.2153 198.289 76.4301 198.384 76.6868 198.432C77.4626 198.587 78.6503 198.361 79.1456 197.871C79.8021 197.221 81.9208 197.156 83.3412 197.174C84.7556 197.191 84.6363 196.326 85.5434 196.118C86.2238 195.963 87.0832 196.315 87.5189 196.822C87.6621 196.989 87.7635 197.18 87.7934 197.37C87.9068 198.146 89.0646 198.223 90.103 197.687C91.1415 197.144 91.786 197.263 93.1945 197.722C94.603 198.176 96.5187 199.19 96.5546 197.215C96.5844 195.235 96.9126 193.04 98.709 193.499C100.505 193.964 101.275 193.833 102.338 192.091C102.469 191.871 102.624 191.638 102.791 191.387C103.979 189.646 106.002 187.307 107.912 186.669C109.523 186.132 111.606 186.46 112.788 187.093C113.134 187.283 113.408 187.492 113.57 187.719C113.623 187.796 113.665 187.868 113.689 187.946C114.059 189.055 114.31 189.383 113.522 190.141C113.128 190.522 112.871 190.791 112.883 190.97C112.895 191.149 113.188 191.232 113.892 191.244C114.071 191.244 114.226 191.262 114.369 191.28C114.93 191.369 115.211 191.608 115.241 191.984C115.265 192.258 115.139 192.61 114.895 193.022C114.644 193.433 114.519 194.042 114.536 194.728C114.56 195.873 114.972 197.227 115.837 198.2C117.055 199.566 118.451 201.773 119.633 203.049C119.8 203.234 119.967 203.395 120.123 203.532C121.394 204.648 121.382 205.531 121.095 206.736C120.958 207.338 120.886 207.911 120.904 208.465C120.928 209.014 121.048 209.539 121.292 210.04C121.728 210.911 122.772 211.77 123.799 212.569C123.942 212.683 124.091 212.796 124.235 212.909C125.38 213.804 125.351 215.564 125.977 216.56C126.604 217.562 126.64 218.552 128.185 219.65C129.134 220.324 128.508 223.378 129.134 224.702C129.755 226.027 130.871 226.253 131.868 226.206C133.425 226.134 136.141 224.941 137.591 223.086C139.041 221.237 139.805 221.905 141.1 221.481C142.395 221.058 142.927 219.966 143.989 218.439C145.045 216.912 145.565 216.697 147.259 215.731C147.832 215.403 148.411 215.128 148.913 214.973C149.879 214.681 150.542 214.848 150.226 215.987C149.688 217.902 151.216 218.415 152.237 218.875C153.257 219.322 153.389 219.215 154.135 220.986C154.171 221.07 154.194 221.177 154.212 221.29C154.248 221.523 154.254 221.815 154.254 222.114C154.254 222.263 154.254 222.412 154.254 222.567C154.254 223.163 154.278 223.718 154.505 223.897C155.137 224.392 156.355 223.241 157.286 223.044C157.417 223.014 157.542 223.008 157.662 223.026C159.202 223.265 161.678 222.871 163.355 222.561C165.038 222.251 168.554 221.786 170.249 220.372C170.672 220.02 171.001 219.71 171.281 219.429C172.117 218.594 172.516 218.063 173.776 217.664C175.25 217.204 177.912 216.333 179.439 214.955C179.66 214.759 179.851 214.55 180.018 214.335C181.224 212.742 183.396 211.072 185.348 210.142C185.533 210.052 185.718 209.963 185.897 209.891C186.154 209.784 186.416 209.676 186.679 209.569C188.505 208.805 190.325 208.012 191.346 207.547C192.516 207.01 191.626 206.342 191.638 205.459C191.656 204.582 192.068 203.043 193.351 203.061C194.64 203.079 196.807 204.427 197.427 205.865C198.048 207.296 199.164 209.843 199.922 210.84C200.68 211.836 202.93 211.722 204.35 211.848C205.765 211.973 209.936 210.78 210.987 209.694C212.037 208.609 211.864 207.386 212.27 206.288C212.646 205.262 213.935 204.153 214.914 205.751C214.979 205.859 215.045 205.978 215.105 206.109C216.095 208.209 216.078 209.42 216.829 210.637C217.587 211.86 216.65 213.5 217.528 215.051C218.405 216.602 218.113 218.69 217.576 219.895C217.307 220.497 217.074 221.261 217.104 221.982C217.128 222.704 217.414 223.39 218.184 223.843C219.712 224.744 221.306 224.947 222.308 226.719C223.311 228.484 224.319 229.606 225.859 230.065C226.241 230.178 226.647 230.238 227.059 230.25C228.288 230.292 229.553 229.958 230.425 229.719C231.589 229.403 233.773 229.653 235.319 229.999C236.858 230.351 239.311 229.94 239.592 228.622C239.872 227.303 242.421 225.323 240.302 223.032C240.004 222.71 239.842 222.418 239.813 222.179C239.711 221.451 240.732 221.147 242.373 221.583C244.545 222.155 247.082 222.436 248.52 221.35C249.958 220.27 250.036 218.761 250.734 217.58C251.683 215.964 252.161 214.395 253.342 213.202C253.641 212.903 253.915 212.593 254.184 212.283C254.984 211.341 255.676 210.339 256.422 209.366C256.553 209.199 256.696 209.044 256.857 208.895C257.991 207.857 259.865 207.422 262.109 208.221C264.67 209.134 267.188 211.43 268.352 211.12C269.522 210.804 269.76 209.36 270.166 208.155C270.524 207.088 271.969 205.948 273.455 205.71C273.652 205.68 273.849 205.656 274.04 205.662C274.457 205.668 274.899 205.668 275.359 205.662C276.743 205.644 278.301 205.543 279.966 205.185C281.213 204.916 281.941 204.845 281.906 204.558C281.888 204.433 281.721 204.26 281.374 204.01C281.112 203.825 280.76 203.592 280.294 203.306C277.823 201.767 276.325 198.844 279.494 199.464C282.813 200.114 286.173 200.174 287.659 199.059C289.157 197.949 290.356 196.577 290.971 194.949C291.592 193.32 292.809 191.077 294.295 189.962C295.787 188.846 296.695 187.6 296.712 186.597C296.73 185.595 297.178 185.345 297.787 184.223C297.942 183.943 298.019 183.704 298.031 183.496C298.079 182.863 297.56 182.458 296.796 181.694C295.907 180.799 294.57 179.905 292.869 179.761C292.624 179.738 292.374 179.738 292.117 179.749C290.052 179.845 287.193 179.368 285.892 177.847C284.913 176.701 284.43 175.914 284.508 174.858C284.537 174.506 284.627 174.118 284.782 173.683C285.284 172.269 285.988 170.205 287.098 169.275C287.259 169.144 287.42 169.03 287.599 168.953C287.718 168.899 287.838 168.851 287.963 168.827C289.587 168.469 289.712 167.372 290.213 166.465C290.953 165.129 291.341 163.852 292.201 162.343C292.929 161.067 294.194 160.399 294.671 158.269C295.155 156.134 295.895 155.77 296.951 154.022C298.019 152.274 299.649 151.541 301.254 152.316C301.654 152.513 301.994 152.662 302.305 152.775C303.23 153.097 303.898 153.014 305.235 152.37C307.019 151.511 308.607 150.616 310.087 150.258C311.561 149.87 314.127 148.976 312.832 147.198Z" fill="#FFF5E0"/>
<path d="M114.625 135.894C115.92 136.497 117.812 136.497 119.113 137.409C120.414 138.316 124.073 141.233 125.726 140.529C125.726 140.529 125.845 142.748 127.618 143.852C129.39 144.961 136.594 150.198 137.662 150.902C138.724 151.606 141.679 152.31 143.212 151.91C144.746 151.505 146.405 150.401 149.831 152.113C153.257 153.825 154.79 152.113 156.45 154.428C158.103 156.742 160.466 158.353 162.119 159.063C163.772 159.766 163.772 162.486 164.131 163.59C164.483 164.7 167.085 166.811 169.209 167.312C171.334 167.819 175.351 169.03 177.362 170.337C179.367 171.649 183.742 171.345 185.747 171.243C187.758 171.142 189.644 169.931 190.593 169.43C191.536 168.923 194.61 167.718 196.03 167.115C197.45 166.513 197.803 165.505 198.393 164.598C198.99 163.691 200.405 162.683 201.706 161.979C203.007 161.276 204.779 159.259 205.364 157.649C205.955 156.038 208.557 153.724 209.739 153.42C210.92 153.121 212.693 151.302 213.284 152.107C213.875 152.913 214.227 153.616 215.528 153.718C216.829 153.819 221.788 155.531 222.498 156.038C223.209 156.539 225.924 157.142 228.168 158.15C230.412 159.158 233.486 161.067 235.02 161.878C236.553 162.683 240.098 163.787 241.984 163.787C243.876 163.787 251.438 164.694 254.04 162.278C256.636 159.862 261.13 155.633 262.783 154.523C264.436 153.42 266.442 149.894 266.8 148.48C267.044 147.496 268.101 144.203 268.918 142.134C268.847 142.044 268.775 141.955 268.697 141.865C268.119 141.125 266.591 141.275 265.254 141.99C264.92 142.169 264.538 142.354 264.144 142.503C262.962 142.957 261.643 143.148 261.011 142.163C260.378 141.179 259.602 140.32 259.686 139.056C259.715 138.632 259.841 138.167 260.097 137.63C261.13 135.494 261.936 134.373 260.987 132.047C260.861 131.742 260.76 131.462 260.688 131.2C260.563 130.776 260.509 130.412 260.521 130.09C260.539 129.434 260.808 128.921 261.297 128.354C261.542 128.068 261.84 127.77 262.192 127.43C263.81 125.867 265.755 124.197 266.054 122.449C266.346 120.701 266.006 119.18 267.677 118.661C270.321 117.838 269.694 117.044 269.581 116.03C269.491 115.267 268.823 113.984 268.859 112.994C268.871 112.666 268.96 112.362 269.181 112.129C269.402 111.891 269.676 111.658 269.969 111.413C270.84 110.686 271.825 109.862 271.747 108.544C271.646 106.79 270.524 102.8 270.404 101.947C270.285 101.1 268.614 99.9186 266.692 100.062C265.093 100.181 262.992 100.175 262.109 99.5547C261.93 99.4294 261.798 99.2803 261.733 99.0954C261.685 98.9582 261.673 98.815 261.685 98.6599C261.769 97.5803 263.177 96.0651 264.013 94.7409C264.967 93.2257 266.585 90.452 266.686 88.5312C266.698 88.2926 266.71 88.0242 266.71 87.7438C266.728 85.9125 266.465 83.4012 264.621 82.7928C264.478 82.7451 264.329 82.7093 264.168 82.6854C261.595 82.3156 255.138 82.6079 254.846 80.4008C254.81 80.1264 254.798 79.8818 254.804 79.6671C254.828 78.5934 255.263 78.1818 255.18 77.5077C255.15 77.2393 255.031 76.9291 254.774 76.5175C254.261 75.6943 254.076 74.9666 254.135 74.2985C254.195 73.6304 254.505 73.01 254.977 72.3956C255.926 71.1668 256.415 69.6994 256.511 68.065C256.606 66.4305 257.298 64.7961 257.388 63.2153C257.483 61.6346 256.63 61.2886 255.454 60.3103C254.279 59.3321 254.816 58.7713 255.693 57.7692C256.463 56.8864 257.722 55.5383 257.603 54.2259C257.585 54.041 257.537 53.8501 257.46 53.6652C256.821 52.1859 255.586 52.5617 254.129 52.4901C252.673 52.4125 251.497 51.4402 250.662 50.1876C249.928 49.09 249.456 48.0521 248.024 47.7538C247.821 47.712 247.594 47.6822 247.35 47.6763C245.362 47.5987 244.891 48.0401 243.888 48.5949C242.885 49.1496 241.37 48.8454 240.176 48.8931C238.982 48.9349 237.437 49.2391 235.628 50.3486C233.826 51.4581 232.555 52.1739 231.021 52.7227C230.036 53.0747 229.057 53.2596 228.449 53.0747C228.365 53.0508 228.288 53.015 228.216 52.9792C228.007 52.8599 227.876 52.675 227.846 52.4066C227.732 51.3925 226.658 48.3801 224.868 48.583C223.077 48.7858 221.55 49.2212 219.878 49.8774C218.213 50.5335 215.486 51.0644 215.462 48.917C215.456 48.3801 215.48 47.8373 215.486 47.3243C215.504 45.7913 215.373 44.5505 213.881 44.6579C211.893 44.8011 210.962 45.0218 209.255 44.2046C207.548 43.3933 206.611 43.2979 205.877 44.0614C205.877 44.0614 200.918 47.9566 201.133 50.1637C201.318 52.0308 202.69 54.3094 200.578 55.061C200.202 55.1923 199.73 55.2818 199.11 55.3056C198.853 55.3175 198.59 55.3295 198.334 55.3533C194.711 55.6516 191.118 57.0355 190.987 60.6623C190.975 60.9188 190.987 61.1932 191.011 61.4735C191.178 63.1676 191.399 64.4919 191.411 65.5775C191.429 67.3909 190.856 68.5541 188.421 69.6934C185.258 71.1728 182.936 72.8072 182.978 75.0859C182.984 75.4378 183.049 75.8017 183.169 76.1835C183.228 76.3743 183.306 76.5712 183.402 76.774C184.518 79.1779 185.592 80.1622 185.717 81.1524C185.759 81.4805 185.699 81.8085 185.496 82.1903C185.449 82.2858 185.407 82.3812 185.377 82.4766C185.317 82.6675 185.293 82.8644 185.293 83.0612C185.293 83.95 185.801 84.8925 185.759 85.8827C185.741 86.3241 185.61 86.7775 185.281 87.2427C185.108 87.4814 184.864 87.7438 184.565 88.0122C183.115 89.2947 180.406 90.6607 178.526 90.3207C178.263 90.273 178.024 90.1895 177.803 90.0702C177.427 89.8674 177.099 89.5632 176.878 89.1158C175.386 86.1273 175.148 84.6957 173.369 83.3535C171.591 82.0114 170.463 80.2397 168.941 78.5695C168.559 78.1519 168.243 77.7523 167.956 77.3646C167.079 76.2133 166.422 75.235 164.888 74.561C163.355 73.8809 161.696 72.1511 159.857 72.0974C159.553 72.0914 159.243 72.1272 158.926 72.2226C158.61 72.3181 158.288 72.4791 157.966 72.7058C157.315 73.1651 156.79 73.6065 156.348 74.0241C155.017 75.2768 154.391 76.3207 153.125 77.0484C151.436 78.0147 148.566 79.852 147.139 80.6036C145.886 81.2598 142.956 82.065 141.219 81.4327C140.968 81.3433 140.748 81.224 140.557 81.0689C139.035 79.8401 137.752 79.3867 136.844 79.8102C135.937 80.2397 137.704 82.3514 137.811 83.5623C137.919 84.7732 138.76 88.3045 137.328 89.2768C136.433 89.8853 136.033 90.7562 135.985 91.6211C135.955 92.1401 136.051 92.6591 136.236 93.1124C136.361 93.4166 136.415 93.7686 136.421 94.1384C136.433 95.2539 135.949 96.5423 135.263 97.282C134.344 98.2603 131.455 101.517 131.939 103.289C132.422 105.055 132.768 107.482 131.969 109.009C131.372 110.155 131.139 111.002 131.211 111.998C131.234 112.332 131.294 112.684 131.384 113.066C131.425 113.257 131.449 113.435 131.449 113.608C131.443 114.617 130.745 115.231 130.745 116.114C130.745 116.263 130.763 116.418 130.811 116.585C130.9 116.913 130.936 117.17 130.912 117.378C130.829 118.011 130.172 118.249 128.71 118.977C126.758 119.943 124.431 120.349 123.816 118.697C123.494 117.844 123.178 116.865 122.599 116.424C122.461 116.323 122.318 116.251 122.151 116.215C121.656 116.108 121.005 116.329 120.104 117.116C117.621 119.281 116.165 121.685 116.135 123.004C116.111 124.322 115.711 125.306 112.602 126.04C110.997 126.416 107.905 127.436 104.855 127.984C107.487 129.649 109.809 131.164 110.525 131.689C112.143 132.876 113.324 135.292 114.625 135.894Z" fill="#FFF5E0"/>
<path d="M137.399 156.891C137.399 156.891 137.429 159.283 138.037 161.103C138.646 162.922 140.257 165.356 141.558 166.447C142.865 167.533 145.999 169.239 147.359 169.406C148.72 169.573 151.716 169.43 152.522 169.382C153.328 169.334 156.962 168.887 157.684 168.631C158.406 168.368 159.069 167.801 158.406 167.211C157.738 166.62 154.247 162.671 153.608 162.033C152.969 161.395 149.06 158.579 145.426 157.798C141.791 157.016 139.875 156.402 138.909 156.235C137.924 156.062 137.339 156.325 137.399 156.891Z" fill="#CFB67B"/>
<path d="M137.399 155.03C137.399 155.03 137.429 157.416 138.037 159.241C138.646 161.061 140.257 163.495 141.558 164.586C142.865 165.672 145.999 167.378 147.359 167.545C148.72 167.712 151.716 167.569 152.522 167.521C153.328 167.473 156.962 167.026 157.684 166.769C158.406 166.507 159.069 165.94 158.406 165.35C157.738 164.759 154.247 160.81 153.608 160.172C152.969 159.534 149.06 156.718 145.426 155.943C141.791 155.161 139.875 154.547 138.909 154.38C137.924 154.201 137.339 154.463 137.399 155.03Z" fill="#FFF5E0"/>
<path opacity="0.4" d="M296.804 181.688C295.914 180.793 294.578 179.899 292.877 179.755C292.632 179.732 292.381 179.732 292.125 179.744C290.06 179.839 287.201 179.362 285.9 177.841C284.921 176.695 284.438 175.908 284.515 174.852C284.545 174.5 284.635 174.112 284.79 173.677C285.291 172.263 285.995 170.199 287.105 169.269C287.261 169.138 287.422 169.03 287.595 168.947L270.514 160.816C270.514 160.816 271.183 159.754 271.66 159.182C272.137 158.615 273.289 156.008 273.289 156.008C272.675 155.424 270.401 154.314 269.136 153.724C268.575 154.66 268.043 155.573 267.632 156.038C266.927 156.844 265.507 159.259 264.677 160.47C263.854 161.675 262.553 163.387 261.604 164.395C260.661 165.403 260.07 165.403 258.888 166.113C257.707 166.817 255.582 168.022 254.281 168.732C252.986 169.442 250.384 169.334 248.373 169.132C246.361 168.935 240.339 168.022 239.749 167.927C239.158 167.825 238.567 168.833 237.737 167.927C236.914 167.02 235.255 165.916 233.954 165.308C232.653 164.705 232.181 163.894 231.238 163.089C230.295 162.284 228.165 161.58 226.392 161.073C224.62 160.566 218.24 158.657 216.467 158.054C214.701 157.452 212.451 157.148 210.087 159.468C207.724 161.783 202.168 166.513 200.634 168.022C199.094 169.537 196.969 172.257 195.549 172.556C194.135 172.854 192.243 173.665 191.3 174.673C190.351 175.675 188.584 176.886 186.101 176.785C183.852 176.689 182.294 176.606 181.488 177.119C181.375 178.479 181.327 180.883 182.318 181.139C183.708 181.491 184.472 181.611 184.401 183.156C184.329 184.695 183.637 189.371 183.637 190.791C183.637 192.211 183.219 196.768 183.219 197.478C183.219 197.478 182.61 197.358 181.816 197.287L181.804 197.4C181.804 197.4 181.87 200.067 183.404 201.486C184.938 202.9 186.197 203.473 185.797 204.493C185.457 205.364 185.141 208.286 185.344 210.148H185.349C185.535 210.058 185.72 209.969 185.899 209.897C186.155 209.79 186.418 209.682 186.68 209.575C188.507 208.811 190.327 208.018 191.347 207.553C192.517 207.016 191.628 206.348 191.64 205.465C191.658 204.588 192.07 203.049 193.353 203.067C194.642 203.085 196.808 204.433 197.429 205.871C198.05 207.302 199.166 209.849 199.924 210.846C200.682 211.842 202.931 211.728 204.352 211.854C205.766 211.979 209.938 210.786 210.988 209.7C212.039 208.615 211.866 207.392 212.272 206.294C212.648 205.268 213.937 204.159 214.915 205.757C214.981 205.865 215.047 205.984 215.106 206.115C216.097 208.215 216.079 209.426 216.831 210.643C217.589 211.866 216.652 213.506 217.529 215.057C218.407 216.608 218.114 218.696 217.577 219.901C217.309 220.503 217.076 221.267 217.106 221.988C217.13 222.71 217.416 223.396 218.186 223.849C219.714 224.75 221.307 224.953 222.31 226.725C223.313 228.49 224.321 229.612 225.861 230.071C226.243 230.184 226.649 230.244 227.06 230.256C228.29 230.298 229.555 229.964 230.426 229.725C231.59 229.409 233.775 229.659 235.32 230.005C236.86 230.357 239.313 229.946 239.593 228.627C239.874 227.309 242.422 225.329 240.304 223.038C240.005 222.716 239.844 222.424 239.814 222.185C239.713 221.457 240.733 221.153 242.375 221.589C244.547 222.161 247.083 222.442 248.522 221.356C249.96 220.276 250.038 218.767 250.736 217.586C251.685 215.97 252.162 214.401 253.344 213.208C253.642 212.909 253.917 212.599 254.185 212.289C254.985 211.347 255.677 210.344 256.423 209.372C256.555 209.205 256.698 209.05 256.859 208.901C257.993 207.863 259.867 207.428 262.111 208.227C264.671 209.14 267.19 211.436 268.354 211.126C269.523 210.81 269.762 209.366 270.168 208.161C270.526 207.093 271.97 205.954 273.456 205.716C273.653 205.686 273.85 205.662 274.041 205.668C274.459 205.674 274.901 205.674 275.36 205.668C276.745 205.65 278.303 205.549 279.968 205.191C281.215 204.922 281.943 204.851 281.907 204.564C281.889 204.439 281.722 204.266 281.376 204.015C281.113 203.831 280.761 203.598 280.296 203.312C277.825 201.773 276.327 198.85 279.496 199.47C282.814 200.12 286.174 200.18 287.66 199.064C289.158 197.955 290.358 196.583 290.973 194.955C291.593 193.326 292.811 191.083 294.297 189.968C295.789 188.852 296.696 187.606 296.714 186.603C296.732 185.601 297.18 185.351 297.788 184.229C297.943 183.949 298.021 183.71 298.033 183.502C298.081 182.857 297.562 182.452 296.804 181.688Z" fill="#707070"/>
<path d="M200.742 55.1923C200.742 55.1923 201.029 57.8825 202.849 59.4275C204.663 60.9725 205.618 63.5017 204.765 64.8915C203.905 66.2754 202.849 68.8822 204.192 70.4331C205.529 71.984 205.63 73.3679 205.439 74.5073C205.248 75.6466 205.057 79.5597 207.253 79.9653C209.456 80.3769 210.214 80.0488 211.365 81.1882C212.511 82.3275 214.904 83.2282 215.573 83.6339C216.241 84.0395 217.005 84.7732 217.292 85.668C217.578 86.5627 219.207 87.541 219.398 87.8691C219.589 88.1972 219.303 90.8039 222.454 91.3766C222.454 91.3766 223.982 88.4417 224.65 87.3024C225.319 86.1631 227.903 82.8226 228.858 82.25C229.813 81.6773 229.144 83.7949 230.583 84.6121C231.364 85.0595 230.678 82.4945 230.583 81.7608C230.487 81.0271 230.01 78.5814 230.201 77.4421C230.392 76.2968 228.858 74.5073 228.858 73.4514C228.858 72.3896 228.38 70.1885 227.712 69.2103C227.044 68.232 227.235 67.3372 227.044 65.7863C226.853 64.2354 228.189 60.8949 228.959 59.1054C229.723 57.3099 229.24 55.8425 228.482 55.1923C227.712 54.5421 228.482 52.9911 228.482 52.9911" stroke="#898989" stroke-width="0.25" stroke-linecap="round" stroke-dasharray="2 2"/>
<path d="M222.445 91.3825C222.445 91.3825 226.271 94.6454 227.226 95.3791C228.181 96.1128 230.192 97.9918 230.765 98.7196C231.338 99.4533 233.922 101.977 235.354 102.955C236.793 103.933 238.225 103.444 238.989 103.933C239.753 104.422 240.612 104.583 241.185 105.4L241.472 103.444C241.472 103.444 247.111 101.404 248.454 100.921C249.791 100.432 252.948 99.7814 253.999 100.27C255.049 100.754 258.779 101.332 262.318 99.4533" stroke="#898989" stroke-width="0.25" stroke-linecap="round" stroke-dasharray="2 2"/>
<path d="M241.186 105.401C241.186 105.401 242.243 110.781 241.568 111.92C240.906 113.06 240.327 116.651 240.906 117.545C241.479 118.44 242.625 121.781 243.197 122.765C243.77 123.743 245.877 125.944 245.973 127.328C246.068 128.712 246.164 130.585 246.164 131.73C246.164 132.87 246.068 133.031 245.782 133.603C245.782 133.603 250.562 134.498 252.376 134.337C254.197 134.176 256.966 133.198 257.927 132.625C258.882 132.053 259.741 131.402 260.887 131.152" stroke="#898989" stroke-width="0.25" stroke-linecap="round" stroke-dasharray="2 2"/>
<path d="M287.662 168.971L270.545 160.822C270.545 160.822 271.214 159.76 271.691 159.188C272.169 158.621 273.32 156.014 273.32 156.014C272.461 155.197 269.668 153.998 269.668 153.998" stroke="#898989" stroke-width="0.25" stroke-linecap="round" stroke-dasharray="2 2"/>
<path d="M184.512 87.9764C184.512 87.9764 187.406 89.5632 188.433 90.0881C189.465 90.613 191.429 92.5517 192.67 93.345C193.911 94.1384 199.593 98.5406 200.733 99.6859C201.867 100.831 204.66 103.647 207.244 104.613C209.822 105.585 212.508 106.289 213.749 106.904C213.749 106.904 217.575 104.965 218.607 103.82C219.64 102.674 221.4 101.708 222.224 100.3C222.224 100.3 223.567 101.004 224.289 101.446C225.011 101.887 226.461 101.535 226.253 100.831C226.044 100.127 226.253 99.4235 226.253 99.4235C226.253 99.4235 229.141 97.8367 229.762 97.6638" stroke="#898989" stroke-width="0.25" stroke-linecap="round" stroke-dasharray="2 2"/>
<path d="M178.517 90.267C178.517 90.267 178.416 93.172 179.961 93.524C181.513 93.8759 183.166 93.7924 183.369 95.3732C183.578 96.9599 183.99 101.183 184.915 102.68C185.846 104.172 185.225 104.53 185.535 105.496C185.846 106.462 186.258 108.228 186.365 108.842C186.466 109.457 186.777 111.133 185.225 111.574C183.673 112.016 180.677 112.982 180.367 113.513C180.057 114.038 179.955 114.217 181.089 114.742C182.223 115.273 184.396 116.502 185.434 117.647C186.466 118.792 187.911 119.496 188.74 119.055C189.57 118.613 190.805 118.178 192.56 118.44C194.321 118.703 196.899 118.178 196.899 119.055C196.899 119.937 197.209 121.608 197.83 121.87C198.45 122.139 198.755 122.312 199.065 123.278C199.375 124.25 200.509 126.797 201.548 126.362C202.58 125.92 203.822 125.747 204.544 126.541C205.266 127.334 207.432 127.77 209.503 127.597C209.503 127.597 212.29 125.574 213.12 124.692C213.95 123.809 217.047 120.904 217.769 119.496C218.491 118.088 219.733 117.295 220.974 117.205C222.215 117.122 225.313 117.122 226.244 115.619C227.175 114.127 228.201 113.066 229.55 112.451C230.893 111.837 231.615 110.865 234.402 110.429C237.189 109.988 240.705 109.021 241.737 108.663" stroke="#898989" stroke-width="0.25" stroke-linecap="round" stroke-dasharray="2 2"/>
<path d="M209.515 127.603C209.515 127.603 209.515 133.502 209.617 134.737C209.718 135.972 209.933 139.402 208.996 140.463C208.065 141.519 206.311 143.989 206.311 144.693C206.311 145.396 205.791 146.363 204.657 147.508C203.524 148.653 200.73 151.469 200.73 152.704C200.73 153.939 203.619 157.106 205.069 158.693" stroke="#898989" stroke-width="0.25" stroke-linecap="round" stroke-dasharray="2 2"/>
<path d="M177.795 90.1776C177.795 90.1776 174.596 90.267 173.975 91.6748C173.355 93.0826 172.322 92.5517 171.29 92.8201C170.257 93.0826 168.807 93.0826 168.192 93.9654C167.571 94.8482 166.33 94.9317 165.399 94.5858C164.468 94.2279 162.403 94.0549 162.922 95.7311C163.436 97.4013 163.543 98.988 163.436 99.8708C163.334 100.754 163.949 101.809 164.158 102.513C164.367 103.217 163.436 106.039 164.056 107.005C164.677 107.977 165.817 109.648 165.608 110.441C165.399 111.234 165.089 112.111 166.02 112.642C166.951 113.167 169.117 113.787 168.502 115.374C167.882 116.961 167.571 119.514 167.882 120.307C168.192 121.101 169.022 122.073 168.604 122.598C168.192 123.129 167.882 124.185 168.192 124.888C168.502 125.592 168.091 125.592 167.052 125.771C166.02 125.944 165.501 126.213 166.33 127.09C167.154 127.972 174.387 135.369 175.014 135.894C175.628 136.419 176.148 135.632 176.768 135.19C177.389 134.749 178.213 134.307 179.042 134.397C179.872 134.48 187.004 134.57 188.03 134.57C189.063 134.57 191.748 134.659 192.882 134.659C194.022 134.659 195.878 134.838 196.702 134.134C197.531 133.43 198.665 132.285 199.907 132.637C201.148 132.989 204.866 134.224 205.899 133.609C206.931 132.989 210.339 131.581 210.548 132.816C210.751 134.051 212.511 134.224 213.544 134.576C214.576 134.928 216.54 134.928 217.16 134.576C217.781 134.224 221.081 131.939 222.842 132.906C224.603 133.872 225.945 135.548 226.465 136.693C226.978 137.839 228.428 138.453 229.455 138.37C230.487 138.28 231.728 138.984 232.761 139.515C233.793 140.04 236.688 140.571 237.72 140.833C238.753 141.096 240.096 141.006 241.439 141.448C241.439 141.448 243.402 138.37 243.605 137.749C243.85 137.021 245.777 133.621 245.777 133.621" stroke="#898989" stroke-width="0.25" stroke-linecap="round" stroke-dasharray="2 2"/>
<path d="M241.436 141.424L243.501 142.217L232.824 160.643" stroke="#898989" stroke-width="0.25" stroke-linecap="round" stroke-dasharray="2 2"/>
<path d="M133.176 126.213C134.537 124.208 137.264 122.097 138.135 121.357C139.007 120.617 143.709 120.51 146.192 120.51C148.669 120.51 148.669 119.663 149.045 118.613C149.415 117.557 148.8 116.818 149.666 115.446C150.531 114.074 153.754 113.334 155.24 113.119C156.726 112.911 157.102 111.324 157.102 110.584C157.102 109.844 157.723 109.105 158.839 108.89C159.955 108.675 160.325 108.467 160.82 107.727C161.315 106.987 164.067 106.993 164.067 106.993" stroke="#898989" stroke-width="0.25" stroke-linecap="round" stroke-dasharray="2 2"/>
<path d="M122.643 116.287C122.643 116.287 121.407 118.184 122.643 119.138C123.884 120.087 125.37 121.357 125.991 121.882C126.612 122.407 129.214 123.779 130.079 124.417C130.944 125.05 133.051 126.105 134.418 127.376C135.779 128.641 138.261 130.442 139.998 131.498C141.735 132.554 144.707 133.401 145.948 133.717C147.19 134.033 150.406 134.558 149.541 135.62C148.676 136.676 147.685 139.533 147.685 139.533C147.685 139.533 149.666 140.481 151.027 141.328C152.394 142.175 154.495 142.491 155.861 142.068C157.228 141.644 160.319 141.746 162.426 141.644C164.533 141.537 168.251 141.328 169.862 141.436C171.474 141.537 171.969 141.752 171.104 142.7C170.238 143.655 168.872 144.287 169.862 145.241C170.853 146.19 171.223 148.307 170.107 148.832C168.991 149.357 168.251 150.419 168.126 151.051C168 151.684 166.64 153.27 165.404 153.903C164.163 154.541 160.319 156.861 158.833 157.708" stroke="#898989" stroke-width="0.25" stroke-linecap="round" stroke-dasharray="2 2"/>
<path d="M170.746 147.335C170.746 147.335 174.202 145.426 174.715 145.259C175.228 145.098 177.21 145.045 177.723 144.663C178.236 144.281 181.113 143.625 182.074 144.221C183.034 144.824 184.89 146.077 185.66 146.458C186.424 146.84 187.069 146.894 187.773 146.84C188.477 146.786 189.182 146.947 190.077 147.544C190.972 148.146 192.13 148.856 193.025 148.313C193.92 147.771 197.185 145.802 197.889 147.168C198.593 148.534 200.521 152.221 200.742 152.698" stroke="#898989" stroke-width="0.25" stroke-linecap="round" stroke-dasharray="2 2"/>
<path d="M80.4062 153.05C82.0773 152.561 82.4772 150.449 82.8233 149.518C83.1695 148.588 83.8558 147.604 84.4347 147.705C85.0076 147.8 85.6999 147.997 85.6462 148.636C85.5866 149.274 85.873 150.216 86.619 150.962C87.371 151.708 88.493 153.616 88.493 153.616L92.1097 161.371L106.94 159.564C106.564 158.818 106.69 156.694 106.314 154.356C105.944 152.018 105.818 149.363 105.317 148.409C104.822 147.454 104.822 145.116 107.31 145.969C109.805 146.816 110.3 147.878 112.3 149.053C114.293 150.216 118.906 149.584 118.906 149.584C118.906 149.584 119.032 148.624 118.781 148.099C118.53 147.568 117.659 146.613 116.412 145.76C116.412 145.76 115.934 144.758 115.964 144.227C115.994 143.696 115.129 143.034 114.95 142.551" stroke="#898989" stroke-width="0.25" stroke-linecap="round" stroke-dasharray="2 2"/>
<path d="M118.752 149.435C118.752 149.435 121.289 154.702 121.76 155.442C122.238 156.187 122.709 158.478 121.527 159.224C120.34 159.963 116.538 160.1 116.377 162.868C116.222 165.636 115.667 169.418 114.557 170.569C113.453 171.714 111.865 173.54 111.626 174.417C111.394 175.294 111.077 176.033 110.045 176.105C109.018 176.17 107.276 174.888 106.166 174.417C105.056 173.945 102.048 173.403 99.5947 173.403C97.1418 173.403 94.6054 174.417 93.3402 175.359C92.069 176.308 91.3588 177.453 90.0159 177.924C88.6672 178.395 87.4019 177.996 86.9304 176.242C86.453 174.482 85.1042 173.54 80.9922 173.677" stroke="#898989" stroke-width="0.25" stroke-linecap="round" stroke-dasharray="2 2"/>
<path d="M115.59 167.861C115.59 167.861 116.616 170.289 118.359 170.694C120.102 171.1 123.348 172.383 124.142 173.939C124.93 175.49 125.013 178.055 125.252 179.272C125.485 180.483 126.279 183.323 126.201 184.331C126.124 185.345 127.783 189.121 128.738 189.801C129.686 190.475 130.48 191.626 132.3 192.097L130.164 194.931L130.003 196.01" stroke="#898989" stroke-width="0.25" stroke-linecap="round" stroke-dasharray="2 2"/>
<path d="M112.574 187.098C112.574 187.098 114.95 187.033 115.421 188.244C115.898 189.461 116.531 190.54 117.558 190.874C118.584 191.214 120.482 191.214 120.959 191.954C121.437 192.694 125.077 196.207 126.265 196.207C127.453 196.207 130.783 196.07 132.287 195.736C133.791 195.396 137.354 194.925 137.354 194.925C137.354 194.925 137.986 197.418 138.858 198.295C139.729 199.172 140.045 200.251 139.807 200.729C139.568 201.2 139.645 202.28 139.568 203.019C139.49 203.765 139.568 203.968 139.096 204.505C138.619 205.041 138.38 206.187 139.019 206.867C139.651 207.541 141.317 208.215 140.839 208.823C140.362 209.432 139.651 210.237 141.155 210.106C142.659 209.975 144.563 210.177 144.718 211.323C144.874 212.468 145.273 212.605 146.061 213.142C146.855 213.679 148.992 215.027 148.992 215.027" stroke="#898989" stroke-width="0.25" stroke-linecap="round" stroke-dasharray="2 2"/>
<path d="M181.56 176.695C181.56 176.695 180.933 180.781 182.323 181.133C183.714 181.485 184.478 181.605 184.406 183.15C184.335 184.689 183.642 189.365 183.642 190.785C183.642 192.205 183.225 196.762 183.225 197.472C183.225 197.472 181.697 197.173 180.306 197.233C178.916 197.293 177.597 197.406 176.904 197.71C176.904 197.71 173.085 195.694 172.249 194.805C171.414 193.923 171.414 193.565 171.414 192.676C171.414 191.787 170.722 190.487 170.095 190.129C169.474 189.777 168.913 187.82 168.913 187.051C168.913 186.281 169.403 185.87 168.358 185.512C167.314 185.154 163.566 184.331 162.665 184.092C161.763 183.859 159.681 184.032 158.917 184.563C158.153 185.094 156.416 186.222 154.608 186.043C152.799 185.87 150.299 185.094 149.606 184.862C148.914 184.623 147.524 185.16 146.897 185.631C146.27 186.102 144.05 187.11 142.934 187.289C141.824 187.462 137.861 188.769 137.032 189.479C136.202 190.188 134.322 190.66 133.839 190.898C133.355 191.137 132.758 191.674 132.293 192.085" stroke="#898989" stroke-width="0.25" stroke-linecap="round" stroke-dasharray="2 2"/>
<path d="M181.82 197.37C181.82 197.37 181.886 200.037 183.42 201.456C184.954 202.87 186.213 203.443 185.813 204.463C185.413 205.483 184.816 208.436 185.282 210.076" stroke="#898989" stroke-width="0.25" stroke-linecap="round" stroke-dasharray="2 2"/>
<path d="M132.652 191.352C132.652 191.352 135.338 187.719 136.645 186.305C137.952 184.897 138.776 184.14 140.291 183.841C141.807 183.549 143.043 183.018 143.389 181.318C143.729 179.618 146.648 171.273 147.197 170.098" stroke="#898989" stroke-width="0.25" stroke-linecap="round" stroke-dasharray="2 2"/>
<path d="M175.31 135.995L176.3 137.69L174.176 138.531C174.176 138.531 173.185 138.656 172.899 139.258C172.612 139.861 172.045 139.98 171.478 140.105C170.911 140.231 170.064 140.225 169.348 141.31" stroke="#898989" stroke-width="0.25" stroke-linecap="round" stroke-dasharray="2 2"/>
<path d="M296.827 181.623C295.938 180.728 294.601 179.833 292.9 179.69C292.655 179.666 292.405 179.666 292.148 179.678C290.083 179.773 287.224 179.296 285.923 177.775C284.945 176.63 284.461 175.842 284.539 174.787C284.569 174.435 284.658 174.047 284.813 173.611C285.315 172.198 286.019 170.134 287.129 169.203C287.284 169.072 287.445 168.965 287.618 168.881L270.538 160.751C270.538 160.751 271.206 159.689 271.683 159.116C272.161 158.55 273.313 155.943 273.313 155.943C272.698 155.358 270.424 154.249 269.159 153.658C268.598 154.595 268.067 155.507 267.655 155.973C266.951 156.778 265.53 159.194 264.701 160.405C263.877 161.61 262.576 163.322 261.627 164.33C260.684 165.338 260.093 165.338 258.912 166.048C257.73 166.752 255.605 167.956 254.304 168.666C253.009 169.376 250.407 169.269 248.396 169.066C246.385 168.869 240.363 167.956 239.772 167.861C239.181 167.76 238.59 168.768 237.761 167.861C236.937 166.954 235.278 165.851 233.977 165.242C232.676 164.64 232.205 163.829 231.262 163.023C230.319 162.218 228.188 161.514 226.415 161.007C224.643 160.5 218.263 158.591 216.491 157.989C214.724 157.386 212.474 157.082 210.111 159.403C207.747 161.717 202.191 166.447 200.657 167.956C199.117 169.472 196.993 172.192 195.572 172.49C194.158 172.788 192.266 173.599 191.323 174.608C190.374 175.61 188.608 176.821 186.125 176.719C183.875 176.624 182.317 176.54 181.512 177.053C181.398 178.413 181.35 180.817 182.341 181.074C183.732 181.426 184.496 181.545 184.424 183.09C184.352 184.629 183.66 189.306 183.66 190.725C183.66 192.145 183.242 196.702 183.242 197.412C183.242 197.412 182.634 197.293 181.84 197.221L181.828 197.335C181.828 197.335 181.894 200.001 183.427 201.421C184.961 202.834 186.22 203.407 185.821 204.427C185.48 205.298 185.164 208.221 185.367 210.082H185.373C185.558 209.993 185.743 209.903 185.922 209.831C186.179 209.724 186.441 209.617 186.704 209.509C188.53 208.746 190.35 207.952 191.371 207.487C192.541 206.95 191.651 206.282 191.663 205.399C191.681 204.523 192.093 202.984 193.376 203.001C194.665 203.019 196.832 204.367 197.452 205.805C198.073 207.237 199.189 209.784 199.947 210.78C200.705 211.776 202.955 211.663 204.375 211.788C205.79 211.913 209.961 210.72 211.012 209.635C212.062 208.549 211.889 207.326 212.295 206.229C212.671 205.203 213.96 204.093 214.939 205.692C215.005 205.799 215.07 205.918 215.13 206.05C216.121 208.149 216.103 209.36 216.855 210.577C217.613 211.8 216.676 213.44 217.553 214.991C218.43 216.542 218.138 218.63 217.601 219.835C217.332 220.437 217.099 221.201 217.129 221.923C217.153 222.645 217.439 223.33 218.209 223.784C219.737 224.685 221.331 224.887 222.333 226.659C223.336 228.425 224.345 229.546 225.884 230.005C226.266 230.119 226.672 230.178 227.084 230.19C228.313 230.232 229.579 229.898 230.45 229.659C231.614 229.343 233.798 229.594 235.344 229.94C236.884 230.292 239.336 229.88 239.617 228.562C239.897 227.244 242.446 225.263 240.327 222.973C240.029 222.65 239.868 222.358 239.838 222.12C239.736 221.392 240.757 221.088 242.398 221.523C244.57 222.096 247.107 222.376 248.545 221.29C249.983 220.211 250.061 218.702 250.759 217.52C251.708 215.904 252.186 214.335 253.367 213.142C253.666 212.844 253.94 212.534 254.209 212.223C255.009 211.281 255.701 210.279 256.447 209.307C256.578 209.14 256.721 208.984 256.883 208.835C258.017 207.797 259.891 207.362 262.135 208.161C264.695 209.074 267.213 211.37 268.377 211.06C269.547 210.744 269.786 209.301 270.191 208.096C270.55 207.028 271.994 205.889 273.48 205.65C273.677 205.62 273.874 205.596 274.065 205.602C274.482 205.608 274.924 205.608 275.384 205.602C276.768 205.584 278.326 205.483 279.991 205.125C281.238 204.857 281.966 204.785 281.931 204.499C281.913 204.373 281.746 204.2 281.4 203.95C281.137 203.765 280.785 203.532 280.319 203.246C277.849 201.707 276.351 198.784 279.52 199.404C282.838 200.055 286.198 200.114 287.684 198.999C289.182 197.889 290.382 196.517 290.996 194.889C291.617 193.26 292.834 191.018 294.32 189.902C295.812 188.787 296.72 187.54 296.738 186.538C296.755 185.536 297.203 185.285 297.812 184.164C297.967 183.883 298.045 183.645 298.056 183.436C298.104 182.792 297.585 182.386 296.827 181.623Z" fill="#707070"/>
<path d="M227.092 224.5C226.686 224.488 226.304 224.428 225.97 224.327C224.639 223.933 223.66 223.002 222.592 221.123C221.828 219.769 220.712 219.262 219.632 218.773C219.214 218.582 218.779 218.385 218.361 218.141C217.764 217.789 217.454 217.264 217.43 216.53C217.406 215.808 217.657 215.069 217.877 214.58C218.48 213.232 218.719 211.06 217.818 209.474C217.406 208.74 217.436 207.964 217.466 207.213C217.495 206.473 217.525 205.71 217.113 205.047C216.755 204.463 216.582 203.89 216.367 203.156C216.153 202.429 215.908 201.606 215.407 200.544C215.341 200.401 215.269 200.275 215.198 200.162C214.72 199.381 214.177 199.22 213.813 199.22C213.007 199.22 212.303 199.989 212.017 200.759C211.873 201.14 211.802 201.528 211.73 201.91C211.581 202.673 211.444 203.395 210.799 204.063C209.916 204.976 206.198 206.133 204.61 206.133C204.539 206.133 204.467 206.133 204.407 206.127C204.127 206.103 203.817 206.085 203.494 206.067C202.259 206.002 200.719 205.924 200.194 205.232C199.436 204.224 198.248 201.486 197.735 200.317C197.055 198.736 194.781 197.352 193.39 197.335C191.827 197.335 191.391 199.094 191.373 200.025C191.367 200.365 191.469 200.663 191.558 200.926C191.731 201.427 191.791 201.6 191.248 201.844C190.323 202.268 188.52 203.061 186.587 203.866L185.805 204.188C185.745 204.212 185.685 204.242 185.626 204.266C185.506 202.423 185.805 199.917 186.097 199.172C186.473 198.211 185.697 197.573 184.719 196.774C184.39 196.505 184.014 196.201 183.626 195.843C182.457 194.758 182.194 192.849 182.14 192.193C182.749 192.258 183.185 192.342 183.185 192.348L183.543 192.419V192.055C183.543 191.775 183.615 190.815 183.698 189.711C183.817 188.154 183.961 186.21 183.961 185.369C183.961 184.599 184.17 182.851 184.373 181.157C184.54 179.767 184.695 178.449 184.725 177.745C184.802 176.033 183.877 175.801 182.6 175.478L182.415 175.431C181.878 175.294 181.645 173.939 181.794 171.881C182.194 171.679 182.821 171.595 183.835 171.595C184.426 171.595 185.101 171.625 185.882 171.655L186.109 171.667C186.211 171.673 186.306 171.673 186.408 171.673C189.159 171.673 190.914 170.128 191.54 169.46C192.435 168.505 194.28 167.718 195.634 167.432C196.78 167.187 198.213 165.642 199.597 164.151C200.051 163.662 200.474 163.202 200.868 162.815C201.555 162.14 203.094 160.78 204.724 159.337C206.735 157.553 209.021 155.537 210.322 154.261C211.527 153.08 212.787 152.501 214.183 152.501C214.863 152.501 215.562 152.632 216.397 152.918C218.164 153.521 224.496 155.418 226.34 155.943C228.805 156.647 230.357 157.285 231.073 157.893C231.359 158.138 231.604 158.388 231.843 158.633C232.392 159.194 232.917 159.719 233.854 160.16C235.209 160.786 236.79 161.884 237.542 162.707C237.835 163.029 238.145 163.184 238.485 163.184C238.79 163.184 239.046 163.059 239.267 162.946C239.428 162.868 239.577 162.797 239.685 162.797C240.341 162.904 246.339 163.811 248.362 164.008C249.359 164.109 250.26 164.157 251.042 164.157C252.582 164.157 253.728 163.96 254.444 163.566C255.775 162.844 257.887 161.639 259.063 160.942C259.451 160.709 259.761 160.56 260.066 160.417C260.663 160.13 261.182 159.886 261.844 159.176C262.829 158.132 264.142 156.39 264.942 155.215C265.246 154.774 265.628 154.171 266.028 153.539C266.69 152.489 267.442 151.308 267.878 150.813C268.272 150.365 268.761 149.548 269.275 148.683C271.095 149.548 272.402 150.252 272.945 150.67C272.575 151.499 271.793 153.169 271.453 153.569C270.964 154.153 270.307 155.191 270.283 155.233L270.104 155.519L287 163.56C286.976 163.578 286.958 163.596 286.934 163.614C285.8 164.568 285.09 166.561 284.577 168.016L284.529 168.147C284.362 168.619 284.266 169.024 284.243 169.4C284.153 170.563 284.684 171.422 285.699 172.603C286.97 174.095 289.59 174.625 291.625 174.625C291.81 174.625 291.989 174.619 292.162 174.614C292.252 174.608 292.335 174.608 292.425 174.608C292.58 174.608 292.729 174.614 292.878 174.625C294.597 174.769 295.862 175.711 296.62 176.469L296.919 176.761C297.516 177.346 297.796 177.644 297.772 178.037C297.76 178.205 297.689 178.407 297.563 178.64C297.384 178.974 297.217 179.23 297.068 179.457C296.722 179.988 296.471 180.376 296.453 181.151C296.441 182.052 295.582 183.221 294.156 184.283C292.634 185.422 291.386 187.671 290.73 189.401C290.175 190.868 289.095 192.205 287.519 193.374C286.809 193.905 285.55 194.185 283.873 194.185C282.613 194.185 281.133 194.024 279.593 193.726C279.283 193.666 279.009 193.636 278.764 193.636C277.827 193.636 277.558 194.101 277.481 194.376C277.17 195.456 278.644 197.162 280.184 198.116C280.674 198.42 281.014 198.641 281.247 198.814C281.432 198.945 281.533 199.035 281.593 199.094C281.402 199.166 281.014 199.243 280.638 199.315C280.435 199.357 280.202 199.398 279.957 199.452C278.579 199.75 277.135 199.9 275.41 199.923C275.225 199.923 275.04 199.929 274.861 199.929C274.598 199.929 274.091 199.923 274.085 199.923C273.816 199.923 273.613 199.947 273.458 199.971C271.924 200.216 270.343 201.403 269.931 202.614C269.865 202.805 269.806 203.007 269.746 203.204C269.436 204.212 269.149 205.161 268.326 205.381C268.278 205.393 268.224 205.399 268.165 205.399C267.586 205.399 266.595 204.809 265.55 204.182C264.548 203.58 263.414 202.9 262.256 202.494C261.456 202.208 260.669 202.065 259.917 202.065C258.663 202.065 257.523 202.476 256.7 203.234C256.539 203.383 256.383 203.55 256.234 203.735C255.99 204.057 255.751 204.379 255.512 204.695C255.029 205.346 254.533 206.02 253.996 206.646C253.704 206.986 253.435 207.284 253.173 207.553C252.349 208.382 251.86 209.372 251.346 210.416C251.096 210.929 250.833 211.454 250.523 211.985C250.284 212.39 250.111 212.838 249.95 213.267C249.61 214.156 249.287 214.991 248.392 215.665C247.795 216.113 246.93 216.339 245.82 216.339C244.859 216.339 243.749 216.172 242.502 215.844C241.977 215.707 241.499 215.635 241.075 215.635C240.467 215.635 240.019 215.785 239.768 216.071C239.601 216.262 239.53 216.506 239.571 216.769C239.613 217.085 239.804 217.425 240.138 217.789C241.517 219.274 240.711 220.604 240.001 221.78C239.715 222.251 239.446 222.698 239.357 223.116C239.177 223.945 237.793 224.374 236.522 224.374C236.14 224.374 235.764 224.333 235.441 224.261C234.242 223.987 232.905 223.826 231.873 223.826C231.276 223.826 230.786 223.879 230.404 223.981C229.682 224.177 228.471 224.506 227.325 224.506C227.223 224.506 227.158 224.506 227.092 224.5Z" fill="white"/>
<path d="M269.39 149.059C270.87 149.769 271.992 150.371 272.571 150.759C272.123 151.737 271.491 153.05 271.222 153.366C270.721 153.962 270.058 155.018 270.028 155.06L269.67 155.627L270.279 155.913L286.471 163.62C285.432 164.688 284.782 166.531 284.292 167.903L284.244 168.034C284.071 168.529 283.97 168.965 283.94 169.364C283.845 170.629 284.4 171.542 285.462 172.788C286.799 174.357 289.514 174.912 291.615 174.912C291.806 174.912 291.991 174.906 292.164 174.9C292.248 174.894 292.331 174.894 292.409 174.894C292.552 174.894 292.695 174.9 292.839 174.912C294.468 175.049 295.667 175.944 296.396 176.671C296.497 176.779 296.598 176.874 296.694 176.964C297.225 177.483 297.476 177.745 297.458 178.008C297.446 178.133 297.392 178.294 297.285 178.491C297.112 178.813 296.945 179.063 296.801 179.284C296.455 179.815 296.157 180.274 296.139 181.139C296.127 181.933 295.291 183.042 293.961 184.038C292.385 185.214 291.108 187.522 290.433 189.288C289.896 190.701 288.852 191.99 287.324 193.129C286.668 193.618 285.468 193.881 283.857 193.881C282.615 193.881 281.153 193.726 279.631 193.427C279.303 193.362 279.004 193.332 278.742 193.332C277.614 193.332 277.274 193.929 277.166 194.286C276.814 195.515 278.33 197.323 279.995 198.361C280.383 198.599 280.676 198.79 280.896 198.939C280.783 198.963 280.664 198.987 280.55 199.011C280.341 199.053 280.115 199.1 279.864 199.148C278.503 199.44 277.077 199.589 275.376 199.613C275.191 199.613 275.012 199.619 274.833 199.619C274.57 199.619 274.32 199.619 274.081 199.613H274.015C273.782 199.613 273.562 199.643 273.389 199.667C271.729 199.935 270.082 201.182 269.635 202.512C269.569 202.709 269.509 202.912 269.444 203.115C269.109 204.2 268.847 204.928 268.226 205.095C268.202 205.101 268.178 205.101 268.143 205.101C267.647 205.101 266.645 204.505 265.684 203.926C264.669 203.318 263.517 202.632 262.336 202.208C261.506 201.91 260.682 201.761 259.901 201.761C258.57 201.761 257.358 202.202 256.481 203.007C256.308 203.168 256.141 203.347 255.98 203.55C255.735 203.866 255.496 204.188 255.263 204.511C254.786 205.155 254.291 205.823 253.759 206.449C253.473 206.783 253.21 207.076 252.948 207.338C252.094 208.203 251.593 209.211 251.068 210.279C250.817 210.786 250.561 211.311 250.256 211.83C250.006 212.259 249.826 212.719 249.659 213.16C249.337 214.007 249.027 214.806 248.197 215.427C247.654 215.838 246.848 216.041 245.804 216.041C244.873 216.041 243.781 215.88 242.563 215.552C242.014 215.409 241.507 215.331 241.065 215.331C240.373 215.331 239.842 215.516 239.532 215.868C239.311 216.125 239.215 216.453 239.263 216.805C239.317 217.18 239.532 217.58 239.908 217.986C241.047 219.215 240.582 220.223 239.734 221.618C239.436 222.114 239.15 222.579 239.054 223.044C238.929 223.617 237.813 224.07 236.506 224.07C236.142 224.07 235.796 224.034 235.491 223.963C234.268 223.688 232.913 223.521 231.857 223.521C231.236 223.521 230.717 223.575 230.311 223.688C229.559 223.891 228.413 224.201 227.309 224.201C227.243 224.201 227.184 224.201 227.124 224.195C226.742 224.183 226.39 224.13 226.073 224.034C224.82 223.665 223.895 222.776 222.875 220.968C222.063 219.531 220.899 219 219.777 218.493C219.365 218.308 218.942 218.111 218.53 217.872C218.023 217.574 217.766 217.127 217.748 216.506C217.73 215.987 217.879 215.343 218.172 214.687C218.804 213.273 219.049 210.989 218.1 209.312C217.73 208.656 217.76 207.952 217.79 207.213C217.82 206.431 217.855 205.62 217.396 204.88C217.056 204.332 216.889 203.771 216.68 203.061C216.459 202.321 216.214 201.486 215.701 200.407C215.629 200.263 215.558 200.126 215.48 199.995C214.931 199.1 214.287 198.909 213.839 198.909C212.854 198.909 212.072 199.804 211.762 200.639C211.613 201.045 211.535 201.445 211.458 201.838C211.314 202.59 211.189 203.234 210.604 203.842C209.775 204.696 206.134 205.823 204.624 205.823C204.559 205.823 204.499 205.823 204.445 205.817C204.165 205.793 203.848 205.775 203.52 205.757C202.41 205.698 200.882 205.62 200.441 205.041C199.7 204.063 198.525 201.343 198.023 200.186C197.301 198.504 194.884 197.042 193.38 197.018C191.739 197.018 191.106 198.802 191.089 200.001C191.083 200.395 191.196 200.735 191.291 201.003C191.339 201.134 191.405 201.337 191.399 201.385C191.399 201.385 191.357 201.45 191.142 201.552C190.217 201.975 188.415 202.763 186.493 203.568C186.326 203.64 186.153 203.711 185.986 203.777L185.926 203.801C185.872 202.071 186.141 199.912 186.398 199.261C186.851 198.098 185.962 197.37 184.929 196.523C184.601 196.255 184.231 195.951 183.855 195.605C182.93 194.746 182.614 193.314 182.5 192.515C182.894 192.568 183.151 192.616 183.151 192.616L183.861 192.753V192.032C183.861 191.757 183.939 190.761 184.016 189.711C184.142 188.065 184.279 186.198 184.279 185.345C184.279 184.593 184.494 182.774 184.685 181.163C184.852 179.767 185.007 178.443 185.043 177.733C185.126 175.777 183.945 175.478 182.691 175.162L182.506 175.115C182.315 175.067 181.963 174.226 182.101 172.054C182.566 171.887 183.27 171.864 183.861 171.864C184.446 171.864 185.12 171.893 185.902 171.923L186.123 171.935C186.225 171.941 186.332 171.941 186.433 171.941C189.298 171.941 191.13 170.331 191.781 169.633C192.634 168.726 194.407 167.968 195.72 167.694C196.961 167.432 198.423 165.851 199.838 164.324C200.285 163.841 200.715 163.381 201.097 162.999C201.777 162.331 203.311 160.971 204.94 159.534C206.958 157.75 209.243 155.728 210.55 154.446C211.696 153.318 212.89 152.775 214.203 152.775C214.847 152.775 215.522 152.901 216.316 153.175C218.088 153.783 224.426 155.68 226.27 156.205C228.664 156.885 230.215 157.524 230.89 158.096C231.17 158.335 231.409 158.579 231.642 158.818C232.185 159.373 232.752 159.945 233.742 160.405C235.067 161.019 236.607 162.087 237.335 162.88C237.681 163.262 238.075 163.459 238.493 163.459C238.863 163.459 239.167 163.31 239.412 163.19C239.508 163.143 239.651 163.071 239.687 163.071C240.307 163.172 246.317 164.079 248.346 164.282C249.355 164.383 250.268 164.437 251.056 164.437C252.667 164.437 253.825 164.234 254.595 163.811C255.932 163.083 258.051 161.884 259.226 161.18C259.596 160.959 259.907 160.81 260.205 160.667C260.832 160.369 261.369 160.112 262.073 159.361C263.07 158.305 264.395 156.551 265.2 155.364C265.511 154.917 265.887 154.314 266.292 153.682C266.949 152.644 267.695 151.469 268.113 150.992C268.477 150.568 268.924 149.846 269.39 149.059ZM269.157 148.29C268.596 149.226 268.065 150.139 267.653 150.604C266.949 151.409 265.529 153.825 264.699 155.036C263.875 156.241 262.574 157.953 261.625 158.961C260.682 159.969 260.092 159.969 258.91 160.679C257.728 161.383 255.604 162.588 254.303 163.298C253.539 163.715 252.327 163.847 251.044 163.847C250.149 163.847 249.218 163.781 248.394 163.697C246.383 163.501 240.361 162.588 239.77 162.492C239.74 162.486 239.711 162.486 239.681 162.486C239.305 162.486 238.923 162.874 238.475 162.874C238.254 162.874 238.016 162.779 237.753 162.492C236.929 161.586 235.27 160.482 233.969 159.874C232.668 159.271 232.197 158.46 231.254 157.655C230.311 156.849 228.18 156.146 226.408 155.639C224.635 155.132 218.255 153.223 216.483 152.62C215.779 152.382 215.003 152.191 214.173 152.191C212.914 152.191 211.529 152.638 210.103 154.034C207.74 156.348 202.183 161.079 200.649 162.588C199.11 164.103 196.985 166.823 195.565 167.121C194.15 167.42 192.258 168.231 191.315 169.239C190.408 170.205 188.737 171.357 186.404 171.357C186.308 171.357 186.213 171.357 186.117 171.351C185.252 171.315 184.488 171.279 183.831 171.279C182.781 171.279 181.999 171.369 181.504 171.685C181.39 173.045 181.343 175.449 182.333 175.705C183.724 176.057 184.488 176.176 184.416 177.721C184.345 179.26 183.652 183.937 183.652 185.357C183.652 186.776 183.235 191.334 183.235 192.044C183.235 192.044 182.626 191.924 181.832 191.853L181.82 191.966C181.82 191.966 181.886 194.632 183.42 196.052C184.953 197.466 186.213 198.038 185.813 199.058C185.473 199.929 185.156 202.852 185.359 204.713H185.365C185.55 204.624 185.735 204.534 185.914 204.463C186.171 204.356 186.433 204.248 186.696 204.141C188.522 203.377 190.343 202.584 191.363 202.119C192.533 201.582 191.644 200.914 191.655 200.031C191.673 199.154 192.079 197.633 193.35 197.633C193.356 197.633 193.362 197.633 193.368 197.633C194.657 197.651 196.824 198.999 197.445 200.436C198.065 201.868 199.181 204.415 199.939 205.411C200.697 206.407 202.947 206.294 204.368 206.419C204.439 206.425 204.517 206.431 204.6 206.431C206.194 206.431 210.007 205.298 211.004 204.266C212.054 203.18 211.881 201.958 212.287 200.86C212.526 200.204 213.141 199.518 213.803 199.518C214.179 199.518 214.579 199.739 214.931 200.317C214.997 200.425 215.062 200.544 215.122 200.675C216.113 202.775 216.095 203.986 216.847 205.203C217.605 206.425 216.668 208.066 217.545 209.617C218.422 211.168 218.13 213.255 217.593 214.46C217.324 215.063 217.092 215.826 217.121 216.548C217.145 217.27 217.432 217.956 218.202 218.409C219.729 219.31 221.323 219.513 222.326 221.284C223.328 223.05 224.337 224.172 225.877 224.631C226.258 224.744 226.664 224.804 227.076 224.816C227.148 224.816 227.213 224.822 227.285 224.822C228.449 224.822 229.619 224.512 230.448 224.291C230.824 224.189 231.307 224.148 231.839 224.148C232.955 224.148 234.298 224.339 235.342 224.577C235.688 224.655 236.082 224.696 236.488 224.696C237.878 224.696 239.4 224.219 239.615 223.199C239.896 221.881 242.444 219.901 240.325 217.61C240.027 217.288 239.866 216.996 239.836 216.757C239.77 216.262 240.224 215.958 241.047 215.958C241.423 215.958 241.877 216.023 242.396 216.154C243.5 216.447 244.694 216.662 245.792 216.662C246.86 216.662 247.839 216.459 248.543 215.922C249.982 214.842 250.059 213.333 250.758 212.152C251.706 210.535 252.184 208.967 253.366 207.774C253.664 207.475 253.938 207.165 254.207 206.855C255.007 205.912 255.699 204.91 256.445 203.938C256.576 203.771 256.72 203.616 256.881 203.467C257.615 202.799 258.653 202.381 259.895 202.381C260.581 202.381 261.333 202.506 262.133 202.793C264.532 203.646 266.895 205.722 268.137 205.722C268.22 205.722 268.298 205.71 268.375 205.692C269.545 205.376 269.784 203.932 270.19 202.727C270.548 201.659 271.992 200.52 273.478 200.281C273.657 200.257 273.836 200.234 274.015 200.234C274.033 200.234 274.051 200.234 274.069 200.234C274.32 200.234 274.576 200.24 274.839 200.24C275.018 200.24 275.203 200.24 275.388 200.234C276.772 200.216 278.33 200.114 279.995 199.756C281.243 199.488 281.971 199.416 281.935 199.13C281.917 199.005 281.75 198.832 281.404 198.581C281.141 198.396 280.789 198.164 280.323 197.877C278.079 196.482 276.641 193.952 278.748 193.952C278.969 193.952 279.225 193.982 279.524 194.036C281.022 194.328 282.526 194.501 283.863 194.501C285.492 194.501 286.87 194.245 287.688 193.63C289.186 192.521 290.386 191.149 291 189.52C291.621 187.892 292.839 185.649 294.325 184.533C295.817 183.418 296.724 182.171 296.742 181.169C296.76 180.167 297.207 179.916 297.816 178.795C297.971 178.515 298.049 178.276 298.061 178.067C298.108 177.435 297.589 177.029 296.825 176.266C295.936 175.371 294.599 174.476 292.898 174.333C292.743 174.321 292.582 174.315 292.421 174.315C292.331 174.315 292.242 174.315 292.146 174.321C291.979 174.327 291.8 174.333 291.621 174.333C289.622 174.333 287.115 173.814 285.922 172.418C284.943 171.273 284.459 170.486 284.537 169.43C284.567 169.078 284.656 168.69 284.811 168.255C285.313 166.841 286.017 164.777 287.127 163.847C287.282 163.715 287.443 163.608 287.616 163.524L270.536 155.394C270.536 155.394 271.204 154.332 271.682 153.76C272.159 153.193 273.311 150.586 273.311 150.586C272.696 149.99 270.422 148.88 269.157 148.29Z" fill="#313947"/>
<path d="M237.008 161.783C237.193 162.952 239.67 167.634 239.67 168.959C239.67 170.283 239.031 172.239 240.768 173.331C242.51 174.423 247.082 175.824 249.099 176.451C251.116 177.071 258.988 179.648 260.45 180.352C261.919 181.056 264.115 183.084 265.213 184.647C266.311 186.21 268.048 188.781 268.967 190.266C269.886 191.745 273.33 197.734 273.562 200.252" stroke="#898989" stroke-width="0.25" stroke-linecap="round" stroke-dasharray="2 2"/>
<path d="M205.43 158.305C206.45 159.611 208.772 163.87 208.772 165.248C208.772 166.626 210.467 170.11 210.98 171.703C211.493 173.301 216.68 184.617 217.873 186.937C217.873 186.937 219.491 187.152 221.615 186.645C221.615 186.645 222.976 192.741 225.614 194.919C228.252 197.096 230.215 198.545 234.805 198.038C239.4 197.531 239.913 196.804 241.358 195.933C242.808 195.062 243.739 193.535 245.953 193.612C248.167 193.684 249.958 193.612 249.528 195.062C249.098 196.511 248.848 196.44 249.701 197.46C250.548 198.474 253.443 201.737 253.443 201.737C253.443 201.737 255.908 203.043 256.934 203.473" stroke="#898989" stroke-width="0.25" stroke-linecap="round" stroke-dasharray="2 2"/>
<path d="M222.408 181.341H218.157V180.119H223.825V180.964C223.825 184.669 221.602 186.203 217.884 186.593V185.358C220.783 185.059 222.408 183.759 222.408 181.341ZM227.53 179.976V182.628H229.246V183.863H227.53V186.697H226.113V179.976H227.53ZM218.677 189.531C218.677 188.816 219.015 188.27 219.548 187.867C220.393 187.269 221.719 187.022 223.253 187.022C224.774 187.022 226.113 187.269 226.945 187.867C227.478 188.27 227.816 188.816 227.816 189.531C227.816 190.259 227.478 190.805 226.945 191.208C226.113 191.806 224.774 192.04 223.253 192.04C221.719 192.04 220.393 191.806 219.548 191.208C219.015 190.805 218.677 190.259 218.677 189.531ZM220.094 189.531C220.094 189.856 220.263 190.129 220.575 190.337C221.095 190.688 222.044 190.831 223.253 190.831C224.449 190.831 225.398 190.688 225.944 190.337C226.243 190.129 226.399 189.856 226.399 189.531C226.399 189.206 226.243 188.933 225.944 188.725C225.398 188.387 224.449 188.231 223.253 188.231C222.044 188.231 221.095 188.387 220.575 188.725C220.263 188.933 220.094 189.206 220.094 189.531ZM235.654 185.696H230.376V180.054H231.793V184.474H236.031C237.097 184.474 237.825 184.318 238.332 183.928V179.976H239.749V182.628H241.465V183.863H239.749V186.554H238.332V185.111C237.838 185.514 236.993 185.696 235.654 185.696ZM231.052 191.884V187.308H239.749V191.884H231.052ZM238.332 188.517H232.456V190.688H238.332V188.517ZM250.747 188.049C250.747 189.232 249.967 189.882 248.94 189.882C247.887 189.882 247.12 189.219 247.12 188.023V187.945H245.638V188.101C245.638 189.986 247.029 191.156 248.94 191.156C250.851 191.156 252.216 189.986 252.216 188.14C252.216 186.775 251.488 185.891 250.37 185.566C251.319 185.267 251.917 184.37 251.917 183.317C251.917 181.783 250.825 180.626 248.94 180.626C247.055 180.626 245.95 181.783 245.95 183.317V183.538H247.419V183.434C247.419 182.498 248.017 181.9 248.94 181.9C249.824 181.9 250.461 182.498 250.461 183.434C250.461 184.331 249.876 184.955 248.966 184.955H247.913V186.203H248.966C250.006 186.203 250.747 186.892 250.747 188.049ZM262.151 182.914V181.354H254.247V180.119H263.568V182.758C263.568 183.915 263.477 185.085 263.295 185.943H261.891C262.086 185.072 262.151 183.915 262.151 182.914ZM253.714 188.218V186.97H264.179V188.218H259.629V191.962H258.225V188.218H253.714Z" fill="black"/>
</svg>
