<svg width="56" height="56" viewBox="0 0 56 56" fill="none" xmlns="http://www.w3.org/2000/svg">
<path fill-rule="evenodd" clip-rule="evenodd" d="M38.9311 28L17.0689 28C14.3945 28 13.0047 24.9861 14.8245 23.1329L25.7556 13.8815C26.9522 12.7062 29.0176 12.7062 30.2444 13.8815L41.1755 23.1329C42.9953 24.9861 41.6055 28 38.9311 28ZM38.9311 26.0691C39.8225 26.0691 40.2858 25.0645 39.6792 24.4468L28.7481 15.1954C28.333 14.8488 27.6446 14.8488 27.2519 15.1954L16.3208 24.4468C15.7142 25.0645 16.1775 26.0691 17.0689 26.0691L38.9311 26.0691Z" fill="#313A48"/>
<path fill-rule="evenodd" clip-rule="evenodd" d="M19 27L37 27L37 39C37 41.2091 35.2091 43 33 43L23 43C20.7909 43 19 41.2091 19 39L19 27ZM33 41C34.1046 41 35 40.1046 35 39L35 29L21 29L21 39C21 40.1046 21.8954 41 23 41L33 41Z" fill="#313A48"/>
<path d="M35 38.8333C35 40.0299 34.1046 41 33 41V34.5C33 32.7051 31.6569 31.25 30 31.25H26C24.3431 31.25 23 32.7051 23 34.5L23 41C21.8954 41 21 40.03 21 38.8333V28H35L35 38.8333Z" fill="#D29B4A"/>
</svg>
