<svg width="30" height="30" viewBox="0 0 30 30" fill="none" xmlns="http://www.w3.org/2000/svg">
<path d="M8.09942 24.9579C7.64115 24.8948 7.24241 24.8062 7.21332 24.7609C7.18424 24.7157 7.04946 24.5085 6.91383 24.3006C6.53261 23.7163 6.26658 23.0851 5.83837 21.749C5.07505 19.3673 4.92651 18.748 5.02868 18.373C5.18643 17.7939 6.55414 16.9757 7.40583 16.9508C8.09301 16.9307 8.17295 16.9875 8.57272 17.7798C8.80877 18.2476 9.15484 18.9918 9.34177 19.4336C9.5287 19.8754 9.80227 20.2369 9.9497 20.2369C10.0971 20.2369 10.6526 19.5777 11.1841 18.7721C11.7155 17.9664 12.2341 17.2168 12.3363 17.1063C12.4386 16.9958 12.6363 16.6981 12.7757 16.4448C13.3735 15.3585 18.2164 8.9823 19.6576 7.38417C19.9857 7.02033 20.2543 6.65971 20.2546 6.58281C20.2548 6.5059 20.7202 6.1537 21.2888 5.80014C22.0657 5.31706 22.6166 5.1306 23.5054 5.04987C25.1489 4.90059 25.3039 5.04374 24.6118 6.072C24.301 6.5338 23.8785 7.08176 23.6731 7.28967C23.4677 7.49758 22.8583 8.22054 22.3188 8.89626C21.7794 9.57197 21.241 10.2099 21.1224 10.3138C21.0038 10.4178 20.698 10.8005 20.4427 11.1644C20.1875 11.5282 19.9301 11.8685 19.8707 11.9204C19.3559 12.3712 13.831 19.7532 13.3636 20.6149C13.2226 20.8748 13.0541 21.13 12.9891 21.182C12.9241 21.2339 12.3577 22.0179 11.7304 22.924C11.1032 23.8302 10.4946 24.6282 10.378 24.6973C9.95074 24.9508 8.91126 25.0697 8.09942 24.9579L8.09942 24.9579Z" fill="white"/>
</svg>
