<svg width="24" height="24" viewBox="0 0 24 24" fill="none" xmlns="http://www.w3.org/2000/svg">
<path fill-rule="evenodd" clip-rule="evenodd" d="M9.25523 14.7448C9.35937 14.8489 9.35937 15.0178 9.25523 15.1219L6.05523 18.3219C5.95109 18.426 5.78224 18.426 5.6781 18.3219C5.57397 18.2178 5.57397 18.0489 5.6781 17.9448L8.8781 14.7448C8.98224 14.6406 9.15109 14.6406 9.25523 14.7448Z" fill="black"/>
<path fill-rule="evenodd" clip-rule="evenodd" d="M6.13333 17.8667V19.4667H18.9333C19.2279 19.4667 19.4667 19.2279 19.4667 18.9333V15.7333C19.4667 15.4388 19.2279 15.2 18.9333 15.2H8.8V5.06667C8.8 4.77211 8.56122 4.53333 8.26667 4.53333H5.06667C4.77211 4.53333 4.53333 4.77211 4.53333 5.06667V17.8667H6.13333ZM5.6 18.4V20H18.9333C19.5224 20 20 19.5224 20 18.9333V15.7333C20 15.1442 19.5224 14.6667 18.9333 14.6667H9.33333V5.06667C9.33333 4.47756 8.85577 4 8.26667 4H5.06667C4.47756 4 4 4.47756 4 5.06667V18.4H5.6Z" fill="black"/>
<path fill-rule="evenodd" clip-rule="evenodd" d="M4.26667 7.2C4.26667 7.05272 4.38606 6.93333 4.53333 6.93333H6.66667C6.81394 6.93333 6.93333 7.05272 6.93333 7.2C6.93333 7.34728 6.81394 7.46667 6.66667 7.46667H4.53333C4.38606 7.46667 4.26667 7.34728 4.26667 7.2Z" fill="black"/>
<path fill-rule="evenodd" clip-rule="evenodd" d="M10.4 19.7333C10.2527 19.7333 10.1333 19.6139 10.1333 19.4667V17.3333C10.1333 17.1861 10.2527 17.0667 10.4 17.0667C10.5473 17.0667 10.6667 17.1861 10.6667 17.3333V19.4667C10.6667 19.6139 10.5473 19.7333 10.4 19.7333Z" fill="black"/>
<path fill-rule="evenodd" clip-rule="evenodd" d="M4.26667 11.4667C4.26667 11.3194 4.38606 11.2 4.53333 11.2H6.66667C6.81394 11.2 6.93333 11.3194 6.93333 11.4667C6.93333 11.6139 6.81394 11.7333 6.66667 11.7333H4.53333C4.38606 11.7333 4.26667 11.6139 4.26667 11.4667Z" fill="black"/>
<path fill-rule="evenodd" clip-rule="evenodd" d="M14.6667 19.7333C14.5194 19.7333 14.4 19.6139 14.4 19.4667V17.3333C14.4 17.1861 14.5194 17.0667 14.6667 17.0667C14.8139 17.0667 14.9333 17.1861 14.9333 17.3333V19.4667C14.9333 19.6139 14.8139 19.7333 14.6667 19.7333Z" fill="black"/>
<path fill-rule="evenodd" clip-rule="evenodd" d="M4.26667 9.33333C4.26667 9.18606 4.38606 9.06667 4.53333 9.06667H6.66667C6.81394 9.06667 6.93333 9.18606 6.93333 9.33333C6.93333 9.48061 6.81394 9.6 6.66667 9.6H4.53333C4.38606 9.6 4.26667 9.48061 4.26667 9.33333Z" fill="black"/>
<path fill-rule="evenodd" clip-rule="evenodd" d="M12.5333 19.7333C12.3861 19.7333 12.2667 19.6139 12.2667 19.4667V17.3333C12.2667 17.1861 12.3861 17.0667 12.5333 17.0667C12.6806 17.0667 12.8 17.1861 12.8 17.3333V19.4667C12.8 19.6139 12.6806 19.7333 12.5333 19.7333Z" fill="black"/>
<path fill-rule="evenodd" clip-rule="evenodd" d="M4.26667 13.6C4.26667 13.4527 4.38606 13.3333 4.53333 13.3333H6.66667C6.81394 13.3333 6.93333 13.4527 6.93333 13.6C6.93333 13.7473 6.81394 13.8667 6.66667 13.8667H4.53333C4.38606 13.8667 4.26667 13.7473 4.26667 13.6Z" fill="black"/>
<path fill-rule="evenodd" clip-rule="evenodd" d="M16.8 19.7333C16.6527 19.7333 16.5333 19.6139 16.5333 19.4667V17.3333C16.5333 17.1861 16.6527 17.0667 16.8 17.0667C16.9473 17.0667 17.0667 17.1861 17.0667 17.3333V19.4667C17.0667 19.6139 16.9473 19.7333 16.8 19.7333Z" fill="black"/>
</svg>
