<svg width="160" height="36" viewBox="0 0 160 36" fill="none" xmlns="http://www.w3.org/2000/svg">
<path d="M46.8008 19.7344C46.4955 19.7436 46.1918 19.6871 45.9108 19.569C45.6297 19.4508 45.3779 19.2737 45.1728 19.0499C44.6935 18.4284 44.4662 17.6524 44.5354 16.8739C44.4667 16.0954 44.6939 15.3196 45.1728 14.6978C45.3838 14.4813 45.6369 14.3092 45.9168 14.1916C46.1967 14.0739 46.4977 14.0133 46.8018 14.0133C47.106 14.0133 47.407 14.0739 47.6869 14.1916C47.9668 14.3092 48.2198 14.4813 48.4309 14.6978C48.9098 15.3196 49.137 16.0954 49.0683 16.8739C49.1375 17.6524 48.9102 18.4284 48.4309 19.0499C48.2255 19.2739 47.9734 19.4511 47.692 19.5693C47.4105 19.6875 47.1065 19.7438 46.8008 19.7344V19.7344ZM46.8008 12.685C46.0319 12.677 45.2652 12.7668 44.5194 12.952C43.8797 13.109 43.2749 13.3812 42.7352 13.7552C42.2334 14.1105 41.8246 14.5789 41.5425 15.1216C41.2604 15.6644 41.1133 16.2657 41.1133 16.8759C41.1133 17.486 41.2604 18.0874 41.5425 18.6301C41.8246 19.1728 42.2334 19.6412 42.7352 19.9965C43.2751 20.3698 43.8799 20.6417 44.5194 20.7987C46.0157 21.1541 47.576 21.1541 49.0723 20.7987C49.718 20.644 50.3288 20.3716 50.8735 19.9955C51.3646 19.6469 51.7674 19.1905 52.0502 18.6622C52.3287 18.1066 52.4735 17.4949 52.4735 16.8749C52.4735 16.2548 52.3287 15.6431 52.0502 15.0875C51.7676 14.5591 51.3648 14.1027 50.8735 13.7542C50.3288 13.3781 49.718 13.1057 49.0723 12.951C48.3301 12.7668 47.5671 12.6771 46.8018 12.684" fill="#707070"/>
<path d="M54.6151 8.02734H54.2148V22.5219C54.3509 22.5219 54.4861 22.5436 54.6151 22.5862V8.02734ZM55.2155 8.02734H54.8152V22.6713C54.9704 22.7545 55.1066 22.8683 55.2155 23.0056V8.02734ZM55.8159 8.02734H55.4156V23.3735C55.4596 23.5026 55.4819 23.6379 55.4817 23.7741H55.8159V8.02734V8.02734ZM56.9856 8.02734H56.016V23.7761H58.2525V16.1362H61.2964V14.3636H58.2525V9.26473C57.9191 9.26476 57.5991 9.13486 57.3619 8.90323C57.1248 8.67159 56.9896 8.35688 56.9856 8.02734" fill="#707070"/>
<path d="M48.8227 8.01562H44.7851V10.5873H40.082V11.0285H40.091C40.4273 11.0285 40.7498 11.1605 40.9875 11.3955C41.2253 11.6306 41.3589 11.9493 41.3589 12.2817V12.2876H53.4197V10.5883H48.8227V8.01661V8.01562Z" fill="#707070"/>
<path d="M46.8375 21.8086H42.7979V26.1489C42.7874 26.4413 42.857 26.7312 42.9993 26.9878C43.1416 27.2444 43.3514 27.4583 43.6064 27.6068C44.1024 27.9 44.6717 28.0497 45.2495 28.0391H58.5781V26.2675H56.0185V28.041H55.8183V26.2675H55.4181V28.041H55.218V26.2675H54.8177V28.041H54.6176V26.2675H46.9976C46.9487 26.2725 46.8994 26.2647 46.8545 26.2448L46.8375 26.1301V21.8086" fill="#707070"/>
<path d="M54.8134 8.02734H54.6133V22.5892C54.6823 22.612 54.7492 22.6404 54.8134 22.6742V8.02734Z" fill="white"/>
<path d="M55.415 8.02734H55.2148V23.0056C55.3018 23.1164 55.3695 23.2407 55.415 23.3735V8.02734Z" fill="white"/>
<path d="M56.0126 8.02734H55.8125V23.7741H56.0126V8.02734Z" fill="white"/>
<path d="M54.8134 26.2695H54.6133V28.043H54.8134V26.2695Z" fill="white"/>
<path d="M55.415 26.2695H55.2148V28.043H55.415V26.2695Z" fill="white"/>
<path d="M56.0126 26.2695H55.8125V28.043H56.0126V26.2695Z" fill="white"/>
<path d="M15.7482 8.01562H15.3479V19.1027C14.6075 19.2303 13.5988 19.3371 12.8643 19.4103C11.8147 19.5151 10.5899 19.5686 9.22498 19.5686H0V20.0908C0.335728 20.0908 0.657749 20.2224 0.895426 20.4568C1.1331 20.6912 1.26703 21.0092 1.26782 21.3411H5.61264V27.8327H9.65025V21.3401C10.9341 21.3302 12.1008 21.2728 13.1215 21.168C14.0501 21.074 14.8076 20.9899 15.3519 20.9068V26.8989C15.4879 26.8984 15.623 26.9194 15.7522 26.9612V8.01562H15.7482ZM16.3526 8.01562H15.9523V27.0463C16.1076 27.1285 16.2438 27.2417 16.3526 27.3786V8.01562ZM18.1297 8.01562H17.1531V28.1521H16.953V8.01562H16.5527V27.7407C16.5991 27.873 16.6228 28.0121 16.6228 28.1521V28.1521H19.3926V27.7515L19.3866 9.26389C19.0522 9.26259 18.732 9.13059 18.4958 8.89672C18.2596 8.66285 18.1265 8.3461 18.1257 8.01562" fill="#707070"/>
<path d="M7.52872 17.1451C7.15587 17.1477 6.7864 17.075 6.44302 16.9314C6.09721 16.7831 5.79423 16.5519 5.56145 16.2588C5.29084 15.9166 5.09031 15.5255 4.97107 15.1075C4.81676 14.5701 4.74392 14.0131 4.75493 13.4546C4.74394 12.8968 4.81678 12.3405 4.97107 11.8038C5.09052 11.3855 5.29103 10.9942 5.56145 10.6515C5.79486 10.3592 6.09768 10.1285 6.44302 9.97986C6.7872 9.83881 7.15614 9.76621 7.52872 9.76621C7.90131 9.76621 8.27025 9.83881 8.61443 9.97986C8.95976 10.1285 9.26259 10.3592 9.496 10.6515C9.76632 10.9945 9.96743 11.3857 10.0884 11.8038C10.2414 12.3401 10.3142 12.8956 10.3045 13.4527C10.3151 14.011 10.243 14.5678 10.0904 15.1055C9.96964 15.5233 9.76851 15.9143 9.498 16.2568C9.26522 16.5499 8.96224 16.7811 8.61643 16.9294C8.2731 17.0732 7.9036 17.146 7.53072 17.1431L7.52872 17.1451ZM7.53072 8.38342C6.64773 8.37324 5.76794 8.49019 4.91903 8.73061C4.18603 8.93824 3.49901 9.28014 2.89372 9.73852C2.33684 10.169 1.88706 10.7199 1.57887 11.3488C1.26605 12.0066 1.10833 12.7259 1.11757 13.4527C1.10852 14.1788 1.26625 14.8974 1.57887 15.5545C1.88644 16.183 2.33513 16.7338 2.89072 17.1648C3.49639 17.6238 4.18418 17.9657 4.91803 18.1727C5.76658 18.4132 6.64605 18.5302 7.52872 18.5199C8.41204 18.53 9.29214 18.413 10.1414 18.1727C10.8749 17.9664 11.5622 17.6243 12.1667 17.1648C12.7229 16.7343 13.1717 16.1834 13.4786 15.5545C13.7912 14.8974 13.9489 14.1788 13.9399 13.4527C13.9491 12.7259 13.7914 12.0066 13.4786 11.3488C13.1716 10.7197 12.7224 10.1687 12.1657 9.73852C11.5614 9.27976 10.875 8.93781 10.1424 8.73061C9.29279 8.4904 8.41236 8.37345 7.52872 8.38342" fill="#707070"/>
<path opacity="0.996" d="M15.95 8.00781H15.75V8.01181H15.751H15.95V8.00781Z" fill="white"/>
<path d="M15.9501 8.01172H15.75V26.9573C15.8191 26.98 15.886 27.0084 15.9501 27.0424V8.01172Z" fill="white"/>
<path opacity="0.996" d="M16.5516 8.00781H16.3516V8.01181H16.5516V8.00781Z" fill="white"/>
<path d="M16.5517 8.01172H16.3516V27.3747C16.4383 27.4835 16.5059 27.6059 16.5517 27.7368V8.01172Z" fill="white"/>
<path opacity="0.996" d="M17.1492 8.00781H16.9492V8.01181H17.1492V8.00781Z" fill="white"/>
<path d="M17.1493 8.01172H16.9492V28.1482H17.1493V8.01172Z" fill="white"/>
<path d="M38.8749 16.4004V16.5982H30.4345V16.4004H38.8749ZM38.8749 15.8069V16.0048H30.4345V15.8069H38.8749ZM38.8749 15.2135V15.4113H30.4345V15.2135H38.8749ZM37.6071 8.01562H35.0535V15.0235H33.6936V9.36281H33.6586C33.4921 9.36281 33.3272 9.33039 33.1734 9.26741C33.0196 9.20443 32.8798 9.11212 32.7621 8.99575C32.6444 8.87938 32.551 8.74122 32.4873 8.58918C32.4235 8.43713 32.3907 8.27417 32.3907 8.10959H30.4345V21.9355C29.7856 22.084 29.1251 22.1773 28.4602 22.2144C27.6847 22.256 26.8281 22.2768 25.9146 22.2768H24.5757C24.5244 22.2817 24.4727 22.2735 24.4256 22.253L24.4146 22.16V10.8653H29.8061V9.09179H20.5921V22.161C20.5763 22.4585 20.6439 22.7546 20.7877 23.0164C20.9314 23.2783 21.1457 23.4957 21.4066 23.6447C21.8989 23.9194 22.4564 24.0594 23.0217 24.0503H25.5233C26.588 24.0503 27.5656 24.0216 28.4302 23.9642C29.1025 23.9207 29.7711 23.8328 30.4315 23.7011V26.5695H30.4365C30.7725 26.5695 31.0947 26.7015 31.3323 26.9363C31.5698 27.1712 31.7033 27.4897 31.7033 27.8218V27.8317H33.6906V16.796H35.0505V26.9049H35.0565C35.3922 26.9049 35.7142 27.0365 35.9519 27.2709C36.1896 27.5052 36.3235 27.8232 36.3243 28.1551H38.8729V9.26291C38.5377 9.26291 38.2162 9.13169 37.9786 8.89795C37.741 8.66421 37.6067 8.34697 37.6051 8.01562" fill="#707070"/>
<path d="M30.4375 15.2148V15.4127V15.2148ZM38.879 15.2148V15.4127V15.2148Z" fill="#303846"/>
<path d="M30.4375 15.8047V16.0025V15.8047ZM38.879 15.8047V16.0025V15.8047Z" fill="#303846"/>
<path d="M30.4375 16.4023V16.6002V16.4023ZM38.879 16.4023V16.6002V16.4023Z" fill="#303846"/>
<path d="M38.8741 15.2109H30.4336V15.4078H38.8751L38.8741 15.2109Z" fill="white"/>
<path d="M38.8741 15.8047H30.4336V16.0025H38.8751L38.8741 15.8047Z" fill="white"/>
<path d="M38.8741 16.3984H30.4336V16.5953H38.8751L38.8741 16.3984Z" fill="white"/>
<path d="M95.2104 8.79688H90.9706V14.4121C90.9758 15.2363 90.8896 16.0585 90.7134 16.8641C90.5473 17.6051 90.2736 18.3184 89.9009 18.9818C89.5039 19.6737 89.0097 20.3065 88.433 20.8612C87.7514 21.5116 86.9959 22.0819 86.1815 22.5605L85.7812 22.8038L86.0034 23.2163L86.5447 24.2182L86.7449 24.5931L87.1501 24.4527C87.9532 24.1731 88.7287 23.8211 89.4666 23.4012C90.1926 22.9896 90.8809 22.5163 91.524 21.9868C92.1522 21.4685 92.7225 20.8853 93.2251 20.2469C93.5334 19.8539 93.8101 19.4375 94.0526 19.0016L97.0616 23.6782L97.3477 24.1213L97.778 23.8117L99.9154 22.2756L100.346 21.966L100.007 21.5605L96.7333 17.6406C96.4015 17.2227 95.9472 16.9163 95.4325 16.7633C95.2821 16.7239 95.1277 16.7017 94.9722 16.697C95.1253 16.0464 95.2025 15.3807 95.2024 14.7128V8.79688" fill="#7388FB"/>
<path d="M101.319 8.01562H100.719V26.9019C100.928 26.902 101.135 26.9537 101.319 27.0522V8.01562ZM101.92 8.01562H101.519V27.1848C101.705 27.3339 101.844 27.5322 101.92 27.7565V8.01562ZM103.497 8.01562H102.72V28.1551H102.52V8.01562H102.12V28.1551H104.752V16.8237H107.796V14.8524H104.752V9.26983C104.418 9.26696 104.099 9.13376 103.864 8.89924C103.628 8.66471 103.497 8.34784 103.497 8.0176V8.0176" fill="#7388FB"/>
<path d="M101.517 8.01562H101.316V27.0522C101.387 27.0898 101.454 27.1342 101.517 27.1848V8.01562Z" fill="white"/>
<path d="M102.118 8.01562H101.918V27.7565C101.962 27.8839 101.984 28.0176 101.984 28.1521H102.118V8.01562Z" fill="white"/>
<path d="M102.716 8.01562H102.516V28.1551H102.716V8.01562Z" fill="white"/>
<path d="M78.7285 8.5H66.2664V9.22206H66.2724C66.6083 9.22127 66.9308 9.35228 67.1691 9.58632C67.4073 9.82036 67.5419 10.1383 67.5432 10.4703H70.4351V11.7671C70.445 12.4162 70.3355 13.0617 70.1119 13.6721C69.8979 14.2309 69.5852 14.7477 69.1883 15.1983C68.7573 15.6793 68.2593 16.0973 67.7093 16.4397C67.0756 16.8362 66.4123 17.1844 65.7251 17.4812L65.3008 17.6672L65.4569 18.0994L65.8021 19.0598L65.9532 19.4782L66.3905 19.3744C67.1333 19.1979 67.8626 18.9698 68.5729 18.6919C69.2716 18.42 69.948 18.0953 70.5962 17.7206C71.2213 17.3599 71.8077 16.9373 72.3463 16.4595C72.7201 16.1253 73.0612 15.757 73.365 15.3595L77.4126 19.049L77.7819 19.3853L78.1211 19.0193L79.522 17.504L79.8802 17.1182L79.469 16.7869L75.9737 13.9708C75.5839 13.661 75.1108 13.4709 74.6128 13.4238L74.4027 13.4149H74.3837C74.4187 13.3051 74.4517 13.1954 74.4837 13.0826C74.6123 12.5919 74.6762 12.0869 74.6738 11.5801V10.4703H78.7335V8.5" fill="#7388FB"/>
<path d="M80.9414 8.01562H80.5352V18.2649H80.5582C80.6883 18.2651 80.8176 18.2855 80.9414 18.3252V8.01562V8.01562ZM81.5418 8.01562H81.1416V18.4073C81.2961 18.4872 81.4323 18.5976 81.5418 18.7318V8.01562ZM82.1422 8.01562H81.7419V19.074C81.7961 19.2136 81.8242 19.3617 81.825 19.5112H82.1422V8.01562V8.01562ZM83.31 8.01562H82.3423V19.5112H84.5768V9.26291C84.2416 9.26317 83.92 9.132 83.6825 8.89818C83.445 8.66435 83.311 8.34696 83.31 8.01562" fill="#7388FB"/>
<path d="M72.8207 26.2871H72.7607V24.3533H80.5457V26.2871H72.8207ZM84.5803 20.3672H82.3459V28.1535H82.1458V20.3672H81.7455V28.1535H81.5454V20.3672H81.1451V28.1535H80.945V20.3672H80.5447V22.388H72.7597V20.3672H68.7081V26.1723C68.6973 26.4807 68.7709 26.7863 68.9211 27.0568C69.0713 27.3274 69.2926 27.5528 69.5616 27.7094C70.0756 28.0116 70.6649 28.1654 71.2627 28.1535H84.5803V20.3672" fill="#7388FB"/>
<path d="M81.1454 8.01562H80.9453V18.3242C81.0145 18.3456 81.0816 18.3734 81.1454 18.4073V8.01562Z" fill="white"/>
<path d="M81.747 8.01562H81.5469V18.7298C81.6314 18.8327 81.699 18.9482 81.747 19.072V8.01562Z" fill="white"/>
<path d="M82.3447 8.01562H82.1445V19.5112H82.3447V8.01562Z" fill="white"/>
<path d="M81.1454 20.3672H81.0454H80.9453V28.1535H81.1454V20.3672Z" fill="white"/>
<path d="M81.747 20.3672H81.5469V28.1535H81.747V20.3672Z" fill="white"/>
<path d="M82.3447 20.3672H82.1445V28.1535H82.3447V20.3672Z" fill="white"/>
<path d="M112.074 27.851H110.645C110.61 27.939 110.565 28.0227 110.51 28.1003C110.67 28.1396 110.834 28.1596 110.999 28.1596C111.38 28.1605 111.753 28.0534 112.074 27.851V27.851ZM112.679 27.2575H110.727C110.732 27.3015 110.734 27.3458 110.734 27.3901C110.734 27.4785 110.725 27.5667 110.706 27.6532H112.337C112.469 27.5369 112.584 27.4038 112.679 27.2575V27.2575ZM112.941 26.6641H110.5C110.586 26.784 110.651 26.9179 110.69 27.0597H112.792C112.855 26.9335 112.904 26.8009 112.939 26.6641H112.941ZM110.997 24.2031C110.467 24.2031 109.958 24.4115 109.582 24.7825C109.207 25.1535 108.996 25.6567 108.996 26.1814V26.2249C109.218 26.1382 109.459 26.1149 109.694 26.1576C109.928 26.2003 110.145 26.3072 110.321 26.4662H112.978C112.991 26.3718 112.998 26.2767 112.998 26.1814C112.998 25.6567 112.787 25.1535 112.412 24.7825C112.036 24.4115 111.527 24.2031 110.996 24.2031" fill="#7388FB"/>
<path d="M112.977 26.4688C112.968 26.5351 112.954 26.6009 112.938 26.6657V26.6657C112.954 26.6009 112.968 26.5351 112.977 26.4688" fill="#C59249"/>
<path d="M112.793 27.0586C112.76 27.1265 112.722 27.1923 112.68 27.2556V27.2556C112.722 27.1923 112.76 27.1265 112.793 27.0586" fill="#C59249"/>
<path d="M112.977 26.4648H110.32C110.386 26.5246 110.445 26.5909 110.496 26.6627H112.937C112.954 26.5975 112.967 26.5315 112.977 26.4648" fill="white"/>
<path d="M112.789 27.0586H110.688C110.705 27.1235 110.717 27.1896 110.725 27.2564H112.671C112.713 27.1928 112.751 27.1268 112.785 27.0586" fill="white"/>
<path opacity="0.996" d="M112.333 27.6523C112.252 27.7255 112.164 27.7917 112.07 27.8502V27.8502C112.164 27.7917 112.252 27.7255 112.333 27.6523" fill="white"/>
<path d="M112.333 27.6523H110.702C110.687 27.7199 110.667 27.7861 110.641 27.8502H112.071C112.164 27.7917 112.252 27.7255 112.334 27.6523" fill="white"/>
</svg>
