<svg width="32" height="32" viewBox="0 0 32 32" fill="none" xmlns="http://www.w3.org/2000/svg">
<g filter="url(#filter0_i_1361_6229)">
<circle cx="14" cy="18" r="14" fill="white" fill-opacity="0.3"/>
</g>
<circle cx="14" cy="18" r="13.5" stroke="white" stroke-opacity="0.4"/>
<path d="M11.7193 23.9495C11.1694 23.8738 10.6909 23.7674 10.656 23.7131C10.6211 23.6588 10.4594 23.4103 10.2966 23.1608C9.83914 22.4595 9.51989 21.7021 9.00604 20.0988C8.09006 17.2408 7.91182 16.4976 8.03441 16.0476C8.22372 15.3527 9.86496 14.3708 10.887 14.3409C11.7116 14.3168 11.8075 14.385 12.2873 15.3357C12.5705 15.8971 12.9858 16.7902 13.2101 17.3203C13.4344 17.8505 13.7627 18.2843 13.9396 18.2843C14.1166 18.2843 14.7831 17.4933 15.4209 16.5265C16.0587 15.5597 16.6809 14.6602 16.8036 14.5276C16.9263 14.395 17.1635 14.0377 17.3308 13.7337C18.0482 12.4302 23.8597 4.77875 25.5891 2.86101C25.9828 2.42439 26.3052 1.99166 26.3055 1.89937C26.3058 1.80708 26.8643 1.38444 27.5466 0.960168C28.4788 0.38047 29.1399 0.156721 30.2065 0.0598397C32.1787 -0.11929 32.3647 0.0524919 31.5341 1.2864C31.1611 1.84056 30.6543 2.49811 30.4077 2.7476C30.1612 2.99709 29.4299 3.86465 28.7826 4.67551C28.1353 5.48637 27.4892 6.25186 27.3469 6.37661C27.2046 6.50135 26.8376 6.96065 26.5313 7.39726C26.225 7.83388 25.9161 8.24214 25.8448 8.30452C25.227 8.84541 18.5972 17.7038 18.0363 18.7379C17.8671 19.0498 17.6649 19.356 17.5869 19.4183C17.5089 19.4807 16.8292 20.4214 16.0765 21.5088C15.3238 22.5962 14.5935 23.5538 14.4536 23.6368C13.9409 23.9409 12.6935 24.0836 11.7193 23.9495L11.7193 23.9495Z" fill="#FF0000"/>
<defs>
<filter id="filter0_i_1361_6229" x="0" y="4" width="28" height="30" filterUnits="userSpaceOnUse" color-interpolation-filters="sRGB">
<feFlood flood-opacity="0" result="BackgroundImageFix"/>
<feBlend mode="normal" in="SourceGraphic" in2="BackgroundImageFix" result="shape"/>
<feColorMatrix in="SourceAlpha" type="matrix" values="0 0 0 0 0 0 0 0 0 0 0 0 0 0 0 0 0 0 127 0" result="hardAlpha"/>
<feOffset dy="2"/>
<feGaussianBlur stdDeviation="1"/>
<feComposite in2="hardAlpha" operator="arithmetic" k2="-1" k3="1"/>
<feColorMatrix type="matrix" values="0 0 0 0 0 0 0 0 0 0 0 0 0 0 0 0 0 0 0.25 0"/>
<feBlend mode="normal" in2="shape" result="effect1_innerShadow_1361_6229"/>
</filter>
</defs>
</svg>
