<svg width="52" height="52" viewBox="0 0 52 52" fill="none" xmlns="http://www.w3.org/2000/svg">
<path d="M12.2344 4.64062C12.2344 5.4375 12.5182 6.19271 13.0859 6.90625C13.6536 7.61979 14.3438 8.21875 15.1562 8.70312C15.974 9.1875 16.7292 9.5 17.4219 9.64062L17.0312 10.2656C16.401 10.099 15.7344 9.82292 15.0312 9.4375C14.3333 9.04688 13.6953 8.5625 13.1172 7.98438C12.5391 7.40625 12.1198 6.77344 11.8594 6.08594C11.6042 6.77344 11.1875 7.40625 10.6094 7.98438C10.0312 8.5625 9.39323 9.04688 8.69531 9.4375C7.9974 9.82292 7.32812 10.099 6.6875 10.2656L6.32812 9.64062C7.01562 9.49479 7.76302 9.18229 8.57031 8.70312C9.3776 8.22396 10.0625 7.6276 10.625 6.91406C11.1927 6.20052 11.4792 5.44271 11.4844 4.64062V3.53125H12.2344V4.64062ZM5.65625 13.5469H18.1875V14.1875H5.65625V13.5469ZM30.2188 5.76562C30.2135 6.67188 30.2005 7.41927 30.1797 8.00781C30.1641 8.59115 30.1172 9.24479 30.0391 9.96875C29.9609 10.6875 29.8385 11.4635 29.6719 12.2969L28.9219 12.2031C29.2031 10.974 29.3776 9.71354 29.4453 8.42188L20.8281 8.89062L20.6875 8.25L29.4688 7.84375C29.4896 7.21875 29.5 6.52604 29.5 5.76562V4.65625H21.0312V4.01562H30.2188V5.76562ZM19.4844 13.4062H31.9375V14.0469H19.4844V13.4062ZM45.8125 9.71875H33.2969V9.10938H39.1875V7.6875H34.9688V5H43.4062V3.57812H34.9062V2.98438H44.1406V5.5625H35.6875V7.07812H44.3906V7.6875H39.9062V9.10938H45.8125V9.71875ZM34.8438 11.0156H44.2031V13.7031H35.625V15.3594H44.6719V15.9688H34.8906V13.1094H43.4688V11.625H34.8438V11.0156Z" fill="white"/>
<path fill-rule="evenodd" clip-rule="evenodd" d="M35.4146 26C35.7379 26 36 26.2531 36 26.5652V41.191C36 41.8152 35.2864 42.1937 34.7407 41.8588L21.9493 34.0088V50.0702L25.7283 46.3548C25.9569 46.134 26.3276 46.134 26.5562 46.3548C26.7848 46.5755 26.7848 46.9334 26.5562 47.1541L21.7778 51.8345C21.5492 52.0552 21.1785 52.0552 20.9499 51.8345L16.1715 47.1541C15.9428 46.9334 15.9428 46.5755 16.1715 46.3548C16.4001 46.134 16.7708 46.134 16.9994 46.3548L20.7784 50.0702V33.3914C20.7784 32.7672 21.492 32.3887 22.0377 32.7236L34.8291 40.5736V26.5652C34.8291 26.2531 35.0912 26 35.4146 26Z" fill="white"/>
</svg>
