<svg width="160" height="37" viewBox="0 0 160 37" fill="none" xmlns="http://www.w3.org/2000/svg">
<path d="M33.7431 17.2602C31.4096 15.6526 28.4217 16.306 26.8479 18.7254C25.5423 20.747 23.5631 20.9961 22.8001 20.9961C20.3006 20.9961 18.596 19.2171 18.0884 17.3734H18.0852C18.0788 17.354 18.0756 17.3378 18.0725 17.3216C18.0661 17.299 18.0629 17.2796 18.0565 17.2602C17.8586 16.4903 17.8075 16.1248 17.8075 15.3065C17.8075 10.9075 22.267 6.00716 28.6834 6.00716C35.2562 6.00716 39.0199 11.0757 39.9903 13.8962C39.9712 13.8445 39.9552 13.7959 39.9392 13.7474C38.075 8.23576 32.9163 4.27344 26.8383 4.27344C19.1993 4.27344 13 10.5485 13 18.2984C13 25.2236 17.9288 31.1461 24.7666 31.1461C30.2189 31.1461 33.8836 28.0506 35.5595 23.781C36.4884 21.4424 35.834 18.6995 33.7431 17.2602Z" fill="#707070"/>
<path d="M40.0776 14.1686C39.2668 11.4192 35.4808 6.00781 28.6845 6.00781C22.2681 6.00781 17.8086 10.9082 17.8086 15.3071C17.8086 16.1222 17.8597 16.4878 18.0576 17.2608C17.9746 16.9244 17.9331 16.588 17.9331 16.2613C17.9331 11.678 22.4629 8.50165 27.1171 8.50165C33.4218 8.50165 38.5294 13.6802 38.5294 20.0652C38.5294 25.069 35.6851 29.4033 31.5575 31.4864V31.4896C36.8822 29.5359 40.6841 24.3671 40.6841 18.2991C40.6841 16.8597 40.4958 15.5918 40.0776 14.1686Z" fill="#B3B3B3"/>
<path d="M52.7499 19.5702V18.7325H47.2656V17.2349H59.9835V18.7325H54.4833V19.5702C54.6429 19.6187 54.8184 19.6672 54.9749 19.7319C55.3867 19.9098 55.7538 20.133 56.073 20.4241C56.3922 20.7314 56.6444 21.0678 56.8359 21.4559C57.0115 21.8603 57.1073 22.2775 57.1073 22.7304C57.1073 23.18 57.0115 23.6004 56.8359 23.9854C56.6444 24.3864 56.389 24.7422 56.073 25.0301C55.7538 25.3212 55.3898 25.5606 54.9749 25.7223C54.5471 25.9002 54.1002 25.9811 53.6245 25.9811C53.1489 25.9811 52.686 25.9002 52.2742 25.7223C51.8465 25.5606 51.4794 25.318 51.1761 25.0301C50.8601 24.7422 50.6047 24.3864 50.4291 23.9854C50.2376 23.5972 50.1418 23.18 50.1418 22.7304C50.1418 22.2775 50.2376 21.8603 50.4291 21.4559C50.6047 21.0678 50.8601 20.7314 51.1761 20.4241C51.4794 20.133 51.8433 19.9098 52.2742 19.7319C52.4338 19.6672 52.5935 19.6187 52.7499 19.5702ZM59.096 12.9814H54.4226L59.3514 15.6402L58.5725 16.9276L53.6277 14.2526L48.683 16.9276L47.9041 15.6402L52.8329 12.9814H48.1595V11.5H59.096V12.9814V12.9814ZM55.4058 22.7271C55.4058 22.2452 55.2302 21.8247 54.8823 21.4721C54.5152 21.1325 54.1034 20.9546 53.6245 20.9546C53.1489 20.9546 52.7339 21.1325 52.386 21.4721C52.0189 21.8247 51.8465 22.2452 51.8465 22.7271C51.8465 23.2091 52.022 23.6296 52.386 23.9659C52.7371 24.3185 53.1489 24.4964 53.6245 24.4964C54.1002 24.4964 54.5152 24.3185 54.8823 23.9659C55.2302 23.6296 55.4058 23.2123 55.4058 22.7271Z" fill="#707070"/>
<path d="M66.9335 22.7745V18.7475H68.6669V22.7745H74.1671V24.3207H61.4492V22.7745H66.9335ZM67.8081 14.2224L63.1986 20.0705L61.8642 19.0548L67.8113 11.5312L73.7585 19.0548L72.4241 20.0705L67.8081 14.2224Z" fill="#707070"/>
<path d="M82.1832 19.0703H76.1914V11.6276H77.829V13.6427H80.5807V11.6276H82.1864V19.0703H82.1832ZM76.7788 25.0768V20.39H78.4962V23.5307H88.3698V25.0768H76.7788ZM80.5775 15.1403H77.8258V17.5727H80.5775V15.1403ZM83.9485 11.3365H85.5702V20.2283H83.9485V15.9457H82.5024V14.4158H83.9485V11.3365ZM86.5853 11.3203H88.2389V20.3091H86.5853V11.3203Z" fill="#707070"/>
<path d="M93.6154 12.8023V11.3047H95.4605V12.8023H98.7677V14.2999H95.2562L99.055 22.9167L97.6248 23.5604L94.5412 16.4412L91.4894 23.6736L90.0273 23.0138L93.8261 14.2999H90.1678V12.8023H93.6154V12.8023ZM100.868 18.4433H98.1963V16.8972H100.868V11.3209H102.586V25.3523H100.868V18.4433Z" fill="#707070"/>
<path d="M111.581 23.5146H109.863V13.7527H104.555V12.1904H111.581V23.5146ZM115.044 11.3203H116.762V25.3518H115.044V11.3203Z" fill="#707070"/>
<path d="M126.908 14.9948C126.908 15.4929 126.813 15.9619 126.621 16.3791C126.414 16.8158 126.146 17.1845 125.81 17.508C125.478 17.8282 125.095 18.087 124.648 18.2649C124.189 18.459 123.71 18.556 123.202 18.556C122.692 18.556 122.216 18.459 121.772 18.2649C121.312 18.087 120.913 17.8282 120.594 17.508C120.243 17.1845 119.991 16.8158 119.799 16.3791C119.592 15.9619 119.496 15.4929 119.496 14.9948C119.496 14.5096 119.592 14.0438 119.799 13.5942C119.991 13.1769 120.243 12.7888 120.594 12.4653C120.913 12.1419 121.309 11.8864 121.772 11.6923C122.219 11.5144 122.695 11.4173 123.202 11.4173C123.71 11.4173 124.189 11.5144 124.648 11.6923C125.092 11.8864 125.475 12.1419 125.81 12.4653C126.146 12.7888 126.414 13.1737 126.621 13.5942C126.816 14.0438 126.908 14.5096 126.908 14.9948ZM120.422 19.1512H122.107V20.4709H129.58V19.1512H131.266V25.0801H120.425V19.1512H120.422ZM125.255 14.9948C125.255 14.4319 125.047 13.9468 124.668 13.5295C124.256 13.1252 123.777 12.9182 123.221 12.9182C122.65 12.9182 122.171 13.1284 121.775 13.5295C121.364 13.95 121.172 14.4319 121.172 14.9948C121.172 15.5737 121.364 16.0589 121.775 16.4438C122.174 16.8643 122.65 17.0552 123.221 17.0552C123.777 17.0552 124.256 16.8611 124.668 16.4438C125.051 16.0557 125.255 15.5737 125.255 14.9948ZM129.58 21.8876H122.107V23.6278H129.58V21.8876ZM127.355 14.2379H129.548V11.3203H131.266V18.7468H129.548V15.7678H127.355V14.2379Z" fill="#707070"/>
<path d="M133.637 20.1955H146.355V21.7416H140.854V25.3481H139.121V21.7449H133.637V20.1955V20.1955ZM136.353 13.335H143.635V11.5625H145.336V18.313H134.652V11.5625H136.353V13.335V13.335ZM143.635 14.8488H136.353V16.7831H143.635V14.8488Z" fill="#707070"/>
</svg>
